<svg xmlns="http://www.w3.org/2000/svg" xmlns:xlink="http://www.w3.org/1999/xlink" viewBox="0 0 167.69 178.91"><defs><style>.cls-1,.cls-2,.cls-7{fill:none;}.cls-2{stroke:#677294;stroke-width:1.75px;}.cls-3{fill:#dedbc9;}.cls-4{fill:#2e3192;}.cls-10,.cls-11,.cls-12,.cls-15,.cls-16,.cls-5,.cls-7,.cls-8,.cls-9{stroke:#000;stroke-miterlimit:10;}.cls-16,.cls-5{stroke-width:0.25px;}.cls-5{fill:url(#Rutor_japanska);}.cls-6{fill:#1b1464;}.cls-10,.cls-11,.cls-12,.cls-15,.cls-7,.cls-8,.cls-9{stroke-width:0.5px;}.cls-8{fill:#534741;}.cls-9{fill:#736357;}.cls-10{fill:#754c24;}.cls-11{fill:#603813;}.cls-12{fill:#333;}.cls-13{fill:#e6e6e6;}.cls-14{fill:#42210b;}.cls-15{fill:#a67c52;}.cls-16{fill:#fff;}.cls-17{font-size:18.18px;font-family:MonotypeCorsiva, Monotype Corsiva;}</style><pattern id="Rutor_japanska" data-name="Rutor, japanska" width="46.68" height="46.68" patternTransform="matrix(0, -1.5, -1.5, 0, -21.79, 143.03)" patternUnits="userSpaceOnUse" viewBox="0 0 46.68 46.68"><rect class="cls-1" width="46.68" height="46.68"/><polyline class="cls-2" points="25.16 46.67 25.16 68.19 46.71 68.19"/><polyline class="cls-2" points="28.9 46.66 28.9 64.45 46.67 64.45"/><polyline class="cls-2" points="32.64 46.67 32.64 60.71 46.67 60.71"/><polyline class="cls-2" points="-21.52 46.67 -21.52 68.19 0.04 68.19"/><rect class="cls-3" width="46.68" height="46.68"/><polyline class="cls-2" points="21.52 46.69 21.52 25.16 0.01 25.16"/><polyline class="cls-2" points="46.69 25.16 25.16 25.16 25.16 46.69"/><polyline class="cls-2" points="0.01 21.52 21.52 21.52 21.52 0.01"/><polyline class="cls-2" points="25.16 -0.01 25.16 21.52 46.71 21.52"/><polyline class="cls-2" points="17.77 46.69 17.77 28.9 0.01 28.9"/><polyline class="cls-2" points="46.69 28.9 28.9 28.9 28.9 46.71"/><polyline class="cls-2" points="0.01 17.77 17.77 17.77 17.77 0.01"/><polyline class="cls-2" points="28.9 -0.02 28.9 17.77 46.67 17.77"/><polyline class="cls-2" points="14.03 46.71 14.03 32.65 0.01 32.65"/><polyline class="cls-2" points="46.69 32.65 32.64 32.65 32.64 46.69"/><polyline class="cls-2" points="0.01 14.03 14.03 14.03 14.03 0.01"/><polyline class="cls-2" points="32.64 -0.01 32.64 14.03 46.67 14.03"/><rect class="cls-2" x="1.82" y="1.82" width="43.03" height="43.03"/><rect class="cls-2" x="5.56" y="5.56" width="35.55" height="35.55"/><rect class="cls-2" x="9.3" y="9.31" width="28.07" height="28.07"/><polyline class="cls-2" points="0.01 25.16 -21.52 25.16 -21.52 46.69"/><polyline class="cls-2" points="-21.52 -0.01 -21.52 21.52 0.04 21.52"/><polyline class="cls-2" points="0.01 28.9 -17.78 28.9 -17.78 46.71"/><polyline class="cls-2" points="0.01 32.65 -14.04 32.65 -14.04 46.69"/><polyline class="cls-2" points="21.52 0.01 21.52 -21.52 0.01 -21.52"/><polyline class="cls-2" points="46.69 -21.52 25.16 -21.52 25.16 0.01"/><polyline class="cls-2" points="17.77 0.01 17.77 -17.77 0.01 -17.77"/><polyline class="cls-2" points="46.69 -17.77 28.9 -17.77 28.9 0.03"/><polyline class="cls-2" points="14.03 0.03 14.03 -14.03 0.01 -14.03"/><polyline class="cls-2" points="46.69 -14.03 32.64 -14.03 32.64 0.01"/><polyline class="cls-2" points="0.01 -21.52 -21.52 -21.52 -21.52 0.01"/><polyline class="cls-2" points="0.01 -17.77 -17.78 -17.77 -17.78 0.03"/><polyline class="cls-2" points="0.01 -14.03 -14.04 -14.03 -14.04 0.01"/></pattern></defs><title>fiket</title><g id="Lager_2" data-name="Lager 2"><g id="Lager_1-2" data-name="Lager 1"><polygon class="cls-4" points="130.26 17.97 166.19 17.97 166.19 154.21 130.26 154.21 130.26 178.17 0 178.17 0 0 130.26 0 130.26 17.97"/><polygon class="cls-5" points="119.73 29.32 149.93 29.32 149.93 143.81 119.73 143.81 119.73 163.94 10.27 163.94 10.27 14.22 119.73 14.22 119.73 29.32"/><polygon class="cls-6" points="149.42 143.71 119.78 143.73 130.95 154.21 167.69 154.21 149.42 143.71"/><polygon class="cls-6" points="119.78 29.94 119.78 14.11 130.26 0 130.26 17.25 119.78 29.94"/><polygon class="cls-6" points="119.15 163.85 129.51 178.19 0.75 178.91 11.23 163.94 119.15 163.85"/><line class="cls-7" x1="166.19" y1="17.97" x2="148.97" y2="30.69"/><line class="cls-7" x1="166.94" y1="153.46" x2="148.97" y2="142.98"/><line class="cls-7" x1="129.51" y1="0.75" x2="119.03" y2="14.22"/><line class="cls-7" x1="131" y1="17.22" x2="120.52" y2="29.2"/><line class="cls-7" x1="120.52" y1="144.48" x2="131" y2="154.96"/><line class="cls-7" x1="119.03" y1="162.45" x2="129.51" y2="177.42"/><line class="cls-7" x1="11.23" y1="14.22" x2="0.75" y2="0.75"/><line class="cls-7" x1="11.23" y1="162.45" x2="0.75" y2="177.42"/><ellipse class="cls-8" cx="42.01" cy="43.9" rx="21" ry="19"/><ellipse class="cls-9" cx="40.51" cy="42.9" rx="20" ry="17.78"/><ellipse class="cls-8" cx="102.01" cy="54.9" rx="21" ry="19"/><ellipse class="cls-9" cx="100.51" cy="53.9" rx="20" ry="17.78"/><ellipse class="cls-8" cx="59.01" cy="98.9" rx="21" ry="19"/><ellipse class="cls-9" cx="57.51" cy="97.9" rx="20" ry="17.78"/><rect class="cls-10" x="121.01" y="84.9" width="29" height="59"/><rect class="cls-11" x="119.01" y="84.9" width="2" height="59"/><rect class="cls-12" x="137.01" y="91.9" width="12" height="8" rx="4"/><circle class="cls-13" cx="135.01" cy="104.9" r="2"/><circle class="cls-13" cx="138.01" cy="110.9" r="2"/><circle class="cls-13" cx="132.01" cy="108.9" r="2"/><circle class="cls-14" cx="135.01" cy="104.9" r="1.5"/><circle class="cls-14" cx="132.01" cy="108.9" r="1.5"/><circle class="cls-14" cx="138.01" cy="110.9" r="1.5"/><rect class="cls-13" x="136.01" y="102.9" width="1" height="1" rx="0.5"/><rect class="cls-13" x="129.37" y="108.08" width="1" height="1" rx="0.5"/><rect class="cls-13" x="136.01" y="108.9" width="1" height="1" rx="0.5"/><rect class="cls-15" x="44.01" y="19.9" width="13" height="6" rx="3" transform="translate(11.42 -16.44) rotate(20.79)"/><rect class="cls-15" x="58.01" y="32.9" width="13" height="6" rx="3" transform="translate(72.84 -37.46) rotate(67.38)"/><rect class="cls-15" x="18.01" y="23.9" width="13" height="6" rx="3" transform="translate(-10.17 15.86) rotate(-30)"/><rect class="cls-15" x="25.01" y="60.9" width="13" height="6" rx="3" transform="translate(24.74 -7.02) rotate(20.79)"/><path class="cls-15" d="M123,53.33l-1.83-6.78a3,3,0,0,1,2.29-3.65h0a3.2,3.2,0,0,1,3.86,2.17l1.83,6.78a3,3,0,0,1-2.29,3.65h0A3.2,3.2,0,0,1,123,53.33Z"/><path class="cls-15" d="M110.69,72.05,117,68.8a3.3,3.3,0,0,1,4.28,1.32h0a2.91,2.91,0,0,1-1.15,4.09l-6.34,3.25a3.3,3.3,0,0,1-4.28-1.32h0A2.91,2.91,0,0,1,110.69,72.05Z"/><path class="cls-15" d="M102.72,35.85l-7.29.83A2.94,2.94,0,0,1,92.09,34h0A3.26,3.26,0,0,1,95,30.63l7.29-.83a2.94,2.94,0,0,1,3.34,2.67h0A3.28,3.28,0,0,1,102.72,35.85Z"/><path class="cls-15" d="M75,61.39l-1.84-6.78A3,3,0,0,1,75.4,51h0a3.2,3.2,0,0,1,3.86,2.16L81.1,59.9a3,3,0,0,1-2.29,3.65h0A3.2,3.2,0,0,1,75,61.39Z"/><rect class="cls-15" x="27.7" y="96.82" width="13" height="6" rx="3" transform="translate(-62.94 141.03) rotate(-94.08)"/><rect class="cls-15" x="35.6" y="78.65" width="13" height="6" rx="3" transform="translate(-37.43 35.67) rotate(-32.69)"/><rect class="cls-15" x="45.26" y="116.72" width="13" height="6" rx="3" transform="translate(41.04 -10.27) rotate(18.67)"/><rect class="cls-15" x="75.88" y="96.81" width="13" height="6" rx="3" transform="translate(187.9 24.87) rotate(94.15)"/><rect class="cls-16" x="29.01" y="69.86" width="100" height="31.38" rx="10.35"/><text class="cls-17" transform="translate(34.59 91.31)"><tspan xml:space="preserve">      Fiket</tspan></text></g></g></svg>