<svg xmlns="http://www.w3.org/2000/svg" xmlns:xlink="http://www.w3.org/1999/xlink" viewBox="0 0 635.58 550.64"><defs><style>.cls-1,.cls-3{fill:none;}.cls-11,.cls-2,.cls-7{fill:#1d1d1b;}.cls-2,.cls-3{stroke:#877026;}.cls-2,.cls-3,.cls-4,.cls-5,.cls-7,.cls-8{stroke-miterlimit:10;}.cls-2,.cls-3,.cls-7,.cls-8{stroke-width:0.25px;}.cls-4{fill:#333;}.cls-4,.cls-5{stroke:#000;stroke-width:0.5px;}.cls-5{fill:#fdffd2;}.cls-6{font-size:23px;}.cls-10,.cls-6{font-family:MonotypeCorsiva, Monotype Corsiva;}.cls-7,.cls-8{stroke:#d9d9d9;}.cls-8{fill:url(#Nytt_mönster_4);}.cls-9{fill:#ffdc2b;}.cls-10,.cls-18,.cls-21{font-size:12px;}.cls-12{fill:#b2b2b2;}.cls-13{fill:#fff;}.cls-14{fill:#63350d;}.cls-15{fill:#fffbde;}.cls-16{fill:#626161;}.cls-17{fill:#997734;}.cls-18{font-family:TimesNewRomanPSMT, Times New Roman;}.cls-19{font-size:14px;}.cls-19,.cls-21{font-family:TimesNewRomanPS-BoldMT, Times New Roman;font-weight:700;}.cls-20{font-size:10px;font-family:LucidaCalligraphy-Italic, Lucida Calligraphy;font-style:italic;}</style><pattern id="Nytt_mönster_4" data-name="Nytt mönster 4" width="23.03" height="15.35" patternTransform="matrix(0.38, -0.1, 0.09, 0.45, -6.66, -1.54)" patternUnits="userSpaceOnUse" viewBox="0 0 23.03 15.35"><rect class="cls-1" width="23.03" height="15.35"/><polygon class="cls-2" points="30.53 15.35 23.03 22.85 15.53 15.35 23.03 7.85 30.53 15.35"/><polygon class="cls-3" points="30.53 15.35 23.03 22.85 15.53 15.35 23.03 7.85 30.53 15.35"/><polygon class="cls-2" points="20.54 20.37 17.11 14.04 17.53 13.68 21.11 19.28 21.4 19.03 18.71 12.6 19.07 12.2 21.69 18.68 22.01 18.36 20.48 10.74 20.93 10.36 22.39 18.03 22.81 17.54 22.81 8.36 23.1 8.04 23.34 8.46 23.26 17.62 23.78 18.14 25.23 10.37 25.73 10.72 24.11 18.45 24.43 18.73 27.08 12.19 27.45 12.56 24.79 19.08 25 19.37 28.59 13.72 28.95 14.12 25.65 20.37 23.03 22.85 20.54 20.37"/><polygon class="cls-3" points="20.54 20.37 17.11 14.04 17.53 13.68 21.11 19.28 21.4 19.03 18.71 12.6 19.07 12.2 21.69 18.68 22.01 18.36 20.48 10.74 20.93 10.36 22.39 18.03 22.81 17.54 22.81 8.36 23.1 8.04 23.34 8.46 23.26 17.62 23.78 18.14 25.23 10.37 25.73 10.72 24.11 18.45 24.43 18.73 27.08 12.19 27.45 12.56 24.79 19.08 25 19.37 28.59 13.72 28.95 14.12 25.65 20.37 23.03 22.85 20.54 20.37"/><polygon class="cls-2" points="7.5 15.35 0 22.85 -7.5 15.35 0 7.85 7.5 15.35"/><polygon class="cls-3" points="7.5 15.35 0 22.85 -7.5 15.35 0 7.85 7.5 15.35"/><polygon class="cls-2" points="-2.49 20.37 -5.92 14.04 -5.5 13.68 -1.92 19.28 -1.63 19.03 -4.32 12.6 -3.96 12.2 -1.34 18.68 -1.02 18.36 -2.55 10.74 -2.1 10.36 -0.64 18.03 -0.22 17.54 -0.22 8.36 0.07 8.04 0.31 8.46 0.23 17.62 0.75 18.14 2.2 10.37 2.7 10.72 1.08 18.45 1.4 18.73 4.05 12.19 4.42 12.56 1.75 19.08 1.97 19.37 5.56 13.72 5.92 14.12 2.62 20.37 0 22.85 -2.49 20.37"/><polygon class="cls-3" points="-2.49 20.37 -5.92 14.04 -5.5 13.68 -1.92 19.28 -1.63 19.03 -4.32 12.6 -3.96 12.2 -1.34 18.68 -1.02 18.36 -2.55 10.74 -2.1 10.36 -0.64 18.03 -0.22 17.54 -0.22 8.36 0.07 8.04 0.31 8.46 0.23 17.62 0.75 18.14 2.2 10.37 2.7 10.72 1.08 18.45 1.4 18.73 4.05 12.19 4.42 12.56 1.75 19.08 1.97 19.37 5.56 13.72 5.92 14.12 2.62 20.37 0 22.85 -2.49 20.37"/><polygon class="cls-2" points="30.53 0 23.03 7.5 15.53 0 23.03 -7.5 30.53 0"/><polygon class="cls-3" points="30.53 0 23.03 7.5 15.53 0 23.03 -7.5 30.53 0"/><polygon class="cls-2" points="20.54 5.01 17.11 -1.32 17.53 -1.68 21.11 3.92 21.4 3.67 18.71 -2.75 19.07 -3.15 21.69 3.33 22.01 3.01 20.48 -4.62 20.93 -4.99 22.39 2.67 22.81 2.19 22.81 -7 23.1 -7.31 23.34 -6.89 23.26 2.26 23.78 2.79 25.23 -4.98 25.73 -4.63 24.11 3.1 24.43 3.38 27.08 -3.16 27.45 -2.79 24.79 3.72 25 4.01 28.59 -1.64 28.95 -1.23 25.65 5.01 23.03 7.5 20.54 5.01"/><polygon class="cls-3" points="20.54 5.01 17.11 -1.32 17.53 -1.68 21.11 3.92 21.4 3.67 18.71 -2.75 19.07 -3.15 21.69 3.33 22.01 3.01 20.48 -4.62 20.93 -4.99 22.39 2.67 22.81 2.19 22.81 -7 23.1 -7.31 23.34 -6.89 23.26 2.26 23.78 2.79 25.23 -4.98 25.73 -4.63 24.11 3.1 24.43 3.38 27.08 -3.16 27.45 -2.79 24.79 3.72 25 4.01 28.59 -1.64 28.95 -1.23 25.65 5.01 23.03 7.5 20.54 5.01"/><polygon class="cls-2" points="19.02 7.68 11.52 15.18 4.01 7.68 11.52 0.18 19.02 7.68"/><polygon class="cls-3" points="19.02 7.68 11.52 15.18 4.01 7.68 11.52 0.18 19.02 7.68"/><polygon class="cls-2" points="9.03 12.69 5.6 6.36 6.01 6 9.6 11.6 9.89 11.35 7.2 4.92 7.55 4.53 10.18 11.01 10.49 10.69 8.96 3.06 9.41 2.69 10.88 10.35 11.29 9.87 11.29 0.68 11.58 0.36 11.82 0.78 11.75 9.94 12.27 10.46 13.71 2.7 14.21 3.04 12.6 10.77 12.91 11.05 15.56 4.52 15.94 4.88 13.27 11.4 13.48 11.69 17.08 6.04 17.43 6.45 14.13 12.69 11.52 15.18 9.03 12.69"/><polygon class="cls-3" points="9.03 12.69 5.6 6.36 6.01 6 9.6 11.6 9.89 11.35 7.2 4.92 7.55 4.53 10.18 11.01 10.49 10.69 8.96 3.06 9.41 2.69 10.88 10.35 11.29 9.87 11.29 0.68 11.58 0.36 11.82 0.78 11.75 9.94 12.27 10.46 13.71 2.7 14.21 3.04 12.6 10.77 12.91 11.05 15.56 4.52 15.94 4.88 13.27 11.4 13.48 11.69 17.08 6.04 17.43 6.45 14.13 12.69 11.52 15.18 9.03 12.69"/><polygon class="cls-2" points="7.5 0 0 7.5 -7.5 0 0 -7.5 7.5 0"/><polygon class="cls-3" points="7.5 0 0 7.5 -7.5 0 0 -7.5 7.5 0"/><polygon class="cls-2" points="-2.49 5.01 -5.92 -1.32 -5.5 -1.68 -1.92 3.92 -1.63 3.67 -4.32 -2.75 -3.96 -3.15 -1.34 3.33 -1.02 3.01 -2.55 -4.62 -2.1 -4.99 -0.64 2.67 -0.22 2.19 -0.22 -7 0.07 -7.31 0.31 -6.89 0.23 2.26 0.75 2.79 2.2 -4.98 2.7 -4.63 1.08 3.1 1.4 3.38 4.05 -3.16 4.42 -2.79 1.75 3.72 1.97 4.01 5.56 -1.64 5.92 -1.23 2.62 5.01 0 7.5 -2.49 5.01"/><polygon class="cls-3" points="-2.49 5.01 -5.92 -1.32 -5.5 -1.68 -1.92 3.92 -1.63 3.67 -4.32 -2.75 -3.96 -3.15 -1.34 3.33 -1.02 3.01 -2.55 -4.62 -2.1 -4.99 -0.64 2.67 -0.22 2.19 -0.22 -7 0.07 -7.31 0.31 -6.89 0.23 2.26 0.75 2.79 2.2 -4.98 2.7 -4.63 1.08 3.1 1.4 3.38 4.05 -3.16 4.42 -2.79 1.75 3.72 1.97 4.01 5.56 -1.64 5.92 -1.23 2.62 5.01 0 7.5 -2.49 5.01"/></pattern></defs><title>historia_2</title><g id="Lager_2" data-name="Lager 2"><g id="Lager_1-2" data-name="Lager 1"><polygon class="cls-4" points="296.29 537.38 0.28 550.38 52.28 132.38 307.45 152.48 574.54 134.67 635.28 538.38 346.29 537.38 296.29 537.38"/><polygon class="cls-5" points="313.64 524.09 12.79 520.88 64.78 132.88 574.54 134.67 633.78 510.88 346.79 525.88 313.64 524.09"/><path class="cls-4" d="M295.78,537.88a157.25,157.25,0,0,0,50,0,17,17,0,0,0-6-11,18.8,18.8,0,0,0-13-4,31.41,31.41,0,0,0-31,15Z"/><polygon class="cls-5" points="86.03 93.64 71.78 94.88 20.79 505.88 304.79 518.88 633.78 504.88 568.78 88.88 323.7 204.35 86.03 93.64"/><polygon class="cls-5" points="105.78 46.88 91.78 49.88 43.78 479.88 306.79 515.88 327.57 503.96 376.35 512.99 633.78 492.88 563.78 80.88 319.79 157.88 105.78 46.88"/><polygon class="cls-5" points="145.57 47.02 109.78 30.88 68.78 462.88 306.99 516.19 326.79 522.88 376.35 512.99 617.78 471.88 544.78 39.88 320.79 142.88 145.57 47.02"/><path class="cls-5" d="M320.28,130.38l7,391-226-68,49-453a530.21,530.21,0,0,1,110,71A527.91,527.91,0,0,1,320.28,130.38Z"/><path class="cls-5" d="M603.28,463.38l-276,58-7-391a774.7,774.7,0,0,1,211-92Z"/><text class="cls-6" transform="translate(171.43 67.84) rotate(27.15)">H</text><text class="cls-6" transform="matrix(0.88, 0.48, -0.48, 0.88, 185.26, 74.97)">o</text><text class="cls-6" transform="translate(193.31 79.32) rotate(29.39)">u</text><text class="cls-6" transform="translate(202.45 84.48) rotate(30.46)">s</text><text class="cls-6" transform="matrix(0.85, 0.52, -0.52, 0.85, 208.73, 88.17)">e</text><text class="cls-6" transform="translate(215.31 92.24) rotate(32.93)"> </text><text class="cls-6" transform="matrix(0.84, 0.54, -0.54, 0.84, 219.53, 94.97)">o</text><text class="cls-6" transform="matrix(0.84, 0.55, -0.55, 0.84, 227.25, 99.99)">f</text><text class="cls-6" transform="translate(233.41 104.01) rotate(33.32)"> </text><text class="cls-6" transform="translate(237.6 106.74) rotate(33.77)">m</text><text class="cls-6" transform="translate(249.42 114.66) rotate(34.56)">y</text><text class="cls-6" transform="matrix(0.82, 0.58, -0.58, 0.82, 256.95, 119.85)">s</text><text class="cls-6" transform="matrix(0.81, 0.59, -0.59, 0.81, 262.91, 124.06)">t</text><text class="cls-6" transform="matrix(0.8, 0.6, -0.6, 0.8, 268.82, 128.37)">e</text><text class="cls-6" transform="matrix(0.78, 0.62, -0.62, 0.78, 274.97, 133.02)">r</text><text class="cls-6" transform="translate(280.3 137.22) rotate(40.2)">y</text><polygon class="cls-7" points="516.28 177.71 441.27 195.18 423.46 105.05 492.13 77.38 516.28 177.71"/><polygon class="cls-8" points="516.28 177.71 441.27 195.18 423.46 105.05 492.13 77.38 516.28 177.71"/><path class="cls-9" d="M471.38,173.46l-.87.28c-3.07,1-6.25-1.08-7.11-4.61h0c-.85-3.52.94-7.17,4-8.15l.87-.28c3.07-1,6.25,1.08,7.11,4.6h0C476.24,168.82,474.45,172.48,471.38,173.46Z"/><path class="cls-9" d="M445.29,121.7A26.33,26.33,0,0,0,444,135c.2,1.67.52,3.28,1.71,3.1l9-1.34c1.09-.16,1.81-1.48,1.65-3a10.91,10.91,0,0,1,1.26-6.72,5.45,5.45,0,0,1,4.21-2.76c1.44-.26,3,.66,3.9,2.37a7.12,7.12,0,0,1,.45,5.75c-1.15,2.89-2.19,5.51-3.09,7.82-2.45,6.22-3,7.81-3.34,10.25a25.89,25.89,0,0,0-.09,5.39c.15,1.88,1.51,3.27,2.81,2.86l9.1-2.91,1.35-5.46a20.29,20.29,0,0,1,1-3.06c2.21-6.19,3.9-6.86,5.23-11.1a22.9,22.9,0,0,0,.71-11.7,20.63,20.63,0,0,0-4.11-8.73c-.1-.13-.22-.23-.32-.34-2.66-2.8-4.79-4.24-9.64-5.28a15.89,15.89,0,0,0-11,1.17C449.16,114.09,446.31,119.5,445.29,121.7Z"/><text/><text class="cls-10" transform="translate(460.75 201.13) rotate(-15.45)">V</text><text class="cls-10" transform="matrix(0.97, -0.25, 0.25, 0.97, 468.14, 199.1)">e</text><text class="cls-10" transform="translate(472.04 198.08) rotate(-13.59)">m</text><text class="cls-10" transform="translate(479.25 196.35) rotate(-12.79)"> </text><text class="cls-10" transform="matrix(0.98, -0.21, 0.21, 0.98, 481.8, 195.76)">ä</text><text class="cls-10" transform="translate(486.73 194.7) rotate(-11.49)">r</text><text class="cls-10" transform="translate(490.22 194) rotate(-11)"> </text><text class="cls-10" transform="matrix(0.98, -0.18, 0.18, 0.98, 492.78, 193.49)">d</text><text class="cls-10" transform="translate(497.96 192.55) rotate(-9.62)">e</text><text class="cls-10" transform="translate(501.96 191.87) rotate(-8.99)">t</text><text class="cls-10" transform="matrix(0.99, -0.14, 0.14, 0.99, 505.72, 191.27)">?</text><path class="cls-11" d="M265.59,457.49l9.23,34.87s.91,3.21,1.56,4.83c.53,1.31.88,1.6.46-1.65-.53-2.43-1-4.8-1.55-7.16-2.66-10.46-6.29-27.71-6.29-27.71a10.46,10.46,0,0,1-.08-2.63c0-.35.09-.7.07-1.05"/><path class="cls-12" d="M267.43,458.37c2.44-.52,2.81-3,4.55-4.18a5.65,5.65,0,0,0,1.58-2.91,12.32,12.32,0,0,1,3.32-5.53c.05-.05.06-.14.13-.29l-1.13,0c.63-2.67,1.65-4,4.42-5.8L278,439.2a13.18,13.18,0,0,1,3.36-4.71c-1.13-.16-1.39,0-3.18,2.25-.21-1.4,1.52-4.06,3.94-5.95l-2.61.08c.47-.54.82-1,1.16-1.36a3.48,3.48,0,0,0-3.88,1.15c-.88,1.15-1.46,2.53-2.38,3.86a3.46,3.46,0,0,1-.18-.87c.14-2.23.3-4.46.46-6.69,0-.31,0-.62.05-1a10.72,10.72,0,0,0-3.81,5.09c-.37-.58-.7-1.12-1.06-1.64s-.47-1.2-1.32-1.14c.2.87.81,1.67.53,2.75l-3.19-2.16c.51,1.23,1,2.31,1.4,3.44a3.48,3.48,0,0,1-.41,3.43l-1-3.05-.29.07c0,.48-.05,1-.07,1.44-.91-1.35-.71-3-1.24-4.51-.86.78-.85,1.89-1.42,2.82-.15-1.14-.29-2.28-.44-3.43-.87,1.92-.93,4-1.35,6-.75-2-.54-4.13-.73-6.29L258.83,431l-3.17-2.89c.91,1.83,2.59,3.23,2.66,5.58l-1.89-2.47-.22.13a8.65,8.65,0,0,1,.32,3.89l-1.32-1.57-.15.05.45,3.11-.14.06-2.66-5.75h-.3c-.2,2.31-.4,4.62-.59,6.86-2.27-1.43-4.71-2.51-7.73-1.78,1.56.76,3.46.93,4,3-1.32-.09-2.58-.14-3.83-.26a4.33,4.33,0,0,0-4.31,1.68c1.54-.05,3-1.56,4.51-.12l-2.31,1.17c1.49.42,2.88.87,4.3,1.21a6.5,6.5,0,0,1,3.8,2.81L248,446v.23c.84.25,1.71.43,2.52.76a9.37,9.37,0,0,1,1.93,1.13c.45.33.44.74-.09,1.1a14.26,14.26,0,0,0-1.16,1c.15.09.21.14.24.13a3.12,3.12,0,0,1,3.78,1.36c1.16,1.55,2.59,2.88,3.88,4.33a4.39,4.39,0,0,0,2.95,1.48,3.94,3.94,0,0,0,1,.08s.66-.18,2.15.78,2.3,0,2.3,0"/><path class="cls-13" d="M239.91,440.78c.29-.78,1.19-1.13,1.92-1.38a7.37,7.37,0,0,1,2.81-.52,26.47,26.47,0,0,0,3.87.42h0a2,2,0,0,0-.69-1.14,10.14,10.14,0,0,0-.91-.71c-.37-.22-.81-.31-1.18-.56s-.46-.32-.7-.46l-.33-.16c-.2,0-.21,0-.05-.07a3.07,3.07,0,0,1,1-.13,7,7,0,0,1,1.29.08,9.8,9.8,0,0,1,1.6.38,9.62,9.62,0,0,1,3.06,1.75s.41,0,.41,0c.07-1.2.13-2.4.21-3.6a8,8,0,0,1,.82-3.44h-.42a27.28,27.28,0,0,0,2.59,6.33c0,.06.39-.06.42,0a27,27,0,0,1-2.59-6.33,2,2,0,0,0-.42,0,8,8,0,0,0-.82,3.44c-.08,1.2-.14,2.4-.2,3.61H252a9.29,9.29,0,0,0-5.57-2.21c-.36,0-.73,0-1.09,0a2.9,2.9,0,0,0-1.11.14c-.18.11,0,0,.13.1l.25.13c.21.12.41.26.61.4a6.94,6.94,0,0,0,1.13.55,6.51,6.51,0,0,1,.81.6c.29.21.75.56.83.94.12.58-.84.2-1.17.17a15.08,15.08,0,0,0-2.92-.24,10.64,10.64,0,0,0-2.5.55,2.81,2.81,0,0,0-1.92,1.38c0-.05.4,0,.42,0"/><path class="cls-13" d="M265.65,428.85a.62.62,0,0,0,.2.65,8.46,8.46,0,0,1,.54.68,5.15,5.15,0,0,1,.64,1.58,7.43,7.43,0,0,1-.27,3.77h.41c-.42-.95-.82-1.91-1.19-2.88a2,2,0,0,0-.42,0,4.25,4.25,0,0,0-.23,1.41h.42c-.4-.82-.86-1.64-1.19-2.5a4,4,0,0,1-.13-2.45s-.41,0-.42,0a4,4,0,0,0,.13,2.44c.33.86.79,1.68,1.19,2.5,0,0,.42,0,.42,0a4.21,4.21,0,0,1,.23-1.41h-.42c.38,1,.77,1.93,1.2,2.88a1.87,1.87,0,0,0,.41,0,7.34,7.34,0,0,0,.28-3.77,5,5,0,0,0-.62-1.54,5.76,5.76,0,0,0-.53-.69c-.17-.19-.34-.42-.23-.68,0,0-.4-.05-.42,0"/><path class="cls-13" d="M273.16,438.75c1.3-4,3.16-9,7.9-9.85-.13,0-.28,0-.42,0-4.74.84-6.59,5.84-7.9,9.85,0,0,.4,0,.42,0"/><path class="cls-13" d="M281.38,434.66c.06-.28-.72-.2-.88-.18a2.34,2.34,0,0,0-1.18.8,8.35,8.35,0,0,0-1.16,1.43,8.68,8.68,0,0,1-1.05,1.51c.07-.07.35.07.42,0,.7-.74,1.09-1.72,1.78-2.48a7.26,7.26,0,0,1,1-1,1.75,1.75,0,0,1,.52-.28c.06,0,.22,0,0,0s0,0,0,0,.13.08.11.16.42,0,.42,0"/><path class="cls-13" d="M258.09,433.41a3.64,3.64,0,0,0-.76-3.1,14.33,14.33,0,0,0-1.1-1.24,1.48,1.48,0,0,1-.53-1.24h-.42a13.6,13.6,0,0,1,3.27,3.24,2,2,0,0,0,.42,0,4.71,4.71,0,0,1,1.74-2.65h-.42l-.09,3.71a17.23,17.23,0,0,0,0,1.76,1.19,1.19,0,0,0,.7,1.15c.12,0,.3-.05.42,0a1.19,1.19,0,0,1-.7-1.15,17.23,17.23,0,0,1,0-1.76l.09-3.72s-.38,0-.42,0a4.66,4.66,0,0,0-1.74,2.64H259a13.42,13.42,0,0,0-3.27-3.24,2.94,2.94,0,0,0-.42,0,1.47,1.47,0,0,0,.54,1.24,16.11,16.11,0,0,1,1.09,1.24,3.66,3.66,0,0,1,.77,3.11s.4,0,.41,0"/><path class="cls-13" d="M261.67,439a13.35,13.35,0,0,1-.08-4.84,21.29,21.29,0,0,1,1.06-5h-.42c.14,1,.21,2.13.41,3.16a.42.42,0,0,0,.65.26c-.1.06-.32-.06-.42,0l-.06,0h.42c-.21-.11-.18-.38-.21-.59l-.12-1c-.09-.64-.17-1.28-.25-1.91a2.94,2.94,0,0,0-.42,0,21.4,21.4,0,0,0-1.06,5,13.34,13.34,0,0,0,.09,4.84s.41,0,.41,0"/><path class="cls-13" d="M259.9,445.46a17.72,17.72,0,0,1-2-2.84,7,7,0,0,1-.53-3.21H257c.6.7,1.18,1.41,1.75,2.14a1.93,1.93,0,0,0,.42,0c.5-1.69-.65-3.44,0-5.1,0,.05-.4-.05-.42,0-.68,1.67.48,3.42,0,5.11h.42c-.57-.72-1.15-1.43-1.75-2.13,0,0-.42,0-.42,0a7,7,0,0,0,.53,3.21,17.28,17.28,0,0,0,2,2.84c0,.07.37-.07.42,0"/><path class="cls-13" d="M267,450.08a40.23,40.23,0,0,0,1.67-7.18s-.39,0-.42,0a3.48,3.48,0,0,0-1.34,2h.42a22.53,22.53,0,0,0,.6-4.1,6.06,6.06,0,0,0-.44-3.45c0-.06-.39.06-.42,0a6,6,0,0,1,.44,3.44,22.76,22.76,0,0,1-.6,4.11s.41,0,.42,0a3.51,3.51,0,0,1,1.34-2h-.42a40.12,40.12,0,0,1-1.67,7.17s.4,0,.42,0"/><path class="cls-13" d="M242.32,441.71c1.58.56,3.19,1.06,4.74,1.71a5.47,5.47,0,0,1,3.06,2.52h.42a2.8,2.8,0,0,0-1.28-.19,4,4,0,0,0-1,.18c-.18.06-.37.13-.55.21l-.36.15.44.12c1.58.44,3.82,1,4.62,2.58,0,.06.39-.05.42,0a4.82,4.82,0,0,0-3-2.07q-.53-.2-1.08-.36l-.54-.16-.33-.08c-.17,0-.15-.06.07-.11a2.39,2.39,0,0,1,2.15-.26c.06,0,.4-.05.42,0a5.45,5.45,0,0,0-3.06-2.51c-1.55-.65-3.16-1.16-4.74-1.71-.12,0-.3,0-.42,0"/><path class="cls-13" d="M251.48,450.33c.68,0,1.32-.24,2-.26h-.36c1.46.25,2.56,2.06,3.31,3.19a11.33,11.33,0,0,0,3.5,3.56c1.23.73,2.52.48,3.77,1a7.67,7.67,0,0,0,2.52,1c2.09.16,3.53-2.11,4.67-3.52a17.12,17.12,0,0,0,2.93-4.49,16.55,16.55,0,0,1,3.14-5.2h0c-2.8-.07-4.5,1.77-5.79,4.12,0-.06.38.06.42,0a10.82,10.82,0,0,1,1.82-2.61c.46-.45,1.76-1.61,2.5-1.43s-.15.83-.4,1.16a13.68,13.68,0,0,0-.89,1.35,21.65,21.65,0,0,0-1.29,2.81,20.57,20.57,0,0,1-3.22,4.78,12.64,12.64,0,0,1-1.46,1.72,4.57,4.57,0,0,1-2.31,1.31h.27c-1.38-.18-2.42-1.15-3.79-1.28a7.49,7.49,0,0,1-5.17-3.17c-1.06-1.32-2-3.5-3.62-4.17-.92-.37-2,.1-2.94.14h.4"/><path class="cls-13" d="M257.18,450.6a15.17,15.17,0,0,1-2.37-3.2h-.42a10.14,10.14,0,0,0,1.47.57,4.58,4.58,0,0,0,1.1.23c.17,0,.54.06.45-.22a1.79,1.79,0,0,0-.42-.53c-.16-.2-.32-.4-.49-.59-1.22-1.45-2.4-3.1-4.13-4-.11-.06-.31.06-.42,0a9.48,9.48,0,0,1,2.82,2.42c.43.49.85,1,1.27,1.5l.66.78c.11.14.51.51.17.61h.42a8.37,8.37,0,0,1-2.48-.8c-.06,0-.39.05-.42,0a15.23,15.23,0,0,0,2.37,3.21c.07.07.35-.07.42,0"/><path class="cls-13" d="M264.19,454.68a12.35,12.35,0,0,1-2.91-1.95c-.21-.19-.42-.39-.62-.6a3.33,3.33,0,0,1-.56-.63c-.14-.27.35-.25.52-.27a3.39,3.39,0,0,1,1,.09H262a7.87,7.87,0,0,1,0-1.94c.06-.45.11-1.26.57-1.49h-.42a16.43,16.43,0,0,1,1.64,4s.41,0,.42,0a16.6,16.6,0,0,0-1.64-4,1.49,1.49,0,0,0-.42,0c-.46.23-.51,1-.57,1.48a8.4,8.4,0,0,0-.05,1.94H262a6.8,6.8,0,0,0-1.49-.11l-.4,0c-.11,0-.41,0-.48.09s.42.64.54.76a12.11,12.11,0,0,0,3.56,2.59c.12.06.31-.06.42,0"/><path class="cls-13" d="M272.72,442.89a14.21,14.21,0,0,1,2-1.47h-.42c0,.35-.11.7-.17,1.05,0,.17-.05.34-.08.51s0,.36-.13.39h.39a.06.06,0,0,1-.06-.05s-.42,0-.42,0,.11.06.17.06a1.22,1.22,0,0,0,.33,0c.09,0,.1-.12.11-.19l.06-.36c.07-.46.15-.93.22-1.39,0,0-.38,0-.42,0a15.06,15.06,0,0,0-2,1.47h.42"/><path class="cls-13" d="M249,442.6a2,2,0,0,1-.93-1h-.42a24.53,24.53,0,0,0,2.85.25h.4a24.38,24.38,0,0,1-2.83-.25,2.93,2.93,0,0,1-.42,0,2,2,0,0,0,.93,1,.74.74,0,0,0,.21,0,.74.74,0,0,1,.21,0"/><path class="cls-13" d="M270.88,430.89s0,0-.05,0h.42c-.27-.12,1.36-2.41,1.53-2.62.69-.86,1.44-1.68,2.17-2.5-.06.07-.35-.07-.42,0-.89,1-1.83,2-2.62,3.1a9.55,9.55,0,0,0-1,1.68c0,.08-.16.28-.09.34s.09,0,.12,0,.32,0,.36,0-.38-.06-.42,0"/><path class="cls-13" d="M269.07,455a14.35,14.35,0,0,0,2.64-3.32c0,.06-.38-.06-.42,0a14.62,14.62,0,0,1-2.64,3.33s.18,0,.21,0,.18,0,.21,0"/><path class="cls-13" d="M270.16,436.32c.29-.57.59-1.13.91-1.68a2.5,2.5,0,0,1,1.07-1.09h-.42a12.21,12.21,0,0,0,.41,1.34c0,.05.41,0,.42,0a12.21,12.21,0,0,1-.41-1.34h-.42a2.5,2.5,0,0,0-1.07,1.09c-.32.55-.62,1.11-.91,1.68H270s.2,0,.21,0"/><path class="cls-14" d="M145,459.73a2.31,2.31,0,0,0,3-1.57c2.64-9.63,12.42-45.48,13.22-51,.93-6.42-3.3-18.6-13.6-15.95-8.25,2.13-11.09,15.32-11.89,20.49a2.31,2.31,0,0,0,1.71,2.59l1.11.29a2.32,2.32,0,0,0,2.89-2.09c.25-3.58,1.19-9.48,4.65-11.11,5-2.39,8.67.77,8.28,5.11-.34,3.79-9.37,41.06-11.61,50.26a2.33,2.33,0,0,0,1.49,2.74Z"/><path class="cls-15" d="M488.46,425.9a10.59,10.59,0,0,1,2.84-2.47,16.73,16.73,0,0,0,1.71-1.55c3.24-3.22,6.16-6.78,9.71-9.66a22.86,22.86,0,0,0,3-2.68,15.87,15.87,0,0,1,2.13-2.35,2,2,0,0,1,2.55-.12,21.38,21.38,0,0,1,2.09,3.63l11,22.45c.5,1,1,2,1.57,3,.75,1.27,1.63,2.46,2.39,3.73a22.25,22.25,0,0,1,1.75,3.61l-1.74,2.17a34.1,34.1,0,0,0-5,5.3c-2,2.67-3.71,5.63-5.9,8.18a19,19,0,0,0-1.66,2,10.28,10.28,0,0,1-1.56,2.27l-.54.43c-1,.42-2.15.82-3.06.26a3.3,3.3,0,0,1-1.08-1.41c-2.5-4.76-4.74-9.68-7.63-14.2a198.13,198.13,0,0,1-10.53-17.83Z"/><path class="cls-16" d="M510.45,407.06c-2.36,2.4-4.68,4.62-7,7l-4.23,4.3L493,424.69a9.85,9.85,0,0,1-1.32,1.18l-.61.69a117.17,117.17,0,0,0,8.77,16.86c.66,1,1.36,2,2,3,3.57,5.42,6.09,11.46,9.36,17.06.23.41.56.86,1,.85a1.17,1.17,0,0,0,.7-.33l.45-.55a10.28,10.28,0,0,0,1.56-2.27,20.15,20.15,0,0,1,1.65-2c2.2-2.55,3.86-5.51,5.91-8.18a34.1,34.1,0,0,1,5-5.3l1.74-2.17a22.25,22.25,0,0,0-1.75-3.61c-.76-1.27-1.64-2.46-2.39-3.73-.58-1-1.07-2-1.57-3l-11-22.45a21.38,21.38,0,0,0-2.09-3.63"/><polygon class="cls-15" points="509.65 407.15 507.99 406.9 487.55 426.64 508.88 464.49 511.49 464.58 490.02 427.04 509.65 407.15"/><path class="cls-17" d="M412.21,446.51a9.15,9.15,0,1,1-11.14-6.58,9.16,9.16,0,0,1,11.14,6.58"/><path class="cls-17" d="M400.37,455.9s1.62-1.1,1.63,1.44c0,10.34-2.49,38.77-12.62,34.64-8.37-3.4-.36-27.58-.36-27.58s-4.48,24,1.09,25.14c8.39,1.74,10.26-33.64,10.26-33.64"/><path class="cls-13" d="M388.81,465.46a71.69,71.69,0,0,0-1.45,14.39,30.35,30.35,0,0,0,.43,7c.51,2.08,2.3,2.74,4,1.38,2-1.65,3.18-4.2,4.19-6.54a49.46,49.46,0,0,0,3.3-12.25,141.17,141.17,0,0,0,1.18-14.81c0,.18-.53.34-.54.53-.42,9.72-.89,19.92-5.29,28.8-.81,1.64-2.48,5.53-5,4.32-2-1-1.63-4.7-1.7-6.51a71.05,71.05,0,0,1,1.41-16.84c0,.2-.5.32-.55.53"/><path class="cls-13" d="M387.9,467.64a4.18,4.18,0,0,0-1.24,2.29,1.62,1.62,0,0,0,.24,1.34.85.85,0,0,0,1,.23,1.69,1.69,0,0,0,.28-.26,1.72,1.72,0,0,1,.27-.27.84.84,0,0,1-1-.2,1.47,1.47,0,0,1-.3-1.22,4,4,0,0,1,1.1-2.29l.08-.08-.08.08-.38.38"/><path class="cls-13" d="M388.29,470.84a3.92,3.92,0,0,0-1.41,1.08,3.62,3.62,0,0,0-.84,1.52,4.6,4.6,0,0,0-.15,1.88,1.19,1.19,0,0,0,.45.87.71.71,0,0,0,.82,0c.21-.15.34-.39.54-.54-.48.34-1-.08-1.19-.56a3.49,3.49,0,0,1,0-1.67A4.22,4.22,0,0,1,387,472l.2-.31.12-.14c.27-.32-.48.42-.24.23a2.82,2.82,0,0,1,.69-.4c.09,0,.21-.19.28-.26s.17-.24.27-.27"/><path class="cls-13" d="M388.09,475.67a3.17,3.17,0,0,0-1.32.91,2.71,2.71,0,0,0-.8,1.22,2.31,2.31,0,0,0,1.09,2.58,2.17,2.17,0,0,0,.27-.26,2.28,2.28,0,0,1,.27-.27,2.35,2.35,0,0,1-1.16-2.11,2.15,2.15,0,0,1,.41-1.17.83.83,0,0,1,.08-.12l.07-.08c.15-.16,0-.06-.33.32l.28-.22a2.24,2.24,0,0,1,.59-.27c.09,0,.21-.2.28-.26l.19-.19s.06-.08.08-.08"/><path class="cls-13" d="M387.18,480a4.51,4.51,0,0,0-1.31,2.75,5.08,5.08,0,0,0,0,.78,1.16,1.16,0,0,0,.27.76.44.44,0,0,0,.53,0A4.17,4.17,0,0,0,387,484a1.29,1.29,0,0,0,.25-.27,2.29,2.29,0,0,1-.27.27,1.79,1.79,0,0,0-.28.27l-.05.07.54-.52a.44.44,0,0,1-.51,0,.83.83,0,0,1-.28-.6,4.29,4.29,0,0,1,0-1.29,4.52,4.52,0,0,1,1.19-2.35l-.1.09-.37.37"/><path class="cls-13" d="M386.78,484.68c-.67,1-1.47,2.36-.82,3.6a1.77,1.77,0,0,0,2.62.5c.19-.17.35-.38.54-.54a1.76,1.76,0,0,1-2.61-.5c-.65-1.23.15-2.57.81-3.6-.13.21-.41.33-.54.54"/><path class="cls-13" d="M388.77,488.63c0,.65-.15,1.3,0,1.94a1.35,1.35,0,0,0,1.23,1.12,2.19,2.19,0,0,0,1.66-.5,7,7,0,0,0,.73-.71,2.1,2.1,0,0,0,.46-.74,2.28,2.28,0,0,0-.21-1.92c0,.05-.58.49-.55.54a2.22,2.22,0,0,1,.3,1.55,2,2,0,0,1-.27.76,4.19,4.19,0,0,1-.26.33c-.06.07.55-.51.39-.39l-.11.1-.18.12c-.88.55-2.39.49-2.63-.74a14.86,14.86,0,0,1,0-2c0,.05-.24.23-.27.27l-.19.19s-.08.06-.08.08"/><path class="cls-13" d="M391.88,488.16a3.7,3.7,0,0,0,4.5-1.84,2.32,2.32,0,0,0,.1-1.38,1.64,1.64,0,0,0-.91-1.15s-.26.24-.28.27a2.29,2.29,0,0,1-.27.27,1.85,1.85,0,0,1,1,2,2.37,2.37,0,0,1-.18.59,1.43,1.43,0,0,1-.15.27l-.08.12-.05.06c-.2.24.32-.3.3-.29a3.68,3.68,0,0,1-.73.45,3.44,3.44,0,0,1-.76.21,4.52,4.52,0,0,1-1.9-.15,2.29,2.29,0,0,0-.27.27s-.24.28-.27.27"/><path class="cls-13" d="M395,484.26a4.34,4.34,0,0,0,3.2-1.71,3.33,3.33,0,0,0,.86-3.32,1.54,1.54,0,0,0-1.4-1.15c-.06,0-.23.22-.27.27s-.21.26-.27.27a1.53,1.53,0,0,1,1.39,1.12,3,3,0,0,1,0,2,3.54,3.54,0,0,1-.49.92l-.16.21a1.34,1.34,0,0,1-.11.14q-.21.23.24-.24c-.15.12-.29.25-.45.36a3.5,3.5,0,0,1-2,.59c-.06,0-.23.22-.28.26s-.21.27-.27.27"/><path class="cls-13" d="M397.15,478.57a3.12,3.12,0,0,0,1.86-1.08,3.67,3.67,0,0,0,1.07-1.88,6.16,6.16,0,0,0,0-2.42c-.09-.49-.41-1.25-1-1.11-.09,0-.22.21-.28.27s-.19.25-.27.27c.53-.13.84.42,1,.85a5.62,5.62,0,0,1,.15,2,3.91,3.91,0,0,1-.6,1.94l-.15.2-.05.07c-.21.23-.13.16.24-.23a2.89,2.89,0,0,1-.45.33,2.54,2.54,0,0,1-.93.3c-.07,0-.22.21-.27.26s-.2.26-.27.27"/><path class="cls-13" d="M398.64,472.69a7.36,7.36,0,0,0,2.17-3.16,5.23,5.23,0,0,0,.27-1.88c0-.53-.23-1.17-.81-1.29,0,0-.24.23-.27.26s-.23.28-.27.27c1,.23.84,1.83.69,2.58a6.1,6.1,0,0,1-.55,1.57,8.1,8.1,0,0,1-.42.7c-.08.12-.18.24-.27.36s-.53.56-.07.13c-.13.11-.25.24-.37.36l-.1.1"/><path class="cls-13" d="M399.57,467a3.77,3.77,0,0,0,1.37-1,3.47,3.47,0,0,0,.94-1.35,2.87,2.87,0,0,0-1-3.15s-.53.55-.55.53a2.92,2.92,0,0,1,1.12,2.6,2.74,2.74,0,0,1-.51,1.29.71.71,0,0,1-.1.14l-.08.09c-.14.16,0,.07.3-.28-.1.08-.2.17-.3.24a2.72,2.72,0,0,1-.66.33c-.09,0-.2.2-.27.26s-.18.24-.27.27"/><path class="cls-13" d="M400.07,461.87a3.6,3.6,0,0,0,1.18-.91,2.4,2.4,0,0,0,.68-1.09,2.19,2.19,0,0,0-1-2.41c-.05,0-.5.56-.54.53a2.24,2.24,0,0,1,1,2,2.14,2.14,0,0,1-.34,1,2,2,0,0,1-.17.23c-.21.26.33-.31.32-.29l-.15.12a2.12,2.12,0,0,1-.51.28c-.09,0-.2.19-.27.26l-.19.19-.08.08"/><path class="cls-13" d="M400.78,457.25c-.08-.63-.18-1.27-.26-1.9l-.09.07-.19.19-.19.19s-.08.06-.08.08l.27,1.91a.59.59,0,0,1,.08-.08l.19-.19.19-.19s.09-.07.08-.08"/><path class="cls-13" d="M400.68,457.43a9,9,0,0,1-6.08-7.4,9.34,9.34,0,0,1,.57-5.36c.82-1.72,2.58-2.81,4.21-3.69a8,8,0,0,1,9.42,1,11.14,11.14,0,0,1,2.95,4.45,6.59,6.59,0,0,1,.35,4.83,11.94,11.94,0,0,1-1.52,2.39,9.47,9.47,0,0,1-2.66,2.69,7.67,7.67,0,0,1-5.64.86c-.14,0-.42.56-.55.53,3.42.78,6.31-.85,8.44-3.39,1.22-1.45,2.81-3.27,2.82-5.27a10.93,10.93,0,0,0-2.07-5.83c-2.35-3.39-6.57-5-10.4-3.15-2.73,1.3-5.81,3.54-6.42,6.7-.89,4.57,1.4,9.72,6,11.12.12,0,.43-.57.54-.53"/><path class="cls-13" d="M400.89,442.87a3.94,3.94,0,0,1,1.88-.5,5.17,5.17,0,0,1,1.92.09,10.9,10.9,0,0,1,1.57.86,3.41,3.41,0,0,1,1.43,1.12,8.26,8.26,0,0,1,.95,7.12c.07-.21.48-.32.55-.53a8.32,8.32,0,0,0-.95-7.13,3.47,3.47,0,0,0-1.43-1.11,9.67,9.67,0,0,0-1.58-.86,5.1,5.1,0,0,0-1.83-.1,4.12,4.12,0,0,0-2,.5c-.21.13-.33.41-.54.54"/><path class="cls-13" d="M396.65,449.24a8.81,8.81,0,0,0,1,3.77,5.36,5.36,0,0,0,3,2.06,9.79,9.79,0,0,0,1.92.47,5.76,5.76,0,0,0,2.13-.41,4.71,4.71,0,0,0,1.63-.46,3.6,3.6,0,0,0,.77-.79c-.14.2-.41.32-.55.53.25-.37.26-.21,0-.11a2,2,0,0,1-.35.1c-.27.06-.55.09-.82.16a9.72,9.72,0,0,1-1.84.46,8.2,8.2,0,0,1-3.29-.83,4.58,4.58,0,0,1-2.32-2.08,9.87,9.87,0,0,1-.83-3.4c0,.15-.56.38-.54.53"/><text/><text/><text/><text/><text/><text/><text/><text/><text class="cls-18" transform="translate(149.65 203.58) rotate(8.55)">E</text><text class="cls-18" transform="translate(156.87 204.67) rotate(9.12)">f</text><text class="cls-18" transform="translate(160.81 205.3) rotate(9.49)">t</text><text class="cls-18" transform="translate(164.08 205.85) rotate(9.93)">e</text><text class="cls-18" transform="translate(169.31 206.77) rotate(10.4)">r</text><text class="cls-18" transform="translate(173.22 207.48) rotate(10.75)"> </text><text class="cls-18" transform="translate(176.16 208.04) rotate(11.17)">a</text><text class="cls-18" transform="matrix(0.98, 0.2, -0.2, 0.98, 181.36, 209.07)">t</text><text class="cls-18" transform="matrix(0.98, 0.21, -0.21, 0.98, 184.62, 209.74)">t</text><text class="cls-18" transform="translate(187.87 210.43) rotate(12.26)"> </text><text class="cls-18" transform="translate(190.8 211.06) rotate(12.72)">h</text><text class="cls-18" transform="translate(196.64 212.38) rotate(13.14)">a</text><text class="cls-18" transform="translate(201.82 213.59) rotate(13.38)"> </text><text class="cls-18" transform="translate(204.73 214.28) rotate(13.61)">s</text><text class="cls-18" transform="translate(209.23 215.37) rotate(13.93)">p</text><text class="cls-18" transform="translate(215.04 216.81) rotate(14.29)">e</text><text class="cls-18" transform="matrix(0.97, 0.25, -0.25, 0.97, 220.21, 218.13)">l</text><text class="cls-18" transform="translate(223.43 218.96) rotate(14.86)">a</text><text class="cls-18" transform="translate(228.56 220.33) rotate(15.15)">t</text><text class="cls-18" transform="matrix(0.96, 0.27, -0.27, 0.96, 231.78, 221.2)"> </text><text class="cls-18" transform="translate(234.64 221.99) rotate(15.64)">s</text><text class="cls-18" transform="translate(239.15 223.25) rotate(16)">a</text><text class="cls-18" transform="matrix(0.96, 0.28, -0.28, 0.96, 244.26, 224.7)">m</text><text class="cls-18" transform="translate(253.17 227.35) rotate(17.26)">m</text><text class="cls-18" transform="matrix(0.95, 0.31, -0.31, 0.95, 262.07, 230.12)">a</text><text class="cls-18" transform="translate(267.12 231.75) rotate(18.18)"> </text><text class="cls-18" transform="matrix(0.95, 0.32, -0.32, 0.95, 269.96, 232.68)">s</text><text class="cls-18" transform="translate(274.38 234.16) rotate(18.94)">p</text><text class="cls-18" transform="matrix(0.94, 0.33, -0.33, 0.94, 280.03, 236.1)">e</text><text class="cls-18" transform="translate(285.04 237.87) rotate(19.79)">l</text><text class="cls-18" transform="translate(288.19 239) rotate(20.06)"> </text><text class="cls-18" transform="matrix(0.94, 0.35, -0.35, 0.94, 290.97, 240.02)">i</text><text class="cls-18" transform="matrix(0.94, 0.35, -0.35, 0.94, 294.09, 241.17)"> </text><text class="cls-18" transform="translate(144.72 218.14) rotate(7.39)">å</text><text class="cls-18" transform="translate(149.98 218.83) rotate(7.86)">r</text><text class="cls-18" transform="translate(153.92 219.37) rotate(8.23)">t</text><text class="cls-18" transform="translate(157.22 219.85) rotate(8.57)">i</text><text class="cls-18" transform="translate(160.49 220.33) rotate(9.04)">o</text><text class="cls-18" transform="translate(166.41 221.28) rotate(9.64)">n</text><text class="cls-18" transform="translate(172.3 222.28) rotate(10.25)">d</text><text class="cls-18" transform="translate(178.19 223.34) rotate(10.82)">e</text><text class="cls-18" transform="translate(183.39 224.34) rotate(11.39)">n</text><text class="cls-18" transform="translate(189.27 225.53) rotate(11.85)"> </text><text class="cls-18" transform="translate(192.19 226.14) rotate(12.23)">s</text><text class="cls-18" transform="matrix(0.98, 0.22, -0.22, 0.98, 196.73, 227.12)">p</text><text class="cls-18" transform="translate(202.57 228.44) rotate(13.27)">r</text><text class="cls-18" transform="translate(206.44 229.36) rotate(13.65)">i</text><text class="cls-18" transform="translate(209.67 230.14) rotate(14.12)">d</text><text class="cls-18" transform="matrix(0.97, 0.25, -0.25, 0.97, 215.47, 231.6)">e</text><text class="cls-18" transform="translate(220.6 232.94) rotate(15.16)">r</text><text class="cls-18" transform="translate(224.43 233.99) rotate(15.51)"> </text><text class="cls-18" transform="translate(227.32 234.78) rotate(15.89)">s</text><text class="cls-18" transform="translate(231.81 236.06) rotate(16.3)">i</text><text class="cls-18" transform="matrix(0.96, 0.29, -0.29, 0.96, 234.98, 236.99)">g</text><text class="cls-18" transform="matrix(0.96, 0.3, -0.3, 0.96, 240.7, 238.72)"> </text><text class="cls-18" transform="translate(243.56 239.59) rotate(17.68)">n</text><text class="cls-18" transform="translate(249.26 241.42) rotate(18)">u</text><text class="cls-18" transform="matrix(0.95, 0.31, -0.31, 0.95, 254.97, 243.28)"> </text><text class="cls-18" transform="translate(257.83 244.2) rotate(17.87)">e</text><text class="cls-18" transform="translate(262.89 245.83) rotate(17.82)">t</text><text class="cls-18" transform="translate(266.06 246.85) rotate(17.79)">t</text><text class="cls-18" transform="translate(269.24 247.87) rotate(17.79)"> </text><text class="cls-18" transform="translate(272.1 248.79) rotate(17.84)">r</text><text class="cls-18" transform="matrix(0.95, 0.31, -0.31, 0.95, 275.89, 250.01)">y</text><text class="cls-18" transform="matrix(0.95, 0.32, -0.32, 0.95, 281.58, 251.86)">k</text><text class="cls-18" transform="translate(287.25 253.77) rotate(19.46)">t</text><text class="cls-18" transform="matrix(0.94, 0.35, -0.35, 0.94, 290.36, 254.86)">e</text><text class="cls-18" transform="matrix(0.93, 0.36, -0.36, 0.93, 295.32, 256.72)"> </text><text class="cls-18" transform="translate(298.09 257.79) rotate(22.01)">o</text><text class="cls-18" transform="translate(303.63 260.02) rotate(22.79)">m</text><text class="cls-18" transform="translate(312.23 263.65) rotate(23.1)"> </text><text class="cls-18" transform="translate(142.56 236.55) rotate(7.39)">a</text><text class="cls-18" transform="translate(147.83 237.24) rotate(7.83)">t</text><text class="cls-18" transform="translate(151.12 237.69) rotate(8.17)">t</text><text class="cls-18" transform="matrix(0.99, 0.15, -0.15, 0.99, 154.39, 238.16)"> </text><text class="cls-18" transform="translate(157.37 238.6) rotate(8.94)">d</text><text class="cls-18" transform="translate(163.26 239.53) rotate(9.51)">e</text><text class="cls-18" transform="translate(168.49 240.41) rotate(9.93)"> </text><text class="cls-18" transform="translate(171.43 240.92) rotate(10.38)">h</text><text class="cls-18" transform="translate(177.32 242) rotate(10.96)">a</text><text class="cls-18" transform="translate(182.53 243.01) rotate(11.42)">r</text><text class="cls-18" transform="translate(186.43 243.8) rotate(11.78)"> </text><text class="cls-18" transform="translate(189.36 244.41) rotate(12.1)">t</text><text class="cls-18" transform="translate(192.61 245.1) rotate(12.47)">r</text><text class="cls-18" transform="matrix(0.97, 0.22, -0.22, 0.97, 196.49, 245.95)">ö</text><text class="cls-18" transform="translate(202.32 247.3) rotate(13.44)">t</text><text class="cls-18" transform="translate(205.56 248.08) rotate(13.78)">t</text><text class="cls-18" transform="translate(208.78 248.86) rotate(14.25)">n</text><text class="cls-18" transform="matrix(0.97, 0.26, -0.26, 0.97, 214.56, 250.33)">a</text><text class="cls-18" transform="translate(219.72 251.7) rotate(15.26)">t</text><text class="cls-18" transform="translate(222.91 252.57) rotate(15.58)">.</text><text class="cls-18" transform="translate(225.78 253.37) rotate(15.88)"> </text><text class="cls-18" transform="translate(228.67 254.18) rotate(16.47)">G</text><text class="cls-18" transform="matrix(0.96, 0.3, -0.3, 0.96, 236.94, 256.63)">e</text><text class="cls-18" transform="translate(242.03 258.2) rotate(17.75)">n</text><text class="cls-18" transform="matrix(0.95, 0.31, -0.31, 0.95, 247.71, 260.03)">e</text><text class="cls-18" transform="translate(252.78 261.67) rotate(17.71)">r</text><text class="cls-18" transform="translate(256.59 262.89) rotate(17.46)">a</text><text class="cls-18" transform="translate(261.66 264.48) rotate(17.21)">l</text><text class="cls-18" transform="translate(264.84 265.47) rotate(16.96)">e</text><text class="cls-18" transform="matrix(0.96, 0.29, -0.29, 0.96, 269.93, 267.02)">n</text><text class="cls-18" transform="matrix(0.96, 0.29, -0.29, 0.96, 275.67, 268.74)"> </text><text class="cls-18" transform="translate(278.53 269.59) rotate(17.13)">h</text><text class="cls-18" transform="translate(284.21 271.33) rotate(18.75)">a</text><text class="cls-18" transform="translate(289.21 273.04) rotate(20.53)">r</text><text class="cls-18" transform="matrix(0.93, 0.37, -0.37, 0.93, 292.91, 274.43)"> </text><text class="cls-18" transform="translate(139.67 252.09) rotate(7.36)">s</text><text class="cls-18" transform="translate(144.27 252.68) rotate(7.86)">a</text><text class="cls-18" transform="translate(149.53 253.39) rotate(8.6)">m</text><text class="cls-18" transform="matrix(0.99, 0.16, -0.16, 0.99, 158.74, 254.8)">l</text><text class="cls-18" transform="matrix(0.99, 0.17, -0.17, 0.99, 162.03, 255.33)">a</text><text class="cls-18" transform="translate(167.24 256.23) rotate(10.11)">t</text><text class="cls-18" transform="matrix(0.98, 0.18, -0.18, 0.98, 170.52, 256.81)"> </text><text class="cls-18" transform="translate(173.46 257.35) rotate(10.89)">d</text><text class="cls-18" transform="matrix(0.98, 0.2, -0.2, 0.98, 179.33, 258.48)">e</text><text class="cls-18" transform="matrix(0.98, 0.21, -0.21, 0.98, 184.55, 259.54)"> </text><text class="cls-18" transform="translate(187.45 260.15) rotate(12.2)">l</text><text class="cls-18" transform="translate(190.7 260.85) rotate(12.53)">i</text><text class="cls-18" transform="matrix(0.97, 0.22, -0.22, 0.97, 193.96, 261.58)">s</text><text class="cls-18" transform="translate(198.48 262.62) rotate(13.34)">t</text><text class="cls-18" transform="translate(201.71 263.38) rotate(13.68)">i</text><text class="cls-18" transform="translate(204.94 264.16) rotate(14.15)">g</text><text class="cls-18" transform="translate(210.75 265.63) rotate(14.72)">a</text><text class="cls-18" transform="translate(215.89 266.98) rotate(15.23)">s</text><text class="cls-18" transform="matrix(0.96, 0.27, -0.27, 0.96, 220.36, 268.2)">t</text><text class="cls-18" transform="matrix(0.96, 0.28, -0.28, 0.96, 223.55, 269.09)">e</text><text class="cls-18" transform="matrix(0.96, 0.28, -0.28, 0.96, 228.67, 270.57)">,</text><text class="cls-18" transform="translate(231.54 271.42) rotate(16.79)"> </text><text class="cls-18" transform="matrix(0.95, 0.3, -0.3, 0.95, 234.38, 272.26)">m</text><text class="cls-18" transform="translate(243.26 275.06) rotate(17.97)">e</text><text class="cls-18" transform="matrix(0.95, 0.3, -0.3, 0.95, 248.33, 276.71)">s</text><text class="cls-18" transform="translate(252.79 278.12) rotate(17.39)">t</text><text class="cls-18" transform="translate(255.94 279.11) rotate(17.15)"> </text><text class="cls-18" transform="matrix(0.96, 0.29, -0.29, 0.96, 258.81, 280)">k</text><text class="cls-18" transform="matrix(0.96, 0.28, -0.28, 0.96, 264.53, 281.73)">a</text><text class="cls-18" transform="translate(269.63 283.22) rotate(16.06)">l</text><text class="cls-18" transform="matrix(0.96, 0.27, -0.27, 0.96, 272.83, 284.14)">l</text><text class="cls-18" transform="translate(276.04 285.05) rotate(15.85)">h</text><text class="cls-18" transform="translate(281.8 286.69) rotate(16.2)">j</text><text class="cls-18" transform="translate(284.97 287.6) rotate(16.94)">ä</text><text class="cls-18" transform="translate(290.03 289.15) rotate(18.12)">r</text><text class="cls-18" transform="translate(293.79 290.38) rotate(19.16)">t</text><text class="cls-18" transform="translate(296.91 291.45) rotate(20.34)">a</text><text class="cls-18" transform="translate(301.87 293.29) rotate(21.62)">d</text><text class="cls-18" transform="translate(307.41 295.49) rotate(22.58)">e</text><text class="cls-18" transform="matrix(0.99, 0.13, -0.13, 0.99, 138.35, 265.72)"> </text><text class="cls-18" transform="translate(141.32 266.1) rotate(7.73)">o</text><text class="cls-18" transform="translate(147.25 266.9) rotate(8.3)">c</text><text class="cls-18" transform="translate(152.48 267.67) rotate(8.87)">h</text><text class="cls-18" transform="matrix(0.99, 0.16, -0.16, 0.99, 158.42, 268.6)"> </text><text class="cls-18" transform="translate(161.34 269.06) rotate(9.95)">m</text><text class="cls-18" transform="matrix(0.98, 0.19, -0.19, 0.98, 170.49, 270.68)">ö</text><text class="cls-18" transform="matrix(0.98, 0.19, -0.19, 0.98, 176.38, 271.8)">r</text><text class="cls-18" transform="translate(180.28 272.56) rotate(11.73)">k</text><text class="cls-18" transform="matrix(0.98, 0.21, -0.21, 0.98, 186.15, 273.78)">a</text><text class="cls-18" transform="matrix(0.98, 0.22, -0.22, 0.98, 191.32, 274.92)"> </text><text class="cls-18" transform="matrix(0.97, 0.23, -0.23, 0.97, 194.24, 275.57)">k</text><text class="cls-18" transform="translate(200.06 276.93) rotate(13.74)">a</text><text class="cls-18" transform="translate(205.22 278.2) rotate(14.21)">r</text><text class="cls-18" transform="matrix(0.97, 0.25, -0.25, 0.97, 209.07, 279.17)">a</text><text class="cls-18" transform="translate(214.2 280.51) rotate(15.26)">k</text><text class="cls-18" transform="translate(219.99 282.1) rotate(15.73)">t</text><text class="cls-18" transform="translate(223.19 282.99) rotate(16.17)">ä</text><text class="cls-18" transform="translate(228.29 284.48) rotate(16.64)">r</text><text class="cls-18" transform="matrix(0.96, 0.29, -0.29, 0.96, 232.1, 285.61)">e</text><text class="cls-18" transform="translate(237.16 287.17) rotate(17.57)">r</text><text class="cls-18" transform="translate(240.97 288.38) rotate(18)">n</text><text class="cls-18" transform="translate(246.68 290.23) rotate(17.84)">a</text><text class="cls-18" transform="translate(251.73 291.86) rotate(17.69)"> </text><text class="cls-18" transform="translate(254.6 292.77) rotate(17.5)">o</text><text class="cls-18" transform="translate(260.31 294.58) rotate(17.26)">c</text><text class="cls-18" transform="translate(265.38 296.15) rotate(17)">h</text><text class="cls-18" transform="matrix(0.96, 0.29, -0.29, 0.96, 271.13, 297.91)"> </text><text class="cls-18" transform="translate(274.01 298.78) rotate(16.74)">ä</text><text class="cls-18" transform="matrix(0.96, 0.29, -0.29, 0.96, 279.09, 300.31)">r</text><text class="cls-18" transform="translate(282.92 301.46) rotate(16.97)"> </text><text class="cls-18" transform="matrix(0.95, 0.3, -0.3, 0.95, 285.78, 302.33)">n</text><text class="cls-18" transform="translate(291.46 304.1) rotate(18.23)">u</text><text class="cls-18" transform="translate(297.15 305.99) rotate(18.87)"> </text><text class="cls-18" transform="matrix(0.99, 0.13, -0.13, 0.99, 135.61, 282.42)">p</text><text class="cls-18" transform="translate(141.54 283.2) rotate(8)">å</text><text class="cls-18" transform="translate(146.8 283.94) rotate(8.57)">v</text><text class="cls-18" transform="translate(152.71 284.83) rotate(9.14)">ä</text><text class="cls-18" transform="matrix(0.99, 0.17, -0.17, 0.99, 157.95, 285.67)">g</text><text class="cls-18" transform="matrix(0.98, 0.18, -0.18, 0.98, 163.84, 286.68)"> </text><text class="cls-18" transform="matrix(0.98, 0.19, -0.19, 0.98, 166.76, 287.19)">m</text><text class="cls-18" transform="matrix(0.98, 0.2, -0.2, 0.98, 175.9, 288.94)">o</text><text class="cls-18" transform="translate(181.77 290.15) rotate(12.03)">t</text><text class="cls-18" transform="matrix(0.98, 0.21, -0.21, 0.98, 185.04, 290.84)"> </text><text class="cls-18" transform="translate(187.95 291.48) rotate(12.77)">c</text><text class="cls-18" transform="translate(193.13 292.65) rotate(13.31)">a</text><text class="cls-18" transform="translate(198.29 293.86) rotate(14.05)">m</text><text class="cls-18" transform="translate(207.32 296.13) rotate(14.82)">p</text><text class="cls-18" transform="translate(213.1 297.66) rotate(15.43)">u</text><text class="cls-18" transform="translate(218.85 299.25) rotate(15.97)">s</text><text class="cls-18" transform="matrix(0.96, 0.28, -0.28, 0.96, 223.34, 300.54)"> </text><text class="cls-18" transform="translate(226.19 301.36) rotate(16.94)">N</text><text class="cls-18" transform="translate(234.45 303.88) rotate(17.68)">o</text><text class="cls-18" transform="matrix(0.95, 0.31, -0.31, 0.95, 240.17, 305.71)">r</text><text class="cls-18" transform="matrix(0.95, 0.3, -0.3, 0.95, 243.97, 306.94)">r</text><text class="cls-18" transform="translate(247.74 308.15) rotate(17.12)">k</text><text class="cls-18" transform="translate(253.44 309.91) rotate(16.43)">ö</text><text class="cls-18" transform="translate(259.19 311.6) rotate(15.58)">p</text><text class="cls-18" transform="matrix(0.97, 0.26, -0.26, 0.97, 264.93, 313.19)">i</text><text class="cls-18" transform="translate(268.16 314.05) rotate(14.19)">n</text><text class="cls-18" transform="matrix(0.97, 0.24, -0.24, 0.97, 273.96, 315.51)">g</text><text class="cls-18" transform="matrix(0.97, 0.26, -0.26, 0.97, 279.74, 316.96)"> </text><text class="cls-18" transform="translate(282.59 317.71) rotate(16.21)">f</text><text class="cls-18" transform="translate(286.38 318.8) rotate(18.24)">ö</text><text class="cls-18" transform="matrix(0.94, 0.34, -0.34, 0.94, 292, 320.67)">r</text><text class="cls-18" transform="translate(295.75 322.03) rotate(20.81)"> </text><text class="cls-18" transform="translate(140.56 301.43) rotate(7.39)">a</text><text class="cls-18" transform="translate(145.83 302.11) rotate(7.83)">t</text><text class="cls-18" transform="matrix(0.99, 0.14, -0.14, 0.99, 149.12, 302.57)">t</text><text class="cls-18" transform="translate(152.39 303.04) rotate(8.48)"> </text><text class="cls-18" transform="matrix(0.99, 0.15, -0.15, 0.99, 155.34, 303.47)">s</text><text class="cls-18" transform="matrix(0.99, 0.16, -0.16, 0.99, 159.95, 304.19)">p</text><text class="cls-18" transform="translate(165.86 305.17) rotate(9.98)">e</text><text class="cls-18" transform="translate(171.09 306.09) rotate(10.42)">l</text><text class="cls-18" transform="translate(174.35 306.69) rotate(10.85)">a</text><text class="cls-18" transform="translate(179.55 307.69) rotate(11.27)"> </text><text class="cls-18" transform="translate(182.48 308.27) rotate(11.69)">e</text><text class="cls-18" transform="translate(187.69 309.35) rotate(12.13)">t</text><text class="cls-18" transform="translate(190.93 310.05) rotate(12.47)">t</text><text class="cls-18" transform="translate(194.18 310.77) rotate(12.79)"> </text><text class="cls-18" transform="matrix(0.97, 0.23, -0.23, 0.97, 197.08, 311.42)">n</text><text class="cls-18" transform="matrix(0.97, 0.24, -0.24, 0.97, 202.91, 312.79)">y</text><text class="cls-18" transform="translate(208.72 314.23) rotate(14.32)">t</text><text class="cls-18" transform="matrix(0.97, 0.25, -0.25, 0.97, 211.94, 315.05)">t</text><text class="cls-18" transform="matrix(0.97, 0.26, -0.26, 0.97, 215.15, 315.89)"> </text><text class="cls-18" transform="matrix(0.96, 0.26, -0.26, 0.96, 218.04, 316.66)">s</text><text class="cls-18" transform="translate(222.54 317.89) rotate(15.9)">p</text><text class="cls-18" transform="translate(228.27 319.53) rotate(16.47)">e</text><text class="cls-18" transform="translate(233.37 321.04) rotate(16.91)">l</text><text class="cls-18" transform="translate(236.53 322) rotate(17.22)">.</text><text class="cls-18" transform="translate(239.41 322.89) rotate(17.53)">.</text><text class="cls-18" transform="translate(242.26 323.79) rotate(17.83)">.</text><text class="cls-18" transform="translate(245.09 324.7) rotate(18.17)"> </text><text/><text class="cls-18" transform="translate(137.7 319.94) rotate(7.36)">s</text><text class="cls-18" transform="translate(142.33 320.53) rotate(7.9)">p</text><text class="cls-18" transform="translate(148.23 321.35) rotate(8.47)">e</text><text class="cls-18" transform="translate(153.51 322.14) rotate(8.91)">l</text><text class="cls-18" transform="translate(156.77 322.65) rotate(9.34)">e</text><text class="cls-18" transform="translate(162.01 323.51) rotate(9.78)">t</text><text class="cls-18" transform="matrix(0.98, 0.18, -0.18, 0.98, 165.27, 324.08)"> </text><text class="cls-18" transform="matrix(0.98, 0.18, -0.18, 0.98, 168.21, 324.59)">o</text><text class="cls-18" transform="translate(174.11 325.68) rotate(11.33)">m</text><text class="cls-18" transform="matrix(0.98, 0.21, -0.21, 0.98, 183.23, 327.52)"> </text><text class="cls-18" transform="matrix(0.98, 0.21, -0.21, 0.98, 186.16, 328.14)">n</text><text class="cls-18" transform="translate(191.98 329.42) rotate(13.01)">o</text><text class="cls-18" transform="translate(197.82 330.77) rotate(13.48)">l</text><text class="cls-18" transform="matrix(0.97, 0.24, -0.24, 0.97, 201.06, 331.55)">l</text><text class="cls-18" transform="translate(204.28 332.34) rotate(14.25)">e</text><text class="cls-18" transform="matrix(0.97, 0.25, -0.25, 0.97, 209.43, 333.64)">-</text><text class="cls-18" transform="translate(213.28 334.65) rotate(15.23)">p</text><text class="cls-18" transform="translate(219.03 336.23) rotate(15.68)">.</text><text class="cls-19" transform="translate(186.25 190.58) rotate(12.23)">B</text><text class="cls-19" transform="translate(195.34 192.57) rotate(13.36)">a</text><text class="cls-19" transform="matrix(0.97, 0.25, -0.25, 0.97, 202.11, 194.17)">k</text><text class="cls-19" transform="matrix(0.96, 0.27, -0.27, 0.96, 209.6, 196.09)">g</text><text class="cls-19" transform="translate(216.3 197.94) rotate(16.29)">r</text><text class="cls-19" transform="matrix(0.95, 0.3, -0.3, 0.95, 222.23, 199.67)">u</text><text class="cls-19" transform="translate(229.64 201.97) rotate(18.32)">n</text><text class="cls-19" transform="translate(236.99 204.4) rotate(19.39)">d</text><text class="cls-20" transform="matrix(0.94, 0.34, -0.34, 0.94, 159.82, 97.32)">I</text><text class="cls-20" transform="translate(164.04 98.84) rotate(20.38)">t</text><text class="cls-20" transform="matrix(0.93, 0.36, -0.36, 0.93, 168.29, 100.42)">’</text><text class="cls-20" transform="matrix(0.93, 0.36, -0.36, 0.93, 170.64, 101.31)">s</text><text class="cls-20" transform="translate(174.82 102.95) rotate(21.87)"> </text><text class="cls-20" transform="translate(177.91 104.18) rotate(22.58)">n</text><text class="cls-20" transform="translate(184.45 106.9) rotate(23.46)">o</text><text class="cls-20" transform="translate(189.75 109.21) rotate(24.16)">t</text><text class="cls-20" transform="translate(193.89 111.07) rotate(24.7)"> </text><text class="cls-20" transform="translate(196.91 112.45) rotate(25.15)">j</text><text class="cls-20" transform="translate(199.88 113.84) rotate(25.85)">u</text><text class="cls-20" transform="translate(206.13 116.87) rotate(26.63)">s</text><text class="cls-20" transform="translate(210.16 118.89) rotate(27.25)">t</text><text class="cls-20" transform="translate(214.19 120.98) rotate(27.79)"> </text><text class="cls-20" transform="translate(217.1 122.49) rotate(28.47)">a</text><text class="cls-20" transform="translate(222.96 125.68) rotate(29.15)"> </text><text class="cls-20" transform="translate(225.84 127.28) rotate(29.8)">g</text><text class="cls-20" transform="translate(231.15 130.32) rotate(30.67)">a</text><text class="cls-20" transform="matrix(0.86, 0.52, -0.52, 0.86, 236.89, 133.73)">m</text><text class="cls-20" transform="translate(245.66 139.02) rotate(31.24)">e</text><text class="cls-20" transform="translate(250.29 141.83) rotate(31.37)"> </text><text class="cls-20" transform="translate(253.12 143.55) rotate(31.56)">a</text><text class="cls-20" transform="matrix(0.85, 0.53, -0.53, 0.85, 258.82, 147.05)">n</text><text class="cls-20" transform="matrix(0.84, 0.54, -0.54, 0.84, 264.81, 150.78)">y</text><text class="cls-20" transform="translate(270.66 154.47) rotate(33.2)">m</text><text class="cls-20" transform="matrix(0.83, 0.56, -0.56, 0.83, 279.2, 160.08)">o</text><text class="cls-20" transform="translate(284 163.34) rotate(35.09)">r</text><text class="cls-20" transform="translate(288.58 166.56) rotate(36.03)">e</text><text class="cls-18" transform="translate(350.54 266.99) rotate(-13.42)">V</text><text class="cls-18" transform="translate(358.94 265) rotate(-12.71)">ä</text><text class="cls-18" transform="translate(364.11 263.83) rotate(-12.14)">n</text><text class="cls-18" transform="translate(369.98 262.57) rotate(-11.53)">d</text><text class="cls-18" transform="matrix(0.98, -0.19, 0.19, 0.98, 375.83, 261.38)"> </text><text class="cls-18" transform="matrix(0.98, -0.18, 0.18, 0.98, 378.74, 260.81)">p</text><text class="cls-18" transform="translate(384.62 259.71) rotate(-10.05)">å</text><text class="cls-18" transform="translate(389.87 258.78) rotate(-9.63)"> </text><text class="cls-18" transform="translate(392.82 258.27) rotate(-9.23)">k</text><text class="cls-18" transform="translate(398.73 257.32) rotate(-9.27)">o</text><text class="cls-18" transform="translate(404.63 256.36) rotate(-9.41)">r</text><text class="cls-18" transform="translate(408.58 255.7) rotate(-9.5)">t</text><text class="cls-18" transform="matrix(0.99, -0.17, 0.17, 0.99, 411.87, 255.15)">e</text><text class="cls-18" transform="translate(417.12 254.27) rotate(-9.67)">n</text><text class="cls-18" transform="matrix(0.99, -0.17, 0.17, 0.99, 423.05, 253.26)"> </text><text class="cls-18" transform="translate(426 252.75) rotate(-9.74)">f</text><text class="cls-18" transform="matrix(0.99, -0.17, 0.17, 0.99, 429.94, 252.07)">ö</text><text class="cls-18" transform="translate(435.86 251.06) rotate(-9.73)">r</text><text class="cls-18" transform="matrix(0.99, -0.17, 0.17, 0.99, 439.79, 250.38)"> </text><text class="cls-18" transform="matrix(0.99, -0.17, 0.17, 0.99, 442.75, 249.88)">a</text><text class="cls-18" transform="translate(447.98 248.99) rotate(-9.56)">t</text><text class="cls-18" transform="translate(451.28 248.43) rotate(-9.47)">t</text><text class="cls-18" transform="matrix(0.99, -0.16, 0.16, 0.99, 454.57, 247.88)"> </text><text class="cls-18" transform="translate(457.51 247.4) rotate(-9.21)">v</text><text class="cls-18" transform="matrix(0.99, -0.16, 0.16, 0.99, 463.44, 246.43)">e</text><text class="cls-18" transform="translate(468.68 245.61) rotate(-8.72)">t</text><text class="cls-18" transform="matrix(0.99, -0.15, 0.15, 0.99, 471.98, 245.1)">a</text><text class="cls-18" transform="translate(477.22 244.33) rotate(-8.12)"> </text><text class="cls-18" transform="translate(480.17 243.89) rotate(-7.56)">m</text><text class="cls-18" transform="matrix(0.99, -0.12, 0.12, 0.99, 489.4, 242.68)">e</text><text class="cls-18" transform="matrix(0.99, -0.11, 0.11, 0.99, 494.67, 242.06)">r</text><text class="cls-18" transform="translate(498.62 241.64) rotate(-5.5)"> </text><text class="cls-19" transform="translate(397.35 233.89) rotate(-10.29)">R</text><text class="cls-19" transform="translate(407.26 232.11) rotate(-9.17)">e</text><text class="cls-19" transform="translate(413.34 231.12) rotate(-8.26)">g</text><text class="cls-19" transform="matrix(0.99, -0.13, 0.13, 0.99, 420.26, 230.13)">l</text><text class="cls-19" transform="matrix(0.99, -0.12, 0.12, 0.99, 424.09, 229.62)">e</text><text class="cls-19" transform="translate(430.22 228.89) rotate(-5.96)">r</text><text class="cls-18" transform="matrix(0.97, -0.26, 0.26, 0.97, 356.77, 282.74)">o</text><text class="cls-18" transform="translate(362.52 281.19) rotate(-13.42)">m</text><text class="cls-18" transform="translate(371.56 279.06) rotate(-12.46)"> </text><text class="cls-18" transform="translate(374.47 278.41) rotate(-11.85)">k</text><text class="cls-18" transform="translate(380.32 277.19) rotate(-11.18)">a</text><text class="cls-18" transform="matrix(0.98, -0.19, 0.19, 0.98, 385.52, 276.16)">r</text><text class="cls-18" transform="matrix(0.98, -0.18, 0.18, 0.98, 389.45, 275.42)">a</text><text class="cls-18" transform="translate(394.66 274.47) rotate(-9.83)">k</text><text class="cls-18" transform="translate(400.55 273.46) rotate(-9.52)">t</text><text class="cls-18" transform="matrix(0.99, -0.16, 0.16, 0.99, 403.85, 272.9)">ä</text><text class="cls-18" transform="translate(409.09 272.05) rotate(-9.03)">r</text><text class="cls-18" transform="translate(413.02 271.42) rotate(-8.84)">e</text><text class="cls-18" transform="matrix(0.99, -0.15, 0.15, 0.99, 418.28, 270.61)">r</text><text class="cls-18" transform="matrix(0.99, -0.15, 0.15, 0.99, 422.23, 270)">n</text><text class="cls-18" transform="matrix(0.99, -0.15, 0.15, 0.99, 428.16, 269.11)">a</text><text class="cls-18" transform="translate(433.43 268.33) rotate(-8.36)">.</text><text class="cls-18" transform="matrix(0.99, -0.14, 0.14, 0.99, 436.41, 267.89)"> </text><text class="cls-18" transform="translate(439.39 267.46) rotate(-8.3)">K</text><text class="cls-18" transform="matrix(0.99, -0.14, 0.14, 0.99, 447.94, 266.21)">l</text><text class="cls-18" transform="translate(451.27 265.73) rotate(-8.32)">i</text><text class="cls-18" transform="translate(454.56 265.24) rotate(-8.36)">c</text><text class="cls-18" transform="translate(459.83 264.47) rotate(-8.41)">k</text><text class="cls-18" transform="matrix(0.99, -0.14, 0.14, 0.99, 465.75, 263.59)"> </text><text class="cls-18" transform="matrix(0.99, -0.14, 0.14, 0.99, 468.73, 263.16)">p</text><text class="cls-18" transform="translate(474.66 262.3) rotate(-8.07)">å</text><text class="cls-18" transform="translate(479.93 261.55) rotate(-7.94)"> </text><text class="cls-18" transform="translate(482.89 261.14) rotate(-7.8)">k</text><text class="cls-18" transform="translate(488.82 260.33) rotate(-7.58)">n</text><text class="cls-18" transform="translate(494.77 259.54) rotate(-7.35)">a</text><text class="cls-18" transform="matrix(0.99, -0.12, 0.12, 0.99, 500.04, 258.85)">p</text><text class="cls-18" transform="matrix(0.99, -0.12, 0.12, 0.99, 505.97, 258.11)">p</text><text class="cls-18" transform="translate(511.94 257.4) rotate(-6.51)">e</text><text class="cls-18" transform="translate(517.22 256.8) rotate(-6.18)">n</text><text class="cls-18" transform="matrix(0.99, -0.1, 0.1, 0.99, 523.17, 256.16)"> </text><text class="cls-18" transform="translate(526.14 255.85) rotate(-5.66)">f</text><text class="cls-18" transform="translate(530.12 255.45) rotate(-5.31)">ö</text><text class="cls-18" transform="translate(536.07 254.9) rotate(-4.94)">r</text><text class="cls-18" transform="translate(540.04 254.56) rotate(-4.68)"> </text><text class="cls-18" transform="matrix(0.97, -0.26, 0.26, 0.97, 356.64, 299.66)">a</text><text class="cls-18" transform="matrix(0.97, -0.25, 0.25, 0.97, 361.77, 298.28)">t</text><text class="cls-18" transform="translate(364.99 297.44) rotate(-14.24)">t</text><text class="cls-18" transform="translate(368.19 296.62) rotate(-13.89)"> </text><text class="cls-18" transform="translate(371.08 295.91) rotate(-13.46)">s</text><text class="cls-18" transform="translate(375.61 294.82) rotate(-12.89)">p</text><text class="cls-18" transform="matrix(0.98, -0.21, 0.21, 0.98, 381.45, 293.48)">e</text><text class="cls-18" transform="translate(386.64 292.36) rotate(-11.87)">l</text><text class="cls-18" transform="matrix(0.98, -0.2, 0.2, 0.98, 389.87, 291.67)">a</text><text class="cls-18" transform="translate(395.09 290.62) rotate(-11.04)"> </text><text class="cls-18" transform="translate(398.03 290.04) rotate(-10.67)">s</text><text class="cls-18" transform="translate(402.59 289.18) rotate(-10.18)">p</text><text class="cls-18" transform="translate(408.48 288.13) rotate(-9.66)">e</text><text class="cls-18" transform="translate(413.71 287.24) rotate(-9.28)">l</text><text class="cls-18" transform="translate(416.99 286.7) rotate(-8.9)">e</text><text class="cls-18" transform="translate(422.25 285.88) rotate(-8.52)">t</text><text class="cls-18" transform="translate(425.54 285.39) rotate(-8.25)"> </text><text class="cls-18" transform="translate(428.47 284.96) rotate(-7.87)">o</text><text class="cls-18" transform="translate(434.42 284.14) rotate(-7.4)">c</text><text class="cls-18" transform="translate(439.69 283.45) rotate(-6.93)">h</text><text class="cls-18" transform="translate(445.64 282.73) rotate(-6.57)"> </text><text class="cls-18" transform="translate(448.6 282.39) rotate(-6.26)">s</text><text class="cls-18" transform="translate(453.21 281.88) rotate(-5.86)">a</text><text class="cls-18" transform="matrix(1, -0.09, 0.09, 1, 458.5, 281.34)">m</text><text class="cls-18" transform="matrix(1, -0.1, 0.1, 1, 467.78, 280.46)">l</text><text class="cls-18" transform="translate(471.12 280.14) rotate(-5.65)">a</text><text class="cls-18" transform="translate(476.39 279.62) rotate(-5.75)"> </text><text class="cls-18" transform="translate(479.39 279.32) rotate(-5.84)">k</text><text class="cls-18" transform="translate(485.37 278.7) rotate(-5.93)">o</text><text class="cls-18" transform="matrix(0.99, -0.1, 0.1, 0.99, 491.33, 278.08)">r</text><text class="cls-18" transform="matrix(0.99, -0.1, 0.1, 0.99, 495.29, 277.67)">t</text><text class="cls-18" transform="translate(498.63 277.32) rotate(-5.99)"> </text><text class="cls-18" transform="translate(501.61 277.01) rotate(-5.96)">u</text><text class="cls-18" transform="translate(507.56 276.38) rotate(-5.88)">n</text><text class="cls-18" transform="matrix(0.99, -0.1, 0.1, 0.99, 513.53, 275.77)">d</text><text class="cls-18" transform="translate(519.5 275.17) rotate(-5.54)">e</text><text class="cls-18" transform="matrix(1, -0.09, 0.09, 1, 524.78, 274.66)">r</text><text class="cls-18" transform="translate(528.75 274.29) rotate(-5.13)"> </text><text class="cls-18" transform="matrix(0.97, -0.26, 0.26, 0.97, 359.12, 321.22)">n</text><text class="cls-18" transform="matrix(0.97, -0.24, 0.24, 0.97, 364.9, 319.67)">o</text><text class="cls-18" transform="translate(370.69 318.21) rotate(-13.57)">l</text><text class="cls-18" transform="translate(373.9 317.44) rotate(-13.17)">l</text><text class="cls-18" transform="matrix(0.98, -0.22, 0.22, 0.98, 377.14, 316.68)">e</text><text class="cls-18" transform="translate(382.32 315.52) rotate(-12.15)">-</text><text class="cls-18" transform="translate(386.22 314.67) rotate(-11.64)">p</text><text class="cls-18" transform="translate(392.08 313.47) rotate(-11.2)"> </text><text class="cls-18" transform="translate(395 312.89) rotate(-10.88)">f</text><text class="cls-18" transform="translate(398.91 312.14) rotate(-10.43)">ö</text><text class="cls-18" transform="matrix(0.98, -0.17, 0.17, 0.98, 404.78, 311.06)">r</text><text class="cls-18" transform="matrix(0.99, -0.17, 0.17, 0.99, 408.71, 310.37)"> </text><text class="cls-18" transform="matrix(0.99, -0.16, 0.16, 0.99, 411.66, 309.86)">a</text><text class="cls-18" transform="translate(416.92 308.99) rotate(-9.09)">t</text><text class="cls-18" transform="translate(420.19 308.47) rotate(-8.85)">t</text><text class="cls-18" transform="translate(423.47 307.95) rotate(-8.63)"> </text><text class="cls-18" transform="translate(426.43 307.5) rotate(-8.33)">k</text><text class="cls-18" transform="translate(432.37 306.63) rotate(-7.95)">o</text><text class="cls-18" transform="translate(438.3 305.8) rotate(-7.49)">m</text><text class="cls-18" transform="matrix(0.99, -0.12, 0.12, 0.99, 447.52, 304.58)">m</text><text class="cls-18" transform="matrix(0.99, -0.11, 0.11, 0.99, 456.78, 303.46)">a</text><text class="cls-18" transform="translate(462.05 302.85) rotate(-6.37)"> </text><text class="cls-18" transform="translate(465.05 302.52) rotate(-6.39)">v</text><text class="cls-18" transform="translate(471 301.85) rotate(-6.54)">i</text><text class="cls-18" transform="translate(474.31 301.48) rotate(-6.69)">d</text><text class="cls-18" transform="matrix(0.99, -0.12, 0.12, 0.99, 480.26, 300.78)">a</text><text class="cls-18" transform="translate(485.54 300.14) rotate(-6.99)">r</text><text class="cls-18" transform="translate(489.5 299.66) rotate(-7.09)">e</text><text class="cls-18" transform="translate(494.79 299) rotate(-7.15)"> </text><text class="cls-18" transform="translate(497.77 298.62) rotate(-7.17)">o</text><text class="cls-18" transform="translate(503.72 297.88) rotate(-7.12)">c</text><text class="cls-18" transform="translate(509 297.21) rotate(-6.95)">h</text><text class="cls-18" transform="matrix(0.99, -0.12, 0.12, 0.99, 514.95, 296.49)"> </text><text class="cls-18" transform="translate(517.91 296.14) rotate(-6.5)">l</text><text class="cls-18" transform="translate(521.22 295.76) rotate(-6.11)">ö</text><text class="cls-18" transform="translate(527.18 295.12) rotate(-5.56)">s</text><text class="cls-18" transform="matrix(1, -0.09, 0.09, 1, 531.8, 294.67)">a</text><text class="cls-18" transform="translate(537.08 294.22) rotate(-4.48)"> </text><text class="cls-18" transform="translate(367.38 337.03) rotate(-15)">m</text><text class="cls-18" transform="translate(376.37 334.63) rotate(-14.23)">y</text><text class="cls-18" transform="translate(382.19 333.16) rotate(-13.69)">s</text><text class="cls-18" transform="translate(386.71 332.07) rotate(-13.29)">t</text><text class="cls-18" transform="translate(389.93 331.3) rotate(-12.85)">e</text><text class="cls-18" transform="matrix(0.98, -0.21, 0.21, 0.98, 395.12, 330.12)">r</text><text class="cls-18" transform="translate(399.01 329.27) rotate(-12.01)">i</text><text class="cls-18" transform="translate(402.24 328.57) rotate(-11.57)">e</text><text class="cls-18" transform="translate(407.45 327.51) rotate(-11.14)">t</text><text class="cls-18" transform="translate(410.73 326.87) rotate(-10.82)"> </text><text class="cls-18" transform="translate(413.64 326.3) rotate(-10.36)">p</text><text class="cls-18" transform="matrix(0.99, -0.17, 0.17, 0.99, 419.52, 325.23)">å</text><text class="cls-18" transform="translate(424.75 324.33) rotate(-9.37)"> </text><text class="cls-18" transform="translate(427.71 323.84) rotate(-8.95)">c</text><text class="cls-18" transform="translate(432.94 323.01) rotate(-8.41)">a</text><text class="cls-18" transform="translate(438.18 322.23) rotate(-7.68)">m</text><text class="cls-18" transform="matrix(0.99, -0.12, 0.12, 0.99, 447.4, 320.99)">p</text><text class="cls-18" transform="matrix(0.99, -0.11, 0.11, 0.99, 453.34, 320.28)">u</text><text class="cls-18" transform="translate(459.29 319.62) rotate(-5.76)">s</text><text class="cls-18" transform="translate(463.92 319.16) rotate(-5.37)"> </text><text class="cls-18" transform="translate(466.9 318.87) rotate(-4.91)">n</text><text class="cls-18" transform="translate(472.87 318.37) rotate(-4.54)">o</text><text class="cls-18" transform="translate(478.86 317.89) rotate(-4.49)">r</text><text class="cls-18" transform="translate(482.84 317.58) rotate(-4.43)">r</text><text class="cls-18" transform="translate(486.82 317.27) rotate(-4.32)">k</text><text class="cls-18" transform="matrix(1, -0.07, 0.07, 1, 492.77, 316.82)">ö</text><text class="cls-18" transform="translate(498.75 316.39) rotate(-3.8)">p</text><text class="cls-18" transform="translate(504.73 315.99) rotate(-3.43)">i</text><text class="cls-18" transform="translate(508.03 315.79) rotate(-2.94)">n</text><text class="cls-18" transform="translate(514.01 315.48) rotate(-2.13)">g</text><text class="cls-21" transform="translate(384.12 402.15) rotate(-10.3)">S</text><text class="cls-21" transform="translate(390.65 400.95) rotate(-10.81)">p</text><text class="cls-21" transform="matrix(0.98, -0.19, 0.19, 0.98, 397.22, 399.7)">e</text><text class="cls-21" transform="matrix(0.98, -0.19, 0.19, 0.98, 402.46, 398.7)">l</text><text class="cls-21" transform="translate(405.72 398.07) rotate(-10.8)">e</text><text class="cls-21" transform="translate(410.95 397.07) rotate(-10.75)">t</text><text class="cls-21" transform="translate(414.9 396.33) rotate(-10.69)"> </text><text class="cls-21" transform="translate(417.82 395.77) rotate(-10.57)">b</text><text class="cls-21" transform="translate(424.39 394.55) rotate(-10.34)">ö</text><text class="cls-21" transform="translate(430.28 393.47) rotate(-10.04)">r</text><text class="cls-21" transform="translate(435.5 392.55) rotate(-9.72)">j</text><text class="cls-21" transform="translate(439.43 391.87) rotate(-9.27)">a</text><text class="cls-21" transform="translate(445.32 390.91) rotate(-8.64)">r</text><text class="cls-21" transform="matrix(0.99, -0.14, 0.14, 0.99, 450.38, 390.14)"> </text><text class="cls-21" transform="translate(453.31 389.71) rotate(-7.41)">n</text><text class="cls-21" transform="translate(459.89 388.85) rotate(-6.33)">u</text><text class="cls-21" transform="translate(466.5 388.13) rotate(-5.51)">.</text><text class="cls-21" transform="translate(469.47 387.85) rotate(-5)">.</text><text class="cls-21" transform="translate(472.45 387.59) rotate(-4.5)">.</text></g></g></svg>