<svg xmlns="http://www.w3.org/2000/svg" xmlns:xlink="http://www.w3.org/1999/xlink" viewBox="0 0 801 578.45"><defs><style>.cls-1,.cls-3{fill:none;}.cls-13,.cls-16,.cls-2{fill:#1d1d1b;}.cls-2,.cls-3{stroke:#877026;}.cls-16,.cls-17,.cls-2,.cls-3,.cls-4{stroke-miterlimit:10;}.cls-16,.cls-17,.cls-2,.cls-3{stroke-width:0.25px;}.cls-4{fill:#decebd;stroke:#000;}.cls-5{font-size:29.82px;}.cls-21,.cls-5,.cls-6{font-family:LucidaCalligraphy-Italic, Lucida Calligraphy;font-style:italic;}.cls-6{font-size:22.55px;}.cls-7{font-size:23.27px;}.cls-19,.cls-7,.cls-8{font-family:TimesNewRomanPSMT, Times New Roman;}.cls-8{font-size:18.91px;}.cls-9{fill:#fffbde;}.cls-10{fill:#626161;}.cls-11{fill:#997734;}.cls-12{fill:#fff;}.cls-14{fill:#b2b2b2;}.cls-15{fill:#63350d;}.cls-16,.cls-17{stroke:#d9d9d9;}.cls-17{fill:url(#Nytt_mönster_4);}.cls-18{fill:#ffdc2b;}.cls-19{font-size:19.64px;}.cls-20{letter-spacing:-0.11em;}.cls-21{font-size:24px;}</style><pattern id="Nytt_mönster_4" data-name="Nytt mönster 4" width="23.03" height="15.35" patternTransform="translate(-49.39 -8.27) scale(0.78 0.79)" patternUnits="userSpaceOnUse" viewBox="0 0 23.03 15.35"><rect class="cls-1" width="23.03" height="15.35"/><polygon class="cls-2" points="30.53 15.35 23.03 22.85 15.53 15.35 23.03 7.85 30.53 15.35"/><polygon class="cls-3" points="30.53 15.35 23.03 22.85 15.53 15.35 23.03 7.85 30.53 15.35"/><polygon class="cls-2" points="20.54 20.37 17.11 14.04 17.53 13.68 21.11 19.28 21.4 19.03 18.71 12.6 19.07 12.2 21.69 18.68 22.01 18.36 20.48 10.74 20.93 10.36 22.39 18.03 22.81 17.54 22.81 8.36 23.1 8.04 23.34 8.46 23.26 17.62 23.78 18.14 25.23 10.37 25.73 10.72 24.11 18.45 24.43 18.73 27.08 12.19 27.45 12.56 24.79 19.08 25 19.37 28.59 13.72 28.95 14.12 25.65 20.37 23.03 22.85 20.54 20.37"/><polygon class="cls-3" points="20.54 20.37 17.11 14.04 17.53 13.68 21.11 19.28 21.4 19.03 18.71 12.6 19.07 12.2 21.69 18.68 22.01 18.36 20.48 10.74 20.93 10.36 22.39 18.03 22.81 17.54 22.81 8.36 23.1 8.04 23.34 8.46 23.26 17.62 23.78 18.14 25.23 10.37 25.73 10.72 24.11 18.45 24.43 18.73 27.08 12.19 27.45 12.56 24.79 19.08 25 19.37 28.59 13.72 28.95 14.12 25.65 20.37 23.03 22.85 20.54 20.37"/><polygon class="cls-2" points="7.5 15.35 0 22.85 -7.5 15.35 0 7.85 7.5 15.35"/><polygon class="cls-3" points="7.5 15.35 0 22.85 -7.5 15.35 0 7.85 7.5 15.35"/><polygon class="cls-2" points="-2.49 20.37 -5.92 14.04 -5.5 13.68 -1.92 19.28 -1.63 19.03 -4.32 12.6 -3.96 12.2 -1.34 18.68 -1.02 18.36 -2.55 10.74 -2.1 10.36 -0.64 18.03 -0.22 17.54 -0.22 8.36 0.07 8.04 0.31 8.46 0.23 17.62 0.75 18.14 2.2 10.37 2.7 10.72 1.08 18.45 1.4 18.73 4.05 12.19 4.42 12.56 1.75 19.08 1.97 19.37 5.56 13.72 5.92 14.12 2.62 20.37 0 22.85 -2.49 20.37"/><polygon class="cls-3" points="-2.49 20.37 -5.92 14.04 -5.5 13.68 -1.92 19.28 -1.63 19.03 -4.32 12.6 -3.96 12.2 -1.34 18.68 -1.02 18.36 -2.55 10.74 -2.1 10.36 -0.64 18.03 -0.22 17.54 -0.22 8.36 0.07 8.04 0.31 8.46 0.23 17.62 0.75 18.14 2.2 10.37 2.7 10.72 1.08 18.45 1.4 18.73 4.05 12.19 4.42 12.56 1.75 19.08 1.97 19.37 5.56 13.72 5.92 14.12 2.62 20.37 0 22.85 -2.49 20.37"/><polygon class="cls-2" points="30.53 0 23.03 7.5 15.53 0 23.03 -7.5 30.53 0"/><polygon class="cls-3" points="30.53 0 23.03 7.5 15.53 0 23.03 -7.5 30.53 0"/><polygon class="cls-2" points="20.54 5.01 17.11 -1.32 17.53 -1.68 21.11 3.92 21.4 3.67 18.71 -2.75 19.07 -3.15 21.69 3.33 22.01 3.01 20.48 -4.62 20.93 -4.99 22.39 2.67 22.81 2.19 22.81 -7 23.1 -7.31 23.34 -6.89 23.26 2.26 23.78 2.79 25.23 -4.98 25.73 -4.63 24.11 3.1 24.43 3.38 27.08 -3.16 27.45 -2.79 24.79 3.72 25 4.01 28.59 -1.64 28.95 -1.23 25.65 5.01 23.03 7.5 20.54 5.01"/><polygon class="cls-3" points="20.54 5.01 17.11 -1.32 17.53 -1.68 21.11 3.92 21.4 3.67 18.71 -2.75 19.07 -3.15 21.69 3.33 22.01 3.01 20.48 -4.62 20.93 -4.99 22.39 2.67 22.81 2.19 22.81 -7 23.1 -7.31 23.34 -6.89 23.26 2.26 23.78 2.79 25.23 -4.98 25.73 -4.63 24.11 3.1 24.43 3.38 27.08 -3.16 27.45 -2.79 24.79 3.72 25 4.01 28.59 -1.64 28.95 -1.23 25.65 5.01 23.03 7.5 20.54 5.01"/><polygon class="cls-2" points="19.02 7.68 11.52 15.18 4.01 7.68 11.52 0.18 19.02 7.68"/><polygon class="cls-3" points="19.02 7.68 11.52 15.18 4.01 7.68 11.52 0.18 19.02 7.68"/><polygon class="cls-2" points="9.03 12.69 5.6 6.36 6.01 6 9.6 11.6 9.89 11.35 7.2 4.92 7.55 4.53 10.18 11.01 10.49 10.69 8.96 3.06 9.41 2.69 10.88 10.35 11.29 9.87 11.29 0.68 11.58 0.36 11.82 0.78 11.75 9.94 12.27 10.46 13.71 2.7 14.21 3.04 12.6 10.77 12.91 11.05 15.56 4.52 15.94 4.88 13.27 11.4 13.48 11.69 17.08 6.04 17.43 6.45 14.13 12.69 11.52 15.18 9.03 12.69"/><polygon class="cls-3" points="9.03 12.69 5.6 6.36 6.01 6 9.6 11.6 9.89 11.35 7.2 4.92 7.55 4.53 10.18 11.01 10.49 10.69 8.96 3.06 9.41 2.69 10.88 10.35 11.29 9.87 11.29 0.68 11.58 0.36 11.82 0.78 11.75 9.94 12.27 10.46 13.71 2.7 14.21 3.04 12.6 10.77 12.91 11.05 15.56 4.52 15.94 4.88 13.27 11.4 13.48 11.69 17.08 6.04 17.43 6.45 14.13 12.69 11.52 15.18 9.03 12.69"/><polygon class="cls-2" points="7.5 0 0 7.5 -7.5 0 0 -7.5 7.5 0"/><polygon class="cls-3" points="7.5 0 0 7.5 -7.5 0 0 -7.5 7.5 0"/><polygon class="cls-2" points="-2.49 5.01 -5.92 -1.32 -5.5 -1.68 -1.92 3.92 -1.63 3.67 -4.32 -2.75 -3.96 -3.15 -1.34 3.33 -1.02 3.01 -2.55 -4.62 -2.1 -4.99 -0.64 2.67 -0.22 2.19 -0.22 -7 0.07 -7.31 0.31 -6.89 0.23 2.26 0.75 2.79 2.2 -4.98 2.7 -4.63 1.08 3.1 1.4 3.38 4.05 -3.16 4.42 -2.79 1.75 3.72 1.97 4.01 5.56 -1.64 5.92 -1.23 2.62 5.01 0 7.5 -2.49 5.01"/><polygon class="cls-3" points="-2.49 5.01 -5.92 -1.32 -5.5 -1.68 -1.92 3.92 -1.63 3.67 -4.32 -2.75 -3.96 -3.15 -1.34 3.33 -1.02 3.01 -2.55 -4.62 -2.1 -4.99 -0.64 2.67 -0.22 2.19 -0.22 -7 0.07 -7.31 0.31 -6.89 0.23 2.26 0.75 2.79 2.2 -4.98 2.7 -4.63 1.08 3.1 1.4 3.38 4.05 -3.16 4.42 -2.79 1.75 3.72 1.97 4.01 5.56 -1.64 5.92 -1.23 2.62 5.01 0 7.5 -2.49 5.01"/></pattern></defs><title>historia</title><g id="Lager_2" data-name="Lager 2"><g id="Lager_1-2" data-name="Lager 1"><rect class="cls-4" x="0.5" y="0.5" width="800" height="577.45"/><text class="cls-5" transform="translate(53.23 48.14)">House of Mystery</text><text class="cls-6" transform="translate(31.28 82.92)">It’s not just a game anymore</text><text class="cls-7" transform="translate(31.97 128.22)">Bakgrund</text><text class="cls-8" transform="translate(34.83 161.86)">Efter att ha spelat samma spel i årtionden sprider sig nu ett rykte om att <tspan x="0" y="22.69">de har tröttnat. Generalen har samlat de listigaste, mest kallhjärtade och </tspan><tspan x="0" y="45.38">mörka karaktärerna och är nu påväg mot campus Norrköping för att </tspan><tspan x="0" y="68.07">spela ett nytt spel... spelet om nolle-p.</tspan></text><path class="cls-9" d="M659.29,466.75c1.84-1.76,4.43-2.38,6.76-3.38a36.3,36.3,0,0,0,4.1-2.15c7.91-4.66,15.38-10.13,23.72-14a45.12,45.12,0,0,0,7.27-3.69,33,33,0,0,1,5.32-3.5,4,4,0,0,1,5,1,43.49,43.49,0,0,1,2.24,8.11l10.2,49.17c.46,2.21.92,4.42,1.55,6.59.83,2.84,1.95,5.6,2.79,8.44a45.29,45.29,0,0,1,1.61,7.91l-4.49,3.34A69.83,69.83,0,0,0,713,532.45c-5.32,4.17-10,9.1-15.57,13a38.28,38.28,0,0,0-4.23,3.14c-1.36,1.25-2.52,2.8-4.17,3.64l-1.28.57c-2.11.31-4.59.5-6.07-1a6.85,6.85,0,0,1-1.41-3.27c-2.46-10.51-4.36-21.19-7.73-31.44-4-12.37-8.23-24.84-11.57-39.93Z"/><path class="cls-10" d="M711.48,441.11c-5.78,3.48-11.4,6.64-17.18,10.12l-10.38,6.24-15.25,9.18a18.42,18.42,0,0,1-3.15,1.63L664,469.33c2.21,12.54,4.44,25.14,8.63,37.16.79,2.28,1.66,4.54,2.44,6.82,4.24,12.32,6.11,25.32,9.68,37.86.25.9.67,2,1.58,2.17a2.41,2.41,0,0,0,1.52-.29l1.16-.84c1.65-.85,2.8-2.4,4.17-3.66a42,42,0,0,1,4.23-3.13c5.54-3.87,10.25-8.8,15.57-13a70.19,70.19,0,0,1,12.43-7.78l4.49-3.34a46.23,46.23,0,0,0-1.61-7.91c-.84-2.84-2-5.59-2.79-8.44-.63-2.17-1.09-4.38-1.55-6.59l-10.2-49.17a43.49,43.49,0,0,0-2.24-8.11"/><polygon class="cls-9" points="709.88 440.88 706.79 439.57 657.15 467.73 679.74 552.01 684.75 553.5 661.76 469.74 709.88 440.88"/><path class="cls-11" d="M500.7,468.73a18.39,18.39,0,1,1-18.39-18.38,18.4,18.4,0,0,1,18.39,18.38"/><path class="cls-11" d="M473,481.07s3.7-1.34,2.44,3.62c-5.13,20.11-24.21,74.16-41.86,61.06-14.57-10.79,13.1-53.82,13.1-53.82s-20.72,44.41-10.45,49.44C451.66,549,473,481.07,473,481.07"/><path class="cls-12" d="M445.72,493.89a143.61,143.61,0,0,0-10,27.25c-1.12,4.4-2.61,9.27-2.66,13.83-.05,4.31,3.1,6.49,7,4.67,4.76-2.19,8.28-6.57,11.41-10.61a99.7,99.7,0,0,0,12.55-22.19,282.7,282.7,0,0,0,9.7-28.21c-.1.34-1.21.4-1.32.76-5.68,18.71-11.69,38.29-24.68,53.38-2.41,2.79-7.6,9.51-11.81,5.92-3.37-2.86-.82-10-.06-13.51A143.91,143.91,0,0,1,447,493.12c-.18.38-1.14.38-1.32.77"/><path class="cls-12" d="M442.85,497.66a8.54,8.54,0,0,0-3.56,3.84,3.23,3.23,0,0,0-.19,2.73,1.68,1.68,0,0,0,1.9,1,3.15,3.15,0,0,0,.67-.37,2.94,2.94,0,0,1,.66-.39,1.68,1.68,0,0,1-1.85-.89,2.93,2.93,0,0,1,0-2.52,8,8,0,0,1,3.29-3.9L444,497l-.2.11-.93.54"/><path class="cls-12" d="M442,504.08a8.13,8.13,0,0,0-3.28,1.41,7.15,7.15,0,0,0-2.39,2.53,9.32,9.32,0,0,0-1.24,3.58,2.37,2.37,0,0,0,.45,1.91,1.42,1.42,0,0,0,1.58.47c.47-.17.85-.59,1.32-.76-1.11.41-2-.7-2.05-1.69a7.34,7.34,0,0,1,.76-3.28,8.9,8.9,0,0,1,1.71-2.59,6.41,6.41,0,0,1,.55-.49l.29-.22c.7-.48-1.13.57-.57.32a5.1,5.1,0,0,1,1.54-.42c.2,0,.49-.28.67-.38s.45-.37.66-.39"/><path class="cls-12" d="M439.21,513.38a6.27,6.27,0,0,0-3,1.11,5.54,5.54,0,0,0-2.17,2,4.66,4.66,0,0,0,.82,5.57,4.56,4.56,0,0,0,.67-.37,5.37,5.37,0,0,1,.66-.39,4.71,4.71,0,0,1-1.21-4.69,4.39,4.39,0,0,1,1.38-2.06,1.92,1.92,0,0,1,.22-.18l.17-.13c.37-.24.1-.1-.8.45.22-.1.44-.2.66-.28a4.72,4.72,0,0,1,1.29-.22c.18,0,.51-.29.67-.39l.46-.27c.05,0,.15-.11.2-.11"/><path class="cls-12" d="M435.27,521.35a9.08,9.08,0,0,0-3.91,4.7,8.63,8.63,0,0,0-.41,1.51,2.26,2.26,0,0,0,.14,1.6.86.86,0,0,0,1,.34,6,6,0,0,0,.89-.5,3.2,3.2,0,0,0,.63-.4,3.64,3.64,0,0,1-.67.38,2.94,2.94,0,0,0-.66.39l-.14.11,1.3-.75a.84.84,0,0,1-1-.26,1.73,1.73,0,0,1-.24-1.32,8.27,8.27,0,0,1,.7-2.48,9.1,9.1,0,0,1,3.49-4c.25-.15-.22.12-.24.13-.31.17-.61.35-.91.53"/><path class="cls-12" d="M432.15,530.24c-1.8,1.67-4,3.88-3.38,6.6a3.54,3.54,0,0,0,4.83,2.28c.47-.22.87-.56,1.33-.77a3.53,3.53,0,0,1-4.83-2.28c-.64-2.72,1.58-4.93,3.38-6.6-.36.34-1,.43-1.33.77"/><path class="cls-12" d="M434.05,538.93a38,38,0,0,0-1.06,3.75,2.69,2.69,0,0,0,1.82,2.79,4.47,4.47,0,0,0,3.48-.14,16.33,16.33,0,0,0,1.78-1,4.19,4.19,0,0,0,1.26-1.22,4.52,4.52,0,0,0,.55-3.83c0,.09-1.36.65-1.33.76a4.48,4.48,0,0,1-.19,3.18,4.15,4.15,0,0,1-.91,1.33,5.52,5.52,0,0,1-.66.51c-.15.11,1.31-.71.95-.55l-.27.13-.4.15c-2,.62-4.91-.26-4.76-2.76.08-1.34.81-2.55,1.06-3.86,0,.09-.57.32-.66.38l-.47.27s-.18.08-.19.12"/><path class="cls-12" d="M440.34,539.57c2.08,1.21,4.78,1.79,7,.61a7.44,7.44,0,0,0,2.66-1.94,4.68,4.68,0,0,0,.9-2.63,3.31,3.31,0,0,0-1.21-2.7,3.88,3.88,0,0,0-.67.38,4.72,4.72,0,0,1-.66.39,3.71,3.71,0,0,1,.82,4.44,4.25,4.25,0,0,1-.63,1,3.8,3.8,0,0,1-.43.47l-.23.19-.11.09c-.51.36.77-.43.72-.41a8,8,0,0,1-1.64.5,6.51,6.51,0,0,1-1.59,0,9.1,9.1,0,0,1-3.61-1.22c-.06,0-.59.34-.67.38s-.59.42-.65.39"/><path class="cls-12" d="M448.42,533.56c2.58.71,4.92-.35,7.07-1.73a6.69,6.69,0,0,0,3.34-6,3.08,3.08,0,0,0-2.16-2.93c-.12,0-.55.31-.66.37s-.54.42-.66.39a3.09,3.09,0,0,1,2.15,2.88,5.89,5.89,0,0,1-1.07,3.89A7.44,7.44,0,0,1,455,532a4.63,4.63,0,0,1-.42.32l-.29.21c-.34.22-.15.11.59-.33-.35.14-.68.33-1.05.45a6.82,6.82,0,0,1-4.12.17c-.11,0-.56.32-.66.38s-.55.42-.66.39"/><path class="cls-12" d="M455.38,523.55a6.16,6.16,0,0,0,4.15-1.18,7.3,7.3,0,0,0,3-3.12,12.58,12.58,0,0,0,1.22-4.7c.06-1-.18-2.64-1.47-2.67-.18,0-.53.29-.67.38s-.49.39-.66.39c1.09,0,1.42,1.24,1.47,2.14a11,11,0,0,1-.67,3.89,7.86,7.86,0,0,1-2.15,3.47l-.39.33-.13.1c-.53.34-.34.24.59-.32a6.72,6.72,0,0,1-1.05.41,4.58,4.58,0,0,1-1.95.11c-.14,0-.54.31-.66.38s-.52.41-.66.39"/><path class="cls-12" d="M461.22,512.86a14.85,14.85,0,0,0,5.8-5.06,11,11,0,0,0,1.47-3.52c.2-1,.13-2.39-.93-2.91-.08,0-.59.32-.67.37s-.59.43-.66.39c1.94,1,.73,4,0,5.36a12.4,12.4,0,0,1-1.85,2.77,11.44,11.44,0,0,1-1.16,1.15c-.23.21-.47.39-.7.57s-1.32.82-.21.21l-.91.52c-.06,0-.47.28-.23.15"/><path class="cls-12" d="M465.88,502.21A7.86,7.86,0,0,0,469,501a7.1,7.1,0,0,0,2.49-2.16,5.78,5.78,0,0,0-.35-6.64c-.05-.07-1.29.81-1.33.77a5.86,5.86,0,0,1,.88,5.62,5.61,5.61,0,0,1-1.63,2.25,2.65,2.65,0,0,1-.26.21,1.37,1.37,0,0,1-.21.15c-.36.24-.12.11.72-.4-.24.11-.47.22-.71.31a5.81,5.81,0,0,1-1.43.32c-.2,0-.49.28-.67.38a2.73,2.73,0,0,1-.66.39"/><path class="cls-12" d="M469.4,492.53a7.37,7.37,0,0,0,2.75-1.17,5,5,0,0,0,1.88-1.78,4.43,4.43,0,0,0-.67-5.18c-.09-.1-1.25.84-1.32.76a4.51,4.51,0,0,1,1,4.35,4.36,4.36,0,0,1-1.18,1.85,5.19,5.19,0,0,1-.45.37c-.55.4.8-.44.76-.42l-.35.17a4,4,0,0,1-1.13.28,2.49,2.49,0,0,0-.66.39l-.47.27s-.13.11-.19.11"/><path class="cls-12" d="M473.1,483.9c.15-1.28.29-2.56.43-3.84l-.2.11-.47.27-.46.27s-.19.09-.2.12l-.42,3.84.19-.11.48-.27.46-.27s.19-.09.19-.12"/><path class="cls-12" d="M472.82,484.19c-6-3.64-8.8-10.59-8.13-17.43a18.68,18.68,0,0,1,3.79-10.14c2.46-2.92,6.42-4.16,10-5.06a16.12,16.12,0,0,1,17.8,6.75,22.39,22.39,0,0,1,3.51,10.13c.35,3.27.35,6.83-1.73,9.56a23.32,23.32,0,0,1-4.16,3.9,19.18,19.18,0,0,1-6.5,3.9A15.34,15.34,0,0,1,476,484.64c-.26-.13-1.09.89-1.32.77,6.25,3.22,12.68,1.49,18.11-2.39,3.1-2.2,7.09-4.94,8.11-8.82s.26-8.66-1.12-12.39c-2.87-7.76-10.28-12.94-18.65-11.31-6,1.15-13.07,4-15.84,9.81-4,8.44-2.12,19.6,6.19,24.65.22.13,1.12-.89,1.33-.77"/><path class="cls-12" d="M480.49,456a8,8,0,0,1,3.91,0,10.51,10.51,0,0,1,3.69,1.14,20.3,20.3,0,0,1,2.62,2.46,7,7,0,0,1,2.24,2.88,16.64,16.64,0,0,1-1.72,14.33c.24-.37,1.08-.38,1.33-.76a16.64,16.64,0,0,0,1.71-14.33,6.88,6.88,0,0,0-2.23-2.89,20.22,20.22,0,0,0-2.62-2.45,10.13,10.13,0,0,0-3.52-1.11,8.29,8.29,0,0,0-4.08,0c-.48.15-.86.62-1.33.77"/><path class="cls-12" d="M469.07,466.26c-.35,2.58-.7,5.31.11,7.83a10.76,10.76,0,0,0,4.88,5.53,18.28,18.28,0,0,0,3.52,1.87,11.52,11.52,0,0,0,4.34.28c1.1,0,2.34.35,3.4-.09a6.79,6.79,0,0,0,1.89-1.15c-.37.33-1,.43-1.33.77.66-.6.61-.28.09-.21a3.59,3.59,0,0,1-.73,0c-.56,0-1.11-.09-1.67-.11a18.76,18.76,0,0,1-3.82,0,16.19,16.19,0,0,1-6-3.26,9.16,9.16,0,0,1-3.48-5.19,20.31,20.31,0,0,1,.1-7c0,.31-1.28.46-1.32.77"/><path class="cls-13" d="M257.76,496.15l25.41,45.1s2.42,4.12,3.91,6.14c1.2,1.63,1.79,1.89,0-2.46l-4.72-9.38c-7.47-13.57-18.75-36.21-18.75-36.21a16.56,16.56,0,0,1-1.06-3.63c-.12-.49-.12-1-.28-1.48"/><path class="cls-14" d="M260.63,496.7c3.21-1.6,2.84-5.14,4.81-7.45.93-1.08,1.09-3,1.16-4.61a17.64,17.64,0,0,1,2.61-8.87,1.6,1.6,0,0,0,.07-.45l-1.57.36c-.1-3.94.83-6.19,4.05-9.64l-3.34.22c.62-2.8,1.23-5.48,3-7.74-1.62.17-1.92.53-3.6,4.26-.8-1.87.64-6.18,3.32-9.68l-3.59,1,1.12-2.31c-1.54-.38-4.1.91-5,3-.81,1.91-1.11,4-1.91,6.21a5,5,0,0,1-.56-1.14c-.62-3.14-1.19-6.3-1.78-9.45-.08-.44-.18-.87-.29-1.4a15.43,15.43,0,0,0-3.45,8.45c-.73-.67-1.38-1.3-2.07-1.89s-1.08-1.51-2.24-1.12c.59,1.14,1.74,2,1.73,3.64l-5.21-1.85c1.15,1.52,2.27,2.83,3.19,4.27a5,5,0,0,1,.66,4.91l-2.47-3.87-.38.19.42,2c-1.74-1.54-2.06-3.85-3.34-5.81-.92,1.4-.51,2.93-1,4.43-.61-1.53-1.23-3.07-1.85-4.6-.52,3,.15,5.85.28,8.78-1.76-2.53-2.23-5.53-3.28-8.47l-1.31,3.7L233.39,459c1.92,2.21,4.76,3.55,5.7,6.79L235.57,463l-.26.25c.81,1.62,1.79,3.19,1.85,5.29l-2.39-1.7-.2.13c.59,1.38,1.17,2.77,1.75,4.16l-.16.13-5.78-7-.41.13c.55,3.27,1.11,6.55,1.65,9.74-3.66-1.18-7.44-1.8-11.37.31,2.45.49,5.13.05,6.7,2.69-1.87.35-3.63.74-5.42,1-2.44.38-4.37,1.42-5.37,3.9,2.12-.63,3.64-3.26,6.23-1.79-.94.82-1.85,1.63-2.8,2.45,2.22.05,4.32.17,6.42.13a9.38,9.38,0,0,1,6.29,2.54l-3.15,1.17.08.32A36.33,36.33,0,0,1,233,487a13.42,13.42,0,0,1,3.09.87c.74.3.88.86.27,1.55a18.32,18.32,0,0,0-1.25,1.8c.24.06.33.12.38.09,2-1.27,3.82-1,5.74.53,2.16,1.73,4.63,3.06,6.94,4.61a6.41,6.41,0,0,0,4.64,1,5.62,5.62,0,0,0,1.37-.25s.85-.49,3.25.32,3.2-.81,3.2-.81"/><path class="cls-12" d="M216.07,482.21c.13-1.19,1.25-2,2.17-2.61a10.56,10.56,0,0,1,3.72-1.74,38.2,38.2,0,0,0,5.53-.81h0a2.79,2.79,0,0,0-1.38-1.33,14.38,14.38,0,0,0-1.51-.66c-.6-.18-1.23-.14-1.84-.35-.38-.13-.75-.28-1.14-.38a3,3,0,0,0-.52-.11c-.28,0-.31,0-.09-.08a4.51,4.51,0,0,1,1.32-.53,8.85,8.85,0,0,1,1.83-.36,12.31,12.31,0,0,1,2.35-.05,13.78,13.78,0,0,1,4.88,1.32s.58-.17.58-.15c-.34-1.7-.69-3.39-1-5.09a11.42,11.42,0,0,1-.1-5.07l-.58.16a39.26,39.26,0,0,0,5.88,7.85c.07.08.52-.22.58-.15a39.61,39.61,0,0,1-5.88-7.86,3.83,3.83,0,0,0-.58.16,11.43,11.43,0,0,0,.1,5.07c.33,1.7.68,3.39,1,5.08l.58-.15a13.2,13.2,0,0,0-8.54-1.06,15,15,0,0,0-1.5.4,3.84,3.84,0,0,0-1.5.59c-.21.22,0,0,.22.09s.26.06.39.09c.34.09.66.22,1,.34a9.9,9.9,0,0,0,1.77.35,9.07,9.07,0,0,1,1.34.56,2.69,2.69,0,0,1,1.49,1c.38.76-1.09.58-1.57.65a20.76,20.76,0,0,0-4.14.73,16.18,16.18,0,0,0-3.27,1.65c-.93.61-2,1.43-2.17,2.61,0-.06.57-.08.58-.15"/><path class="cls-12" d="M247.52,456.35c-.05.38.22.63.51.83a9,9,0,0,1,1,.76,7.25,7.25,0,0,1,1.47,2,10.73,10.73,0,0,1,1,5.33l.57-.15c-.92-1.17-1.83-2.36-2.7-3.58a5.5,5.5,0,0,0-.58.16,6.19,6.19,0,0,0,.2,2l.58-.16c-.86-1-1.8-2-2.56-3.05a5.8,5.8,0,0,1-1.07-3.34s-.58.09-.58.15a5.83,5.83,0,0,0,1.07,3.35c.76,1.07,1.7,2,2.56,3,0,0,.57-.18.58-.16a6.14,6.14,0,0,1-.2-2.05l-.58.16q1.31,1.81,2.71,3.57a3.68,3.68,0,0,0,.57-.15,10.63,10.63,0,0,0-1-5.34,7.2,7.2,0,0,0-1.42-1.91,8,8,0,0,0-1-.76c-.31-.21-.63-.47-.57-.87,0,.07-.57.07-.58.15"/><path class="cls-12" d="M261.51,467.39c.37-6,1.15-13.66,7.42-16.53-.17.08-.4.07-.58.15-6.27,2.88-7.05,10.49-7.42,16.53,0-.06.58-.08.58-.15"/><path class="cls-12" d="M271.46,458.74c0-.41-1.08,0-1.29.07a3.33,3.33,0,0,0-1.35,1.54,11.8,11.8,0,0,0-1.09,2.4,13.28,13.28,0,0,1-.91,2.47c.06-.11.51,0,.57-.15.71-1.29.9-2.79,1.58-4.09a10.2,10.2,0,0,1,1-1.68,2.45,2.45,0,0,1,.63-.57c.07,0,.3-.1,0,0s0,0,0,0,.22.07.22.19c0,0,.59-.11.58-.16"/><path class="cls-12" d="M238.67,465.41a5.22,5.22,0,0,0-2.19-4,23.16,23.16,0,0,0-2-1.32,2.14,2.14,0,0,1-1.19-1.53l-.58.15a19.43,19.43,0,0,1,5.7,3.33,3.28,3.28,0,0,0,.58-.16c.15-1.52.35-3.16,1.47-4.3l-.57.16,1.2,5.18c.19.82.33,1.67.6,2.47a1.71,1.71,0,0,0,1.38,1.33c.19,0,.4-.17.58-.15a1.72,1.72,0,0,1-1.38-1.34c-.27-.79-.41-1.65-.6-2.46q-.6-2.6-1.21-5.19s-.54.12-.57.16c-1.13,1.13-1.33,2.77-1.48,4.3l.58-.16a19.19,19.19,0,0,0-5.7-3.32,3.75,3.75,0,0,0-.58.15,2.16,2.16,0,0,0,1.19,1.54,21,21,0,0,1,2,1.32,5.2,5.2,0,0,1,2.19,4c0-.05.58-.1.58-.16"/><path class="cls-12" d="M245.65,471.86a19.19,19.19,0,0,1-1.86-6.69,31.12,31.12,0,0,1-.34-7.34l-.58.15c.57,1.41,1.06,2.88,1.71,4.25a.6.6,0,0,0,1,.12c-.11.13-.47,0-.58.16l-.07.07.58-.15c-.33-.08-.39-.47-.5-.74-.18-.43-.35-.86-.52-1.29l-1-2.57s-.57.13-.58.15a31.23,31.23,0,0,0,.34,7.35,19.25,19.25,0,0,0,1.86,6.69s.56-.19.58-.16"/><path class="cls-12" d="M245.52,481.49a25.65,25.65,0,0,1-3.74-3.24,10.08,10.08,0,0,1-1.9-4.26l-.58.16c1.08.75,2.15,1.53,3.21,2.33a3.28,3.28,0,0,0,.58-.16c.08-2.53-2.14-4.54-1.81-7.1,0,.08-.57.08-.58.16-.34,2.55,1.89,4.57,1.81,7.1l.58-.16c-1.06-.8-2.13-1.58-3.21-2.33a5.25,5.25,0,0,0-.58.16,10,10,0,0,0,1.9,4.26,25.07,25.07,0,0,0,3.74,3.23c.1.08.49-.23.58-.15"/><path class="cls-12" d="M257,485.34a56.48,56.48,0,0,0-.27-10.56s-.54.11-.58.16a5.06,5.06,0,0,0-1.12,3.3l.58-.16a32.7,32.7,0,0,0-.65-5.91c-.32-1.6-.64-3.45-1.86-4.63-.07-.08-.51.22-.58.15,1.22,1.19,1.54,3,1.86,4.63a32.71,32.71,0,0,1,.65,5.92s.58-.1.58-.16a5.1,5.1,0,0,1,1.12-3.3l-.58.16a56.46,56.46,0,0,1,.27,10.56c0-.06.58-.09.58-.16"/><path class="cls-12" d="M219.76,482.62c2.39.21,4.81.33,7.19.67a7.94,7.94,0,0,1,5.17,2.39l.58-.16a4.2,4.2,0,0,0-1.86.2,5.54,5.54,0,0,0-1.28.6c-.24.15-.47.32-.7.49l-.44.34h.65c2.36,0,5.66,0,7.35,1.93.06.07.52-.22.58-.16-1.22-1.41-3.16-1.63-4.91-1.79-.54-.05-1.08-.08-1.62-.11l-.82,0h-.49c-.24,0-.22,0,.06-.17a3.51,3.51,0,0,1,2.9-1.14c.09,0,.54-.21.58-.16a7.94,7.94,0,0,0-5.17-2.39c-2.38-.34-4.8-.45-7.19-.66-.19,0-.4.17-.58.15"/><path class="cls-12" d="M235.59,491.29c.93-.28,1.74-.81,2.68-1.08l-.5.13c2.12-.18,4.3,1.93,5.76,3.24a16.3,16.3,0,0,0,6.13,3.68c2,.57,3.68-.25,5.61.05,1.31.2,2.48.69,3.85.45,3-.54,4.14-4.22,5.21-6.58a24.38,24.38,0,0,0,2.45-7.3,23.47,23.47,0,0,1,2.49-8.34h0c-3.92.91-5.62,4.08-6.57,7.8,0-.09.56,0,.58-.15a15.9,15.9,0,0,1,1.6-4.28c.47-.8,1.87-2.87,2.95-2.88s.09,1.21-.13,1.75a21,21,0,0,0-.76,2.19,30.5,30.5,0,0,0-.77,4.37c-.37,2.9-1.64,5.15-2.75,7.8a18.22,18.22,0,0,1-1.4,2.92c-.58.87-1.69,2.37-2.74,2.65l.37-.1c-2,.25-3.77-.73-5.72-.4-3.11.52-5.84-.7-8.33-2.54-1.94-1.45-4-4.15-6.53-4.49-1.41-.18-2.77.87-4,1.26l.56-.15"/><path class="cls-12" d="M243.6,489.62a21.42,21.42,0,0,1-4.44-3.6l-.58.16a16.69,16.69,0,0,0,2.24.25,6.12,6.12,0,0,0,1.6-.07c.25-.05.78-.11.55-.48a2.79,2.79,0,0,0-.77-.58c-.29-.22-.59-.43-.89-.64-2.21-1.57-4.46-3.44-7.17-4-.18,0-.41.19-.58.15a13.49,13.49,0,0,1,4.78,2.34l2.31,1.63,1.2.85c.21.15.89.52.46.78l.58-.15a12,12,0,0,1-3.73-.22c-.1,0-.53.21-.58.16a21.37,21.37,0,0,0,4.44,3.59c.12.08.46-.23.58-.15"/><path class="cls-12" d="M254.81,492.74a17.33,17.33,0,0,1-4.74-1.65c-.37-.19-.73-.4-1.08-.61a4.71,4.71,0,0,1-1-.68c-.3-.32.39-.47.62-.55A4.6,4.6,0,0,1,250,489c.06,0,.58-.17.59-.16a11.91,11.91,0,0,1-.63-2.7c-.08-.65-.31-1.79.25-2.28l-.57.16a23.5,23.5,0,0,1,3.71,5s.56-.2.58-.16a23.72,23.72,0,0,0-3.72-5,2.13,2.13,0,0,0-.57.16c-.56.49-.34,1.62-.26,2.27A12,12,0,0,0,250,489l.59-.16a9.37,9.37,0,0,0-2.11.4,5.05,5.05,0,0,0-.55.18c-.14.05-.56.15-.62.3s.8.73,1,.86a17.71,17.71,0,0,0,5.89,2.31c.18,0,.41-.19.58-.16"/><path class="cls-12" d="M262.39,473.29a20.78,20.78,0,0,1,2.22-2.74l-.58.15c0,.5.09,1,.14,1.51,0,.25.05.5.07.75s.12.49-.05.58l.21-.06h0l.36-.1a.08.08,0,0,1-.1-.06s-.58.18-.58.16.17,0,.25,0a2.42,2.42,0,0,0,.46-.13c.11-.05.09-.2.08-.31s0-.34-.05-.52c-.07-.67-.13-1.34-.19-2,0,0-.54.1-.58.15a20.24,20.24,0,0,0-2.22,2.75l.09,0,.2-.06.21-.05s.07,0,.08,0"/><path class="cls-12" d="M229.34,481.45a2.85,2.85,0,0,1-1.64-1l-.57.16a35.16,35.16,0,0,0,4-.69l.56-.15a36.44,36.44,0,0,1-4,.68,4.65,4.65,0,0,1-.57.16,2.9,2.9,0,0,0,1.63,1,1,1,0,0,0,.29-.08c.07,0,.21-.09.29-.08"/><path class="cls-12" d="M255.52,457.3s0,.06-.06.06l.58-.15c-.42-.08,1-3.84,1.17-4.2.65-1.44,1.4-2.84,2.13-4.25-.06.12-.52,0-.58.16a53.8,53.8,0,0,0-2.54,5.24,13.23,13.23,0,0,0-.77,2.7c0,.11-.12.45,0,.5s.13,0,.17,0,.46-.07.49-.19c0,.09-.55.06-.58.16"/><path class="cls-12" d="M261.71,491.46a20.91,20.91,0,0,0,2.47-5.57c0,.1-.55.06-.58.16a21.2,21.2,0,0,1-2.47,5.57s.25-.06.29-.08.26,0,.29-.08"/><path class="cls-12" d="M256.47,465.09c.2-.89.41-1.78.67-2.66a3.44,3.44,0,0,1,1.08-1.89l-.58.15a18.73,18.73,0,0,0,1.06,1.71c0,.06.55-.21.58-.15a18.73,18.73,0,0,1-1.06-1.71,2.93,2.93,0,0,0-.58.15,3.5,3.5,0,0,0-1.08,1.9c-.26.88-.47,1.77-.66,2.66a1.71,1.71,0,0,1,.29-.08s.28-.05.28-.08"/><path class="cls-15" d="M77.36,537.63a3.31,3.31,0,0,0,3.58-3.26c.2-14.33.84-67.64,0-75.63-1-9.24-11.3-24.64-24.65-17.24-10.69,5.93-9.87,25.27-9.12,32.74a3.32,3.32,0,0,0,3.31,3h1.64a3.33,3.33,0,0,0,3.27-4c-1-5.06-1.77-13.6,2.44-17.1,6.16-5.14,12.32-2.06,13.35,4.11.9,5.39,1.8,60.4,2,74a3.32,3.32,0,0,0,3.06,3.26Z"/><rect class="cls-16" x="624.86" y="27.47" width="145.45" height="205.24"/><rect class="cls-17" x="624.86" y="27.47" width="145.45" height="205.24"/><rect class="cls-18" x="677.06" y="162.45" width="25.05" height="22.37" rx="7.69"/><path class="cls-18" d="M664.25,87c-6.49,7.47-8,15.29-8.82,21-.39,2.82-.53,5.61,1.86,5.94l18.14,2.52c2.2.31,4.22-1.47,4.63-4a16.28,16.28,0,0,1,5.59-10.29,11.71,11.71,0,0,1,9.47-2.3,8,8,0,0,1,6.45,5.88,10.3,10.3,0,0,1-1.83,9.58c-3.59,4.11-6.83,7.84-9.68,11.12-7.67,8.86-9.54,11.13-11.29,15a37.15,37.15,0,0,0-2.72,8.71c-.59,3.13,1.4,6.12,4.11,6.12h19l5.18-8.19a32.14,32.14,0,0,1,3.34-4.47c7.2-8.91,10.8-9.13,15.38-15.34A33.36,33.36,0,0,0,730,109.53a32.34,32.34,0,0,0-3.88-16.35,6.76,6.76,0,0,0-.46-.72c-3.83-5.93-7.28-9.39-16.2-13.6A37.44,37.44,0,0,0,687.48,75C675.34,76.67,667.27,84,664.25,87Z"/><text class="cls-7" transform="translate(32.69 268.59)">Regler</text><text class="cls-19" transform="translate(33.31 300.66)">Vänd på korten för att veta mer om karaktärerna. Klick på <tspan x="0" y="23.56">knappen för att spela spelet och samla kort under nolle-p för </tspan><tspan x="0" y="47.13">att komma vidare och lösa mysteriet på campus norrköping</tspan></text><text class="cls-19" transform="translate(653.56 250.87)"><tspan class="cls-20">V</tspan><tspan x="12" y="0">em är det?</tspan></text><text class="cls-21" transform="translate(152.18 404.42)">Spelet börjar nu...</text></g></g></svg>