<svg xmlns="http://www.w3.org/2000/svg" xmlns:xlink="http://www.w3.org/1999/xlink" viewBox="0 0 167.69 178.91"><defs><style>.cls-1,.cls-8{fill:none;}.cls-2{fill:#e5b4a0;}.cls-3{fill:#ece6c5;}.cls-4{fill:#624530;}.cls-5{fill:#ed1c24;}.cls-10,.cls-11,.cls-12,.cls-13,.cls-14,.cls-16,.cls-17,.cls-19,.cls-6,.cls-8,.cls-9{stroke:#000;stroke-miterlimit:10;}.cls-10,.cls-11,.cls-12,.cls-13,.cls-14,.cls-16,.cls-17,.cls-19,.cls-6,.cls-9{stroke-width:0.25px;}.cls-6{fill:url(#Pilar_arabiska);}.cls-7{fill:#c1272d;}.cls-8{stroke-width:0.5px;}.cls-9{fill:#754c24;}.cls-10{fill:#753024;}.cls-11{fill:#736357;}.cls-12{fill:#534741;}.cls-13{fill:#c9cccf;}.cls-14{fill:#999;}.cls-15{fill:#1a1a1a;}.cls-16{fill:#e6e6e6;}.cls-17{fill:#ccc;}.cls-18{fill:#333;}.cls-19{fill:#fff;}.cls-20{font-size:18.18px;font-family:MonotypeCorsiva, Monotype Corsiva;}</style><pattern id="Pilar_arabiska" data-name="Pilar, arabiska" width="54.4" height="81.6" patternUnits="userSpaceOnUse" viewBox="0 0 54.4 81.6"><rect class="cls-1" width="54.4" height="81.6"/><polygon class="cls-2" points="50.07 82.16 52.8 80.8 52.8 77.26 56 77.26 56 80.8 73.6 89.6 73.6 83.2 76.8 81.6 76.8 92.8 65.6 98.4 65.6 95.2 72 92 54.4 83.2 50.1 85.35 50.07 82.16"/><polygon class="cls-2" points="56 77.26 56 80.8 58.73 82.17 58.75 85.38 54.4 83.2 36.8 92 43.2 95.2 43.2 98.4 32 92.8 32 81.6 35.2 83.2 35.2 89.6 52.8 80.8 52.8 77.26 56 77.26"/><polygon class="cls-3" points="11.78 77.31 9.6 78.4 16 81.6 16 84.8 4.8 79.2 4.8 77.26 11.78 77.31"/><polygon class="cls-3" points="49.6 77.26 49.6 79.2 38.4 84.8 38.4 81.6 44.8 78.4 42.55 77.28 49.6 77.26"/><polygon class="cls-3" points="27.2 72.8 38.4 78.4 35.2 80 28.8 76.8 28.8 94.4 46.4 103.2 46.4 96.8 49.6 95.2 49.6 106.4 38.4 112 38.4 108.8 44.8 105.6 27.2 96.8 9.6 105.6 16 108.8 16 112 4.8 106.4 4.8 95.2 8 96.8 8 103.2 25.6 94.4 25.6 76.8 19.2 80 16 78.4 27.2 72.8"/><polygon class="cls-2" points="-4.33 82.16 -1.6 80.8 -1.6 77.26 1.6 77.26 1.6 80.8 19.2 89.6 19.2 83.2 22.4 81.6 22.4 92.8 11.2 98.4 11.2 95.2 17.6 92 0 83.2 -4.3 85.35 -4.33 82.16"/><polygon class="cls-2" points="1.6 77.26 1.6 80.8 4.34 82.17 4.36 85.38 0 83.2 -17.6 92 -11.2 95.2 -11.2 98.4 -22.4 92.8 -22.4 81.6 -19.2 83.2 -19.2 89.6 -1.6 80.8 -1.6 77.26 1.6 77.26"/><polygon class="cls-2" points="50.07 0.56 52.8 -0.8 52.8 -4.34 56 -4.34 56 -0.8 73.6 8 73.6 1.6 76.8 0 76.8 11.2 65.6 16.8 65.6 13.6 72 10.4 54.4 1.6 50.1 3.75 50.07 0.56"/><polygon class="cls-3" points="50.07 27.76 52.8 26.4 52.8 8.8 50.08 10.16 50.08 6.96 54.4 4.8 65.6 10.4 62.4 12 56 8.8 56 26.4 73.6 35.2 73.6 28.8 76.8 27.2 76.8 38.4 65.6 44 65.6 40.8 72 37.6 54.4 28.8 50.1 30.95 50.07 27.76"/><polygon class="cls-3" points="50.08 54.96 52.8 53.6 52.8 36 50.09 37.35 50.11 34.14 54.4 32 65.6 37.6 62.4 39.2 56 36 56 53.6 73.6 62.4 73.6 56 76.8 54.4 76.8 65.6 65.6 71.2 65.6 68 72 64.8 54.4 56 50.11 58.14 50.08 54.96"/><polygon class="cls-2" points="50.06 85.36 54.4 83.2 59.88 85.94 66.26 85.93 56 80.8 56 63.2 62.4 66.4 65.6 64.8 54.4 59.2 50.09 61.35 50.04 64.58 52.8 63.2 52.8 80.8 50.08 82.16 50.06 85.36"/><rect class="cls-4" width="54.4" height="81.6"/><polygon class="cls-2" points="56 -4.34 56 -0.8 58.73 0.57 58.75 3.78 54.4 1.6 36.8 10.4 43.2 13.6 43.2 16.8 32 11.2 32 0 35.2 1.6 35.2 8 52.8 -0.8 52.8 -4.34 56 -4.34"/><polygon class="cls-3" points="11.78 -4.29 9.6 -3.2 16 0 16 3.2 4.8 -2.4 4.8 -4.34 11.78 -4.29"/><polygon class="cls-3" points="49.6 -4.34 49.6 -2.4 38.4 3.2 38.4 0 44.8 -3.2 42.55 -4.32 49.6 -4.34"/><polygon class="cls-3" points="58.74 10.17 56 8.8 56 26.4 58.75 27.78 58.75 30.98 54.4 28.8 36.8 37.6 43.2 40.8 43.2 44 32 38.4 32 27.2 35.2 28.8 35.2 35.2 52.8 26.4 52.8 8.8 46.4 12 43.2 10.4 54.4 4.8 58.75 6.98 58.74 10.17"/><polygon class="cls-3" points="27.2 -8.8 38.4 -3.2 35.2 -1.6 28.8 -4.8 28.8 12.8 46.4 21.6 46.4 15.2 49.6 13.6 49.6 24.8 38.4 30.4 38.4 27.2 44.8 24 27.2 15.2 9.6 24 16 27.2 16 30.4 4.8 24.8 4.8 13.6 8 15.2 8 21.6 25.6 12.8 25.6 -4.8 19.2 -1.6 16 -3.2 27.2 -8.8"/><polygon class="cls-2" points="-4.33 0.56 -1.6 -0.8 -1.6 -4.34 1.6 -4.34 1.6 -0.8 19.2 8 19.2 1.6 22.4 0 22.4 11.2 11.2 16.8 11.2 13.6 17.6 10.4 0 1.6 -4.3 3.75 -4.33 0.56"/><polygon class="cls-3" points="-4.32 27.76 -1.6 26.4 -1.6 8.8 -4.31 10.16 -4.32 6.96 0 4.8 11.2 10.4 8 12 1.6 8.8 1.6 26.4 19.2 35.2 19.2 28.8 22.4 27.2 22.4 38.4 11.2 44 11.2 40.8 17.6 37.6 0 28.8 -4.29 30.95 -4.32 27.76"/><polygon class="cls-3" points="58.76 37.38 56 36 56 53.6 58.75 54.98 58.77 58.18 54.4 56 36.8 64.8 43.2 68 43.2 71.2 32 65.6 32 54.4 35.2 56 35.2 62.4 52.8 53.6 52.8 36 46.4 39.2 43.2 37.6 54.4 32 58.74 34.17 58.76 37.38"/><polygon class="cls-2" points="27.2 18.4 38.4 24 35.2 25.6 28.8 22.4 28.8 40 46.4 48.8 46.4 42.4 49.6 40.8 49.6 52 38.4 57.6 38.4 54.4 44.8 51.2 27.2 42.4 9.6 51.2 16 54.4 16 57.6 4.8 52 4.8 40.8 8 42.4 8 48.8 25.6 40 25.6 22.4 19.2 25.6 16 24 27.2 18.4"/><polygon class="cls-2" points="58.78 64.59 56 63.2 56 80.8 58.74 82.17 58.77 85.38 54.4 83.2 48.94 85.93 42.56 85.92 52.8 80.8 52.8 63.2 46.4 66.4 43.2 64.8 54.4 59.2 58.74 61.37 58.78 64.59"/><polygon class="cls-3" points="27.2 45.6 38.4 51.2 35.2 52.8 28.8 49.6 28.8 67.2 46.4 76 46.4 69.6 49.6 68 49.6 79.2 38.4 84.8 38.4 81.6 44.8 78.4 27.2 69.6 9.6 78.4 16 81.6 16 84.8 4.8 79.2 4.8 68 8 69.6 8 76 25.6 67.2 25.6 49.6 19.2 52.8 16 51.2 27.2 45.6"/><polygon class="cls-3" points="25.6 85.91 25.6 76.8 19.2 80 16 78.4 27.2 72.8 38.4 78.4 35.2 80 28.8 76.8 28.8 85.91 25.6 85.91"/><polygon class="cls-3" points="-4.32 54.96 -1.6 53.6 -1.6 36 -4.31 37.35 -4.29 34.14 0 32 11.2 37.6 8 39.2 1.6 36 1.6 53.6 19.2 62.4 19.2 56 22.4 54.4 22.4 65.6 11.2 71.2 11.2 68 17.6 64.8 0 56 -4.29 58.14 -4.32 54.96"/><polygon class="cls-2" points="-4.33 85.36 0 83.2 5.49 85.94 11.87 85.93 1.6 80.8 1.6 63.2 8 66.4 11.2 64.8 0 59.2 -4.31 61.35 -4.36 64.58 -1.6 63.2 -1.6 80.8 -4.32 82.16 -4.33 85.36"/><polygon class="cls-2" points="1.6 -4.34 1.6 -0.8 4.34 0.57 4.36 3.78 0 1.6 -17.6 10.4 -11.2 13.6 -11.2 16.8 -22.4 11.2 -22.4 0 -19.2 1.6 -19.2 8 -1.6 -0.8 -1.6 -4.34 1.6 -4.34"/><polygon class="cls-3" points="4.35 10.17 1.6 8.8 1.6 26.4 4.36 27.78 4.35 30.98 0 28.8 -17.6 37.6 -11.2 40.8 -11.2 44 -22.4 38.4 -22.4 27.2 -19.2 28.8 -19.2 35.2 -1.6 26.4 -1.6 8.8 -8 12 -11.2 10.4 0 4.8 4.35 6.98 4.35 10.17"/><polygon class="cls-3" points="4.37 37.38 1.6 36 1.6 53.6 4.35 54.98 4.37 58.18 0 56 -17.6 64.8 -11.2 68 -11.2 71.2 -22.4 65.6 -22.4 54.4 -19.2 56 -19.2 62.4 -1.6 53.6 -1.6 36 -8 39.2 -11.2 37.6 0 32 4.35 34.17 4.37 37.38"/><polygon class="cls-2" points="4.39 64.59 1.6 63.2 1.6 80.8 4.35 82.17 4.37 85.38 0 83.2 -5.45 85.93 -11.83 85.92 -1.6 80.8 -1.6 63.2 -8 66.4 -11.2 64.8 0 59.2 4.34 61.37 4.39 64.59"/><polygon class="cls-2" points="50.06 3.77 54.4 1.6 59.88 4.34 66.26 4.33 56 -0.8 56 -18.4 62.4 -15.2 65.6 -16.8 54.4 -22.4 50.09 -20.24 50.04 -17.02 52.8 -18.4 52.8 -0.8 50.08 0.56 50.06 3.77"/><polygon class="cls-2" points="58.78 -17.01 56 -18.4 56 -0.8 58.74 0.57 58.77 3.78 54.4 1.6 48.94 4.33 42.56 4.32 52.8 -0.8 52.8 -18.4 46.4 -15.2 43.2 -16.8 54.4 -22.4 58.74 -20.23 58.78 -17.01"/><polygon class="cls-3" points="27.2 -36 38.4 -30.4 35.2 -28.8 28.8 -32 28.8 -14.4 46.4 -5.6 46.4 -12 49.6 -13.6 49.6 -2.4 38.4 3.2 38.4 0 44.8 -3.2 27.2 -12 9.6 -3.2 16 0 16 3.2 4.8 -2.4 4.8 -13.6 8 -12 8 -5.6 25.6 -14.4 25.6 -32 19.2 -28.8 16 -30.4 27.2 -36"/><polygon class="cls-3" points="25.6 4.31 25.6 -4.8 19.2 -1.6 16 -3.2 27.2 -8.8 38.4 -3.2 35.2 -1.6 28.8 -4.8 28.8 4.31 25.6 4.31"/><polygon class="cls-2" points="-4.33 3.77 0 1.6 5.49 4.34 11.87 4.33 1.6 -0.8 1.6 -18.4 8 -15.2 11.2 -16.8 0 -22.4 -4.31 -20.24 -4.36 -17.02 -1.6 -18.4 -1.6 -0.8 -4.32 0.56 -4.33 3.77"/><polygon class="cls-2" points="4.39 -17.01 1.6 -18.4 1.6 -0.8 4.35 0.57 4.37 3.78 0 1.6 -5.45 4.33 -11.83 4.32 -1.6 -0.8 -1.6 -18.4 -8 -15.2 -11.2 -16.8 0 -22.4 4.34 -20.23 4.39 -17.01"/></pattern></defs><title>microrummet_1</title><g id="Lager_2" data-name="Lager 2"><g id="Lager_1-2" data-name="Lager 1"><polygon class="cls-5" points="37.43 17.97 1.5 17.97 1.5 154.21 37.43 154.21 37.43 178.17 167.69 178.17 167.69 0 37.43 0 37.43 17.97"/><polygon class="cls-6" points="47.95 29.32 17.76 29.32 17.76 143.81 47.95 143.81 47.95 163.94 157.41 163.94 157.41 14.22 47.95 14.22 47.95 29.32"/><polygon class="cls-7" points="18.26 143.71 47.91 143.73 36.73 154.21 0 154.21 18.26 143.71"/><polygon class="cls-7" points="47.91 29.94 47.91 14.11 37.43 0 37.43 17.25 47.91 29.94"/><polygon class="cls-7" points="48.54 163.85 38.18 178.19 166.94 178.91 156.46 163.94 48.54 163.85"/><line class="cls-8" x1="1.5" y1="17.97" x2="18.71" y2="30.69"/><line class="cls-8" x1="0.75" y1="153.46" x2="18.71" y2="142.98"/><line class="cls-8" x1="38.18" y1="0.75" x2="48.66" y2="14.22"/><line class="cls-8" x1="36.68" y1="17.22" x2="47.16" y2="29.2"/><line class="cls-8" x1="47.16" y1="144.48" x2="36.68" y2="154.96"/><line class="cls-8" x1="48.66" y1="162.45" x2="38.18" y2="177.42"/><line class="cls-8" x1="156.46" y1="14.22" x2="166.94" y2="0.75"/><line class="cls-8" x1="156.46" y1="162.45" x2="166.94" y2="177.42"/><rect class="cls-9" x="57.53" y="78.86" width="82.31" height="40.24" rx="4.95" transform="translate(-0.3 197.66) rotate(-90)"/><rect class="cls-10" x="70.9" y="123.47" width="10.29" height="5.03" rx="1.43" transform="translate(-49.94 202.03) rotate(-90)"/><rect class="cls-10" x="70.9" y="106.75" width="10.29" height="5.03" rx="1.43" transform="translate(-33.22 185.31) rotate(-90)"/><rect class="cls-10" x="70.9" y="88.75" width="10.29" height="5.03" rx="1.43" transform="translate(-15.22 167.3) rotate(-90)"/><rect class="cls-10" x="70.9" y="72.03" width="10.29" height="5.03" rx="1.43" transform="translate(1.5 150.59) rotate(-90)"/><rect class="cls-10" x="116.17" y="122.18" width="10.29" height="5.03" rx="1.43" transform="translate(-3.38 246.02) rotate(-90)"/><rect class="cls-10" x="116.17" y="105.46" width="10.29" height="5.03" rx="1.43" transform="translate(13.34 229.3) rotate(-90)"/><rect class="cls-10" x="116.17" y="87.46" width="10.29" height="5.03" rx="1.43" transform="translate(31.34 211.29) rotate(-90)"/><rect class="cls-10" x="116.17" y="70.74" width="10.29" height="5.03" rx="1.43" transform="translate(48.06 194.57) rotate(-90)"/><rect class="cls-10" x="92.39" y="140.13" width="10.06" height="5.14" rx="1.43" transform="translate(194.84 285.41) rotate(-180)"/><rect class="cls-10" x="92.39" y="52.68" width="10.06" height="5.14" rx="1.43" transform="translate(194.84 110.5) rotate(-180)"/><rect class="cls-11" x="17.59" y="41.55" width="16.47" height="89.83"/><rect class="cls-12" x="34.06" y="41.55" width="2.99" height="89.83"/><rect class="cls-13" x="20.59" y="46.04" width="10.48" height="13.47"/><rect class="cls-14" x="29.57" y="46.04" width="1.5" height="13.47"/><rect class="cls-15" x="29.57" y="47.54" width="1.5" height="10.48"/><rect class="cls-13" x="20.59" y="46.04" width="10.48" height="13.47"/><rect class="cls-14" x="29.57" y="46.04" width="1.5" height="13.47"/><rect class="cls-15" x="29.57" y="47.54" width="1.5" height="10.48"/><rect class="cls-13" x="20.59" y="64" width="10.48" height="13.47"/><rect class="cls-14" x="29.57" y="64" width="1.5" height="13.47"/><rect class="cls-15" x="29.57" y="65.5" width="1.5" height="10.48"/><rect class="cls-13" x="20.59" y="81.97" width="10.48" height="13.47"/><rect class="cls-14" x="29.57" y="81.97" width="1.5" height="13.47"/><rect class="cls-15" x="29.57" y="83.47" width="1.5" height="10.48"/><rect class="cls-13" x="20.59" y="102.93" width="10.48" height="13.47"/><rect class="cls-14" x="29.57" y="102.93" width="1.5" height="13.47"/><rect class="cls-15" x="29.57" y="104.43" width="1.5" height="10.48"/><rect class="cls-16" x="128.38" y="4.12" width="28.45" height="28.45" rx="2.09"/><rect class="cls-17" x="128.38" y="13.1" width="28.45" height="19.46" rx="1.53"/><rect class="cls-18" x="129.87" y="22.08" width="1.51" height="2.99" transform="translate(261.25 47.16) rotate(180)"/><rect class="cls-19" x="42.81" y="75.85" width="100" height="31.38" rx="10.35"/><text class="cls-20" transform="translate(48.38 97.31)">Microrummet</text></g></g></svg>