<svg xmlns="http://www.w3.org/2000/svg" xmlns:xlink="http://www.w3.org/1999/xlink" viewBox="0 0 178.91 167.69"><defs><style>.cls-1,.cls-10,.cls-7{fill:none;}.cls-2{fill:#9a7e4d;}.cls-3{fill:#7a5b1f;}.cls-4{fill:#603813;}.cls-10,.cls-11,.cls-12,.cls-13,.cls-14,.cls-5,.cls-7,.cls-9{stroke:#000;stroke-miterlimit:10;}.cls-14,.cls-5{stroke-width:0.25px;}.cls-5{fill:url(#Fiskben_2);}.cls-13,.cls-6{fill:#42210b;}.cls-11,.cls-12,.cls-13,.cls-7,.cls-9{stroke-width:0.5px;}.cls-8,.cls-9{fill:#736357;}.cls-11{fill:#009245;}.cls-12{fill:#006837;}.cls-14{fill:#fff;}.cls-15{font-size:18.18px;font-family:MonotypeCorsiva, Monotype Corsiva;}</style><pattern id="Fiskben_2" data-name="Fiskben 2" width="75.66" height="57" patternTransform="matrix(1.5, 0, 0, -1.5, -220.7, -168.39)" patternUnits="userSpaceOnUse" viewBox="0 0 75.66 57"><rect class="cls-1" width="75.66" height="57"/><rect class="cls-2" x="75.52" y="38.74" width="75.79" height="28.68"/><rect class="cls-2" x="-0.14" y="38.74" width="75.79" height="28.68"/><path class="cls-3" d="M10.31,59.68a1.81,1.81,0,1,1,2.38-2.74l5.47,4.76a1.81,1.81,0,1,1-2.38,2.73Z"/><path class="cls-3" d="M29.22,59.68a1.81,1.81,0,1,1,2.38-2.74l5.47,4.76a1.81,1.81,0,1,1-2.38,2.73Z"/><path class="cls-3" d="M48.14,59.68a1.81,1.81,0,1,1,2.38-2.74L56,61.7a1.81,1.81,0,1,1-2.38,2.73Z"/><path class="cls-3" d="M67.05,59.68a1.81,1.81,0,1,1,2.38-2.74L74.9,61.7a1.81,1.81,0,1,1-2.38,2.73Z"/><path class="cls-3" d="M10.31,52.55a1.81,1.81,0,1,1,2.38-2.73l5.47,4.75a1.81,1.81,0,0,1-2.38,2.74Z"/><path class="cls-3" d="M29.22,52.55a1.81,1.81,0,1,1,2.38-2.73l5.47,4.75a1.81,1.81,0,0,1-2.38,2.74Z"/><path class="cls-3" d="M48.14,52.55a1.81,1.81,0,1,1,2.38-2.73L56,54.57a1.81,1.81,0,0,1-2.38,2.74Z"/><path class="cls-3" d="M67.05,52.55a1.81,1.81,0,1,1,2.38-2.73l5.47,4.75a1.81,1.81,0,0,1-2.38,2.74Z"/><path class="cls-3" d="M10.31,45.43a1.81,1.81,0,1,1,2.38-2.74l5.47,4.76a1.81,1.81,0,1,1-2.38,2.73Z"/><path class="cls-3" d="M29.22,45.43a1.81,1.81,0,1,1,2.38-2.74l5.47,4.76a1.81,1.81,0,1,1-2.38,2.73Z"/><path class="cls-3" d="M48.14,45.43a1.81,1.81,0,1,1,2.38-2.74L56,47.45a1.81,1.81,0,1,1-2.38,2.73Z"/><path class="cls-3" d="M67.05,45.43a1.81,1.81,0,1,1,2.38-2.74l5.47,4.76a1.81,1.81,0,1,1-2.38,2.73Z"/><path class="cls-3" d="M8.7,56.11a1.81,1.81,0,1,0-2.38-2.73L.85,58.13a1.83,1.83,0,0,0-.18,2.56,1.81,1.81,0,0,0,2.56.18Z"/><path class="cls-3" d="M27.62,56.11a1.81,1.81,0,0,0-2.38-2.73l-5.47,4.75a1.81,1.81,0,0,0,2.37,2.74Z"/><path class="cls-3" d="M8.7,42.16a1.81,1.81,0,1,0-2.38-2.74L.85,44.18a1.81,1.81,0,1,0,2.38,2.73Z"/><path class="cls-3" d="M8.7,49a1.81,1.81,0,0,0-2.38-2.74L.85,51a1.81,1.81,0,0,0,2.38,2.74Z"/><path class="cls-3" d="M27.62,42.16a1.81,1.81,0,0,0-2.38-2.74l-5.47,4.76a1.81,1.81,0,0,0,2.37,2.73Z"/><path class="cls-3" d="M27.62,49a1.81,1.81,0,0,0-2.38-2.74L19.77,51a1.81,1.81,0,0,0,2.37,2.74Z"/><path class="cls-3" d="M46.53,56.11a1.81,1.81,0,1,0-2.38-2.73l-5.47,4.75a1.81,1.81,0,1,0,2.38,2.74Z"/><path class="cls-3" d="M65.44,56.11a1.81,1.81,0,1,0-2.37-2.73l-5.48,4.75a1.82,1.82,0,0,0-.17,2.56,1.8,1.8,0,0,0,2.55.18Z"/><path class="cls-3" d="M46.53,42.16a1.81,1.81,0,0,0-2.38-2.74l-5.47,4.76a1.81,1.81,0,1,0,2.38,2.73Z"/><path class="cls-3" d="M46.53,49a1.81,1.81,0,0,0-2.38-2.74L38.68,51a1.81,1.81,0,1,0,2.38,2.74Z"/><path class="cls-3" d="M65.44,42.16a1.81,1.81,0,0,0-2.37-2.74l-5.48,4.76A1.81,1.81,0,0,0,60,46.91Z"/><path class="cls-3" d="M65.44,49a1.81,1.81,0,0,0-2.37-2.74L57.59,51A1.81,1.81,0,0,0,60,53.75Z"/><rect class="cls-2" x="75.52" y="10.24" width="75.79" height="28.68"/><rect class="cls-2" x="-0.14" y="10.24" width="75.79" height="28.68"/><path class="cls-3" d="M10.31,38.3a1.81,1.81,0,1,1,2.38-2.73l5.47,4.75a1.81,1.81,0,0,1-2.38,2.74Z"/><path class="cls-3" d="M29.22,38.3a1.81,1.81,0,1,1,2.38-2.73l5.47,4.75a1.81,1.81,0,0,1-2.38,2.74Z"/><path class="cls-3" d="M48.14,38.3a1.81,1.81,0,1,1,2.38-2.73L56,40.32a1.81,1.81,0,0,1-2.38,2.74Z"/><path class="cls-3" d="M67.05,38.3a1.81,1.81,0,1,1,2.38-2.73l5.47,4.75a1.81,1.81,0,0,1-2.38,2.74Z"/><path class="cls-3" d="M10.31,31.18a1.81,1.81,0,1,1,2.38-2.74l5.47,4.76a1.81,1.81,0,1,1-2.38,2.73Z"/><path class="cls-3" d="M29.22,31.18a1.81,1.81,0,1,1,2.38-2.74l5.47,4.76a1.81,1.81,0,1,1-2.38,2.73Z"/><path class="cls-3" d="M48.14,31.18a1.81,1.81,0,1,1,2.38-2.74L56,33.2a1.81,1.81,0,1,1-2.38,2.73Z"/><path class="cls-3" d="M67.05,31.18a1.81,1.81,0,1,1,2.38-2.74L74.9,33.2a1.81,1.81,0,1,1-2.38,2.73Z"/><path class="cls-3" d="M10.31,24.05a1.81,1.81,0,1,1,2.38-2.73l5.47,4.75a1.81,1.81,0,0,1-2.38,2.74Z"/><path class="cls-3" d="M29.22,24.05a1.81,1.81,0,1,1,2.38-2.73l5.47,4.75a1.81,1.81,0,0,1-2.38,2.74Z"/><path class="cls-3" d="M48.14,24.05a1.81,1.81,0,1,1,2.38-2.73L56,26.07a1.81,1.81,0,0,1-2.38,2.74Z"/><path class="cls-3" d="M67.05,24.05a1.81,1.81,0,1,1,2.38-2.73l5.47,4.75a1.81,1.81,0,0,1-2.38,2.74Z"/><path class="cls-3" d="M10.31,16.93a1.81,1.81,0,0,1,2.38-2.74L18.16,19a1.81,1.81,0,1,1-2.38,2.73Z"/><path class="cls-3" d="M29.22,16.93a1.81,1.81,0,0,1,2.38-2.74L37.07,19a1.81,1.81,0,1,1-2.38,2.73Z"/><path class="cls-3" d="M48.14,16.93a1.81,1.81,0,1,1,2.38-2.74L56,19a1.81,1.81,0,1,1-2.38,2.73Z"/><path class="cls-3" d="M67.05,16.93a1.81,1.81,0,1,1,2.38-2.74L74.9,19a1.81,1.81,0,1,1-2.38,2.73Z"/><path class="cls-3" d="M8.7,34.74A1.81,1.81,0,1,0,6.32,32L.85,36.76A1.81,1.81,0,0,0,3.23,39.5Z"/><path class="cls-3" d="M27.62,34.74A1.81,1.81,0,0,0,25.24,32l-5.47,4.76a1.81,1.81,0,0,0,2.37,2.74Z"/><path class="cls-3" d="M8.7,27.61a1.81,1.81,0,1,0-2.38-2.73L.85,29.63a1.83,1.83,0,0,0-.18,2.56,1.81,1.81,0,0,0,2.56.18Z"/><path class="cls-3" d="M27.62,27.61a1.81,1.81,0,0,0-2.38-2.73l-5.47,4.75a1.81,1.81,0,0,0,2.37,2.74Z"/><path class="cls-3" d="M46.53,34.74A1.81,1.81,0,0,0,44.15,32l-5.47,4.76a1.81,1.81,0,1,0,2.38,2.74Z"/><path class="cls-3" d="M65.44,34.74A1.81,1.81,0,0,0,63.07,32l-5.48,4.76A1.81,1.81,0,0,0,60,39.5Z"/><path class="cls-3" d="M8.7,13.66a1.81,1.81,0,1,0-2.38-2.74L.85,15.68a1.81,1.81,0,1,0,2.38,2.73Z"/><path class="cls-3" d="M8.7,20.49a1.81,1.81,0,1,0-2.38-2.74L.85,22.51a1.81,1.81,0,0,0,2.38,2.74Z"/><path class="cls-3" d="M27.62,13.66a1.81,1.81,0,0,0-2.38-2.74l-5.47,4.76a1.81,1.81,0,0,0,2.37,2.73Z"/><path class="cls-3" d="M27.62,20.49a1.81,1.81,0,0,0-2.38-2.74l-5.47,4.76a1.81,1.81,0,0,0,2.37,2.74Z"/><path class="cls-3" d="M46.53,27.61a1.81,1.81,0,1,0-2.38-2.73l-5.47,4.75a1.81,1.81,0,1,0,2.38,2.74Z"/><path class="cls-3" d="M65.44,27.61a1.81,1.81,0,0,0-2.37-2.73l-5.48,4.75a1.82,1.82,0,0,0-.17,2.56,1.8,1.8,0,0,0,2.55.18Z"/><path class="cls-3" d="M46.53,13.66a1.81,1.81,0,0,0-2.38-2.74l-5.47,4.76a1.81,1.81,0,1,0,2.38,2.73Z"/><path class="cls-3" d="M46.53,20.49a1.81,1.81,0,0,0-2.38-2.74l-5.47,4.76a1.81,1.81,0,1,0,2.38,2.74Z"/><path class="cls-3" d="M65.44,13.66a1.81,1.81,0,0,0-2.37-2.74l-5.48,4.76A1.81,1.81,0,0,0,60,18.41Z"/><path class="cls-3" d="M65.44,20.49a1.81,1.81,0,0,0-2.37-2.74l-5.48,4.76A1.81,1.81,0,0,0,60,25.25Z"/><rect class="cls-2" x="75.52" y="-18.26" width="75.79" height="28.68"/><rect class="cls-2" x="-0.14" y="-18.26" width="75.79" height="28.68"/><path class="cls-3" d="M10.31,9.8a1.81,1.81,0,1,1,2.38-2.73l5.47,4.75a1.81,1.81,0,0,1-2.38,2.74Z"/><path class="cls-3" d="M29.22,9.8A1.81,1.81,0,1,1,31.6,7.07l5.47,4.75a1.81,1.81,0,1,1-2.38,2.74Z"/><path class="cls-3" d="M48.14,9.8a1.81,1.81,0,1,1,2.38-2.73L56,11.82a1.81,1.81,0,0,1-2.38,2.74Z"/><path class="cls-3" d="M67.05,9.8a1.81,1.81,0,1,1,2.38-2.73l5.47,4.75a1.81,1.81,0,0,1-2.38,2.74Z"/><path class="cls-3" d="M10.31,2.68A1.81,1.81,0,1,1,12.69-.06L18.16,4.7a1.81,1.81,0,1,1-2.38,2.73Z"/><path class="cls-3" d="M29.22,2.68A1.81,1.81,0,0,1,31.6-.06L37.07,4.7a1.81,1.81,0,1,1-2.38,2.73Z"/><path class="cls-3" d="M48.14,2.68A1.81,1.81,0,1,1,50.52-.06L56,4.7a1.81,1.81,0,1,1-2.38,2.73Z"/><path class="cls-3" d="M67.05,2.68A1.81,1.81,0,1,1,69.43-.06L74.9,4.7a1.81,1.81,0,1,1-2.38,2.73Z"/><path class="cls-3" d="M10.31-4.45A1.81,1.81,0,0,1,10.13-7a1.82,1.82,0,0,1,2.56-.17l5.47,4.75A1.83,1.83,0,0,1,18.34.13a1.83,1.83,0,0,1-2.56.18Z"/><path class="cls-3" d="M29.22-4.45A1.83,1.83,0,0,1,29-7a1.82,1.82,0,0,1,2.56-.17l5.47,4.75A1.81,1.81,0,0,1,37.25.13a1.83,1.83,0,0,1-2.56.18Z"/><path class="cls-3" d="M48.14-4.45A1.81,1.81,0,0,1,48-7a1.82,1.82,0,0,1,2.56-.17L56-2.43A1.83,1.83,0,0,1,56.17.13a1.83,1.83,0,0,1-2.56.18Z"/><path class="cls-3" d="M67.05-4.45A1.83,1.83,0,0,1,66.87-7a1.82,1.82,0,0,1,2.56-.17L74.9-2.43A1.81,1.81,0,0,1,75.08.13a1.83,1.83,0,0,1-2.56.18Z"/><path class="cls-3" d="M8.7,6.24A1.81,1.81,0,0,0,6.32,3.5L.85,8.26A1.81,1.81,0,0,0,3.23,11Z"/><path class="cls-3" d="M27.62,6.24A1.81,1.81,0,0,0,25.24,3.5L19.77,8.26A1.81,1.81,0,0,0,22.14,11Z"/><path class="cls-3" d="M8.7-.89a1.8,1.8,0,0,0,.18-2.55,1.81,1.81,0,0,0-2.56-.18L.85,1.13A1.83,1.83,0,0,0,.67,3.69a1.81,1.81,0,0,0,2.56.18Z"/><path class="cls-3" d="M27.62-.89a1.81,1.81,0,0,0,.17-2.55,1.8,1.8,0,0,0-2.55-.18L19.77,1.13a1.81,1.81,0,0,0,2.37,2.74Z"/><path class="cls-3" d="M46.53,6.24A1.81,1.81,0,1,0,44.15,3.5L38.68,8.26A1.81,1.81,0,1,0,41.06,11Z"/><path class="cls-3" d="M65.44,6.24A1.81,1.81,0,0,0,63.07,3.5L57.59,8.26A1.81,1.81,0,0,0,60,11Z"/><path class="cls-3" d="M46.53-.89a1.82,1.82,0,0,0,.18-2.55,1.81,1.81,0,0,0-2.56-.18L38.68,1.13a1.81,1.81,0,0,0,2.38,2.74Z"/><path class="cls-3" d="M65.44-.89a1.8,1.8,0,0,0,.18-2.55,1.8,1.8,0,0,0-2.55-.18L57.59,1.13a1.82,1.82,0,0,0-.17,2.56A1.8,1.8,0,0,0,60,3.87Z"/></pattern></defs><title>trappan</title><g id="Lager_2" data-name="Lager 2"><g id="Lager_1-2" data-name="Lager 1"><polygon class="cls-4" points="160.95 130.26 160.95 166.19 24.7 166.19 24.7 130.26 0.75 130.26 0.75 0 178.91 0 178.91 130.26 160.95 130.26"/><polygon class="cls-5" points="149.59 119.73 149.59 149.93 35.1 149.93 35.1 119.73 14.97 119.73 14.97 10.27 164.69 10.27 164.69 119.73 149.59 119.73"/><polygon class="cls-6" points="35.21 149.42 35.18 119.78 24.7 130.95 24.7 167.69 35.21 149.42"/><polygon class="cls-6" points="148.97 119.78 164.8 119.78 178.91 130.26 161.67 130.26 148.97 119.78"/><polygon class="cls-6" points="15.07 119.15 0.72 129.51 0 0.75 14.97 11.23 15.07 119.15"/><line class="cls-7" x1="160.95" y1="166.19" x2="148.22" y2="148.97"/><line class="cls-7" x1="25.45" y1="166.94" x2="35.93" y2="148.97"/><line class="cls-7" x1="178.17" y1="129.51" x2="164.69" y2="119.03"/><line class="cls-7" x1="161.7" y1="131" x2="149.72" y2="120.52"/><line class="cls-7" x1="34.44" y1="120.52" x2="23.96" y2="131"/><line class="cls-7" x1="16.47" y1="119.03" x2="1.5" y2="129.51"/><line class="cls-7" x1="164.69" y1="11.23" x2="178.17" y2="0.75"/><line class="cls-7" x1="16.47" y1="11.23" x2="1.5" y2="0.75"/><rect class="cls-8" x="58.12" y="10.26" width="64" height="72"/><rect class="cls-9" x="58.62" y="9.76" width="63" height="9"/><rect class="cls-9" x="58.62" y="18.76" width="63" height="9"/><rect class="cls-9" x="58.62" y="27.76" width="63" height="9"/><rect class="cls-9" x="58.62" y="45.76" width="63" height="9"/><rect class="cls-9" x="58.62" y="36.76" width="63" height="9"/><rect class="cls-9" x="58.62" y="54.76" width="63" height="9"/><rect class="cls-9" x="58.62" y="63.76" width="63" height="9"/><rect class="cls-9" x="58.62" y="72.76" width="63" height="9"/><line class="cls-10" x1="57.12" y1="9.26" x2="57.12" y2="80.26"/><line class="cls-10" x1="123.62" y1="10.26" x2="123.62" y2="81.26"/><rect class="cls-11" x="35.62" y="131.76" width="59" height="18" rx="4.24"/><rect class="cls-12" x="35.62" y="149.76" width="59" height="7" rx="2.56"/><rect class="cls-12" x="90.62" y="136.76" width="4" height="13" rx="1.29"/><rect class="cls-12" x="35.62" y="137.76" width="4" height="12" rx="1.7"/><rect class="cls-13" x="43.62" y="129.76" width="2" height="2"/><rect class="cls-13" x="82.62" y="129.76" width="2" height="2"/><rect class="cls-14" x="37.13" y="74.22" width="100" height="31.38" rx="10.35"/><text class="cls-15" transform="translate(42.7 95.67)"><tspan xml:space="preserve">    Trappan</tspan></text><rect class="cls-14" x="37.13" y="74.22" width="100" height="31.38" rx="10.35"/><text class="cls-15" transform="translate(42.7 95.67)"><tspan xml:space="preserve">    Trappan</tspan></text></g></g></svg>