<svg xmlns="http://www.w3.org/2000/svg" xmlns:xlink="http://www.w3.org/1999/xlink" viewBox="0 0 178.91 167.69"><defs><style>.cls-1,.cls-10,.cls-19{fill:none;}.cls-2{fill:#d2623e;}.cls-3{fill:#b5cca3;}.cls-4{fill:#1d1d1b;}.cls-5{fill:#ee8d5a;}.cls-6{fill:#facc6b;}.cls-7{fill:#fbb03b;}.cls-10,.cls-11,.cls-12,.cls-13,.cls-14,.cls-15,.cls-16,.cls-17,.cls-19,.cls-20,.cls-21,.cls-8{stroke:#000;stroke-miterlimit:10;}.cls-17,.cls-19,.cls-21,.cls-8{stroke-width:0.25px;}.cls-8{fill:url(#Sexhörnigt_persisk);}.cls-9{fill:#f7931e;}.cls-10,.cls-11,.cls-12,.cls-13,.cls-14,.cls-15,.cls-16,.cls-20{stroke-width:0.5px;}.cls-11{fill:#0071bc;}.cls-12{fill:#005fbc;}.cls-13{fill:#754c24;}.cls-14{fill:#603813;}.cls-15{fill:#4d4d4d;}.cls-16{fill:#004dbc;}.cls-17{fill:#c1272d;}.cls-18{fill:#ccc;}.cls-20{fill:#8c6239;}.cls-21{fill:#fff;}.cls-22{font-size:18.18px;font-family:MonotypeCorsiva, Monotype Corsiva;}</style><pattern id="Sexhörnigt_persisk" data-name="Sexhörnigt, persisk" width="71.71" height="82.81" patternTransform="translate(-127.25 4.62) scale(1.5)" patternUnits="userSpaceOnUse" viewBox="0 0 71.72 82.81"><rect class="cls-1" width="71.71" height="82.81"/><polygon class="cls-2" points="67.34 75.23 76.09 75.23 80.47 82.81 76.09 90.39 67.34 90.39 62.97 82.81 67.34 75.23"/><polygon class="cls-2" points="-4.38 75.23 4.38 75.23 8.75 82.81 4.38 90.39 -4.38 90.39 -8.75 82.81 -4.38 75.23"/><polygon class="cls-2" points="76.09 90.39 67.34 90.39 62.97 82.81 67.34 75.23 76.09 75.23 80.47 82.81 76.09 90.39"/><rect class="cls-3" x="31.48" y="78.44" width="8.75" height="8.75"/><polygon class="cls-4" points="55.39 87.19 62.97 82.81 55.39 78.44 55.39 87.19"/><polygon class="cls-4" points="16.33 87.19 8.75 82.81 16.33 78.44 16.33 87.19"/><polygon class="cls-2" points="4.37 90.39 -4.38 90.39 -8.75 82.81 -4.38 75.23 4.37 75.23 8.75 82.81 4.37 90.39"/><polygon class="cls-2" points="67.34 75.23 76.09 75.23 80.47 82.81 76.09 90.39 67.34 90.39 62.97 82.81 67.34 75.23"/><polygon class="cls-2" points="67.34 33.83 76.09 33.83 80.47 41.41 76.09 48.98 67.34 48.98 62.97 41.41 67.34 33.83"/><polygon class="cls-2" points="67.34 -7.58 76.09 -7.58 80.47 0 76.09 7.58 67.34 7.58 62.97 0 67.34 -7.58"/><rect class="cls-3" x="67.34" y="57.73" width="8.75" height="8.75"/><rect class="cls-3" x="67.34" y="16.33" width="8.75" height="8.75"/><rect class="cls-5" width="71.71" height="82.81"/><polygon class="cls-2" points="-4.38 75.23 4.38 75.23 8.75 82.81 4.38 90.39 -4.38 90.39 -8.75 82.81 -4.38 75.23"/><polygon class="cls-2" points="67.34 90.39 62.97 82.81 67.34 75.23 76.09 75.23 80.47 82.81 76.09 90.39 67.34 90.39"/><polygon class="cls-2" points="40.23 54.53 44.61 62.11 40.23 69.69 31.48 69.69 27.11 62.11 31.48 54.53 40.23 54.53"/><path class="cls-4" d="M35.86,62.11"/><polygon class="cls-2" points="-4.38 33.83 4.38 33.83 8.75 41.41 4.38 48.98 -4.38 48.98 -8.75 41.41 -4.38 33.83"/><polygon class="cls-2" points="76.09 48.98 67.34 48.98 62.97 41.41 67.34 33.83 76.09 33.83 80.47 41.41 76.09 48.98"/><polygon class="cls-2" points="44.61 20.7 40.23 28.28 31.48 28.28 27.11 20.7 31.48 13.13 40.23 13.13 44.61 20.7"/><path class="cls-4" d="M35.86,20.7"/><polygon class="cls-2" points="-4.38 -7.58 4.38 -7.58 8.75 0 4.38 7.58 -4.38 7.58 -8.75 0 -4.38 -7.58"/><polygon class="cls-2" points="76.09 7.58 67.34 7.58 62.97 0 67.34 -7.58 76.09 -7.58 80.47 0 76.09 7.58"/><polygon class="cls-3" points="19.53 66.48 11.95 70.86 16.33 78.44 23.9 74.06 19.53 66.48"/><rect class="cls-3" x="31.48" y="78.44" width="8.75" height="8.75"/><polygon class="cls-3" points="47.81 74.06 55.39 78.44 59.76 70.86 52.19 66.48 47.81 74.06"/><rect class="cls-3" x="-4.38" y="57.73" width="8.75" height="8.75"/><rect class="cls-3" x="67.34" y="57.73" width="8.75" height="8.75"/><polygon class="cls-3" points="47.81 32.66 55.39 37.03 59.76 29.45 52.19 25.08 47.81 32.66"/><polygon class="cls-3" points="52.19 57.73 59.76 53.36 55.39 45.78 47.81 50.16 52.19 57.73"/><polygon class="cls-3" points="16.33 37.03 23.9 32.66 19.53 25.08 11.95 29.45 16.33 37.03"/><polygon class="cls-3" points="11.95 53.36 19.53 57.73 23.9 50.16 16.33 45.78 11.95 53.36"/><rect class="cls-3" x="31.48" y="37.03" width="8.75" height="8.75"/><rect class="cls-3" x="-4.38" y="16.33" width="8.75" height="8.75"/><rect class="cls-3" x="67.34" y="16.33" width="8.75" height="8.75"/><polygon class="cls-3" points="52.19 16.33 59.76 11.95 55.39 4.38 47.81 8.75 52.19 16.33"/><rect class="cls-3" x="31.48" y="-4.38" width="8.75" height="8.75"/><polygon class="cls-3" points="11.95 11.95 19.53 16.33 23.9 8.75 16.33 4.38 11.95 11.95"/><polygon class="cls-6" points="23.9 74.06 31.48 69.69 31.48 78.44 23.9 74.06"/><polygon class="cls-4" points="16.33 78.44 8.75 82.81 16.33 87.19 16.33 78.44"/><polygon class="cls-4" points="55.39 78.44 62.97 82.81 55.39 87.19 55.39 78.44"/><polygon class="cls-4" points="40.23 78.44 40.23 69.69 47.81 74.06 40.23 78.44"/><polygon class="cls-6" points="11.95 70.86 4.38 75.23 4.38 66.48 11.95 70.86"/><polygon class="cls-4" points="19.53 57.73 27.11 62.11 19.53 66.48 19.53 57.73"/><polygon class="cls-6" points="11.95 53.36 4.38 48.98 4.38 57.73 11.95 53.36"/><polygon class="cls-6" points="59.76 53.36 67.34 48.98 67.34 57.73 59.76 53.36"/><polygon class="cls-6" points="52.19 66.48 44.61 62.11 52.19 57.73 52.19 66.48"/><polygon class="cls-6" points="59.76 70.86 67.34 75.23 67.34 66.48 59.76 70.86"/><polygon class="cls-4" points="40.23 37.03 40.23 28.28 47.81 32.66 40.23 37.03"/><polygon class="cls-4" points="47.81 50.16 40.23 54.53 40.23 45.78 47.81 50.16"/><polygon class="cls-4" points="55.39 45.78 62.97 41.41 55.39 37.03 55.39 45.78"/><polygon class="cls-4" points="16.33 45.78 8.75 41.41 16.33 37.03 16.33 45.78"/><polygon class="cls-6" points="31.48 45.78 31.48 54.53 23.9 50.16 31.48 45.78"/><polygon class="cls-6" points="31.48 37.03 31.48 28.28 23.9 32.66 31.48 37.03"/><polygon class="cls-6" points="11.95 29.45 4.38 33.83 4.38 25.08 11.95 29.45"/><polygon class="cls-4" points="19.53 16.33 27.11 20.7 19.53 25.08 19.53 16.33"/><polygon class="cls-6" points="11.95 11.95 4.38 7.58 4.38 16.33 11.95 11.95"/><polygon class="cls-6" points="59.76 11.95 67.34 7.58 67.34 16.33 59.76 11.95"/><polygon class="cls-6" points="52.19 25.08 44.61 20.7 52.19 16.33 52.19 25.08"/><polygon class="cls-6" points="59.76 29.45 67.34 33.83 67.34 25.08 59.76 29.45"/><polygon class="cls-4" points="47.81 8.75 40.23 13.13 40.23 4.38 47.81 8.75"/><polygon class="cls-4" points="55.39 4.38 62.97 0 55.39 -4.38 55.39 4.38"/><polygon class="cls-4" points="16.33 4.38 8.75 0 16.33 -4.38 16.33 4.38"/><polygon class="cls-6" points="31.48 4.38 31.48 13.13 23.9 8.75 31.48 4.38"/><polygon class="cls-2" points="-4.38 90.39 -8.75 82.81 -4.38 75.23 4.37 75.23 8.75 82.81 4.37 90.39 -4.38 90.39"/><polygon class="cls-2" points="4.37 48.98 -4.38 48.98 -8.75 41.41 -4.38 33.83 4.37 33.83 8.75 41.41 4.37 48.98"/><polygon class="cls-2" points="4.37 7.58 -4.38 7.58 -8.75 0 -4.38 -7.58 4.37 -7.58 8.75 0 4.37 7.58"/><rect class="cls-3" x="-4.38" y="57.73" width="8.75" height="8.75"/><rect class="cls-3" x="-4.38" y="16.33" width="8.75" height="8.75"/><polygon class="cls-2" points="67.34 -7.58 76.09 -7.58 80.47 0 76.09 7.58 67.34 7.58 62.97 0 67.34 -7.58"/><polygon class="cls-2" points="-4.38 -7.58 4.38 -7.58 8.75 0 4.38 7.58 -4.38 7.58 -8.75 0 -4.38 -7.58"/><polygon class="cls-2" points="67.34 7.58 62.97 0 67.34 -7.58 76.09 -7.58 80.47 0 76.09 7.58 67.34 7.58"/><rect class="cls-3" x="31.48" y="-4.37" width="8.75" height="8.75"/><polygon class="cls-4" points="16.33 -4.37 8.75 0 16.33 4.38 16.33 -4.37"/><polygon class="cls-4" points="55.39 -4.38 62.97 0 55.39 4.38 55.39 -4.38"/><polygon class="cls-2" points="-4.38 7.58 -8.75 0 -4.38 -7.58 4.37 -7.58 8.75 0 4.37 7.58 -4.38 7.58"/></pattern></defs><title>täppan</title><g id="Lager_2" data-name="Lager 2"><g id="Lager_1-2" data-name="Lager 1"><polygon class="cls-7" points="160.95 37.43 160.95 1.5 24.7 1.5 24.7 37.43 0.75 37.43 0.75 167.69 178.91 167.69 178.91 37.43 160.95 37.43"/><polygon class="cls-8" points="149.59 47.95 149.59 17.76 35.1 17.76 35.1 47.95 14.97 47.95 14.97 157.41 164.69 157.41 164.69 47.95 149.59 47.95"/><polygon class="cls-9" points="35.21 18.26 35.18 47.91 24.7 36.73 24.7 0 35.21 18.26"/><polygon class="cls-9" points="148.97 47.91 164.8 47.91 178.91 37.43 161.67 37.43 148.97 47.91"/><polygon class="cls-9" points="15.07 48.54 0.72 38.18 0 166.94 14.97 156.46 15.07 48.54"/><line class="cls-10" x1="160.95" y1="1.5" x2="148.22" y2="18.71"/><line class="cls-10" x1="25.45" y1="0.75" x2="35.93" y2="18.71"/><line class="cls-10" x1="178.17" y1="38.18" x2="164.69" y2="48.66"/><line class="cls-10" x1="161.7" y1="36.68" x2="149.72" y2="47.16"/><line class="cls-10" x1="34.44" y1="47.16" x2="23.96" y2="36.68"/><line class="cls-10" x1="16.47" y1="48.66" x2="1.5" y2="38.18"/><line class="cls-10" x1="164.69" y1="156.46" x2="178.17" y2="166.94"/><line class="cls-10" x1="16.47" y1="156.46" x2="1.5" y2="166.94"/><path class="cls-11" d="M52.8,31.26l-6.65,5.22a3.87,3.87,0,0,1-5.36-.61l-5.63-7A5.08,5.08,0,0,1,36,21.68l5.6-4.38a5.22,5.22,0,0,1,7.26.83l4.79,6A5.08,5.08,0,0,1,52.8,31.26Z"/><path class="cls-12" d="M36.62,24.29l6.94-4.88A3.84,3.84,0,0,0,44.47,14l-.53-.73a4,4,0,0,0-5.45-.91l-6.94,4.88a3.85,3.85,0,0,0-.92,5.39l.54.74A4,4,0,0,0,36.62,24.29Z"/><rect class="cls-13" x="137.41" y="71.79" width="27" height="54"/><rect class="cls-14" x="135.41" y="71.79" width="2" height="54"/><rect class="cls-14" x="133.41" y="76.79" width="2" height="2"/><rect class="cls-14" x="133.41" y="116.79" width="2" height="2"/><path class="cls-15" d="M133.91,96.07l-.1,6.09a2.51,2.51,0,0,1-2.22,2.71l-5.19-.05c-1.62,0-2.93-1.7-2.89-3.74l.08-5.12c0-2,1.39-3.69,3-3.67l4.41,0C132.64,92.35,133.94,94,133.91,96.07Z"/><rect class="cls-15" x="119.83" y="91.79" width="4.58" height="13" rx="2.29"/><rect class="cls-16" x="49.77" y="15.16" width="3" height="8.52" rx="1.5" transform="translate(102.94 1.05) rotate(139.68)"/><rect class="cls-16" x="35.41" y="27.79" width="3" height="9" rx="1.5" transform="translate(-12.13 31.81) rotate(-40.62)"/><rect class="cls-17" x="141.41" y="89.79" width="7" height="11"/><rect class="cls-18" x="141.91" y="90.57" width="6" height="9.43"/><line class="cls-19" x1="141.41" y1="94.66" x2="148.43" y2="94.69"/><rect class="cls-20" x="11.41" y="71.28" width="13" height="25.5" transform="translate(35.28 168.17) rotate(-179.63)"/><rect class="cls-13" x="24.41" y="71.33" width="3.5" height="25.5" transform="translate(51.78 168.32) rotate(-179.63)"/><rect class="cls-20" x="11.41" y="97.28" width="13" height="25.5" transform="translate(35.11 220.17) rotate(-179.63)"/><rect class="cls-13" x="24.41" y="97.33" width="3.5" height="25.5" transform="translate(51.61 220.32) rotate(-179.63)"/><rect class="cls-21" x="37.91" y="65.24" width="100" height="31.38" rx="10.35"/><text class="cls-22" transform="translate(43.48 86.7)"><tspan xml:space="preserve">    Täppan</tspan></text></g></g></svg>