<svg xmlns="http://www.w3.org/2000/svg" xmlns:xlink="http://www.w3.org/1999/xlink" viewBox="0 0 300.25 418.25"><defs><style>.cls-1,.cls-3{fill:none;}.cls-2,.cls-4{fill:#1d1d1b;}.cls-2,.cls-3{stroke:#877026;}.cls-2,.cls-3,.cls-4,.cls-5{stroke-miterlimit:10;stroke-width:0.25px;}.cls-4,.cls-5{stroke:#d9d9d9;}.cls-5{fill:url(#Nytt_mönster_4);}.cls-6{font-size:9.62px;fill:#fff;font-family:BellMT, Bell MT;}.cls-7{letter-spacing:0.01em;}.cls-8{letter-spacing:0em;}.cls-9{letter-spacing:-0.02em;}.cls-10{letter-spacing:0.01em;}.cls-11{letter-spacing:-0.12em;}.cls-12{letter-spacing:-0.01em;}.cls-13{letter-spacing:-0.02em;}.cls-14{letter-spacing:0.04em;}.cls-15{letter-spacing:-0.03em;}.cls-16{letter-spacing:0.23em;}.cls-17{letter-spacing:-0.02em;}.cls-18{letter-spacing:0.01em;}.cls-19{letter-spacing:-0.04em;}.cls-20{letter-spacing:0em;}.cls-21{letter-spacing:-0.06em;}.cls-22{letter-spacing:-0.01em;}.cls-23{letter-spacing:0.23em;}.cls-24{letter-spacing:-0.02em;}.cls-25{letter-spacing:-0.02em;}.cls-26{letter-spacing:-0.01em;}.cls-27{letter-spacing:-0.01em;}.cls-28{letter-spacing:-0.02em;}.cls-29{letter-spacing:-0.02em;}.cls-30{letter-spacing:-0.03em;}.cls-31{letter-spacing:-0.02em;}.cls-32{letter-spacing:-0.07em;}.cls-33{letter-spacing:0.02em;}.cls-34{letter-spacing:-0.04em;}.cls-35{letter-spacing:-0.06em;}.cls-36{letter-spacing:0.03em;}.cls-37{letter-spacing:0.02em;}.cls-38{letter-spacing:-0.01em;}.cls-39{letter-spacing:0.01em;}.cls-40{letter-spacing:-0.02em;}.cls-41{letter-spacing:0.01em;}.cls-42{letter-spacing:-0.07em;}</style><pattern id="Nytt_mönster_4" data-name="Nytt mönster 4" width="23.03" height="15.35" patternTransform="translate(-79.99 -40.54) scale(1.6 1.6)" patternUnits="userSpaceOnUse" viewBox="0 0 23.03 15.35"><rect class="cls-1" width="23.03" height="15.35"/><polygon class="cls-2" points="30.53 15.35 23.03 22.85 15.53 15.35 23.03 7.85 30.53 15.35"/><polygon class="cls-3" points="30.53 15.35 23.03 22.85 15.53 15.35 23.03 7.85 30.53 15.35"/><polygon class="cls-2" points="20.54 20.37 17.11 14.04 17.53 13.68 21.11 19.28 21.4 19.03 18.71 12.6 19.07 12.2 21.69 18.68 22.01 18.36 20.48 10.74 20.93 10.36 22.39 18.03 22.81 17.54 22.81 8.36 23.1 8.04 23.34 8.46 23.26 17.62 23.78 18.14 25.23 10.37 25.73 10.72 24.11 18.45 24.43 18.73 27.08 12.19 27.45 12.56 24.79 19.08 25 19.37 28.59 13.72 28.95 14.12 25.65 20.37 23.03 22.85 20.54 20.37"/><polygon class="cls-3" points="20.54 20.37 17.11 14.04 17.53 13.68 21.11 19.28 21.4 19.03 18.71 12.6 19.07 12.2 21.69 18.68 22.01 18.36 20.48 10.74 20.93 10.36 22.39 18.03 22.81 17.54 22.81 8.36 23.1 8.04 23.34 8.46 23.26 17.62 23.78 18.14 25.23 10.37 25.73 10.72 24.11 18.45 24.43 18.73 27.08 12.19 27.45 12.56 24.79 19.08 25 19.37 28.59 13.72 28.95 14.12 25.65 20.37 23.03 22.85 20.54 20.37"/><polygon class="cls-2" points="7.5 15.35 0 22.85 -7.5 15.35 0 7.85 7.5 15.35"/><polygon class="cls-3" points="7.5 15.35 0 22.85 -7.5 15.35 0 7.85 7.5 15.35"/><polygon class="cls-2" points="-2.49 20.37 -5.92 14.04 -5.5 13.68 -1.92 19.28 -1.63 19.03 -4.32 12.6 -3.96 12.2 -1.34 18.68 -1.02 18.36 -2.55 10.74 -2.1 10.36 -0.64 18.03 -0.22 17.54 -0.22 8.36 0.07 8.04 0.31 8.46 0.23 17.62 0.75 18.14 2.2 10.37 2.7 10.72 1.08 18.45 1.4 18.73 4.05 12.19 4.42 12.56 1.75 19.08 1.97 19.37 5.56 13.72 5.92 14.12 2.62 20.37 0 22.85 -2.49 20.37"/><polygon class="cls-3" points="-2.49 20.37 -5.92 14.04 -5.5 13.68 -1.92 19.28 -1.63 19.03 -4.32 12.6 -3.96 12.2 -1.34 18.68 -1.02 18.36 -2.55 10.74 -2.1 10.36 -0.64 18.03 -0.22 17.54 -0.22 8.36 0.07 8.04 0.31 8.46 0.23 17.62 0.75 18.14 2.2 10.37 2.7 10.72 1.08 18.45 1.4 18.73 4.05 12.19 4.42 12.56 1.75 19.08 1.97 19.37 5.56 13.72 5.92 14.12 2.62 20.37 0 22.85 -2.49 20.37"/><polygon class="cls-2" points="30.53 0 23.03 7.5 15.53 0 23.03 -7.5 30.53 0"/><polygon class="cls-3" points="30.53 0 23.03 7.5 15.53 0 23.03 -7.5 30.53 0"/><polygon class="cls-2" points="20.54 5.01 17.11 -1.32 17.53 -1.68 21.11 3.92 21.4 3.67 18.71 -2.75 19.07 -3.15 21.69 3.33 22.01 3.01 20.48 -4.62 20.93 -4.99 22.39 2.67 22.81 2.19 22.81 -7 23.1 -7.31 23.34 -6.89 23.26 2.26 23.78 2.79 25.23 -4.98 25.73 -4.63 24.11 3.1 24.43 3.38 27.08 -3.16 27.45 -2.79 24.79 3.72 25 4.01 28.59 -1.64 28.95 -1.23 25.65 5.01 23.03 7.5 20.54 5.01"/><polygon class="cls-3" points="20.54 5.01 17.11 -1.32 17.53 -1.68 21.11 3.92 21.4 3.67 18.71 -2.75 19.07 -3.15 21.69 3.33 22.01 3.01 20.48 -4.62 20.93 -4.99 22.39 2.67 22.81 2.19 22.81 -7 23.1 -7.31 23.34 -6.89 23.26 2.26 23.78 2.79 25.23 -4.98 25.73 -4.63 24.11 3.1 24.43 3.38 27.08 -3.16 27.45 -2.79 24.79 3.72 25 4.01 28.59 -1.64 28.95 -1.23 25.65 5.01 23.03 7.5 20.54 5.01"/><polygon class="cls-2" points="19.02 7.68 11.52 15.18 4.01 7.68 11.52 0.18 19.02 7.68"/><polygon class="cls-3" points="19.02 7.68 11.52 15.18 4.01 7.68 11.52 0.18 19.02 7.68"/><polygon class="cls-2" points="9.03 12.69 5.6 6.36 6.01 6 9.6 11.6 9.89 11.35 7.2 4.92 7.55 4.53 10.18 11.01 10.49 10.69 8.96 3.06 9.41 2.69 10.88 10.35 11.29 9.87 11.29 0.68 11.58 0.36 11.82 0.78 11.75 9.94 12.27 10.46 13.71 2.7 14.21 3.04 12.6 10.77 12.91 11.05 15.56 4.52 15.94 4.88 13.27 11.4 13.48 11.69 17.08 6.04 17.43 6.45 14.13 12.69 11.52 15.18 9.03 12.69"/><polygon class="cls-3" points="9.03 12.69 5.6 6.36 6.01 6 9.6 11.6 9.89 11.35 7.2 4.92 7.55 4.53 10.18 11.01 10.49 10.69 8.96 3.06 9.41 2.69 10.88 10.35 11.29 9.87 11.29 0.68 11.58 0.36 11.82 0.78 11.75 9.94 12.27 10.46 13.71 2.7 14.21 3.04 12.6 10.77 12.91 11.05 15.56 4.52 15.94 4.88 13.27 11.4 13.48 11.69 17.08 6.04 17.43 6.45 14.13 12.69 11.52 15.18 9.03 12.69"/><polygon class="cls-2" points="7.5 0 0 7.5 -7.5 0 0 -7.5 7.5 0"/><polygon class="cls-3" points="7.5 0 0 7.5 -7.5 0 0 -7.5 7.5 0"/><polygon class="cls-2" points="-2.49 5.01 -5.92 -1.32 -5.5 -1.68 -1.92 3.92 -1.63 3.67 -4.32 -2.75 -3.96 -3.15 -1.34 3.33 -1.02 3.01 -2.55 -4.62 -2.1 -4.99 -0.64 2.67 -0.22 2.19 -0.22 -7 0.07 -7.31 0.31 -6.89 0.23 2.26 0.75 2.79 2.2 -4.98 2.7 -4.63 1.08 3.1 1.4 3.38 4.05 -3.16 4.42 -2.79 1.75 3.72 1.97 4.01 5.56 -1.64 5.92 -1.23 2.62 5.01 0 7.5 -2.49 5.01"/><polygon class="cls-3" points="-2.49 5.01 -5.92 -1.32 -5.5 -1.68 -1.92 3.92 -1.63 3.67 -4.32 -2.75 -3.96 -3.15 -1.34 3.33 -1.02 3.01 -2.55 -4.62 -2.1 -4.99 -0.64 2.67 -0.22 2.19 -0.22 -7 0.07 -7.31 0.31 -6.89 0.23 2.26 0.75 2.79 2.2 -4.98 2.7 -4.63 1.08 3.1 1.4 3.38 4.05 -3.16 4.42 -2.79 1.75 3.72 1.97 4.01 5.56 -1.64 5.92 -1.23 2.62 5.01 0 7.5 -2.49 5.01"/></pattern></defs><title>alice_1</title><g id="Lager_2" data-name="Lager 2"><g id="Lager_1-2" data-name="Lager 1"><text/><rect class="cls-4" x="0.13" y="0.13" width="300" height="418"/><rect class="cls-5" x="0.13" y="0.13" width="300" height="418"/><rect class="cls-4" x="29.63" y="24.58" width="240.53" height="372.43"/><text/><text/><text class="cls-6" transform="translate(41.31 52.94)">Gene<tspan class="cls-7" x="20.74" y="0">r</tspan><tspan class="cls-8" x="24.67" y="0">al Scar är en </tspan><tspan class="cls-9" x="75.46" y="0">a</tspan><tspan x="79.43" y="0">tt</tspan><tspan class="cls-10" x="86.04" y="0">r</tspan><tspan x="89.97" y="0">akti</tspan><tspan class="cls-11" x="104.79" y="0">v</tspan><tspan x="108.47" y="0">, e</tspan><tspan class="cls-12" x="117.08" y="0">n</tspan><tspan x="122.07" y="0">vis och utåtriktad kvinna </tspan><tspan x="0.05" y="11.54">som </tspan><tspan class="cls-13" x="18.49" y="11.54">g</tspan><tspan x="23.49" y="11.54">ä</tspan><tspan class="cls-14" x="27.69" y="11.54">r</tspan><tspan x="31.89" y="11.54">na styr och ställer i sin omgivnin</tspan><tspan class="cls-15" x="161.12" y="11.54">g</tspan><tspan x="166.08" y="11.54">. Scar hade en </tspan><tspan x="12.43" y="23.08">tuf</tspan><tspan class="cls-16" x="23.35" y="23.08">f</tspan><tspan x="28.23" y="23.08" xml:space="preserve"> upp</tspan><tspan class="cls-12" x="45.16" y="23.08">v</tspan><tspan x="49.84" y="23.08">äxt, hennes pappa stack när hon </tspan><tspan class="cls-12" x="177.18" y="23.08">v</tspan><tspan x="181.86" y="23.08">ar 3 år </tspan><tspan class="cls-13" x="3.93" y="34.62">g</tspan><tspan x="8.93" y="34.62">ammal och hennes mamma fanns heller aldrig riktigt </tspan><tspan x="0.14" y="46.16">med i bilden. Efter </tspan><tspan class="cls-17" x="75.28" y="46.16">a</tspan><tspan x="79.25" y="46.16">tt hennes pappa fö</tspan><tspan class="cls-18" x="150.58" y="46.16">r</tspan><tspan x="154.52" y="46.16">s</tspan><tspan class="cls-12" x="158.32" y="46.16">v</tspan><tspan x="163.01" y="46.16">ann tillbrin</tspan><tspan class="cls-13" x="207.28" y="46.16">g</tspan><tspan x="212.28" y="46.16">a</tspan><tspan x="216.49" y="46.16">-</tspan><tspan x="13.98" y="57.7">de Scar de </tspan><tspan class="cls-19" x="56.26" y="57.7">k</tspan><tspan x="60.69" y="57.7">ommande 12 åren på ett ba</tspan><tspan class="cls-14" x="166.39" y="57.7">r</tspan><tspan x="170.58" y="57.7">nhem för </tspan><tspan x="0.19" y="69.24">fö</tspan><tspan class="cls-10" x="7.61" y="69.24">r</tspan><tspan class="cls-20" x="11.53" y="69.24">äld</tspan><tspan class="cls-10" x="23.35" y="69.24">r</tspan><tspan x="27.28" y="69.24">alösa. </tspan><tspan class="cls-21" x="51.42" y="69.24">F</tspan><tspan x="56.85" y="69.24">ör Scar </tspan><tspan class="cls-22" x="87.21" y="69.24">v</tspan><tspan x="91.89" y="69.24">ar detta en tuf</tspan><tspan class="cls-23" x="147.09" y="69.24">f</tspan><tspan x="151.97" y="69.24" xml:space="preserve"> tid, hon </tspan><tspan class="cls-9" x="186.83" y="69.24">l</tspan><tspan class="cls-24" x="189.29" y="69.24">y</tspan><tspan x="193.9" y="69.24">ckades </tspan><tspan x="2.59" y="80.78">aldrig hitta </tspan><tspan class="cls-12" x="49.07" y="80.78">v</tspan><tspan x="53.75" y="80.78">änner utan </tspan><tspan class="cls-22" x="98.44" y="80.78">v</tspan><tspan class="cls-8" x="103.12" y="80.78">ar ofta den som </tspan><tspan class="cls-25" x="165.84" y="80.78">b</tspan><tspan x="170.48" y="80.78">l</tspan><tspan class="cls-26" x="173.18" y="80.78">e</tspan><tspan x="177.2" y="80.78">v mo</tspan><tspan class="cls-22" x="196.64" y="80.78">b</tspan><tspan x="201.32" y="80.78">bad. </tspan><tspan class="cls-21" x="4.52" y="92.32">F</tspan><tspan x="9.95" y="92.32">ör </tspan><tspan class="cls-9" x="20.87" y="92.32">a</tspan><tspan x="24.84" y="92.32">tt undvika detta </tspan><tspan class="cls-25" x="89.75" y="92.32">b</tspan><tspan x="94.39" y="92.32">l</tspan><tspan class="cls-27" x="97.1" y="92.32">e</tspan><tspan x="101.11" y="92.32">v hon tvungen stän</tspan><tspan class="cls-13" x="176.95" y="92.32">g</tspan><tspan x="181.95" y="92.32">a </tspan><tspan class="cls-28" x="188.56" y="92.32">a</tspan><tspan x="192.57" y="92.32">v sina </tspan><tspan x="0.12" y="103.86">känslor för </tspan><tspan class="cls-17" x="45.3" y="103.86">a</tspan><tspan x="49.27" y="103.86">tt inte låta de and</tspan><tspan class="cls-7" x="118.19" y="103.86">r</tspan><tspan x="122.12" y="103.86">a vinna . Vid 15 å</tspan><tspan class="cls-18" x="189.94" y="103.86">r</tspan><tspan x="193.87" y="103.86">s ålder </tspan><tspan x="4.08" y="115.4">f</tspan><tspan class="cls-7" x="6.79" y="115.4">r</tspan><tspan class="cls-8" x="10.71" y="115.4">ån ingenstans </tspan><tspan class="cls-25" x="67.11" y="115.4">b</tspan><tspan x="71.76" y="115.4">l</tspan><tspan class="cls-26" x="74.46" y="115.4">e</tspan><tspan x="78.48" y="115.4">v Scar adopte</tspan><tspan class="cls-7" x="131.17" y="115.4">r</tspan><tspan x="135.1" y="115.4">ad </tspan><tspan class="cls-28" x="146.62" y="115.4">a</tspan><tspan x="150.63" y="115.4">v ett par som till </tspan><tspan x="-0.31" y="126.94">synes </tspan><tspan class="cls-12" x="23.74" y="126.94">v</tspan><tspan x="28.42" y="126.94">ar de perfekta fö</tspan><tspan class="cls-7" x="91.94" y="126.94">r</tspan><tspan x="95.86" y="126.94">äld</tspan><tspan class="cls-10" x="107.68" y="126.94">r</tspan><tspan x="111.61" y="126.94">a</tspan><tspan class="cls-14" x="115.82" y="126.94">r</tspan><tspan x="120.01" y="126.94">na men i </tspan><tspan class="cls-29" x="155.77" y="126.94">v</tspan><tspan x="160.36" y="126.94">erkligheten </tspan><tspan class="cls-12" x="207.55" y="126.94">v</tspan><tspan x="212.23" y="126.94">ar </tspan><tspan x="4.48" y="138.49">allt ann</tspan><tspan class="cls-17" x="34.23" y="138.49">a</tspan><tspan x="38.2" y="138.49">t. </tspan><tspan class="cls-30" x="46.02" y="138.49">F</tspan><tspan x="51.73" y="138.49">amiljen bodde i ett k</tspan><tspan class="cls-7" x="131.57" y="138.49">r</tspan><tspan x="135.5" y="138.49">åkslott, i källan dr</tspan><tspan class="cls-26" x="206.63" y="138.49">e</tspan><tspan x="210.64" y="138.49">v </tspan><tspan x="8.82" y="150.03">mamman i familjen en bordell. Där spende</tspan><tspan class="cls-7" x="174.53" y="150.03">r</tspan><tspan class="cls-8" x="178.45" y="150.03">ade Scar </tspan><tspan x="5.8" y="161.57">alldeles för </tspan><tspan class="cls-12" x="51.09" y="161.57">m</tspan><tspan class="cls-31" x="58.47" y="161.57">y</tspan><tspan x="63.08" y="161.57">c</tspan><tspan class="cls-19" x="67.09" y="161.57">k</tspan><tspan x="71.52" y="161.57">et tid och fick sn</tspan><tspan class="cls-12" x="135.93" y="161.57">ab</tspan><tspan x="144.69" y="161.57">bt lä</tspan><tspan class="cls-7" x="162.12" y="161.57">r</tspan><tspan x="166.05" y="161.57">a sig allt om </tspan><tspan x="7.57" y="173.11">hur man manipule</tspan><tspan class="cls-7" x="78.8" y="173.11">r</tspan><tspan class="cls-8" x="82.73" y="173.11">ar pe</tspan><tspan class="cls-18" x="102.06" y="173.11">r</tspan><tspan x="106" y="173.11">sone</tspan><tspan class="cls-32" x="123.74" y="173.11">r</tspan><tspan x="126.91" y="173.11">. Mån</tspan><tspan class="cls-13" x="149.65" y="173.11">g</tspan><tspan x="154.65" y="173.11">a år senare när </tspan><tspan x="15.22" y="184.65">mamman och pappan gick bo</tspan><tspan class="cls-33" x="128.62" y="184.65">r</tspan><tspan x="132.59" y="184.65">t låste Scar in sig i </tspan><tspan x="9.97" y="196.19">k</tspan><tspan class="cls-7" x="14.78" y="196.19">r</tspan><tspan class="cls-8" x="18.71" y="196.19">åkslottet och stängde ner </tspan><tspan class="cls-34" x="120" y="196.19">k</tspan><tspan x="124.43" y="196.19">ontakten med </tspan><tspan class="cls-12" x="180.43" y="196.19">v</tspan><tspan x="185.11" y="196.19">ärlden </tspan><tspan x="3.03" y="207.73">utanfö</tspan><tspan class="cls-32" x="27.97" y="207.73">r</tspan><tspan x="31.15" y="207.73">. </tspan><tspan class="cls-35" x="35.66" y="207.73">V</tspan><tspan x="41.61" y="207.73">ad som hände där inne doldes för om</tspan><tspan class="cls-22" x="185.28" y="207.73">v</tspan><tspan class="cls-8" x="189.96" y="207.73">ärlden. </tspan><tspan x="3.58" y="219.27">Mån</tspan><tspan class="cls-13" x="21.82" y="219.27">g</tspan><tspan x="26.81" y="219.27">a år senare </tspan><tspan class="cls-12" x="71.4" y="219.27">v</tspan><tspan x="76.08" y="219.27">å</tspan><tspan class="cls-13" x="80.29" y="219.27">g</tspan><tspan x="85.29" y="219.27">ade sig nå</tspan><tspan class="cls-36" x="124.15" y="219.27">g</tspan><tspan class="cls-10" x="129.68" y="219.27">r</tspan><tspan x="133.61" y="219.27">a nyfikna turister in i </tspan><tspan x="3.1" y="230.81">k</tspan><tspan class="cls-7" x="7.9" y="230.81">r</tspan><tspan class="cls-8" x="11.83" y="230.81">åkslottet. </tspan><tspan class="cls-21" x="50.6" y="230.81">F</tspan><tspan x="56.03" y="230.81">ö</tspan><tspan class="cls-18" x="60.74" y="230.81">r</tspan><tspan x="64.67" y="230.81">sk</tspan><tspan class="cls-10" x="73.29" y="230.81">r</tspan><tspan x="77.22" y="230.81">äckta hittade de massa kroppa</tspan><tspan class="cls-32" x="194.43" y="230.81">r</tspan><tspan x="197.6" y="230.81">. Det </tspan><tspan x="7.38" y="242.35">gick </tspan><tspan class="cls-37" x="26.31" y="242.35">r</tspan><tspan x="30.36" y="242.35">ykten om </tspan><tspan class="cls-17" x="69.53" y="242.35">a</tspan><tspan x="73.5" y="242.35">tt Sca</tspan><tspan class="cls-18" x="95.74" y="242.35">r</tspan><tspan x="99.68" y="242.35">s kropp saknades och </tspan><tspan class="cls-17" x="184.74" y="242.35">a</tspan><tspan x="188.71" y="242.35">tt hon </tspan><tspan x="4.46" y="253.89">istället hade </tspan><tspan class="cls-25" x="54.15" y="253.89">f</tspan><tspan class="cls-9" x="56.69" y="253.89">l</tspan><tspan x="59.16" y="253.89">ytt landet på jakt efter ett nytt uppd</tspan><tspan class="cls-10" x="200.41" y="253.89">r</tspan><tspan class="cls-38" x="204.34" y="253.89">a</tspan><tspan class="cls-15" x="208.41" y="253.89">g</tspan><tspan x="213.37" y="253.89">. </tspan><tspan class="cls-39" x="10.77" y="265.43">K</tspan><tspan x="17.38" y="265.43">ans</tspan><tspan class="cls-34" x="30.5" y="265.43">k</tspan><tspan x="34.93" y="265.43">e </tspan><tspan class="cls-12" x="41.45" y="265.43">v</tspan><tspan x="46.13" y="265.43">ar hon p</tspan><tspan class="cls-40" x="78.59" y="265.43">å</tspan><tspan class="cls-12" x="82.61" y="265.43">v</tspan><tspan x="87.29" y="265.43">äg till No</tspan><tspan class="cls-18" x="124.65" y="265.43">r</tspan><tspan x="128.59" y="265.43">r</tspan><tspan class="cls-19" x="132.4" y="265.43">k</tspan><tspan x="136.83" y="265.43">öping och NolleP? </tspan><tspan x="7.31" y="288.51">“She </tspan><tspan class="cls-27" x="27.25" y="288.51">g</tspan><tspan x="32.36" y="288.51">oes fi</tspan><tspan class="cls-41" x="52.6" y="288.51">r</tspan><tspan x="56.53" y="288.51">st because the other suspect want her in </tspan><tspan x="0.68" y="300.05">front o</tspan><tspan class="cls-16" x="27.43" y="300.05">f</tspan><tspan x="32.31" y="300.05" xml:space="preserve"> them.The other women don’t t</tspan><tspan class="cls-41" x="155.04" y="300.05">r</tspan><tspan x="158.98" y="300.05">ust he</tspan><tspan class="cls-42" x="182.52" y="300.05">r</tspan><tspan x="185.7" y="300.05">, and the </tspan><tspan x="44.42" y="311.59">men want to w</tspan><tspan class="cls-17" x="102.82" y="311.59">a</tspan><tspan x="106.79" y="311.59">tch her backsid</tspan><tspan class="cls-22" x="165.9" y="311.59">e</tspan><tspan x="169.88" y="311.59">.</tspan><tspan class="cls-41" x="171.99" y="311.59">”</tspan></text></g></g></svg>