<svg xmlns="http://www.w3.org/2000/svg" xmlns:xlink="http://www.w3.org/1999/xlink" viewBox="0 0 300.25 418.25"><defs><style>.cls-1,.cls-3{fill:none;}.cls-2,.cls-4{fill:#1d1d1b;}.cls-2,.cls-3{stroke:#877026;}.cls-2,.cls-3,.cls-4,.cls-5{stroke-miterlimit:10;stroke-width:0.25px;}.cls-4,.cls-5{stroke:#d9d9d9;}.cls-5{fill:url(#Nytt_mönster_4);}.cls-6{font-size:14.43px;fill:#fff;font-family:BellMT, Bell MT;}.cls-7{letter-spacing:0.02em;}.cls-8{letter-spacing:0.01em;}.cls-9{letter-spacing:-0.01em;}.cls-10{letter-spacing:0.04em;}.cls-11{letter-spacing:-0.02em;}.cls-12{letter-spacing:0.01em;}.cls-13{letter-spacing:-0.02em;}.cls-14{letter-spacing:0.01em;}.cls-15{letter-spacing:-0.01em;}.cls-16{letter-spacing:-0.03em;}.cls-17{letter-spacing:-0.02em;}.cls-18{letter-spacing:0.02em;}.cls-19{letter-spacing:-0.02em;}.cls-20{letter-spacing:-0.02em;}.cls-21{letter-spacing:-0.02em;}.cls-22{letter-spacing:0em;}.cls-23{letter-spacing:-0.04em;}.cls-24{letter-spacing:0.01em;}.cls-25{letter-spacing:-0.01em;}</style><pattern id="Nytt_mönster_4" data-name="Nytt mönster 4" width="23.03" height="15.35" patternTransform="translate(-42.43 -15.93) scale(1.6 1.6)" patternUnits="userSpaceOnUse" viewBox="0 0 23.03 15.35"><rect class="cls-1" width="23.03" height="15.35"/><polygon class="cls-2" points="30.53 15.35 23.03 22.85 15.53 15.35 23.03 7.85 30.53 15.35"/><polygon class="cls-3" points="30.53 15.35 23.03 22.85 15.53 15.35 23.03 7.85 30.53 15.35"/><polygon class="cls-2" points="20.54 20.37 17.11 14.04 17.53 13.68 21.11 19.28 21.4 19.03 18.71 12.6 19.07 12.2 21.69 18.68 22.01 18.36 20.48 10.74 20.93 10.36 22.39 18.03 22.81 17.54 22.81 8.36 23.1 8.04 23.34 8.46 23.26 17.62 23.78 18.14 25.23 10.37 25.73 10.72 24.11 18.45 24.43 18.73 27.08 12.19 27.45 12.56 24.79 19.08 25 19.37 28.59 13.72 28.95 14.12 25.65 20.37 23.03 22.85 20.54 20.37"/><polygon class="cls-3" points="20.54 20.37 17.11 14.04 17.53 13.68 21.11 19.28 21.4 19.03 18.71 12.6 19.07 12.2 21.69 18.68 22.01 18.36 20.48 10.74 20.93 10.36 22.39 18.03 22.81 17.54 22.81 8.36 23.1 8.04 23.34 8.46 23.26 17.62 23.78 18.14 25.23 10.37 25.73 10.72 24.11 18.45 24.43 18.73 27.08 12.19 27.45 12.56 24.79 19.08 25 19.37 28.59 13.72 28.95 14.12 25.65 20.37 23.03 22.85 20.54 20.37"/><polygon class="cls-2" points="7.5 15.35 0 22.85 -7.5 15.35 0 7.85 7.5 15.35"/><polygon class="cls-3" points="7.5 15.35 0 22.85 -7.5 15.35 0 7.85 7.5 15.35"/><polygon class="cls-2" points="-2.49 20.37 -5.92 14.04 -5.5 13.68 -1.92 19.28 -1.63 19.03 -4.32 12.6 -3.96 12.2 -1.34 18.68 -1.02 18.36 -2.55 10.74 -2.1 10.36 -0.64 18.03 -0.22 17.54 -0.22 8.36 0.07 8.04 0.31 8.46 0.23 17.62 0.75 18.14 2.2 10.37 2.7 10.72 1.08 18.45 1.4 18.73 4.05 12.19 4.42 12.56 1.75 19.08 1.97 19.37 5.56 13.72 5.92 14.12 2.62 20.37 0 22.85 -2.49 20.37"/><polygon class="cls-3" points="-2.49 20.37 -5.92 14.04 -5.5 13.68 -1.92 19.28 -1.63 19.03 -4.32 12.6 -3.96 12.2 -1.34 18.68 -1.02 18.36 -2.55 10.74 -2.1 10.36 -0.64 18.03 -0.22 17.54 -0.22 8.36 0.07 8.04 0.31 8.46 0.23 17.62 0.75 18.14 2.2 10.37 2.7 10.72 1.08 18.45 1.4 18.73 4.05 12.19 4.42 12.56 1.75 19.08 1.97 19.37 5.56 13.72 5.92 14.12 2.62 20.37 0 22.85 -2.49 20.37"/><polygon class="cls-2" points="30.53 0 23.03 7.5 15.53 0 23.03 -7.5 30.53 0"/><polygon class="cls-3" points="30.53 0 23.03 7.5 15.53 0 23.03 -7.5 30.53 0"/><polygon class="cls-2" points="20.54 5.01 17.11 -1.32 17.53 -1.68 21.11 3.92 21.4 3.67 18.71 -2.75 19.07 -3.15 21.69 3.33 22.01 3.01 20.48 -4.62 20.93 -4.99 22.39 2.67 22.81 2.19 22.81 -7 23.1 -7.31 23.34 -6.89 23.26 2.26 23.78 2.79 25.23 -4.98 25.73 -4.63 24.11 3.1 24.43 3.38 27.08 -3.16 27.45 -2.79 24.79 3.72 25 4.01 28.59 -1.64 28.95 -1.23 25.65 5.01 23.03 7.5 20.54 5.01"/><polygon class="cls-3" points="20.54 5.01 17.11 -1.32 17.53 -1.68 21.11 3.92 21.4 3.67 18.71 -2.75 19.07 -3.15 21.69 3.33 22.01 3.01 20.48 -4.62 20.93 -4.99 22.39 2.67 22.81 2.19 22.81 -7 23.1 -7.31 23.34 -6.89 23.26 2.26 23.78 2.79 25.23 -4.98 25.73 -4.63 24.11 3.1 24.43 3.38 27.08 -3.16 27.45 -2.79 24.79 3.72 25 4.01 28.59 -1.64 28.95 -1.23 25.65 5.01 23.03 7.5 20.54 5.01"/><polygon class="cls-2" points="19.02 7.68 11.52 15.18 4.01 7.68 11.52 0.18 19.02 7.68"/><polygon class="cls-3" points="19.02 7.68 11.52 15.18 4.01 7.68 11.52 0.18 19.02 7.68"/><polygon class="cls-2" points="9.03 12.69 5.6 6.36 6.01 6 9.6 11.6 9.89 11.35 7.2 4.92 7.55 4.53 10.18 11.01 10.49 10.69 8.96 3.06 9.41 2.69 10.88 10.35 11.29 9.87 11.29 0.68 11.58 0.36 11.82 0.78 11.75 9.94 12.27 10.46 13.71 2.7 14.21 3.04 12.6 10.77 12.91 11.05 15.56 4.52 15.94 4.88 13.27 11.4 13.48 11.69 17.08 6.04 17.43 6.45 14.13 12.69 11.52 15.18 9.03 12.69"/><polygon class="cls-3" points="9.03 12.69 5.6 6.36 6.01 6 9.6 11.6 9.89 11.35 7.2 4.92 7.55 4.53 10.18 11.01 10.49 10.69 8.96 3.06 9.41 2.69 10.88 10.35 11.29 9.87 11.29 0.68 11.58 0.36 11.82 0.78 11.75 9.94 12.27 10.46 13.71 2.7 14.21 3.04 12.6 10.77 12.91 11.05 15.56 4.52 15.94 4.88 13.27 11.4 13.48 11.69 17.08 6.04 17.43 6.45 14.13 12.69 11.52 15.18 9.03 12.69"/><polygon class="cls-2" points="7.5 0 0 7.5 -7.5 0 0 -7.5 7.5 0"/><polygon class="cls-3" points="7.5 0 0 7.5 -7.5 0 0 -7.5 7.5 0"/><polygon class="cls-2" points="-2.49 5.01 -5.92 -1.32 -5.5 -1.68 -1.92 3.92 -1.63 3.67 -4.32 -2.75 -3.96 -3.15 -1.34 3.33 -1.02 3.01 -2.55 -4.62 -2.1 -4.99 -0.64 2.67 -0.22 2.19 -0.22 -7 0.07 -7.31 0.31 -6.89 0.23 2.26 0.75 2.79 2.2 -4.98 2.7 -4.63 1.08 3.1 1.4 3.38 4.05 -3.16 4.42 -2.79 1.75 3.72 1.97 4.01 5.56 -1.64 5.92 -1.23 2.62 5.01 0 7.5 -2.49 5.01"/><polygon class="cls-3" points="-2.49 5.01 -5.92 -1.32 -5.5 -1.68 -1.92 3.92 -1.63 3.67 -4.32 -2.75 -3.96 -3.15 -1.34 3.33 -1.02 3.01 -2.55 -4.62 -2.1 -4.99 -0.64 2.67 -0.22 2.19 -0.22 -7 0.07 -7.31 0.31 -6.89 0.23 2.26 0.75 2.79 2.2 -4.98 2.7 -4.63 1.08 3.1 1.4 3.38 4.05 -3.16 4.42 -2.79 1.75 3.72 1.97 4.01 5.56 -1.64 5.92 -1.23 2.62 5.01 0 7.5 -2.49 5.01"/></pattern></defs><title>amanda_1</title><g id="Lager_2" data-name="Lager 2"><g id="Lager_1-2" data-name="Lager 1"><rect class="cls-4" x="0.13" y="0.13" width="300" height="418"/><rect class="cls-5" x="0.13" y="0.13" width="300" height="418"/><rect class="cls-4" x="29.63" y="24.58" width="240.53" height="372.43"/><text/><text class="cls-6" transform="translate(56.66 61.92)">Miss M’aid<tspan class="cls-7" x="65.97" y="0">e</tspan><tspan x="72.48" y="0">z bö</tspan><tspan class="cls-8" x="96.82" y="0">r</tspan><tspan x="102.73" y="0">jade jo</tspan><tspan class="cls-9" x="141.05" y="0">b</tspan><tspan x="148.07" y="0">ba som </tspan><tspan x="-12.15" y="17.31">hushålle</tspan><tspan class="cls-8" x="36.54" y="17.31">r</tspan><tspan x="42.44" y="17.31">ska redan under </tspan><tspan class="cls-10" x="139.97" y="17.31">g</tspan><tspan x="148.36" y="17.31">ymnasiet </tspan><tspan x="-12.69" y="34.62">för </tspan><tspan class="cls-11" x="7.75" y="34.62">a</tspan><tspan x="13.71" y="34.62">tt fö</tspan><tspan class="cls-8" x="38.35" y="34.62">r</tspan><tspan x="44.26" y="34.62">sö</tspan><tspan class="cls-12" x="57.03" y="34.62">r</tspan><tspan x="62.94" y="34.62">ja sig och har alltid haft </tspan><tspan x="-15.51" y="51.93">en mindre </tspan><tspan class="cls-10" x="47.46" y="51.93">g</tspan><tspan x="55.85" y="51.93">ynnad ställning i samhäl</tspan><tspan x="199.8" y="51.93">-</tspan><tspan x="-13.78" y="69.24">let. Som gen</tspan><tspan class="cls-13" x="59.26" y="69.24">g</tspan><tspan x="66.75" y="69.24">äld till sitt tuffa slit vill </tspan><tspan x="0.18" y="86.55">hon alltid ha mer betalt. Hennes </tspan><tspan x="0.56" y="103.86">metod är </tspan><tspan class="cls-11" x="56.61" y="103.86">a</tspan><tspan x="62.56" y="103.86">tt utpressa ä</tspan><tspan class="cls-13" x="135.15" y="103.86">g</tspan><tspan x="142.64" y="103.86">a</tspan><tspan class="cls-10" x="148.95" y="103.86">r</tspan><tspan x="155.24" y="103.86">na </tspan><tspan class="cls-11" x="172.82" y="103.86">a</tspan><tspan x="178.78" y="103.86">tt </tspan><tspan x="-8.09" y="121.17">be</tspan><tspan class="cls-14" x="5.29" y="121.17">r</tspan><tspan x="11.17" y="121.17">ätta de</tspan><tspan class="cls-14" x="50.85" y="121.17">r</tspan><tspan x="56.73" y="121.17">as hemligheter för </tspan><tspan class="cls-11" x="167.5" y="121.17">a</tspan><tspan x="173.45" y="121.17">tt få </tspan><tspan x="62.84" y="138.49">mer betalt. </tspan><tspan x="-14.4" y="173.11">De senaste t</tspan><tspan class="cls-9" x="57.58" y="173.11">v</tspan><tspan x="64.6" y="173.11">å he</tspan><tspan class="cls-8" x="88.2" y="173.11">r</tspan><tspan x="94.1" y="173.11">r</tspan><tspan class="cls-13" x="99.82" y="173.11">g</tspan><tspan x="107.31" y="173.11">årda</tspan><tspan class="cls-10" x="133.01" y="173.11">r</tspan><tspan x="139.3" y="173.11">na M’aid</tspan><tspan class="cls-7" x="190.69" y="173.11">e</tspan><tspan x="197.2" y="173.11">z </tspan><tspan x="-12.25" y="190.42">har jo</tspan><tspan class="cls-9" x="21.87" y="190.42">b</tspan><tspan x="28.89" y="190.42">b</tspan><tspan class="cls-11" x="36.11" y="190.42">a</tspan><tspan x="42.06" y="190.42">t på har </tspan><tspan class="cls-15" x="90.9" y="190.42">m</tspan><tspan x="101.98" y="190.42">ysteriskt b</tspan><tspan class="cls-12" x="164.2" y="190.42">r</tspan><tspan x="170.1" y="190.42">unnit </tspan><tspan x="-8.93" y="207.73">up</tspan><tspan class="cls-16" x="5.65" y="207.73">p</tspan><tspan x="12.38" y="207.73">. Än </tspan><tspan class="cls-17" x="40.33" y="207.73">v</tspan><tspan x="47.21" y="207.73">et vi inte hur M’aid</tspan><tspan class="cls-18" x="160.66" y="207.73">e</tspan><tspan x="167.17" y="207.73">z n</tspan><tspan class="cls-19" x="184.9" y="207.73">y</tspan><tspan x="191.87" y="207.73">a </tspan><tspan x="0.51" y="225.04">jo</tspan><tspan class="cls-9" x="11.48" y="225.04">b</tspan><tspan x="18.51" y="225.04">b på n</tspan><tspan class="cls-20" x="54.12" y="225.04">y</tspan><tspan x="61.09" y="225.04">a he</tspan><tspan class="cls-8" x="84.68" y="225.04">r</tspan><tspan x="90.59" y="225.04">r</tspan><tspan class="cls-21" x="96.3" y="225.04">g</tspan><tspan class="cls-22" x="103.79" y="225.04">ården </tspan><tspan class="cls-23" x="140.61" y="225.04">k</tspan><tspan x="147.26" y="225.04">ommer </tspan><tspan x="-11.03" y="242.35">sluta. </tspan><tspan class="cls-24" x="24.13" y="242.35">K</tspan><tspan x="34.04" y="242.35">ans</tspan><tspan class="cls-23" x="53.73" y="242.35">k</tspan><tspan x="60.37" y="242.35">e finns det nå</tspan><tspan class="cls-25" x="138.67" y="242.35">g</tspan><tspan x="146.34" y="242.35">on annan </tspan><tspan x="-8.11" y="259.66">ha</tspan><tspan class="cls-23" x="5.71" y="259.66">k</tspan><tspan x="12.36" y="259.66">e till </tspan><tspan class="cls-15" x="42.57" y="259.66">v</tspan><tspan x="49.59" y="259.66">arför hon är hushålle</tspan><tspan class="cls-12" x="172.23" y="259.66">r</tspan><tspan x="178.13" y="259.66">ska </tspan><tspan x="33.06" y="276.97">till den n</tspan><tspan class="cls-20" x="85.96" y="276.97">y</tspan><tspan x="92.92" y="276.97">a familjen?</tspan></text></g></g></svg>