<svg xmlns="http://www.w3.org/2000/svg" xmlns:xlink="http://www.w3.org/1999/xlink" viewBox="0 0 300.25 418.25"><defs><style>.cls-1,.cls-3{fill:none;}.cls-2,.cls-4{fill:#1d1d1b;}.cls-2,.cls-3{stroke:#877026;}.cls-2,.cls-3,.cls-4,.cls-5,.cls-6{stroke-miterlimit:10;stroke-width:0.25px;}.cls-4,.cls-5,.cls-6{stroke:#d9d9d9;}.cls-5{fill:url(#Nytt_mönster_4);}.cls-7{font-size:14px;fill:#fff;font-family:LeelawadeeUI-Semilight, Leelawadee UI;font-weight:300;}.cls-8{letter-spacing:-0.05em;}.cls-9{letter-spacing:-0.01em;}.cls-10{letter-spacing:0.01em;}.cls-11{letter-spacing:0.02em;}.cls-12{letter-spacing:-0.01em;}.cls-13{letter-spacing:0em;}.cls-14{letter-spacing:-0.02em;}.cls-15{letter-spacing:-0.01em;}.cls-16{letter-spacing:-0.05em;}.cls-17{letter-spacing:-0.01em;}.cls-18{letter-spacing:-0.02em;}.cls-19{letter-spacing:-0.02em;}.cls-20{letter-spacing:0.02em;}</style><pattern id="Nytt_mönster_4" data-name="Nytt mönster 4" width="23.03" height="15.35" patternTransform="translate(-136.81 -20.35) scale(1.6 1.6)" patternUnits="userSpaceOnUse" viewBox="0 0 23.03 15.35"><rect class="cls-1" width="23.03" height="15.35"/><polygon class="cls-2" points="30.53 15.35 23.03 22.85 15.53 15.35 23.03 7.85 30.53 15.35"/><polygon class="cls-3" points="30.53 15.35 23.03 22.85 15.53 15.35 23.03 7.85 30.53 15.35"/><polygon class="cls-2" points="20.54 20.37 17.11 14.04 17.53 13.68 21.11 19.28 21.4 19.03 18.71 12.6 19.07 12.2 21.69 18.68 22.01 18.36 20.48 10.74 20.93 10.36 22.39 18.03 22.81 17.54 22.81 8.36 23.1 8.04 23.34 8.46 23.26 17.62 23.78 18.14 25.23 10.37 25.73 10.72 24.11 18.45 24.43 18.73 27.08 12.19 27.45 12.56 24.79 19.08 25 19.37 28.59 13.72 28.95 14.12 25.65 20.37 23.03 22.85 20.54 20.37"/><polygon class="cls-3" points="20.54 20.37 17.11 14.04 17.53 13.68 21.11 19.28 21.4 19.03 18.71 12.6 19.07 12.2 21.69 18.68 22.01 18.36 20.48 10.74 20.93 10.36 22.39 18.03 22.81 17.54 22.81 8.36 23.1 8.04 23.34 8.46 23.26 17.62 23.78 18.14 25.23 10.37 25.73 10.72 24.11 18.45 24.43 18.73 27.08 12.19 27.45 12.56 24.79 19.08 25 19.37 28.59 13.72 28.95 14.12 25.65 20.37 23.03 22.85 20.54 20.37"/><polygon class="cls-2" points="7.5 15.35 0 22.85 -7.5 15.35 0 7.85 7.5 15.35"/><polygon class="cls-3" points="7.5 15.35 0 22.85 -7.5 15.35 0 7.85 7.5 15.35"/><polygon class="cls-2" points="-2.49 20.37 -5.92 14.04 -5.5 13.68 -1.92 19.28 -1.63 19.03 -4.32 12.6 -3.96 12.2 -1.34 18.68 -1.02 18.36 -2.55 10.74 -2.1 10.36 -0.64 18.03 -0.22 17.54 -0.22 8.36 0.07 8.04 0.31 8.46 0.23 17.62 0.75 18.14 2.2 10.37 2.7 10.72 1.08 18.45 1.4 18.73 4.05 12.19 4.42 12.56 1.75 19.08 1.97 19.37 5.56 13.72 5.92 14.12 2.62 20.37 0 22.85 -2.49 20.37"/><polygon class="cls-3" points="-2.49 20.37 -5.92 14.04 -5.5 13.68 -1.92 19.28 -1.63 19.03 -4.32 12.6 -3.96 12.2 -1.34 18.68 -1.02 18.36 -2.55 10.74 -2.1 10.36 -0.64 18.03 -0.22 17.54 -0.22 8.36 0.07 8.04 0.31 8.46 0.23 17.62 0.75 18.14 2.2 10.37 2.7 10.72 1.08 18.45 1.4 18.73 4.05 12.19 4.42 12.56 1.75 19.08 1.97 19.37 5.56 13.72 5.92 14.12 2.62 20.37 0 22.85 -2.49 20.37"/><polygon class="cls-2" points="30.53 0 23.03 7.5 15.53 0 23.03 -7.5 30.53 0"/><polygon class="cls-3" points="30.53 0 23.03 7.5 15.53 0 23.03 -7.5 30.53 0"/><polygon class="cls-2" points="20.54 5.01 17.11 -1.32 17.53 -1.68 21.11 3.92 21.4 3.67 18.71 -2.75 19.07 -3.15 21.69 3.33 22.01 3.01 20.48 -4.62 20.93 -4.99 22.39 2.67 22.81 2.19 22.81 -7 23.1 -7.31 23.34 -6.89 23.26 2.26 23.78 2.79 25.23 -4.98 25.73 -4.63 24.11 3.1 24.43 3.38 27.08 -3.16 27.45 -2.79 24.79 3.72 25 4.01 28.59 -1.64 28.95 -1.23 25.65 5.01 23.03 7.5 20.54 5.01"/><polygon class="cls-3" points="20.54 5.01 17.11 -1.32 17.53 -1.68 21.11 3.92 21.4 3.67 18.71 -2.75 19.07 -3.15 21.69 3.33 22.01 3.01 20.48 -4.62 20.93 -4.99 22.39 2.67 22.81 2.19 22.81 -7 23.1 -7.31 23.34 -6.89 23.26 2.26 23.78 2.79 25.23 -4.98 25.73 -4.63 24.11 3.1 24.43 3.38 27.08 -3.16 27.45 -2.79 24.79 3.72 25 4.01 28.59 -1.64 28.95 -1.23 25.65 5.01 23.03 7.5 20.54 5.01"/><polygon class="cls-2" points="19.02 7.68 11.52 15.18 4.01 7.68 11.52 0.18 19.02 7.68"/><polygon class="cls-3" points="19.02 7.68 11.52 15.18 4.01 7.68 11.52 0.18 19.02 7.68"/><polygon class="cls-2" points="9.03 12.69 5.6 6.36 6.01 6 9.6 11.6 9.89 11.35 7.2 4.92 7.55 4.53 10.18 11.01 10.49 10.69 8.96 3.06 9.41 2.69 10.88 10.35 11.29 9.87 11.29 0.68 11.58 0.36 11.82 0.78 11.75 9.94 12.27 10.46 13.71 2.7 14.21 3.04 12.6 10.77 12.91 11.05 15.56 4.52 15.94 4.88 13.27 11.4 13.48 11.69 17.08 6.04 17.43 6.45 14.13 12.69 11.52 15.18 9.03 12.69"/><polygon class="cls-3" points="9.03 12.69 5.6 6.36 6.01 6 9.6 11.6 9.89 11.35 7.2 4.92 7.55 4.53 10.18 11.01 10.49 10.69 8.96 3.06 9.41 2.69 10.88 10.35 11.29 9.87 11.29 0.68 11.58 0.36 11.82 0.78 11.75 9.94 12.27 10.46 13.71 2.7 14.21 3.04 12.6 10.77 12.91 11.05 15.56 4.52 15.94 4.88 13.27 11.4 13.48 11.69 17.08 6.04 17.43 6.45 14.13 12.69 11.52 15.18 9.03 12.69"/><polygon class="cls-2" points="7.5 0 0 7.5 -7.5 0 0 -7.5 7.5 0"/><polygon class="cls-3" points="7.5 0 0 7.5 -7.5 0 0 -7.5 7.5 0"/><polygon class="cls-2" points="-2.49 5.01 -5.92 -1.32 -5.5 -1.68 -1.92 3.92 -1.63 3.67 -4.32 -2.75 -3.96 -3.15 -1.34 3.33 -1.02 3.01 -2.55 -4.62 -2.1 -4.99 -0.64 2.67 -0.22 2.19 -0.22 -7 0.07 -7.31 0.31 -6.89 0.23 2.26 0.75 2.79 2.2 -4.98 2.7 -4.63 1.08 3.1 1.4 3.38 4.05 -3.16 4.42 -2.79 1.75 3.72 1.97 4.01 5.56 -1.64 5.92 -1.23 2.62 5.01 0 7.5 -2.49 5.01"/><polygon class="cls-3" points="-2.49 5.01 -5.92 -1.32 -5.5 -1.68 -1.92 3.92 -1.63 3.67 -4.32 -2.75 -3.96 -3.15 -1.34 3.33 -1.02 3.01 -2.55 -4.62 -2.1 -4.99 -0.64 2.67 -0.22 2.19 -0.22 -7 0.07 -7.31 0.31 -6.89 0.23 2.26 0.75 2.79 2.2 -4.98 2.7 -4.63 1.08 3.1 1.4 3.38 4.05 -3.16 4.42 -2.79 1.75 3.72 1.97 4.01 5.56 -1.64 5.92 -1.23 2.62 5.01 0 7.5 -2.49 5.01"/></pattern></defs><title>amanda</title><g id="Lager_2" data-name="Lager 2"><g id="Lager_1-2" data-name="Lager 1"><rect class="cls-4" x="0.13" y="0.13" width="300" height="418"/><rect class="cls-5" x="0.13" y="0.13" width="300" height="418"/><rect class="cls-6" x="10.68" y="17.56" width="280" height="380"/><text/><text class="cls-7" transform="translate(37.39 45.92)">Miss M<tspan class="cls-8" x="42.57" y="0">’</tspan><tspan x="44.95" y="0">aidez började job</tspan><tspan class="cls-9" x="149.77" y="0">b</tspan><tspan x="157.62" y="0">a som hus</tspan><tspan x="218.9" y="0">-</tspan><tspan x="-5.62" y="20">hålle</tspan><tspan class="cls-10" x="22.55" y="20">r</tspan><tspan x="27.39" y="20">ska </tspan><tspan class="cls-9" x="50.51" y="20">r</tspan><tspan x="55.07" y="20">edan under gymnasiet för att </tspan><tspan x="-8.04" y="40">fö</tspan><tspan class="cls-10" x="4.11" y="40">r</tspan><tspan x="8.95" y="40">sörja sig och har alltid ha</tspan><tspan class="cls-11" x="158.73" y="40">f</tspan><tspan x="163.1" y="40">t en mind</tspan><tspan class="cls-9" x="220.77" y="40">r</tspan><tspan x="225.33" y="40">e </tspan><tspan x="27.32" y="60">gynnad ställning i samhället. </tspan><tspan x="3.38" y="100">Som gengäld till sitt tuffa slit vill hon </tspan><tspan x="0.25" y="120">alltid ha mer betalt. Hennes me</tspan><tspan class="cls-12" x="188.24" y="120">t</tspan><tspan x="192.58" y="120">od är </tspan><tspan x="3.04" y="140">att utp</tspan><tspan class="cls-9" x="42.98" y="140">r</tspan><tspan x="47.54" y="140">essa äga</tspan><tspan class="cls-13" x="99.02" y="140">r</tspan><tspan x="103.74" y="140">na att berätta deras </tspan><tspan x="14.09" y="160">hemlighe</tspan><tspan class="cls-12" x="69.96" y="160">t</tspan><tspan x="74.3" y="160">er för att få mer betalt. </tspan><tspan x="2.6" y="200">De senas</tspan><tspan class="cls-12" x="56.53" y="200">t</tspan><tspan x="60.87" y="200">e t</tspan><tspan class="cls-14" x="76.35" y="200">v</tspan><tspan x="82.62" y="200">å her</tspan><tspan class="cls-9" x="113.11" y="200">r</tspan><tspan x="117.67" y="200">gå</tspan><tspan class="cls-15" x="132.72" y="200">r</tspan><tspan x="137.28" y="200">da</tspan><tspan class="cls-13" x="152.33" y="200">r</tspan><tspan x="157.05" y="200">na M</tspan><tspan class="cls-16" x="187.71" y="200">’</tspan><tspan x="190.1" y="200">aidez </tspan><tspan x="4.75" y="220">har job</tspan><tspan class="cls-9" x="47.24" y="220">b</tspan><tspan x="55.09" y="220">at </tspan><tspan class="cls-9" x="70.39" y="220">p</tspan><tspan x="78.23" y="220">å har mys</tspan><tspan class="cls-12" x="136.4" y="220">t</tspan><tspan x="140.74" y="220">eris</tspan><tspan class="cls-12" x="161.5" y="220">k</tspan><tspan x="167.97" y="220">t brunnit </tspan><tspan x="-7.34" y="240">upp. Än </tspan><tspan class="cls-17" x="43.78" y="240">v</tspan><tspan x="50.22" y="240">et vi in</tspan><tspan class="cls-12" x="90.02" y="240">t</tspan><tspan x="94.36" y="240">e hur M</tspan><tspan class="cls-8" x="141.49" y="240">’</tspan><tspan x="143.88" y="240">aidez nya jobb </tspan><tspan class="cls-9" x="12.69" y="260">p</tspan><tspan x="20.54" y="260">å nya her</tspan><tspan class="cls-9" x="76.14" y="260">r</tspan><tspan x="80.69" y="260">gå</tspan><tspan class="cls-9" x="95.75" y="260">r</tspan><tspan x="100.31" y="260">den </tspan><tspan class="cls-18" x="127.08" y="260">k</tspan><tspan x="133.38" y="260">ommer sluta. </tspan><tspan x="-2.94" y="280">Kans</tspan><tspan class="cls-19" x="25.21" y="280">k</tspan><tspan x="31.51" y="280">e finns det någon annan ha</tspan><tspan class="cls-19" x="196.25" y="280">k</tspan><tspan x="202.56" y="280">e till </tspan><tspan class="cls-14" x="-0.17" y="300">v</tspan><tspan x="6.09" y="300">a</tspan><tspan class="cls-20" x="13.11" y="300">r</tspan><tspan x="18.12" y="300">för hon är hushålle</tspan><tspan class="cls-10" x="130.98" y="300">r</tspan><tspan x="135.82" y="300">ska till den nya </tspan><tspan x="85.57" y="320">familjen?</tspan></text></g></g></svg>