<svg xmlns="http://www.w3.org/2000/svg" xmlns:xlink="http://www.w3.org/1999/xlink" viewBox="0 0 187.34 261.04"><defs><style>.cls-1,.cls-3{fill:none;}.cls-2,.cls-4{fill:#1d1d1b;}.cls-3,.cls-4,.cls-5{stroke:#dadada;stroke-miterlimit:10;stroke-width:0.25px;}.cls-5{fill:url(#Nytt_mönster_4);}.cls-6{font-size:9px;fill:#fff;font-family:BellMT, Bell MT;}.cls-7{letter-spacing:-0.01em;}.cls-8{letter-spacing:-0.02em;}.cls-9{letter-spacing:0.01em;}.cls-10{letter-spacing:-0.02em;}.cls-11{letter-spacing:-0.01em;}.cls-12{letter-spacing:0.01em;}.cls-13{letter-spacing:-0.07em;}.cls-14{letter-spacing:-0.01em;}.cls-15{letter-spacing:-0.02em;}.cls-16{letter-spacing:-0.02em;}.cls-17{letter-spacing:0.01em;}.cls-18{letter-spacing:-0.02em;}.cls-19{letter-spacing:-0.02em;}.cls-20{letter-spacing:0.01em;}.cls-21{letter-spacing:-0.02em;}.cls-22{letter-spacing:-0.04em;}.cls-23{letter-spacing:-0.04em;}.cls-24{letter-spacing:-0.02em;}</style><pattern id="Nytt_mönster_4" data-name="Nytt mönster 4" width="23.03" height="15.35" patternUnits="userSpaceOnUse" viewBox="0 0 23.03 15.35"><rect class="cls-1" width="23.03" height="15.35"/><polygon class="cls-2" points="30.53 15.35 23.03 22.85 15.53 15.35 23.03 7.85 30.53 15.35"/><polygon class="cls-3" points="30.53 15.35 23.03 22.85 15.53 15.35 23.03 7.85 30.53 15.35"/><polygon class="cls-2" points="20.54 20.37 17.11 14.04 17.53 13.68 21.11 19.28 21.4 19.03 18.71 12.6 19.07 12.2 21.69 18.68 22.01 18.36 20.48 10.74 20.93 10.36 22.39 18.03 22.81 17.54 22.81 8.36 23.1 8.04 23.34 8.46 23.26 17.62 23.78 18.14 25.23 10.37 25.73 10.72 24.11 18.45 24.43 18.73 27.08 12.19 27.45 12.56 24.79 19.08 25 19.37 28.59 13.72 28.95 14.12 25.65 20.37 23.03 22.85 20.54 20.37"/><polygon class="cls-3" points="20.54 20.37 17.11 14.04 17.53 13.68 21.11 19.28 21.4 19.03 18.71 12.6 19.07 12.2 21.69 18.68 22.01 18.36 20.48 10.74 20.93 10.36 22.39 18.03 22.81 17.54 22.81 8.36 23.1 8.04 23.34 8.46 23.26 17.62 23.78 18.14 25.23 10.37 25.73 10.72 24.11 18.45 24.43 18.73 27.08 12.19 27.45 12.56 24.79 19.08 25 19.37 28.59 13.72 28.95 14.12 25.65 20.37 23.03 22.85 20.54 20.37"/><polygon class="cls-2" points="7.5 15.35 0 22.85 -7.5 15.35 0 7.85 7.5 15.35"/><polygon class="cls-3" points="7.5 15.35 0 22.85 -7.5 15.35 0 7.85 7.5 15.35"/><polygon class="cls-2" points="-2.49 20.37 -5.92 14.04 -5.5 13.68 -1.92 19.28 -1.63 19.03 -4.32 12.6 -3.96 12.2 -1.34 18.68 -1.02 18.36 -2.55 10.74 -2.1 10.36 -0.64 18.03 -0.22 17.54 -0.22 8.36 0.07 8.04 0.31 8.46 0.23 17.62 0.75 18.14 2.2 10.37 2.7 10.72 1.08 18.45 1.4 18.73 4.05 12.19 4.42 12.56 1.75 19.08 1.97 19.37 5.56 13.72 5.92 14.12 2.62 20.37 0 22.85 -2.49 20.37"/><polygon class="cls-3" points="-2.49 20.37 -5.92 14.04 -5.5 13.68 -1.92 19.28 -1.63 19.03 -4.32 12.6 -3.96 12.2 -1.34 18.68 -1.02 18.36 -2.55 10.74 -2.1 10.36 -0.64 18.03 -0.22 17.54 -0.22 8.36 0.07 8.04 0.31 8.46 0.23 17.62 0.75 18.14 2.2 10.37 2.7 10.72 1.08 18.45 1.4 18.73 4.05 12.19 4.42 12.56 1.75 19.08 1.97 19.37 5.56 13.72 5.92 14.12 2.62 20.37 0 22.85 -2.49 20.37"/><polygon class="cls-2" points="30.53 0 23.03 7.5 15.53 0 23.03 -7.5 30.53 0"/><polygon class="cls-3" points="30.53 0 23.03 7.5 15.53 0 23.03 -7.5 30.53 0"/><polygon class="cls-2" points="20.54 5.01 17.11 -1.32 17.53 -1.68 21.11 3.92 21.4 3.67 18.71 -2.75 19.07 -3.15 21.69 3.33 22.01 3.01 20.48 -4.62 20.93 -4.99 22.39 2.67 22.81 2.19 22.81 -7 23.1 -7.31 23.34 -6.89 23.26 2.26 23.78 2.79 25.23 -4.98 25.73 -4.63 24.11 3.1 24.43 3.38 27.08 -3.16 27.45 -2.79 24.79 3.72 25 4.01 28.59 -1.64 28.95 -1.23 25.65 5.01 23.03 7.5 20.54 5.01"/><polygon class="cls-3" points="20.54 5.01 17.11 -1.32 17.53 -1.68 21.11 3.92 21.4 3.67 18.71 -2.75 19.07 -3.15 21.69 3.33 22.01 3.01 20.48 -4.62 20.93 -4.99 22.39 2.67 22.81 2.19 22.81 -7 23.1 -7.31 23.34 -6.89 23.26 2.26 23.78 2.79 25.23 -4.98 25.73 -4.63 24.11 3.1 24.43 3.38 27.08 -3.16 27.45 -2.79 24.79 3.72 25 4.01 28.59 -1.64 28.95 -1.23 25.65 5.01 23.03 7.5 20.54 5.01"/><polygon class="cls-2" points="19.02 7.68 11.52 15.18 4.01 7.68 11.52 0.18 19.02 7.68"/><polygon class="cls-3" points="19.02 7.68 11.52 15.18 4.01 7.68 11.52 0.18 19.02 7.68"/><polygon class="cls-2" points="9.03 12.69 5.6 6.36 6.01 6 9.6 11.6 9.89 11.35 7.2 4.92 7.55 4.53 10.18 11 10.49 10.69 8.96 3.06 9.41 2.69 10.88 10.35 11.29 9.87 11.29 0.68 11.58 0.36 11.82 0.78 11.75 9.94 12.27 10.46 13.71 2.7 14.21 3.04 12.6 10.77 12.91 11.05 15.56 4.52 15.94 4.88 13.27 11.4 13.48 11.69 17.08 6.04 17.43 6.45 14.13 12.69 11.52 15.18 9.03 12.69"/><polygon class="cls-3" points="9.03 12.69 5.6 6.36 6.01 6 9.6 11.6 9.89 11.35 7.2 4.92 7.55 4.53 10.18 11 10.49 10.69 8.96 3.06 9.41 2.69 10.88 10.35 11.29 9.87 11.29 0.68 11.58 0.36 11.82 0.78 11.75 9.94 12.27 10.46 13.71 2.7 14.21 3.04 12.6 10.77 12.91 11.05 15.56 4.52 15.94 4.88 13.27 11.4 13.48 11.69 17.08 6.04 17.43 6.45 14.13 12.69 11.52 15.18 9.03 12.69"/><polygon class="cls-2" points="7.5 0 0 7.5 -7.5 0 0 -7.5 7.5 0"/><polygon class="cls-3" points="7.5 0 0 7.5 -7.5 0 0 -7.5 7.5 0"/><polygon class="cls-2" points="-2.49 5.01 -5.92 -1.32 -5.5 -1.68 -1.92 3.92 -1.63 3.67 -4.32 -2.75 -3.96 -3.15 -1.34 3.33 -1.02 3.01 -2.55 -4.62 -2.1 -4.99 -0.64 2.67 -0.22 2.19 -0.22 -7 0.07 -7.31 0.31 -6.89 0.23 2.26 0.75 2.79 2.2 -4.98 2.7 -4.63 1.08 3.1 1.4 3.38 4.05 -3.16 4.42 -2.79 1.75 3.72 1.97 4.01 5.56 -1.64 5.92 -1.23 2.62 5.01 0 7.5 -2.49 5.01"/><polygon class="cls-3" points="-2.49 5.01 -5.92 -1.32 -5.5 -1.68 -1.92 3.92 -1.63 3.67 -4.32 -2.75 -3.96 -3.15 -1.34 3.33 -1.02 3.01 -2.55 -4.62 -2.1 -4.99 -0.64 2.67 -0.22 2.19 -0.22 -7 0.07 -7.31 0.31 -6.89 0.23 2.26 0.75 2.79 2.2 -4.98 2.7 -4.63 1.08 3.1 1.4 3.38 4.05 -3.16 4.42 -2.79 1.75 3.72 1.97 4.01 5.56 -1.64 5.92 -1.23 2.62 5.01 0 7.5 -2.49 5.01"/></pattern></defs><title>anna</title><g id="Lager_2" data-name="Lager 2"><g id="Lager_1-2" data-name="Lager 1"><rect class="cls-4" x="0.13" y="0.13" width="187.09" height="260.79"/><rect class="cls-5" x="0.13" y="0.13" width="187.09" height="260.79"/><rect class="cls-4" x="18.52" y="15.38" width="150" height="232.35"/><text/><text class="cls-6" transform="translate(34.76 27.88)">Mr Noe Bod<tspan class="cls-7" x="45.95" y="0">d</tspan><tspan x="50.42" y="0">y föddes den 5 juni </tspan><tspan x="-6.52" y="10.8">1924 i en rik familj där pen</tspan><tspan class="cls-8" x="92.39" y="10.8">g</tspan><tspan x="97.06" y="10.8">ar alltid </tspan><tspan x="-5.83" y="21.6">gick före kärlek. När han fyllde fy</tspan><tspan class="cls-9" x="117.55" y="21.6">r</tspan><tspan x="121.22" y="21.6">a </tspan><tspan x="6.56" y="32.4">år </tspan><tspan class="cls-10" x="16.31" y="32.4">b</tspan><tspan x="20.66" y="32.4">l</tspan><tspan class="cls-11" x="23.19" y="32.4">e</tspan><tspan x="26.95" y="32.4">v han fö</tspan><tspan class="cls-12" x="56.29" y="32.4">r</tspan><tspan x="59.97" y="32.4">äld</tspan><tspan class="cls-12" x="71.03" y="32.4">r</tspan><tspan x="74.7" y="32.4">alös under </tspan><tspan class="cls-7" x="-9.08" y="43.2">m</tspan><tspan x="-2.17" y="43.2">ystiska omständighete</tspan><tspan class="cls-13" x="79.68" y="43.2">r</tspan><tspan x="82.65" y="43.2">. Som ensam </tspan><tspan x="3.13" y="54">miljonär omrin</tspan><tspan class="cls-8" x="58.54" y="54">g</tspan><tspan x="63.22" y="54">ad sig Mr Noe </tspan><tspan x="-2.65" y="64.8">Bod</tspan><tspan class="cls-7" x="11.89" y="64.8">d</tspan><tspan x="16.36" y="64.8">y med </tspan><tspan class="cls-14" x="40.83" y="64.8">v</tspan><tspan x="45.21" y="64.8">änne</tspan><tspan class="cls-13" x="62.56" y="64.8">r</tspan><tspan x="65.53" y="64.8">. Då han senare </tspan><tspan x="-7.68" y="75.6">insåg </tspan><tspan class="cls-15" x="14.06" y="75.6">a</tspan><tspan x="17.78" y="75.6">tt de ba</tspan><tspan class="cls-12" x="45.34" y="75.6">r</tspan><tspan x="49.01" y="75.6">a ville åt hans pen</tspan><tspan class="cls-16" x="114.83" y="75.6">g</tspan><tspan x="119.51" y="75.6">ar </tspan><tspan x="1.05" y="86.4">bö</tspan><tspan class="cls-17" x="9.96" y="86.4">r</tspan><tspan x="13.64" y="86.4">jade han istället samla på sig </tspan><tspan x="4.39" y="97.2">hemligheter om sina såkallade </tspan><tspan class="cls-7" x="-5.78" y="108">v</tspan><tspan x="-1.4" y="108">änne</tspan><tspan class="cls-13" x="15.94" y="108">r</tspan><tspan x="18.92" y="108">. En k</tspan><tspan class="cls-14" x="40.57" y="108">v</tspan><tspan x="44.95" y="108">äll bjöd han in alla till </tspan><tspan x="-3.52" y="118.8">sin he</tspan><tspan class="cls-17" x="17.95" y="118.8">r</tspan><tspan x="21.63" y="118.8">r</tspan><tspan class="cls-16" x="25.2" y="118.8">g</tspan><tspan x="29.87" y="118.8">ård för </tspan><tspan class="cls-18" x="56.97" y="118.8">a</tspan><tspan x="60.68" y="118.8">tt </tspan><tspan class="cls-19" x="69.12" y="118.8">a</tspan><tspan x="72.88" y="118.8">vslöja dem en </tspan><tspan class="cls-8" x="0.71" y="129.6">g</tspan><tspan x="5.39" y="129.6">ång för alla, men de bö</tspan><tspan class="cls-20" x="88.65" y="129.6">r</tspan><tspan x="92.33" y="129.6">jade </tspan><tspan class="cls-21" x="109.39" y="129.6">b</tspan><tspan x="113.74" y="129.6">li </tspan><tspan x="4.63" y="140.4">misstänksamma. Innan de alla </tspan><tspan x="3.69" y="151.2">samlades hördes ett ljud... Alla </tspan><tspan x="-1.27" y="162">springer ner men Noe Bod</tspan><tspan class="cls-7" x="96.15" y="162">d</tspan><tspan x="100.63" y="162">y kan </tspan><tspan x="-5.85" y="172.8">inte hitta</tspan><tspan class="cls-22" x="27.62" y="172.8">s</tspan><tspan x="30.83" y="172.8">, kans</tspan><tspan class="cls-23" x="51.83" y="172.8">k</tspan><tspan x="55.98" y="172.8">e har han fått hjälp </tspan><tspan class="cls-18" x="-6.42" y="183.6">a</tspan><tspan x="-2.71" y="183.6">tt fö</tspan><tspan class="cls-17" x="12.66" y="183.6">r</tspan><tspan x="16.35" y="183.6">svinna, kans</tspan><tspan class="cls-23" x="61.26" y="183.6">k</tspan><tspan x="65.4" y="183.6">e </tspan><tspan class="cls-24" x="71.5" y="183.6">a</tspan><tspan x="75.26" y="183.6">v sto</tspan><tspan class="cls-20" x="93.07" y="183.6">r</tspan><tspan x="96.76" y="183.6">skur</tspan><tspan class="cls-23" x="112.98" y="183.6">k</tspan><tspan x="117.13" y="183.6">en </tspan><tspan x="-0.12" y="194.4">och kans</tspan><tspan class="cls-23" x="31.76" y="194.4">k</tspan><tspan x="35.91" y="194.4">e </tspan><tspan class="cls-7" x="42" y="194.4">d</tspan><tspan x="46.48" y="194.4">y</tspan><tspan class="cls-23" x="50.98" y="194.4">k</tspan><tspan x="55.13" y="194.4">er han upp när en </tspan><tspan x="30.18" y="205.2">minst anar det...</tspan></text></g></g></svg>