<svg xmlns="http://www.w3.org/2000/svg" xmlns:xlink="http://www.w3.org/1999/xlink" viewBox="0 0 300.25 418.25"><defs><style>.cls-1,.cls-3{fill:none;}.cls-2,.cls-4{fill:#1d1d1b;}.cls-2,.cls-3{stroke:#877026;}.cls-2,.cls-3,.cls-4,.cls-5{stroke-miterlimit:10;stroke-width:0.25px;}.cls-4,.cls-5{stroke:#d9d9d9;}.cls-5{fill:url(#Nytt_mönster_4);}.cls-6{font-size:14.43px;fill:#fff;font-family:BellMT, Bell MT;}.cls-7{letter-spacing:0.01em;}.cls-8{letter-spacing:-0.01em;}.cls-9{letter-spacing:-0.01em;}.cls-10{letter-spacing:-0.02em;}.cls-11{letter-spacing:-0.01em;}.cls-12{letter-spacing:0.02em;}.cls-13{letter-spacing:-0.02em;}.cls-14{letter-spacing:0.04em;}.cls-15{letter-spacing:-0.02em;}.cls-16{letter-spacing:-0.02em;}.cls-17{letter-spacing:-0.03em;}.cls-18{letter-spacing:0.01em;}.cls-19{letter-spacing:-0.02em;}.cls-20{letter-spacing:-0.02em;}.cls-21{letter-spacing:0.01em;}.cls-22{letter-spacing:0.02em;}.cls-23{letter-spacing:0.01em;}.cls-24{letter-spacing:-0.04em;}.cls-25{letter-spacing:-0.02em;}.cls-26{letter-spacing:0.03em;}.cls-27{letter-spacing:0.01em;}.cls-28{letter-spacing:-0.07em;}.cls-29{letter-spacing:-0.06em;}.cls-30{letter-spacing:-0.01em;}</style><pattern id="Nytt_mönster_4" data-name="Nytt mönster 4" width="23.03" height="15.35" patternTransform="translate(-16.87 -15.93) scale(1.6 1.6)" patternUnits="userSpaceOnUse" viewBox="0 0 23.03 15.35"><rect class="cls-1" width="23.03" height="15.35"/><polygon class="cls-2" points="30.53 15.35 23.03 22.85 15.53 15.35 23.03 7.85 30.53 15.35"/><polygon class="cls-3" points="30.53 15.35 23.03 22.85 15.53 15.35 23.03 7.85 30.53 15.35"/><polygon class="cls-2" points="20.54 20.37 17.11 14.04 17.53 13.68 21.11 19.28 21.4 19.03 18.71 12.6 19.07 12.2 21.69 18.68 22.01 18.36 20.48 10.74 20.93 10.36 22.39 18.03 22.81 17.54 22.81 8.36 23.1 8.04 23.34 8.46 23.26 17.62 23.78 18.14 25.23 10.37 25.73 10.72 24.11 18.45 24.43 18.73 27.08 12.19 27.45 12.56 24.79 19.08 25 19.37 28.59 13.72 28.95 14.12 25.65 20.37 23.03 22.85 20.54 20.37"/><polygon class="cls-3" points="20.54 20.37 17.11 14.04 17.53 13.68 21.11 19.28 21.4 19.03 18.71 12.6 19.07 12.2 21.69 18.68 22.01 18.36 20.48 10.74 20.93 10.36 22.39 18.03 22.81 17.54 22.81 8.36 23.1 8.04 23.34 8.46 23.26 17.62 23.78 18.14 25.23 10.37 25.73 10.72 24.11 18.45 24.43 18.73 27.08 12.19 27.45 12.56 24.79 19.08 25 19.37 28.59 13.72 28.95 14.12 25.65 20.37 23.03 22.85 20.54 20.37"/><polygon class="cls-2" points="7.5 15.35 0 22.85 -7.5 15.35 0 7.85 7.5 15.35"/><polygon class="cls-3" points="7.5 15.35 0 22.85 -7.5 15.35 0 7.85 7.5 15.35"/><polygon class="cls-2" points="-2.49 20.37 -5.92 14.04 -5.5 13.68 -1.92 19.28 -1.63 19.03 -4.32 12.6 -3.96 12.2 -1.34 18.68 -1.02 18.36 -2.55 10.74 -2.1 10.36 -0.64 18.03 -0.22 17.54 -0.22 8.36 0.07 8.04 0.31 8.46 0.23 17.62 0.75 18.14 2.2 10.37 2.7 10.72 1.08 18.45 1.4 18.73 4.05 12.19 4.42 12.56 1.75 19.08 1.97 19.37 5.56 13.72 5.92 14.12 2.62 20.37 0 22.85 -2.49 20.37"/><polygon class="cls-3" points="-2.49 20.37 -5.92 14.04 -5.5 13.68 -1.92 19.28 -1.63 19.03 -4.32 12.6 -3.96 12.2 -1.34 18.68 -1.02 18.36 -2.55 10.74 -2.1 10.36 -0.64 18.03 -0.22 17.54 -0.22 8.36 0.07 8.04 0.31 8.46 0.23 17.62 0.75 18.14 2.2 10.37 2.7 10.72 1.08 18.45 1.4 18.73 4.05 12.19 4.42 12.56 1.75 19.08 1.97 19.37 5.56 13.72 5.92 14.12 2.62 20.37 0 22.85 -2.49 20.37"/><polygon class="cls-2" points="30.53 0 23.03 7.5 15.53 0 23.03 -7.5 30.53 0"/><polygon class="cls-3" points="30.53 0 23.03 7.5 15.53 0 23.03 -7.5 30.53 0"/><polygon class="cls-2" points="20.54 5.01 17.11 -1.32 17.53 -1.68 21.11 3.92 21.4 3.67 18.71 -2.75 19.07 -3.15 21.69 3.33 22.01 3.01 20.48 -4.62 20.93 -4.99 22.39 2.67 22.81 2.19 22.81 -7 23.1 -7.31 23.34 -6.89 23.26 2.26 23.78 2.79 25.23 -4.98 25.73 -4.63 24.11 3.1 24.43 3.38 27.08 -3.16 27.45 -2.79 24.79 3.72 25 4.01 28.59 -1.64 28.95 -1.23 25.65 5.01 23.03 7.5 20.54 5.01"/><polygon class="cls-3" points="20.54 5.01 17.11 -1.32 17.53 -1.68 21.11 3.92 21.4 3.67 18.71 -2.75 19.07 -3.15 21.69 3.33 22.01 3.01 20.48 -4.62 20.93 -4.99 22.39 2.67 22.81 2.19 22.81 -7 23.1 -7.31 23.34 -6.89 23.26 2.26 23.78 2.79 25.23 -4.98 25.73 -4.63 24.11 3.1 24.43 3.38 27.08 -3.16 27.45 -2.79 24.79 3.72 25 4.01 28.59 -1.64 28.95 -1.23 25.65 5.01 23.03 7.5 20.54 5.01"/><polygon class="cls-2" points="19.02 7.68 11.52 15.18 4.01 7.68 11.52 0.18 19.02 7.68"/><polygon class="cls-3" points="19.02 7.68 11.52 15.18 4.01 7.68 11.52 0.18 19.02 7.68"/><polygon class="cls-2" points="9.03 12.69 5.6 6.36 6.01 6 9.6 11.6 9.89 11.35 7.2 4.92 7.55 4.53 10.18 11.01 10.49 10.69 8.96 3.06 9.41 2.69 10.88 10.35 11.29 9.87 11.29 0.68 11.58 0.36 11.82 0.78 11.75 9.94 12.27 10.46 13.71 2.7 14.21 3.04 12.6 10.77 12.91 11.05 15.56 4.52 15.94 4.88 13.27 11.4 13.48 11.69 17.08 6.04 17.43 6.45 14.13 12.69 11.52 15.18 9.03 12.69"/><polygon class="cls-3" points="9.03 12.69 5.6 6.36 6.01 6 9.6 11.6 9.89 11.35 7.2 4.92 7.55 4.53 10.18 11.01 10.49 10.69 8.96 3.06 9.41 2.69 10.88 10.35 11.29 9.87 11.29 0.68 11.58 0.36 11.82 0.78 11.75 9.94 12.27 10.46 13.71 2.7 14.21 3.04 12.6 10.77 12.91 11.05 15.56 4.52 15.94 4.88 13.27 11.4 13.48 11.69 17.08 6.04 17.43 6.45 14.13 12.69 11.52 15.18 9.03 12.69"/><polygon class="cls-2" points="7.5 0 0 7.5 -7.5 0 0 -7.5 7.5 0"/><polygon class="cls-3" points="7.5 0 0 7.5 -7.5 0 0 -7.5 7.5 0"/><polygon class="cls-2" points="-2.49 5.01 -5.92 -1.32 -5.5 -1.68 -1.92 3.92 -1.63 3.67 -4.32 -2.75 -3.96 -3.15 -1.34 3.33 -1.02 3.01 -2.55 -4.62 -2.1 -4.99 -0.64 2.67 -0.22 2.19 -0.22 -7 0.07 -7.31 0.31 -6.89 0.23 2.26 0.75 2.79 2.2 -4.98 2.7 -4.63 1.08 3.1 1.4 3.38 4.05 -3.16 4.42 -2.79 1.75 3.72 1.97 4.01 5.56 -1.64 5.92 -1.23 2.62 5.01 0 7.5 -2.49 5.01"/><polygon class="cls-3" points="-2.49 5.01 -5.92 -1.32 -5.5 -1.68 -1.92 3.92 -1.63 3.67 -4.32 -2.75 -3.96 -3.15 -1.34 3.33 -1.02 3.01 -2.55 -4.62 -2.1 -4.99 -0.64 2.67 -0.22 2.19 -0.22 -7 0.07 -7.31 0.31 -6.89 0.23 2.26 0.75 2.79 2.2 -4.98 2.7 -4.63 1.08 3.1 1.4 3.38 4.05 -3.16 4.42 -2.79 1.75 3.72 1.97 4.01 5.56 -1.64 5.92 -1.23 2.62 5.01 0 7.5 -2.49 5.01"/></pattern></defs><title>axel_1</title><g id="Lager_2" data-name="Lager 2"><g id="Lager_1-2" data-name="Lager 1"><rect class="cls-4" x="0.13" y="0.13" width="300" height="418"/><rect class="cls-5" x="0.13" y="0.13" width="300" height="418"/><rect class="cls-4" x="29.63" y="24.58" width="240.53" height="372.43"/><text/><text class="cls-6" transform="translate(56.09 44.61)">Sergeant Psy Lance fö<tspan class="cls-7" x="131.05" y="0">r</tspan><tspan x="136.95" y="0">sta de</tspan><tspan class="cls-8" x="171.06" y="0">b</tspan><tspan x="178.07" y="0">ut </tspan><tspan x="-12.56" y="17.31">inom polisen </tspan><tspan class="cls-9" x="66.03" y="17.31">v</tspan><tspan x="73.06" y="17.31">ar när han </tspan><tspan class="cls-10" x="137.08" y="17.31">b</tspan><tspan x="144.04" y="17.31">l</tspan><tspan class="cls-11" x="148.1" y="17.31">e</tspan><tspan x="154.12" y="17.31">v inkall</tspan><tspan x="198" y="17.31">-</tspan><tspan x="-5.92" y="34.62">ad till slottet efter en sto</tspan><tspan class="cls-12" x="139.1" y="34.62">r</tspan><tspan x="145.13" y="34.62">m för </tspan><tspan class="cls-13" x="180.45" y="34.62">a</tspan><tspan x="186.4" y="34.62">tt </tspan><tspan class="cls-9" x="-5.94" y="51.93">v</tspan><tspan x="1.08" y="51.93">a</tspan><tspan class="cls-14" x="7.39" y="51.93">r</tspan><tspan x="13.68" y="51.93">na lokalbo</tspan><tspan class="cls-14" x="74.24" y="51.93">r</tspan><tspan x="80.53" y="51.93">na efter </tspan><tspan class="cls-13" x="128.77" y="51.93">a</tspan><tspan x="134.73" y="51.93">tt bron till </tspan><tspan x="-0.34" y="69.24">slottet fallit i </tspan><tspan class="cls-15" x="79.31" y="69.24">ö</tspan><tspan class="cls-16" x="86.1" y="69.24">v</tspan><tspan x="92.98" y="69.24">e</tspan><tspan class="cls-7" x="99.14" y="69.24">r</tspan><tspan x="105.04" y="69.24">s</tspan><tspan class="cls-9" x="110.76" y="69.24">v</tspan><tspan x="117.78" y="69.24">ämnin</tspan><tspan class="cls-17" x="154.44" y="69.24">g</tspan><tspan x="161.88" y="69.24">. Det </tspan><tspan x="1.85" y="86.55">ingen visste om </tspan><tspan class="cls-9" x="97.58" y="86.55">v</tspan><tspan x="104.6" y="86.55">ar </tspan><tspan class="cls-13" x="120.23" y="86.55">a</tspan><tspan x="126.18" y="86.55">tt Sgt. Psy </tspan><tspan x="-6.4" y="103.86">Lance </tspan><tspan class="cls-18" x="32.22" y="103.86">e</tspan><tspan x="38.53" y="103.86">gentligen </tspan><tspan class="cls-9" x="98.18" y="103.86">v</tspan><tspan x="105.2" y="103.86">ar </tspan><tspan class="cls-19" x="120.83" y="103.86">g</tspan><tspan x="128.33" y="103.86">alen p</tspan><tspan class="cls-13" x="163.34" y="103.86">a</tspan><tspan x="169.29" y="103.86">tient </tspan><tspan x="-6.58" y="121.17">som </tspan><tspan class="cls-20" x="21.07" y="121.17">f</tspan><tspan class="cls-13" x="24.88" y="121.17">l</tspan><tspan x="28.58" y="121.17">ytt f</tspan><tspan class="cls-21" x="53.38" y="121.17">r</tspan><tspan x="59.27" y="121.17">ån </tspan><tspan class="cls-9" x="76.85" y="121.17">v</tspan><tspan x="83.87" y="121.17">årdanstalten för </tspan><tspan class="cls-13" x="181.1" y="121.17">a</tspan><tspan x="187.05" y="121.17">tt </tspan><tspan x="14.64" y="138.49">sta</tspan><tspan class="cls-22" x="31.62" y="138.49">r</tspan><tspan x="37.58" y="138.49">ta sin ka</tspan><tspan class="cls-23" x="86.72" y="138.49">r</tspan><tspan x="92.62" y="138.49">riär som poli</tspan><tspan class="cls-24" x="167.46" y="138.49">s</tspan><tspan x="172.6" y="138.49">. </tspan><tspan x="0.93" y="173.11">Han påstår sig ha snu</tspan><tspan class="cls-9" x="128.35" y="173.11">b</tspan><tspan class="cls-10" x="135.38" y="173.11">b</tspan><tspan x="142.34" y="173.11">l</tspan><tspan class="cls-13" x="146.4" y="173.11">a</tspan><tspan x="152.35" y="173.11">t in på </tspan><tspan x="-10.12" y="190.42">brottspl</tspan><tspan class="cls-13" x="36.77" y="190.42">a</tspan><tspan x="42.72" y="190.42">tsen medan han samlade in </tspan><tspan x="-12.77" y="207.73">pen</tspan><tspan class="cls-25" x="8.27" y="207.73">g</tspan><tspan x="15.76" y="207.73">ar till polisens utpressningspro</tspan><tspan x="198.2" y="207.73">-</tspan><tspan class="cls-26" x="-6.14" y="225.04">g</tspan><tspan class="cls-27" x="2.16" y="225.04">r</tspan><tspan x="8.04" y="225.04">am. St</tspan><tspan class="cls-27" x="44.86" y="225.04">r</tspan><tspan x="50.75" y="225.04">ax efter mordet fö</tspan><tspan class="cls-7" x="156.25" y="225.04">r</tspan><tspan x="162.15" y="225.04">s</tspan><tspan class="cls-9" x="167.87" y="225.04">v</tspan><tspan x="174.89" y="225.04">ann </tspan><tspan x="-2.56" y="242.35">Sergeant Psy Lance spårlöst. Det </tspan><tspan x="-8.47" y="259.66">sägs </tspan><tspan class="cls-13" x="20.68" y="259.66">a</tspan><tspan x="26.63" y="259.66">tt han ska ha upp</tspan><tspan class="cls-26" x="127.32" y="259.66">g</tspan><tspan class="cls-27" x="135.61" y="259.66">r</tspan><tspan x="141.49" y="259.66">ade</tspan><tspan class="cls-27" x="161.33" y="259.66">r</tspan><tspan class="cls-13" x="167.22" y="259.66">a</tspan><tspan x="173.17" y="259.66">t sin </tspan><tspan class="cls-27" x="-2.48" y="276.97">r</tspan><tspan x="3.41" y="276.97">ank till inspekto</tspan><tspan class="cls-28" x="98.38" y="276.97">r</tspan><tspan x="103.14" y="276.97">. </tspan><tspan class="cls-29" x="109.91" y="276.97">V</tspan><tspan x="118.84" y="276.97">ar det för </tspan><tspan class="cls-13" x="177" y="276.97">a</tspan><tspan x="182.95" y="276.97">tt </tspan><tspan x="-12.45" y="294.28">smita f</tspan><tspan class="cls-27" x="27.22" y="294.28">r</tspan><tspan x="33.1" y="294.28">ån mordankl</tspan><tspan class="cls-8" x="107.34" y="294.28">a</tspan><tspan x="113.45" y="294.28">gelse</tspan><tspan class="cls-14" x="143.35" y="294.28">r</tspan><tspan x="149.64" y="294.28">na? Eller </tspan><tspan x="-11.77" y="311.59">har det möjligtvis nå</tspan><tspan class="cls-30" x="110.55" y="311.59">g</tspan><tspan x="118.22" y="311.59">ot med sk</tspan><tspan class="cls-13" x="175.18" y="311.59">a</tspan><tspan x="181.13" y="311.59">tte</tspan><tspan x="197.21" y="311.59">-</tspan><tspan x="50.72" y="328.9">fuskskandalen?</tspan></text></g></g></svg>