<svg xmlns="http://www.w3.org/2000/svg" xmlns:xlink="http://www.w3.org/1999/xlink" viewBox="0 0 300.25 423.56"><defs><style>.cls-1{fill:none;}.cls-2,.cls-3{fill:#bda54b;}.cls-3,.cls-4,.cls-5{stroke:#d9d9d9;stroke-miterlimit:10;stroke-width:0.25px;}.cls-5{fill:url(#Nytt_mönster_4);}</style><pattern id="Nytt_mönster_4" data-name="Nytt mönster 4" width="22.5" height="15" patternTransform="translate(28.67 -6.96)" patternUnits="userSpaceOnUse" viewBox="0 0 22.5 15"><rect class="cls-1" width="22.5" height="15"/><polygon class="cls-2" points="30 15 22.5 22.5 15 15 22.5 7.5 30 15"/><polygon class="cls-3" points="30 15 22.5 22.5 15 15 22.5 7.5 30 15"/><polygon class="cls-3" points="20.01 20.01 16.58 13.68 17 13.32 20.58 18.93 20.87 18.68 18.18 12.25 18.54 11.85 21.16 18.33 21.48 18.01 19.95 10.38 20.4 10.01 21.86 17.67 22.28 17.19 22.28 8 22.57 7.69 22.81 8.11 22.73 17.26 23.25 17.79 24.7 10.02 25.2 10.37 23.58 18.1 23.9 18.38 26.55 11.84 26.92 12.21 24.25 18.72 24.47 19.01 28.06 13.36 28.42 13.77 25.12 20.01 22.5 22.5 20.01 20.01"/><polygon class="cls-3" points="20.01 20.01 16.58 13.68 17 13.32 20.58 18.93 20.87 18.68 18.18 12.25 18.54 11.85 21.16 18.33 21.48 18.01 19.95 10.38 20.4 10.01 21.86 17.67 22.28 17.19 22.28 8 22.57 7.69 22.81 8.11 22.73 17.26 23.25 17.79 24.7 10.02 25.2 10.37 23.58 18.1 23.9 18.38 26.55 11.84 26.92 12.21 24.25 18.72 24.47 19.01 28.06 13.36 28.42 13.77 25.12 20.01 22.5 22.5 20.01 20.01"/><polygon class="cls-3" points="18.75 22.5 11.25 30 3.75 22.5 11.25 15 18.75 22.5"/><polygon class="cls-3" points="8.76 27.51 5.33 21.18 5.75 20.82 9.33 26.43 9.62 26.18 6.93 19.75 7.29 19.35 9.91 25.83 10.23 25.51 8.7 17.89 9.15 17.51 10.61 25.17 11.03 24.69 11.03 15.5 11.32 15.19 11.56 15.61 11.48 24.76 12 25.29 13.45 17.52 13.95 17.87 12.33 25.6 12.65 25.88 15.3 19.34 15.67 19.71 13 26.22 13.22 26.51 16.81 20.86 17.17 21.27 13.87 27.51 11.25 30 8.76 27.51"/><polygon class="cls-3" points="8.76 27.51 5.33 21.18 5.75 20.82 9.33 26.43 9.62 26.18 6.93 19.75 7.29 19.35 9.91 25.83 10.23 25.51 8.7 17.89 9.15 17.51 10.61 25.17 11.03 24.69 11.03 15.5 11.32 15.19 11.56 15.61 11.48 24.76 12 25.29 13.45 17.52 13.95 17.87 12.33 25.6 12.65 25.88 15.3 19.34 15.67 19.71 13 26.22 13.22 26.51 16.81 20.86 17.17 21.27 13.87 27.51 11.25 30 8.76 27.51"/><polygon class="cls-2" points="7.5 15 0 22.5 -7.5 15 0 7.5 7.5 15"/><polygon class="cls-3" points="7.5 15 0 22.5 -7.5 15 0 7.5 7.5 15"/><polygon class="cls-3" points="-2.49 20.01 -5.92 13.68 -5.5 13.32 -1.92 18.93 -1.63 18.68 -4.32 12.25 -3.96 11.85 -1.34 18.33 -1.02 18.01 -2.55 10.38 -2.1 10.01 -0.64 17.67 -0.22 17.19 -0.22 8 0.07 7.69 0.31 8.11 0.23 17.26 0.75 17.79 2.2 10.02 2.7 10.37 1.08 18.1 1.4 18.38 4.05 11.84 4.42 12.21 1.75 18.72 1.97 19.01 5.56 13.36 5.92 13.77 2.62 20.01 0 22.5 -2.49 20.01"/><polygon class="cls-3" points="-2.49 20.01 -5.92 13.68 -5.5 13.32 -1.92 18.93 -1.63 18.68 -4.32 12.25 -3.96 11.85 -1.34 18.33 -1.02 18.01 -2.55 10.38 -2.1 10.01 -0.64 17.67 -0.22 17.19 -0.22 8 0.07 7.69 0.31 8.11 0.23 17.26 0.75 17.79 2.2 10.02 2.7 10.37 1.08 18.1 1.4 18.38 4.05 11.84 4.42 12.21 1.75 18.72 1.97 19.01 5.56 13.36 5.92 13.77 2.62 20.01 0 22.5 -2.49 20.01"/><polygon class="cls-2" points="30 0 22.5 7.5 15 0 22.5 -7.5 30 0"/><polygon class="cls-3" points="30 0 22.5 7.5 15 0 22.5 -7.5 30 0"/><polygon class="cls-3" points="20.01 5.01 16.58 -1.32 17 -1.68 20.58 3.92 20.87 3.67 18.18 -2.75 18.54 -3.15 21.16 3.33 21.48 3.01 19.95 -4.62 20.4 -4.99 21.86 2.67 22.28 2.19 22.28 -7 22.57 -7.31 22.81 -6.89 22.73 2.26 23.25 2.79 24.7 -4.98 25.2 -4.63 23.58 3.1 23.9 3.38 26.55 -3.16 26.92 -2.79 24.25 3.72 24.47 4.01 28.06 -1.64 28.42 -1.23 25.12 5.01 22.5 7.5 20.01 5.01"/><polygon class="cls-3" points="20.01 5.01 16.58 -1.32 17 -1.68 20.58 3.92 20.87 3.67 18.18 -2.75 18.54 -3.15 21.16 3.33 21.48 3.01 19.95 -4.62 20.4 -4.99 21.86 2.67 22.28 2.19 22.28 -7 22.57 -7.31 22.81 -6.89 22.73 2.26 23.25 2.79 24.7 -4.98 25.2 -4.63 23.58 3.1 23.9 3.38 26.55 -3.16 26.92 -2.79 24.25 3.72 24.47 4.01 28.06 -1.64 28.42 -1.23 25.12 5.01 22.5 7.5 20.01 5.01"/><polygon class="cls-2" points="18.75 7.5 11.25 15 3.75 7.5 11.25 0 18.75 7.5"/><polygon class="cls-3" points="18.75 7.5 11.25 15 3.75 7.5 11.25 0 18.75 7.5"/><polygon class="cls-3" points="8.76 12.51 5.33 6.18 5.75 5.83 9.33 11.43 9.62 11.18 6.93 4.75 7.29 4.35 9.91 10.83 10.23 10.51 8.7 2.88 9.15 2.51 10.61 10.17 11.03 9.69 11.03 0.5 11.32 0.19 11.56 0.61 11.48 9.76 12 10.29 13.45 2.52 13.95 2.87 12.33 10.6 12.65 10.88 15.3 4.34 15.67 4.71 13 11.22 13.22 11.51 16.81 5.86 17.17 6.27 13.87 12.51 11.25 15 8.76 12.51"/><polygon class="cls-3" points="8.76 12.51 5.33 6.18 5.75 5.83 9.33 11.43 9.62 11.18 6.93 4.75 7.29 4.35 9.91 10.83 10.23 10.51 8.7 2.88 9.15 2.51 10.61 10.17 11.03 9.69 11.03 0.5 11.32 0.19 11.56 0.61 11.48 9.76 12 10.29 13.45 2.52 13.95 2.87 12.33 10.6 12.65 10.88 15.3 4.34 15.67 4.71 13 11.22 13.22 11.51 16.81 5.86 17.17 6.27 13.87 12.51 11.25 15 8.76 12.51"/><polygon class="cls-2" points="7.5 0 0 7.5 -7.5 0 0 -7.5 7.5 0"/><polygon class="cls-3" points="7.5 0 0 7.5 -7.5 0 0 -7.5 7.5 0"/><polygon class="cls-3" points="-2.49 5.01 -5.92 -1.32 -5.5 -1.68 -1.92 3.92 -1.63 3.67 -4.32 -2.75 -3.96 -3.15 -1.34 3.33 -1.02 3.01 -2.55 -4.62 -2.1 -4.99 -0.64 2.67 -0.22 2.19 -0.22 -7 0.07 -7.31 0.31 -6.89 0.23 2.26 0.75 2.79 2.2 -4.98 2.7 -4.63 1.08 3.1 1.4 3.38 4.05 -3.16 4.42 -2.79 1.75 3.72 1.97 4.01 5.56 -1.64 5.92 -1.23 2.62 5.01 0 7.5 -2.49 5.01"/><polygon class="cls-3" points="-2.49 5.01 -5.92 -1.32 -5.5 -1.68 -1.92 3.92 -1.63 3.67 -4.32 -2.75 -3.96 -3.15 -1.34 3.33 -1.02 3.01 -2.55 -4.62 -2.1 -4.99 -0.64 2.67 -0.22 2.19 -0.22 -7 0.07 -7.31 0.31 -6.89 0.23 2.26 0.75 2.79 2.2 -4.98 2.7 -4.63 1.08 3.1 1.4 3.38 4.05 -3.16 4.42 -2.79 1.75 3.72 1.97 4.01 5.56 -1.64 5.92 -1.23 2.62 5.01 0 7.5 -2.49 5.01"/><polygon class="cls-3" points="18.75 -7.5 11.25 0 3.75 -7.5 11.25 -15 18.75 -7.5"/><polygon class="cls-3" points="8.76 -2.49 5.33 -8.82 5.75 -9.18 9.33 -3.58 9.62 -3.83 6.93 -10.25 7.29 -10.65 9.91 -4.17 10.23 -4.49 8.7 -12.12 9.15 -12.49 10.61 -4.83 11.03 -5.31 11.03 -14.5 11.32 -14.81 11.56 -14.39 11.48 -5.24 12 -4.71 13.45 -12.48 13.95 -12.13 12.33 -4.4 12.65 -4.12 15.3 -10.66 15.67 -10.29 13 -3.78 13.22 -3.49 16.81 -9.14 17.17 -8.73 13.87 -2.49 11.25 0 8.76 -2.49"/><polygon class="cls-3" points="8.76 -2.49 5.33 -8.82 5.75 -9.18 9.33 -3.58 9.62 -3.83 6.93 -10.25 7.29 -10.65 9.91 -4.17 10.23 -4.49 8.7 -12.12 9.15 -12.49 10.61 -4.83 11.03 -5.31 11.03 -14.5 11.32 -14.81 11.56 -14.39 11.48 -5.24 12 -4.71 13.45 -12.48 13.95 -12.13 12.33 -4.4 12.65 -4.12 15.3 -10.66 15.67 -10.29 13 -3.78 13.22 -3.49 16.81 -9.14 17.17 -8.73 13.87 -2.49 11.25 0 8.76 -2.49"/></pattern></defs><title>bakgrund</title><g id="Lager_2" data-name="Lager 2"><g id="Lager_1-2" data-name="Lager 1"><rect class="cls-4" x="0.13" y="0.13" width="300" height="423.3"/><rect class="cls-5" x="0.13" y="0.13" width="300" height="423.31"/></g></g></svg>