<svg xmlns="http://www.w3.org/2000/svg" xmlns:xlink="http://www.w3.org/1999/xlink" viewBox="0 0 300.25 418.25"><defs><style>.cls-1,.cls-3{fill:none;}.cls-2,.cls-4{fill:#1d1d1b;}.cls-2,.cls-3{stroke:#877026;}.cls-2,.cls-3,.cls-4,.cls-5,.cls-6{stroke-miterlimit:10;stroke-width:0.25px;}.cls-4,.cls-5,.cls-6{stroke:#d9d9d9;}.cls-5{fill:url(#Nytt_mönster_4);}.cls-7{font-size:13px;fill:#fff;font-family:LeelawadeeUI-Semilight, Leelawadee UI;font-weight:300;}.cls-8{letter-spacing:-0.01em;}.cls-9{letter-spacing:-0.01em;}.cls-10{letter-spacing:-0.01em;}.cls-11{letter-spacing:-0.02em;}.cls-12{letter-spacing:0.01em;}.cls-13{letter-spacing:-0.16em;}.cls-14{letter-spacing:-0.02em;}.cls-15{letter-spacing:0.04em;}.cls-16{letter-spacing:0em;}.cls-17{letter-spacing:-0.08em;}.cls-18{letter-spacing:0.02em;}.cls-19{letter-spacing:0.03em;}.cls-20{letter-spacing:0.02em;}.cls-21{letter-spacing:-0.08em;}.cls-22{letter-spacing:0em;}.cls-23{letter-spacing:0em;}.cls-24{letter-spacing:0.03em;}.cls-25{letter-spacing:-0.06em;}.cls-26{letter-spacing:-0.02em;}</style><pattern id="Nytt_mönster_4" data-name="Nytt mönster 4" width="23.03" height="15.35" patternTransform="translate(-101.25 -56.99) scale(1.6 1.6)" patternUnits="userSpaceOnUse" viewBox="0 0 23.03 15.35"><rect class="cls-1" width="23.03" height="15.35"/><polygon class="cls-2" points="30.53 15.35 23.03 22.85 15.53 15.35 23.03 7.85 30.53 15.35"/><polygon class="cls-3" points="30.53 15.35 23.03 22.85 15.53 15.35 23.03 7.85 30.53 15.35"/><polygon class="cls-2" points="20.54 20.37 17.11 14.04 17.53 13.68 21.11 19.28 21.4 19.03 18.71 12.6 19.07 12.2 21.69 18.68 22.01 18.36 20.48 10.74 20.93 10.36 22.39 18.03 22.81 17.54 22.81 8.36 23.1 8.04 23.34 8.46 23.26 17.62 23.78 18.14 25.23 10.37 25.73 10.72 24.11 18.45 24.43 18.73 27.08 12.19 27.45 12.56 24.79 19.08 25 19.37 28.59 13.72 28.95 14.12 25.65 20.37 23.03 22.85 20.54 20.37"/><polygon class="cls-3" points="20.54 20.37 17.11 14.04 17.53 13.68 21.11 19.28 21.4 19.03 18.71 12.6 19.07 12.2 21.69 18.68 22.01 18.36 20.48 10.74 20.93 10.36 22.39 18.03 22.81 17.54 22.81 8.36 23.1 8.04 23.34 8.46 23.26 17.62 23.78 18.14 25.23 10.37 25.73 10.72 24.11 18.45 24.43 18.73 27.08 12.19 27.45 12.56 24.79 19.08 25 19.37 28.59 13.72 28.95 14.12 25.65 20.37 23.03 22.85 20.54 20.37"/><polygon class="cls-2" points="7.5 15.35 0 22.85 -7.5 15.35 0 7.85 7.5 15.35"/><polygon class="cls-3" points="7.5 15.35 0 22.85 -7.5 15.35 0 7.85 7.5 15.35"/><polygon class="cls-2" points="-2.49 20.37 -5.92 14.04 -5.5 13.68 -1.92 19.28 -1.63 19.03 -4.32 12.6 -3.96 12.2 -1.34 18.68 -1.02 18.36 -2.55 10.74 -2.1 10.36 -0.64 18.03 -0.22 17.54 -0.22 8.36 0.07 8.04 0.31 8.46 0.23 17.62 0.75 18.14 2.2 10.37 2.7 10.72 1.08 18.45 1.4 18.73 4.05 12.19 4.42 12.56 1.75 19.08 1.97 19.37 5.56 13.72 5.92 14.12 2.62 20.37 0 22.85 -2.49 20.37"/><polygon class="cls-3" points="-2.49 20.37 -5.92 14.04 -5.5 13.68 -1.92 19.28 -1.63 19.03 -4.32 12.6 -3.96 12.2 -1.34 18.68 -1.02 18.36 -2.55 10.74 -2.1 10.36 -0.64 18.03 -0.22 17.54 -0.22 8.36 0.07 8.04 0.31 8.46 0.23 17.62 0.75 18.14 2.2 10.37 2.7 10.72 1.08 18.45 1.4 18.73 4.05 12.19 4.42 12.56 1.75 19.08 1.97 19.37 5.56 13.72 5.92 14.12 2.62 20.37 0 22.85 -2.49 20.37"/><polygon class="cls-2" points="30.53 0 23.03 7.5 15.53 0 23.03 -7.5 30.53 0"/><polygon class="cls-3" points="30.53 0 23.03 7.5 15.53 0 23.03 -7.5 30.53 0"/><polygon class="cls-2" points="20.54 5.01 17.11 -1.32 17.53 -1.68 21.11 3.92 21.4 3.67 18.71 -2.75 19.07 -3.15 21.69 3.33 22.01 3.01 20.48 -4.62 20.93 -4.99 22.39 2.67 22.81 2.19 22.81 -7 23.1 -7.31 23.34 -6.89 23.26 2.26 23.78 2.79 25.23 -4.98 25.73 -4.63 24.11 3.1 24.43 3.38 27.08 -3.16 27.45 -2.79 24.79 3.72 25 4.01 28.59 -1.64 28.95 -1.23 25.65 5.01 23.03 7.5 20.54 5.01"/><polygon class="cls-3" points="20.54 5.01 17.11 -1.32 17.53 -1.68 21.11 3.92 21.4 3.67 18.71 -2.75 19.07 -3.15 21.69 3.33 22.01 3.01 20.48 -4.62 20.93 -4.99 22.39 2.67 22.81 2.19 22.81 -7 23.1 -7.31 23.34 -6.89 23.26 2.26 23.78 2.79 25.23 -4.98 25.73 -4.63 24.11 3.1 24.43 3.38 27.08 -3.16 27.45 -2.79 24.79 3.72 25 4.01 28.59 -1.64 28.95 -1.23 25.65 5.01 23.03 7.5 20.54 5.01"/><polygon class="cls-2" points="19.02 7.68 11.52 15.18 4.01 7.68 11.52 0.18 19.02 7.68"/><polygon class="cls-3" points="19.02 7.68 11.52 15.18 4.01 7.68 11.52 0.18 19.02 7.68"/><polygon class="cls-2" points="9.03 12.69 5.6 6.36 6.01 6 9.6 11.6 9.89 11.35 7.2 4.92 7.55 4.53 10.18 11.01 10.49 10.69 8.96 3.06 9.41 2.69 10.88 10.35 11.29 9.87 11.29 0.68 11.58 0.36 11.82 0.78 11.75 9.94 12.27 10.46 13.71 2.7 14.21 3.04 12.6 10.77 12.91 11.05 15.56 4.52 15.94 4.88 13.27 11.4 13.48 11.69 17.08 6.04 17.43 6.45 14.13 12.69 11.52 15.18 9.03 12.69"/><polygon class="cls-3" points="9.03 12.69 5.6 6.36 6.01 6 9.6 11.6 9.89 11.35 7.2 4.92 7.55 4.53 10.18 11.01 10.49 10.69 8.96 3.06 9.41 2.69 10.88 10.35 11.29 9.87 11.29 0.68 11.58 0.36 11.82 0.78 11.75 9.94 12.27 10.46 13.71 2.7 14.21 3.04 12.6 10.77 12.91 11.05 15.56 4.52 15.94 4.88 13.27 11.4 13.48 11.69 17.08 6.04 17.43 6.45 14.13 12.69 11.52 15.18 9.03 12.69"/><polygon class="cls-2" points="7.5 0 0 7.5 -7.5 0 0 -7.5 7.5 0"/><polygon class="cls-3" points="7.5 0 0 7.5 -7.5 0 0 -7.5 7.5 0"/><polygon class="cls-2" points="-2.49 5.01 -5.92 -1.32 -5.5 -1.68 -1.92 3.92 -1.63 3.67 -4.32 -2.75 -3.96 -3.15 -1.34 3.33 -1.02 3.01 -2.55 -4.62 -2.1 -4.99 -0.64 2.67 -0.22 2.19 -0.22 -7 0.07 -7.31 0.31 -6.89 0.23 2.26 0.75 2.79 2.2 -4.98 2.7 -4.63 1.08 3.1 1.4 3.38 4.05 -3.16 4.42 -2.79 1.75 3.72 1.97 4.01 5.56 -1.64 5.92 -1.23 2.62 5.01 0 7.5 -2.49 5.01"/><polygon class="cls-3" points="-2.49 5.01 -5.92 -1.32 -5.5 -1.68 -1.92 3.92 -1.63 3.67 -4.32 -2.75 -3.96 -3.15 -1.34 3.33 -1.02 3.01 -2.55 -4.62 -2.1 -4.99 -0.64 2.67 -0.22 2.19 -0.22 -7 0.07 -7.31 0.31 -6.89 0.23 2.26 0.75 2.79 2.2 -4.98 2.7 -4.63 1.08 3.1 1.4 3.38 4.05 -3.16 4.42 -2.79 1.75 3.72 1.97 4.01 5.56 -1.64 5.92 -1.23 2.62 5.01 0 7.5 -2.49 5.01"/></pattern></defs><title>Ellen</title><g id="Lager_2" data-name="Lager 2"><g id="Lager_1-2" data-name="Lager 1"><rect class="cls-4" x="0.13" y="0.13" width="300" height="418"/><rect class="cls-5" x="0.13" y="0.13" width="300" height="418"/><rect class="cls-6" x="10.68" y="17.56" width="280" height="380"/><text/><text class="cls-7" transform="translate(37.59 40.6)">Det är något med <tspan class="cls-8" x="102.7" y="0">p</tspan><tspan x="109.99" y="0">åfågelns s</tspan><tspan class="cls-9" x="165.17" y="0">t</tspan><tspan x="169.2" y="0">orhet och </tspan><tspan x="-3.76" y="18">elegans som länge fascinerat henne, men </tspan><tspan x="-8.82" y="36">li</tspan><tspan class="cls-10" x="-3.01" y="36">v</tspan><tspan x="2.97" y="36">et har </tspan><tspan class="cls-11" x="38.97" y="36">v</tspan><tspan x="44.8" y="36">arit allt annat än fjäderlätt för M</tspan><tspan class="cls-12" x="222.12" y="36">r</tspan><tspan x="226.62" y="36">s </tspan><tspan x="-1.87" y="54">Moo</tspan><tspan class="cls-8" x="24.28" y="54">r</tspan><tspan x="28.51" y="54">e </tspan><tspan class="cls-13" x="38.75" y="54">P</tspan><tspan x="43.86" y="54">. Ba</tspan><tspan class="cls-14" x="64.04" y="54">k</tspan><tspan x="69.89" y="54">om sin p</tspan><tspan class="cls-15" x="118.21" y="54">r</tspan><tspan class="cls-16" x="123.13" y="54">y</tspan><tspan x="129.15" y="54">dliga fasad döljer </tspan><tspan x="20.09" y="72">hon de mörkas</tspan><tspan class="cls-9" x="103.82" y="72">t</tspan><tspan x="107.85" y="72">e av hemlighe</tspan><tspan class="cls-9" x="186.1" y="72">t</tspan><tspan x="190.13" y="72">e</tspan><tspan class="cls-17" x="196.81" y="72">r</tspan><tspan x="200.13" y="72">. </tspan><tspan x="-5.61" y="108">E</tspan><tspan class="cls-18" x="0.93" y="108">f</tspan><tspan class="cls-9" x="4.99" y="108">t</tspan><tspan x="9.02" y="108">er ett liv av hå</tspan><tspan class="cls-19" x="87.4" y="108">r</tspan><tspan x="92.17" y="108">t arbe</tspan><tspan class="cls-9" x="124.92" y="108">t</tspan><tspan x="128.95" y="108">e och slit är det få </tspan><tspan x="-0.89" y="126">pe</tspan><tspan class="cls-12" x="13.25" y="126">r</tspan><tspan x="17.75" y="126">soner M</tspan><tspan class="cls-12" x="63.52" y="126">r</tspan><tspan x="68.02" y="126">s P känner tillit till, kans</tspan><tspan class="cls-14" x="196.95" y="126">k</tspan><tspan x="202.8" y="126">e är </tspan><tspan x="-8.47" y="144">det ä</tspan><tspan class="cls-10" x="19.87" y="144">v</tspan><tspan x="25.85" y="144">en dä</tspan><tspan class="cls-20" x="57.22" y="144">r</tspan><tspan x="61.88" y="144">för hon så sällan imponeras av </tspan><tspan x="-0.21" y="162">andra? Enligt henne är ma</tspan><tspan class="cls-9" x="146.08" y="162">k</tspan><tspan x="152.09" y="162">t att ha </tspan><tspan class="cls-8" x="195.35" y="162">b</tspan><tspan x="202.63" y="162">åde </tspan><tspan x="4.11" y="180">kunskap och </tspan><tspan class="cls-14" x="77.51" y="180">k</tspan><tspan x="83.36" y="180">onta</tspan><tspan class="cls-9" x="108.61" y="180">kt</tspan><tspan x="118.66" y="180">e</tspan><tspan class="cls-21" x="125.33" y="180">r</tspan><tspan x="128.66" y="180">. Utan att utb</tspan><tspan class="cls-22" x="202.2" y="180">y</tspan><tspan x="208.32" y="180">ta </tspan><tspan x="-5.93" y="198">detaljer ser hon dä</tspan><tspan class="cls-20" x="98.54" y="198">r</tspan><tspan x="103.19" y="198">för tilla tt ta </tspan><tspan class="cls-8" x="171.4" y="198">r</tspan><tspan x="175.63" y="198">eda </tspan><tspan class="cls-8" x="199.85" y="198">p</tspan><tspan x="207.13" y="198">å så </tspan><tspan x="37.25" y="216">m</tspan><tspan class="cls-16" x="48.19" y="216">y</tspan><tspan x="54.21" y="216">c</tspan><tspan class="cls-14" x="60.09" y="216">k</tspan><tspan x="65.95" y="216">et hon kan om andra. </tspan><tspan x="0.67" y="252">Lögne</tspan><tspan class="cls-23" x="35.45" y="252">r</tspan><tspan x="39.83" y="252">na som sk</tspan><tspan class="cls-16" x="95.69" y="252">y</tspan><tspan x="101.71" y="252">ddar hennes fö</tspan><tspan class="cls-20" x="186.06" y="252">r</tspan><tspan x="190.71" y="252">flutna </tspan><tspan x="-8.3" y="270">har dock fått omgivningen att börja speku</tspan><tspan x="226.19" y="270">-</tspan><tspan x="-9.52" y="288">lera: </tspan><tspan class="cls-11" x="17.4" y="288">v</tspan><tspan x="23.22" y="288">a</tspan><tspan class="cls-24" x="29.73" y="288">r</tspan><tspan x="34.51" y="288">t </tspan><tspan class="cls-14" x="42.2" y="288">k</tspan><tspan x="48.05" y="288">ommer hon från och hur hamna</tspan><tspan x="227.41" y="288">-</tspan><tspan x="9.84" y="306">de hon här? </tspan><tspan class="cls-25" x="80.2" y="306">V</tspan><tspan x="87.34" y="306">em är hon egentligen? </tspan><tspan x="-5.65" y="324">Kans</tspan><tspan class="cls-14" x="20.49" y="324">k</tspan><tspan x="26.34" y="324">e är det av ont öga hon gömmer sig </tspan><tspan class="cls-8" x="64.47" y="342">b</tspan><tspan x="71.76" y="342">a</tspan><tspan class="cls-26" x="78.27" y="342">k</tspan><tspan x="84.13" y="342">om fjädra</tspan><tspan class="cls-23" x="137.71" y="342">r</tspan><tspan x="142.09" y="342">na. </tspan></text></g></g></svg>