<svg xmlns="http://www.w3.org/2000/svg" xmlns:xlink="http://www.w3.org/1999/xlink" viewBox="0 0 300.25 418.25"><defs><style>.cls-1,.cls-3{fill:none;}.cls-2,.cls-4{fill:#1d1d1b;}.cls-2,.cls-3{stroke:#877026;}.cls-2,.cls-3,.cls-4,.cls-5{stroke-miterlimit:10;stroke-width:0.25px;}.cls-4,.cls-5{stroke:#d9d9d9;}.cls-5{fill:url(#Nytt_mönster_4);}.cls-6{font-size:12.82px;fill:#fff;font-family:BellMT, Bell MT;}.cls-7{letter-spacing:-0.01em;}.cls-8{letter-spacing:0.01em;}.cls-9{letter-spacing:-0.02em;}.cls-10{letter-spacing:0.01em;}.cls-11{letter-spacing:-0.02em;}.cls-12{letter-spacing:-0.01em;}.cls-13{letter-spacing:-0.02em;}.cls-14{letter-spacing:-0.01em;}.cls-15{letter-spacing:0.01em;}.cls-16{letter-spacing:-0.15em;}.cls-17{letter-spacing:-0.04em;}.cls-18{letter-spacing:0.02em;}.cls-19{letter-spacing:-0.02em;}.cls-20{letter-spacing:-0.07em;}.cls-21{letter-spacing:0.02em;}.cls-22{letter-spacing:-0.02em;}.cls-23{letter-spacing:0.04em;}.cls-24{letter-spacing:-0.02em;}.cls-25{letter-spacing:-0.07em;}</style><pattern id="Nytt_mönster_4" data-name="Nytt mönster 4" width="23.03" height="15.35" patternTransform="translate(45.63 -15.93) scale(1.6 1.6)" patternUnits="userSpaceOnUse" viewBox="0 0 23.03 15.35"><rect class="cls-1" width="23.03" height="15.35"/><polygon class="cls-2" points="30.53 15.35 23.03 22.85 15.53 15.35 23.03 7.85 30.53 15.35"/><polygon class="cls-3" points="30.53 15.35 23.03 22.85 15.53 15.35 23.03 7.85 30.53 15.35"/><polygon class="cls-2" points="20.54 20.37 17.11 14.04 17.53 13.68 21.11 19.28 21.4 19.03 18.71 12.6 19.07 12.2 21.69 18.68 22.01 18.36 20.48 10.74 20.93 10.36 22.39 18.03 22.81 17.54 22.81 8.36 23.1 8.04 23.34 8.46 23.26 17.62 23.78 18.14 25.23 10.37 25.73 10.72 24.11 18.45 24.43 18.73 27.08 12.19 27.45 12.56 24.79 19.08 25 19.37 28.59 13.72 28.95 14.12 25.65 20.37 23.03 22.85 20.54 20.37"/><polygon class="cls-3" points="20.54 20.37 17.11 14.04 17.53 13.68 21.11 19.28 21.4 19.03 18.71 12.6 19.07 12.2 21.69 18.68 22.01 18.36 20.48 10.74 20.93 10.36 22.39 18.03 22.81 17.54 22.81 8.36 23.1 8.04 23.34 8.46 23.26 17.62 23.78 18.14 25.23 10.37 25.73 10.72 24.11 18.45 24.43 18.73 27.08 12.19 27.45 12.56 24.79 19.08 25 19.37 28.59 13.72 28.95 14.12 25.65 20.37 23.03 22.85 20.54 20.37"/><polygon class="cls-2" points="7.5 15.35 0 22.85 -7.5 15.35 0 7.85 7.5 15.35"/><polygon class="cls-3" points="7.5 15.35 0 22.85 -7.5 15.35 0 7.85 7.5 15.35"/><polygon class="cls-2" points="-2.49 20.37 -5.92 14.04 -5.5 13.68 -1.92 19.28 -1.63 19.03 -4.32 12.6 -3.96 12.2 -1.34 18.68 -1.02 18.36 -2.55 10.74 -2.1 10.36 -0.64 18.03 -0.22 17.54 -0.22 8.36 0.07 8.04 0.31 8.46 0.23 17.62 0.75 18.14 2.2 10.37 2.7 10.72 1.08 18.45 1.4 18.73 4.05 12.19 4.42 12.56 1.75 19.08 1.97 19.37 5.56 13.72 5.92 14.12 2.62 20.37 0 22.85 -2.49 20.37"/><polygon class="cls-3" points="-2.49 20.37 -5.92 14.04 -5.5 13.68 -1.92 19.28 -1.63 19.03 -4.32 12.6 -3.96 12.2 -1.34 18.68 -1.02 18.36 -2.55 10.74 -2.1 10.36 -0.64 18.03 -0.22 17.54 -0.22 8.36 0.07 8.04 0.31 8.46 0.23 17.62 0.75 18.14 2.2 10.37 2.7 10.72 1.08 18.45 1.4 18.73 4.05 12.19 4.42 12.56 1.75 19.08 1.97 19.37 5.56 13.72 5.92 14.12 2.62 20.37 0 22.85 -2.49 20.37"/><polygon class="cls-2" points="30.53 0 23.03 7.5 15.53 0 23.03 -7.5 30.53 0"/><polygon class="cls-3" points="30.53 0 23.03 7.5 15.53 0 23.03 -7.5 30.53 0"/><polygon class="cls-2" points="20.54 5.01 17.11 -1.32 17.53 -1.68 21.11 3.92 21.4 3.67 18.71 -2.75 19.07 -3.15 21.69 3.33 22.01 3.01 20.48 -4.62 20.93 -4.99 22.39 2.67 22.81 2.19 22.81 -7 23.1 -7.31 23.34 -6.89 23.26 2.26 23.78 2.79 25.23 -4.98 25.73 -4.63 24.11 3.1 24.43 3.38 27.08 -3.16 27.45 -2.79 24.79 3.72 25 4.01 28.59 -1.64 28.95 -1.23 25.65 5.01 23.03 7.5 20.54 5.01"/><polygon class="cls-3" points="20.54 5.01 17.11 -1.32 17.53 -1.68 21.11 3.92 21.4 3.67 18.71 -2.75 19.07 -3.15 21.69 3.33 22.01 3.01 20.48 -4.62 20.93 -4.99 22.39 2.67 22.81 2.19 22.81 -7 23.1 -7.31 23.34 -6.89 23.26 2.26 23.78 2.79 25.23 -4.98 25.73 -4.63 24.11 3.1 24.43 3.38 27.08 -3.16 27.45 -2.79 24.79 3.72 25 4.01 28.59 -1.64 28.95 -1.23 25.65 5.01 23.03 7.5 20.54 5.01"/><polygon class="cls-2" points="19.02 7.68 11.52 15.18 4.01 7.68 11.52 0.18 19.02 7.68"/><polygon class="cls-3" points="19.02 7.68 11.52 15.18 4.01 7.68 11.52 0.18 19.02 7.68"/><polygon class="cls-2" points="9.03 12.69 5.6 6.36 6.01 6 9.6 11.6 9.89 11.35 7.2 4.92 7.55 4.53 10.18 11.01 10.49 10.69 8.96 3.06 9.41 2.69 10.88 10.35 11.29 9.87 11.29 0.68 11.58 0.36 11.82 0.78 11.75 9.94 12.27 10.46 13.71 2.7 14.21 3.04 12.6 10.77 12.91 11.05 15.56 4.52 15.94 4.88 13.27 11.4 13.48 11.69 17.08 6.04 17.43 6.45 14.13 12.69 11.52 15.18 9.03 12.69"/><polygon class="cls-3" points="9.03 12.69 5.6 6.36 6.01 6 9.6 11.6 9.89 11.35 7.2 4.92 7.55 4.53 10.18 11.01 10.49 10.69 8.96 3.06 9.41 2.69 10.88 10.35 11.29 9.87 11.29 0.68 11.58 0.36 11.82 0.78 11.75 9.94 12.27 10.46 13.71 2.7 14.21 3.04 12.6 10.77 12.91 11.05 15.56 4.52 15.94 4.88 13.27 11.4 13.48 11.69 17.08 6.04 17.43 6.45 14.13 12.69 11.52 15.18 9.03 12.69"/><polygon class="cls-2" points="7.5 0 0 7.5 -7.5 0 0 -7.5 7.5 0"/><polygon class="cls-3" points="7.5 0 0 7.5 -7.5 0 0 -7.5 7.5 0"/><polygon class="cls-2" points="-2.49 5.01 -5.92 -1.32 -5.5 -1.68 -1.92 3.92 -1.63 3.67 -4.32 -2.75 -3.96 -3.15 -1.34 3.33 -1.02 3.01 -2.55 -4.62 -2.1 -4.99 -0.64 2.67 -0.22 2.19 -0.22 -7 0.07 -7.31 0.31 -6.89 0.23 2.26 0.75 2.79 2.2 -4.98 2.7 -4.63 1.08 3.1 1.4 3.38 4.05 -3.16 4.42 -2.79 1.75 3.72 1.97 4.01 5.56 -1.64 5.92 -1.23 2.62 5.01 0 7.5 -2.49 5.01"/><polygon class="cls-3" points="-2.49 5.01 -5.92 -1.32 -5.5 -1.68 -1.92 3.92 -1.63 3.67 -4.32 -2.75 -3.96 -3.15 -1.34 3.33 -1.02 3.01 -2.55 -4.62 -2.1 -4.99 -0.64 2.67 -0.22 2.19 -0.22 -7 0.07 -7.31 0.31 -6.89 0.23 2.26 0.75 2.79 2.2 -4.98 2.7 -4.63 1.08 3.1 1.4 3.38 4.05 -3.16 4.42 -2.79 1.75 3.72 1.97 4.01 5.56 -1.64 5.92 -1.23 2.62 5.01 0 7.5 -2.49 5.01"/></pattern></defs><title>ellen</title><g id="Lager_2" data-name="Lager 2"><g id="Lager_1-2" data-name="Lager 1"><rect class="cls-4" x="0.13" y="0.13" width="300" height="418"/><rect class="cls-5" x="0.13" y="0.13" width="300" height="418"/><rect class="cls-4" x="29.63" y="24.58" width="240.53" height="372.43"/><text/><text/><text class="cls-6" transform="translate(48.09 58.93)">Det är nå<tspan class="cls-7" x="49.16" y="0">g</tspan><tspan x="55.97" y="0">ot med påfågelns storhet och </tspan><tspan x="-2.36" y="15.39">el</tspan><tspan class="cls-8" x="6.73" y="15.39">e</tspan><tspan class="cls-9" x="12.33" y="15.39">g</tspan><tspan x="18.99" y="15.39">ans som länge fascine</tspan><tspan class="cls-10" x="131.2" y="15.39">r</tspan><tspan class="cls-11" x="136.43" y="15.39">a</tspan><tspan x="141.72" y="15.39">t henn</tspan><tspan class="cls-12" x="175.12" y="15.39">e</tspan><tspan x="180.43" y="15.39">, men </tspan><tspan x="-1.21" y="30.77">li</tspan><tspan class="cls-13" x="5.74" y="30.77">v</tspan><tspan x="11.86" y="30.77">et har </tspan><tspan class="cls-14" x="45.52" y="30.77">v</tspan><tspan x="51.76" y="30.77">arit allt ann</tspan><tspan class="cls-11" x="113.08" y="30.77">a</tspan><tspan x="118.37" y="30.77">t än fjäderlätt för </tspan><tspan x="0.13" y="46.16">M</tspan><tspan class="cls-15" x="12.02" y="46.16">r</tspan><tspan x="17.27" y="46.16">s Moore </tspan><tspan class="cls-16" x="63.76" y="46.16">P</tspan><tspan x="69.77" y="46.16">. Ba</tspan><tspan class="cls-17" x="89.28" y="46.16">k</tspan><tspan x="95.19" y="46.16">om sin p</tspan><tspan class="cls-18" x="139.54" y="46.16">r</tspan><tspan class="cls-17" x="144.93" y="46.16">y</tspan><tspan x="150.84" y="46.16">dli</tspan><tspan class="cls-9" x="164.33" y="46.16">g</tspan><tspan x="170.99" y="46.16">a fasad </tspan><tspan x="1.42" y="61.55">döljer hon de mörkaste </tspan><tspan class="cls-19" x="124.86" y="61.55">a</tspan><tspan x="130.21" y="61.55">v hemlighete</tspan><tspan class="cls-20" x="197.94" y="61.55">r</tspan><tspan x="202.17" y="61.55">. </tspan><tspan x="-2.58" y="92.32">Efter ett liv </tspan><tspan class="cls-19" x="61.67" y="92.32">a</tspan><tspan x="67.02" y="92.32">v hå</tspan><tspan class="cls-21" x="88.93" y="92.32">r</tspan><tspan x="94.23" y="92.32">t arbete och slit är det </tspan><tspan x="-6.6" y="107.71">få pe</tspan><tspan class="cls-15" x="17.72" y="107.71">r</tspan><tspan x="22.96" y="107.71">soner M</tspan><tspan class="cls-15" x="66.78" y="107.71">r</tspan><tspan x="72.03" y="107.71">s P känner tillit till, kans</tspan><tspan class="cls-17" x="201.6" y="107.71">k</tspan><tspan x="207.51" y="107.71">e </tspan><tspan x="-7.08" y="123.1">är det </tspan><tspan class="cls-19" x="26.45" y="123.1">ä</tspan><tspan class="cls-13" x="31.8" y="123.1">v</tspan><tspan x="37.92" y="123.1">en därför hon så sällan impone</tspan><tspan class="cls-10" x="197.55" y="123.1">r</tspan><tspan x="202.79" y="123.1">as </tspan><tspan class="cls-19" x="4.29" y="138.49">a</tspan><tspan x="9.65" y="138.49">v and</tspan><tspan class="cls-10" x="38.23" y="138.49">r</tspan><tspan x="43.46" y="138.49">a? Enligt henne är makt </tspan><tspan class="cls-11" x="172.5" y="138.49">a</tspan><tspan x="177.79" y="138.49">tt ha </tspan><tspan x="5.85" y="153.87">både kunskap och </tspan><tspan class="cls-17" x="101.09" y="153.87">k</tspan><tspan x="107" y="153.87">ontakte</tspan><tspan class="cls-20" x="146.41" y="153.87">r</tspan><tspan x="150.64" y="153.87">. Utan </tspan><tspan class="cls-11" x="186.44" y="153.87">a</tspan><tspan x="191.73" y="153.87">tt </tspan><tspan x="1.83" y="169.26">ut</tspan><tspan class="cls-12" x="12.78" y="169.26">b</tspan><tspan x="19.02" y="169.26">yta detaljer ser hon därför tilla tt ta </tspan><tspan x="6.94" y="184.65">reda på så </tspan><tspan class="cls-12" x="61.98" y="184.65">m</tspan><tspan class="cls-22" x="71.83" y="184.65">y</tspan><tspan x="77.97" y="184.65">c</tspan><tspan class="cls-17" x="83.31" y="184.65">k</tspan><tspan x="89.22" y="184.65">et hon kan om and</tspan><tspan class="cls-10" x="185.8" y="184.65">r</tspan><tspan x="191.03" y="184.65">a. </tspan><tspan x="-0.94" y="200.03">Lögne</tspan><tspan class="cls-23" x="32.45" y="200.03">r</tspan><tspan x="38.04" y="200.03">na som s</tspan><tspan class="cls-12" x="83.33" y="200.03">k</tspan><tspan class="cls-17" x="89.57" y="200.03">y</tspan><tspan x="95.48" y="200.03">ddar hennes för</tspan><tspan class="cls-24" x="176.97" y="200.03">f</tspan><tspan x="180.36" y="200.03">lutna </tspan><tspan x="10.04" y="215.42">har dock fått omgivningen </tspan><tspan class="cls-11" x="152.02" y="215.42">a</tspan><tspan x="157.31" y="215.42">tt bö</tspan><tspan class="cls-15" x="182.03" y="215.42">r</tspan><tspan x="187.27" y="215.42">ja </tspan><tspan x="-3.74" y="230.81">spekule</tspan><tspan class="cls-10" x="35.27" y="230.81">r</tspan><tspan x="40.5" y="230.81">a: </tspan><tspan class="cls-12" x="52.12" y="230.81">v</tspan><tspan x="58.37" y="230.81">a</tspan><tspan class="cls-21" x="63.98" y="230.81">r</tspan><tspan x="69.27" y="230.81">t </tspan><tspan class="cls-17" x="76.89" y="230.81">k</tspan><tspan x="82.8" y="230.81">ommer hon f</tspan><tspan class="cls-10" x="149.46" y="230.81">r</tspan><tspan x="154.69" y="230.81">ån och hur </tspan><tspan x="1.72" y="246.2">hamnade hon här? </tspan><tspan class="cls-25" x="100.7" y="246.2">V</tspan><tspan x="108.51" y="246.2">em är hon </tspan><tspan class="cls-8" x="164.08" y="246.2">e</tspan><tspan x="169.68" y="246.2">gentli</tspan><tspan x="200.27" y="246.2">-</tspan><tspan x="13.42" y="261.58">gen? </tspan><tspan class="cls-8" x="41.34" y="261.58">K</tspan><tspan x="50.14" y="261.58">ans</tspan><tspan class="cls-17" x="67.64" y="261.58">k</tspan><tspan x="73.56" y="261.58">e är det </tspan><tspan class="cls-19" x="115.77" y="261.58">a</tspan><tspan x="121.12" y="261.58">v ont ö</tspan><tspan class="cls-9" x="157.72" y="261.58">g</tspan><tspan x="164.39" y="261.58">a hon </tspan><tspan class="cls-7" x="26.3" y="276.97">g</tspan><tspan x="33.12" y="276.97">ömmer sig ba</tspan><tspan class="cls-17" x="103.78" y="276.97">k</tspan><tspan x="109.69" y="276.97">om fjäd</tspan><tspan class="cls-10" x="148.43" y="276.97">r</tspan><tspan x="153.66" y="276.97">a</tspan><tspan class="cls-23" x="159.27" y="276.97">r</tspan><tspan x="164.87" y="276.97">na. </tspan></text></g></g></svg>