<svg xmlns="http://www.w3.org/2000/svg" xmlns:xlink="http://www.w3.org/1999/xlink" viewBox="0 0 300.25 418.25"><defs><style>.cls-1,.cls-3{fill:none;}.cls-2,.cls-4{fill:#1d1d1b;}.cls-2,.cls-3{stroke:#877026;}.cls-2,.cls-3,.cls-4,.cls-5,.cls-6{stroke-miterlimit:10;stroke-width:0.25px;}.cls-4,.cls-5,.cls-6{stroke:#d9d9d9;}.cls-5{fill:url(#Nytt_mönster_4);}.cls-7{font-size:12px;fill:#fff;font-family:LeelawadeeUI-Semilight, Leelawadee UI;font-weight:300;}.cls-8{letter-spacing:-0.01em;}.cls-9{letter-spacing:-0.02em;}.cls-10{letter-spacing:-0.01em;}.cls-11{letter-spacing:-0.08em;}.cls-12{letter-spacing:-0.01em;}.cls-13{letter-spacing:0em;}.cls-14{letter-spacing:-0.02em;}.cls-15{letter-spacing:-0.02em;}.cls-16{letter-spacing:0em;}.cls-17{letter-spacing:0em;}.cls-18{letter-spacing:-0.02em;}.cls-19{letter-spacing:-0.01em;}.cls-20{letter-spacing:0.02em;}.cls-21{letter-spacing:0.01em;}.cls-22{letter-spacing:0.04em;}</style><pattern id="Nytt_mönster_4" data-name="Nytt mönster 4" width="23.03" height="15.35" patternTransform="translate(-130.51 -56.99) scale(1.6 1.6)" patternUnits="userSpaceOnUse" viewBox="0 0 23.03 15.35"><rect class="cls-1" width="23.03" height="15.35"/><polygon class="cls-2" points="30.53 15.35 23.03 22.85 15.53 15.35 23.03 7.85 30.53 15.35"/><polygon class="cls-3" points="30.53 15.35 23.03 22.85 15.53 15.35 23.03 7.85 30.53 15.35"/><polygon class="cls-2" points="20.54 20.37 17.11 14.04 17.53 13.68 21.11 19.28 21.4 19.03 18.71 12.6 19.07 12.2 21.69 18.68 22.01 18.36 20.48 10.74 20.93 10.36 22.39 18.03 22.81 17.54 22.81 8.36 23.1 8.04 23.34 8.46 23.26 17.62 23.78 18.14 25.23 10.37 25.73 10.72 24.11 18.45 24.43 18.73 27.08 12.19 27.45 12.56 24.79 19.08 25 19.37 28.59 13.72 28.95 14.12 25.65 20.37 23.03 22.85 20.54 20.37"/><polygon class="cls-3" points="20.54 20.37 17.11 14.04 17.53 13.68 21.11 19.28 21.4 19.03 18.71 12.6 19.07 12.2 21.69 18.68 22.01 18.36 20.48 10.74 20.93 10.36 22.39 18.03 22.81 17.54 22.81 8.36 23.1 8.04 23.34 8.46 23.26 17.62 23.78 18.14 25.23 10.37 25.73 10.72 24.11 18.45 24.43 18.73 27.08 12.19 27.45 12.56 24.79 19.08 25 19.37 28.59 13.72 28.95 14.12 25.65 20.37 23.03 22.85 20.54 20.37"/><polygon class="cls-2" points="7.5 15.35 0 22.85 -7.5 15.35 0 7.85 7.5 15.35"/><polygon class="cls-3" points="7.5 15.35 0 22.85 -7.5 15.35 0 7.85 7.5 15.35"/><polygon class="cls-2" points="-2.49 20.37 -5.92 14.04 -5.5 13.68 -1.92 19.28 -1.63 19.03 -4.32 12.6 -3.96 12.2 -1.34 18.68 -1.02 18.36 -2.55 10.74 -2.1 10.36 -0.64 18.03 -0.22 17.54 -0.22 8.36 0.07 8.04 0.31 8.46 0.23 17.62 0.75 18.14 2.2 10.37 2.7 10.72 1.08 18.45 1.4 18.73 4.05 12.19 4.42 12.56 1.75 19.08 1.97 19.37 5.56 13.72 5.92 14.12 2.62 20.37 0 22.85 -2.49 20.37"/><polygon class="cls-3" points="-2.49 20.37 -5.92 14.04 -5.5 13.68 -1.92 19.28 -1.63 19.03 -4.32 12.6 -3.96 12.2 -1.34 18.68 -1.02 18.36 -2.55 10.74 -2.1 10.36 -0.64 18.03 -0.22 17.54 -0.22 8.36 0.07 8.04 0.31 8.46 0.23 17.62 0.75 18.14 2.2 10.37 2.7 10.72 1.08 18.45 1.4 18.73 4.05 12.19 4.42 12.56 1.75 19.08 1.97 19.37 5.56 13.72 5.92 14.12 2.62 20.37 0 22.85 -2.49 20.37"/><polygon class="cls-2" points="30.53 0 23.03 7.5 15.53 0 23.03 -7.5 30.53 0"/><polygon class="cls-3" points="30.53 0 23.03 7.5 15.53 0 23.03 -7.5 30.53 0"/><polygon class="cls-2" points="20.54 5.01 17.11 -1.32 17.53 -1.68 21.11 3.92 21.4 3.67 18.71 -2.75 19.07 -3.15 21.69 3.33 22.01 3.01 20.48 -4.62 20.93 -4.99 22.39 2.67 22.81 2.19 22.81 -7 23.1 -7.31 23.34 -6.89 23.26 2.26 23.78 2.79 25.23 -4.98 25.73 -4.63 24.11 3.1 24.43 3.38 27.08 -3.16 27.45 -2.79 24.79 3.72 25 4.01 28.59 -1.64 28.95 -1.23 25.65 5.01 23.03 7.5 20.54 5.01"/><polygon class="cls-3" points="20.54 5.01 17.11 -1.32 17.53 -1.68 21.11 3.92 21.4 3.67 18.71 -2.75 19.07 -3.15 21.69 3.33 22.01 3.01 20.48 -4.62 20.93 -4.99 22.39 2.67 22.81 2.19 22.81 -7 23.1 -7.31 23.34 -6.89 23.26 2.26 23.78 2.79 25.23 -4.98 25.73 -4.63 24.11 3.1 24.43 3.38 27.08 -3.16 27.45 -2.79 24.79 3.72 25 4.01 28.59 -1.64 28.95 -1.23 25.65 5.01 23.03 7.5 20.54 5.01"/><polygon class="cls-2" points="19.02 7.68 11.52 15.18 4.01 7.68 11.52 0.18 19.02 7.68"/><polygon class="cls-3" points="19.02 7.68 11.52 15.18 4.01 7.68 11.52 0.18 19.02 7.68"/><polygon class="cls-2" points="9.03 12.69 5.6 6.36 6.01 6 9.6 11.6 9.89 11.35 7.2 4.92 7.55 4.53 10.18 11.01 10.49 10.69 8.96 3.06 9.41 2.69 10.88 10.35 11.29 9.87 11.29 0.68 11.58 0.36 11.82 0.78 11.75 9.94 12.27 10.46 13.71 2.7 14.21 3.04 12.6 10.77 12.91 11.05 15.56 4.52 15.94 4.88 13.27 11.4 13.48 11.69 17.08 6.04 17.43 6.45 14.13 12.69 11.52 15.18 9.03 12.69"/><polygon class="cls-3" points="9.03 12.69 5.6 6.36 6.01 6 9.6 11.6 9.89 11.35 7.2 4.92 7.55 4.53 10.18 11.01 10.49 10.69 8.96 3.06 9.41 2.69 10.88 10.35 11.29 9.87 11.29 0.68 11.58 0.36 11.82 0.78 11.75 9.94 12.27 10.46 13.71 2.7 14.21 3.04 12.6 10.77 12.91 11.05 15.56 4.52 15.94 4.88 13.27 11.4 13.48 11.69 17.08 6.04 17.43 6.45 14.13 12.69 11.52 15.18 9.03 12.69"/><polygon class="cls-2" points="7.5 0 0 7.5 -7.5 0 0 -7.5 7.5 0"/><polygon class="cls-3" points="7.5 0 0 7.5 -7.5 0 0 -7.5 7.5 0"/><polygon class="cls-2" points="-2.49 5.01 -5.92 -1.32 -5.5 -1.68 -1.92 3.92 -1.63 3.67 -4.32 -2.75 -3.96 -3.15 -1.34 3.33 -1.02 3.01 -2.55 -4.62 -2.1 -4.99 -0.64 2.67 -0.22 2.19 -0.22 -7 0.07 -7.31 0.31 -6.89 0.23 2.26 0.75 2.79 2.2 -4.98 2.7 -4.63 1.08 3.1 1.4 3.38 4.05 -3.16 4.42 -2.79 1.75 3.72 1.97 4.01 5.56 -1.64 5.92 -1.23 2.62 5.01 0 7.5 -2.49 5.01"/><polygon class="cls-3" points="-2.49 5.01 -5.92 -1.32 -5.5 -1.68 -1.92 3.92 -1.63 3.67 -4.32 -2.75 -3.96 -3.15 -1.34 3.33 -1.02 3.01 -2.55 -4.62 -2.1 -4.99 -0.64 2.67 -0.22 2.19 -0.22 -7 0.07 -7.31 0.31 -6.89 0.23 2.26 0.75 2.79 2.2 -4.98 2.7 -4.63 1.08 3.1 1.4 3.38 4.05 -3.16 4.42 -2.79 1.75 3.72 1.97 4.01 5.56 -1.64 5.92 -1.23 2.62 5.01 0 7.5 -2.49 5.01"/></pattern></defs><title>jonte</title><g id="Lager_2" data-name="Lager 2"><g id="Lager_1-2" data-name="Lager 1"><rect class="cls-4" x="0.13" y="0.13" width="300" height="418"/><rect class="cls-5" x="0.13" y="0.13" width="300" height="418"/><rect class="cls-6" x="10.68" y="17.56" width="280" height="380"/><text class="cls-7" transform="translate(21.91 36.85)">Cleue L.S eller snara<tspan class="cls-8" x="102.63" y="0">r</tspan><tspan x="106.53" y="0">e Cleue Luq Sgone har alltid </tspan><tspan class="cls-9" x="3.35" y="15">v</tspan><tspan x="8.72" y="15">arit li</tspan><tspan class="cls-10" x="33.95" y="15">t</tspan><tspan x="37.67" y="15">e utanfö</tspan><tspan class="cls-11" x="80.57" y="15">r</tspan><tspan x="83.64" y="15">. Född </tspan><tspan class="cls-8" x="119.23" y="15">p</tspan><tspan x="125.96" y="15">å en her</tspan><tspan class="cls-8" x="168.14" y="15">r</tspan><tspan x="172.05" y="15">gå</tspan><tspan class="cls-12" x="184.95" y="15">r</tspan><tspan x="188.86" y="15">d till ett </tspan><tspan class="cls-12" x="231.27" y="15">p</tspan><tspan x="238" y="15">ar </tspan><tspan x="8.9" y="30">rika och något </tspan><tspan class="cls-8" x="86.28" y="30">p</tspan><tspan x="93.01" y="30">aranoida ent</tspan><tspan class="cls-8" x="158.03" y="30">r</tspan><tspan x="161.94" y="30">ep</tspan><tspan class="cls-8" x="174.99" y="30">r</tspan><tspan x="178.9" y="30">enö</tspan><tspan class="cls-8" x="198.54" y="30">r</tspan><tspan class="cls-13" x="202.45" y="30">er </tspan><tspan class="cls-14" x="215.97" y="30">v</tspan><tspan x="221.34" y="30">äx</tspan><tspan class="cls-10" x="232.64" y="30">t</tspan><tspan x="236.36" y="30">e </tspan><tspan x="1.59" y="45">Cleue upp hems</tspan><tspan class="cls-15" x="85.35" y="45">k</tspan><tspan x="90.75" y="45">olad då hans föräldrar in</tspan><tspan class="cls-10" x="216.85" y="45">t</tspan><tspan x="220.58" y="45">e ville </tspan><tspan x="8.04" y="60">utsätta han får några ris</tspan><tspan class="cls-15" x="130.18" y="60">k</tspan><tspan x="135.59" y="60">er som </tspan><tspan class="cls-15" x="174.24" y="60">k</tspan><tspan x="179.64" y="60">ommer med </tspan><tspan x="-1.44" y="75">den ri</tspan><tspan class="cls-10" x="28.25" y="75">k</tspan><tspan x="33.8" y="75">tiga </tspan><tspan class="cls-9" x="56.49" y="75">v</tspan><tspan x="61.86" y="75">ärlden. När andra i hans ålder </tspan><tspan class="cls-9" x="217.63" y="75">v</tspan><tspan x="223.01" y="75">ar u</tspan><tspan class="cls-10" x="242.98" y="75">t</tspan><tspan class="cls-13" x="246.7" y="75">e </tspan><tspan x="5.91" y="90">och upptäc</tspan><tspan class="cls-10" x="63.74" y="90">kt</tspan><tspan x="73.01" y="90">e </tspan><tspan class="cls-9" x="82.47" y="90">v</tspan><tspan x="87.84" y="90">ärlden satt han hemma då han </tspan><tspan x="-3.2" y="105">aldrig fick lämna her</tspan><tspan class="cls-8" x="101.42" y="105">r</tspan><tspan x="105.33" y="105">gå</tspan><tspan class="cls-8" x="118.23" y="105">r</tspan><tspan x="122.14" y="105">dens </tspan><tspan class="cls-10" x="149.96" y="105">t</tspan><tspan x="153.68" y="105">omt. Men Cleue </tspan><tspan class="cls-9" x="239.17" y="105">v</tspan><tspan class="cls-13" x="244.55" y="105">ar </tspan><tspan x="4.16" y="120">alltid ett </tspan><tspan class="cls-8" x="49.3" y="120">r</tspan><tspan x="53.2" y="120">ebellis</tspan><tspan class="cls-10" x="85.34" y="120">k</tspan><tspan x="90.89" y="120">t </tspan><tspan class="cls-8" x="97.99" y="120">b</tspan><tspan x="104.72" y="120">a</tspan><tspan class="cls-16" x="110.73" y="120">r</tspan><tspan x="114.77" y="120">n och det mär</tspan><tspan class="cls-10" x="187.2" y="120">kt</tspan><tspan x="196.46" y="120">es m</tspan><tspan class="cls-17" x="220.89" y="120">y</tspan><tspan x="226.45" y="120">c</tspan><tspan class="cls-18" x="231.88" y="120">k</tspan><tspan x="237.28" y="120">et </tspan><tspan x="1.15" y="135">under </tspan><tspan class="cls-10" x="34.77" y="135">t</tspan><tspan x="38.49" y="135">onå</tspan><tspan class="cls-8" x="57.99" y="135">r</tspan><tspan x="61.9" y="135">en då han alltid smet ut för att gå </tspan><tspan class="cls-8" x="237.53" y="135">p</tspan><tspan x="244.26" y="135">å </tspan><tspan x="12.85" y="150">ä</tspan><tspan class="cls-19" x="18.86" y="150">v</tspan><tspan x="24.38" y="150">entyr i närliggande byar och städe</tspan><tspan class="cls-11" x="200.52" y="150">r</tspan><tspan x="203.59" y="150">. Cleue </tspan><tspan x="2.42" y="165">älskade att höra berät</tspan><tspan class="cls-10" x="114.7" y="165">t</tspan><tspan x="118.42" y="165">elser om gamla </tspan><tspan class="cls-8" x="200.91" y="165">r</tspan><tspan x="204.81" y="165">esor och </tspan><tspan x="0.08" y="180">ä</tspan><tspan class="cls-19" x="6.09" y="180">v</tspan><tspan x="11.61" y="180">entyr som hans lära</tspan><tspan class="cls-8" x="112.46" y="180">r</tspan><tspan x="116.37" y="180">e hade ha</tspan><tspan class="cls-20" x="167.39" y="180">f</tspan><tspan x="171.14" y="180">t och bestämde </tspan><tspan x="15.48" y="195">sig vid 15 å</tspan><tspan class="cls-21" x="71.79" y="195">r</tspan><tspan x="75.94" y="195">s ålder för att </tspan><tspan class="cls-22" x="147.89" y="195">r</tspan><tspan x="152.44" y="195">ymma hemifrån. </tspan><tspan x="0.13" y="225">Han hade alltid ansetts som m</tspan><tspan class="cls-17" x="156.04" y="225">y</tspan><tspan x="161.61" y="225">c</tspan><tspan class="cls-15" x="167.04" y="225">k</tspan><tspan x="172.44" y="225">et in</tspan><tspan class="cls-10" x="194.99" y="225">t</tspan><tspan x="198.71" y="225">elligent av </tspan><tspan x="-0.4" y="240">sin men</tspan><tspan class="cls-10" x="39.91" y="240">t</tspan><tspan x="43.63" y="240">or och det visade sig sant då han snabbt </tspan><tspan class="cls-15" x="-2.05" y="255">k</tspan><tspan x="3.35" y="255">om in </tspan><tspan class="cls-8" x="36.19" y="255">p</tspan><tspan x="42.91" y="255">å ett uni</tspan><tspan class="cls-19" x="85.19" y="255">v</tspan><tspan x="90.71" y="255">e</tspan><tspan class="cls-21" x="96.87" y="255">r</tspan><tspan x="101.02" y="255">si</tspan><tspan class="cls-10" x="108.58" y="255">t</tspan><tspan x="112.3" y="255">et och blev en av de yngsta </tspan><tspan x="4.9" y="270">p</tspan><tspan class="cls-8" x="11.78" y="270">r</tspan><tspan class="cls-9" x="15.69" y="270">o</tspan><tspan x="22.35" y="270">fesso</tspan><tspan class="cls-16" x="48.68" y="270">r</tspan><tspan x="52.72" y="270">na som någonsin job</tspan><tspan class="cls-8" x="160.64" y="270">b</tspan><tspan x="167.37" y="270">at där </tspan><tspan class="cls-12" x="200.74" y="270">b</tspan><tspan x="207.46" y="270">ara 5 år </tspan><tspan x="-2.23" y="285">sena</tspan><tspan class="cls-8" x="21.42" y="285">r</tspan><tspan x="25.33" y="285">e. E</tspan><tspan class="cls-20" x="43.45" y="285">f</tspan><tspan class="cls-10" x="47.2" y="285">t</tspan><tspan x="50.92" y="285">er det spenderade han de de </tspan><tspan class="cls-15" x="203.78" y="285">k</tspan><tspan x="209.18" y="285">omman</tspan><tspan x="248.87" y="285">-</tspan><tspan x="-0.95" y="300">de 6 å</tspan><tspan class="cls-8" x="31.02" y="300">r</tspan><tspan x="34.92" y="300">en u</tspan><tspan class="cls-10" x="57.59" y="300">t</tspan><tspan x="61.31" y="300">e </tspan><tspan class="cls-8" x="70.76" y="300">p</tspan><tspan x="77.49" y="300">å ä</tspan><tspan class="cls-19" x="92.8" y="300">v</tspan><tspan x="98.32" y="300">entyr letandes e</tspan><tspan class="cls-20" x="180.53" y="300">f</tspan><tspan class="cls-10" x="184.28" y="300">t</tspan><tspan x="188" y="300">er fö</tspan><tspan class="cls-21" x="211.93" y="300">r</tspan><tspan x="216.08" y="300">svunna </tspan><tspan x="0.43" y="315">skat</tspan><tspan class="cls-10" x="20.77" y="315">t</tspan><tspan x="24.49" y="315">er och platser som han alltid hade </tspan><tspan class="cls-19" x="202.65" y="315">v</tspan><tspan x="208.17" y="315">elat. Det </tspan><tspan class="cls-9" x="-0.95" y="330">v</tspan><tspan x="4.42" y="330">ar under en av dessa han sedan fö</tspan><tspan class="cls-21" x="181.2" y="330">r</tspan><tspan x="185.35" y="330">s</tspan><tspan class="cls-9" x="190.23" y="330">v</tspan><tspan x="195.6" y="330">ann abrupt </tspan><tspan x="38.83" y="345">under mys</tspan><tspan class="cls-10" x="93.04" y="345">t</tspan><tspan x="96.76" y="345">eriska omständighe</tspan><tspan class="cls-10" x="197" y="345">t</tspan><tspan x="200.73" y="345">e</tspan><tspan class="cls-11" x="206.89" y="345">r</tspan><tspan x="209.96" y="345" xml:space="preserve">.  </tspan></text></g></g></svg>