<svg xmlns="http://www.w3.org/2000/svg" xmlns:xlink="http://www.w3.org/1999/xlink" viewBox="0 0 300.25 418.25"><defs><style>.cls-1,.cls-3{fill:none;}.cls-2,.cls-4{fill:#1d1d1b;}.cls-2,.cls-3{stroke:#877026;}.cls-2,.cls-3,.cls-4,.cls-5,.cls-6{stroke-miterlimit:10;stroke-width:0.25px;}.cls-4,.cls-5,.cls-6{stroke:#d9d9d9;}.cls-5{fill:url(#Nytt_mönster_4);}.cls-7{font-size:14.43px;fill:#fff;font-family:LeelawadeeUI-Semilight, Leelawadee UI;font-weight:300;}.cls-8{letter-spacing:-0.08em;}.cls-9{letter-spacing:-0.01em;}.cls-10{letter-spacing:-0.02em;}.cls-11{letter-spacing:0.01em;}.cls-12{letter-spacing:0em;}.cls-13{letter-spacing:-0.02em;}.cls-14{letter-spacing:0em;}.cls-15{letter-spacing:-0.01em;}.cls-16{letter-spacing:-0.01em;}.cls-17{letter-spacing:-0.08em;}.cls-18{letter-spacing:-0.01em;}.cls-19{letter-spacing:0em;}.cls-20{letter-spacing:0.02em;}.cls-21{letter-spacing:0.03em;}.cls-22{letter-spacing:-0.03em;}</style><pattern id="Nytt_mönster_4" data-name="Nytt mönster 4" width="23.03" height="15.35" patternTransform="translate(-120.79 -35.92) scale(1.6 1.6)" patternUnits="userSpaceOnUse" viewBox="0 0 23.03 15.35"><rect class="cls-1" width="23.03" height="15.35"/><polygon class="cls-2" points="30.53 15.35 23.03 22.85 15.53 15.35 23.03 7.85 30.53 15.35"/><polygon class="cls-3" points="30.53 15.35 23.03 22.85 15.53 15.35 23.03 7.85 30.53 15.35"/><polygon class="cls-2" points="20.54 20.37 17.11 14.04 17.53 13.68 21.11 19.28 21.4 19.03 18.71 12.6 19.07 12.2 21.69 18.68 22.01 18.36 20.48 10.74 20.93 10.36 22.39 18.03 22.81 17.54 22.81 8.36 23.1 8.04 23.34 8.46 23.26 17.62 23.78 18.14 25.23 10.37 25.73 10.72 24.11 18.45 24.43 18.73 27.08 12.19 27.45 12.56 24.79 19.08 25 19.37 28.59 13.72 28.95 14.12 25.65 20.37 23.03 22.85 20.54 20.37"/><polygon class="cls-3" points="20.54 20.37 17.11 14.04 17.53 13.68 21.11 19.28 21.4 19.03 18.71 12.6 19.07 12.2 21.69 18.68 22.01 18.36 20.48 10.74 20.93 10.36 22.39 18.03 22.81 17.54 22.81 8.36 23.1 8.04 23.34 8.46 23.26 17.62 23.78 18.14 25.23 10.37 25.73 10.72 24.11 18.45 24.43 18.73 27.08 12.19 27.45 12.56 24.79 19.08 25 19.37 28.59 13.72 28.95 14.12 25.65 20.37 23.03 22.85 20.54 20.37"/><polygon class="cls-2" points="7.5 15.35 0 22.85 -7.5 15.35 0 7.85 7.5 15.35"/><polygon class="cls-3" points="7.5 15.35 0 22.85 -7.5 15.35 0 7.85 7.5 15.35"/><polygon class="cls-2" points="-2.49 20.37 -5.92 14.04 -5.5 13.68 -1.92 19.28 -1.63 19.03 -4.32 12.6 -3.96 12.2 -1.34 18.68 -1.02 18.36 -2.55 10.74 -2.1 10.36 -0.64 18.03 -0.22 17.54 -0.22 8.36 0.07 8.04 0.31 8.46 0.23 17.62 0.75 18.14 2.2 10.37 2.7 10.72 1.08 18.45 1.4 18.73 4.05 12.19 4.42 12.56 1.75 19.08 1.97 19.37 5.56 13.72 5.92 14.12 2.62 20.37 0 22.85 -2.49 20.37"/><polygon class="cls-3" points="-2.49 20.37 -5.92 14.04 -5.5 13.68 -1.92 19.28 -1.63 19.03 -4.32 12.6 -3.96 12.2 -1.34 18.68 -1.02 18.36 -2.55 10.74 -2.1 10.36 -0.64 18.03 -0.22 17.54 -0.22 8.36 0.07 8.04 0.31 8.46 0.23 17.62 0.75 18.14 2.2 10.37 2.7 10.72 1.08 18.45 1.4 18.73 4.05 12.19 4.42 12.56 1.75 19.08 1.97 19.37 5.56 13.72 5.92 14.12 2.62 20.37 0 22.85 -2.49 20.37"/><polygon class="cls-2" points="30.53 0 23.03 7.5 15.53 0 23.03 -7.5 30.53 0"/><polygon class="cls-3" points="30.53 0 23.03 7.5 15.53 0 23.03 -7.5 30.53 0"/><polygon class="cls-2" points="20.54 5.01 17.11 -1.32 17.53 -1.68 21.11 3.92 21.4 3.67 18.71 -2.75 19.07 -3.15 21.69 3.33 22.01 3.01 20.48 -4.62 20.93 -4.99 22.39 2.67 22.81 2.19 22.81 -7 23.1 -7.31 23.34 -6.89 23.26 2.26 23.78 2.79 25.23 -4.98 25.73 -4.63 24.11 3.1 24.43 3.38 27.08 -3.16 27.45 -2.79 24.79 3.72 25 4.01 28.59 -1.64 28.95 -1.23 25.65 5.01 23.03 7.5 20.54 5.01"/><polygon class="cls-3" points="20.54 5.01 17.11 -1.32 17.53 -1.68 21.11 3.92 21.4 3.67 18.71 -2.75 19.07 -3.15 21.69 3.33 22.01 3.01 20.48 -4.62 20.93 -4.99 22.39 2.67 22.81 2.19 22.81 -7 23.1 -7.31 23.34 -6.89 23.26 2.26 23.78 2.79 25.23 -4.98 25.73 -4.63 24.11 3.1 24.43 3.38 27.08 -3.16 27.45 -2.79 24.79 3.72 25 4.01 28.59 -1.64 28.95 -1.23 25.65 5.01 23.03 7.5 20.54 5.01"/><polygon class="cls-2" points="19.02 7.68 11.52 15.18 4.01 7.68 11.52 0.18 19.02 7.68"/><polygon class="cls-3" points="19.02 7.68 11.52 15.18 4.01 7.68 11.52 0.18 19.02 7.68"/><polygon class="cls-2" points="9.03 12.69 5.6 6.36 6.01 6 9.6 11.6 9.89 11.35 7.2 4.92 7.55 4.53 10.18 11.01 10.49 10.69 8.96 3.06 9.41 2.69 10.88 10.35 11.29 9.87 11.29 0.68 11.58 0.36 11.82 0.78 11.75 9.94 12.27 10.46 13.71 2.7 14.21 3.04 12.6 10.77 12.91 11.05 15.56 4.52 15.94 4.88 13.27 11.4 13.48 11.69 17.08 6.04 17.43 6.45 14.13 12.69 11.52 15.18 9.03 12.69"/><polygon class="cls-3" points="9.03 12.69 5.6 6.36 6.01 6 9.6 11.6 9.89 11.35 7.2 4.92 7.55 4.53 10.18 11.01 10.49 10.69 8.96 3.06 9.41 2.69 10.88 10.35 11.29 9.87 11.29 0.68 11.58 0.36 11.82 0.78 11.75 9.94 12.27 10.46 13.71 2.7 14.21 3.04 12.6 10.77 12.91 11.05 15.56 4.52 15.94 4.88 13.27 11.4 13.48 11.69 17.08 6.04 17.43 6.45 14.13 12.69 11.52 15.18 9.03 12.69"/><polygon class="cls-2" points="7.5 0 0 7.5 -7.5 0 0 -7.5 7.5 0"/><polygon class="cls-3" points="7.5 0 0 7.5 -7.5 0 0 -7.5 7.5 0"/><polygon class="cls-2" points="-2.49 5.01 -5.92 -1.32 -5.5 -1.68 -1.92 3.92 -1.63 3.67 -4.32 -2.75 -3.96 -3.15 -1.34 3.33 -1.02 3.01 -2.55 -4.62 -2.1 -4.99 -0.64 2.67 -0.22 2.19 -0.22 -7 0.07 -7.31 0.31 -6.89 0.23 2.26 0.75 2.79 2.2 -4.98 2.7 -4.63 1.08 3.1 1.4 3.38 4.05 -3.16 4.42 -2.79 1.75 3.72 1.97 4.01 5.56 -1.64 5.92 -1.23 2.62 5.01 0 7.5 -2.49 5.01"/><polygon class="cls-3" points="-2.49 5.01 -5.92 -1.32 -5.5 -1.68 -1.92 3.92 -1.63 3.67 -4.32 -2.75 -3.96 -3.15 -1.34 3.33 -1.02 3.01 -2.55 -4.62 -2.1 -4.99 -0.64 2.67 -0.22 2.19 -0.22 -7 0.07 -7.31 0.31 -6.89 0.23 2.26 0.75 2.79 2.2 -4.98 2.7 -4.63 1.08 3.1 1.4 3.38 4.05 -3.16 4.42 -2.79 1.75 3.72 1.97 4.01 5.56 -1.64 5.92 -1.23 2.62 5.01 0 7.5 -2.49 5.01"/></pattern></defs><title>patric</title><g id="Lager_2" data-name="Lager 2"><g id="Lager_1-2" data-name="Lager 1"><rect class="cls-4" x="0.13" y="0.13" width="300" height="418"/><rect class="cls-5" x="0.13" y="0.13" width="300" height="418"/><rect class="cls-6" x="10.68" y="17.56" width="280" height="380"/><text class="cls-7" transform="translate(148.18 43.65)"> <tspan x="-121.96" y="20">D</tspan><tspan class="cls-8" x="-112.04" y="20">r</tspan><tspan x="-108.35" y="20">. Dis</tspan><tspan class="cls-9" x="-82.23" y="20">r</tspan><tspan x="-77.53" y="20">espect har aldrig </tspan><tspan class="cls-10" x="29.58" y="20">v</tspan><tspan x="36.04" y="20">arit en pe</tspan><tspan class="cls-11" x="94.9" y="20">r</tspan><tspan x="99.89" y="20">son </tspan><tspan x="-124.56" y="40">som t</tspan><tspan class="cls-12" x="-89.75" y="40">y</tspan><tspan x="-83.07" y="40">c</tspan><tspan class="cls-13" x="-76.54" y="40">k</tspan><tspan x="-70.05" y="40">er om rampljuset, det är i skug</tspan><tspan x="118.8" y="40">-</tspan><tspan x="-121.41" y="60">go</tspan><tspan class="cls-14" x="-104.86" y="60">r</tspan><tspan x="-100" y="60">na som hon trivs som allra </tspan><tspan class="cls-15" x="66.63" y="60">b</tspan><tspan x="74.71" y="60">äst. Det </tspan><tspan class="cls-10" x="-125.83" y="80">v</tspan><tspan x="-119.37" y="80">ar en av anledninga</tspan><tspan class="cls-14" x="2.59" y="80">r</tspan><tspan x="7.45" y="80">na till att hon </tspan><tspan class="cls-10" x="93.23" y="80">v</tspan><tspan x="99.69" y="80">alde </tspan><tspan x="-86.28" y="100">att bli en ag</tspan><tspan class="cls-9" x="-12.44" y="100">r</tspan><tspan x="-7.74" y="100">onomie do</tspan><tspan class="cls-16" x="60.01" y="100">kt</tspan><tspan x="71.16" y="100">o</tspan><tspan class="cls-17" x="79.43" y="100">r</tspan><tspan x="83.12" y="100">.</tspan><tspan x="-122.02" y="140">Ä</tspan><tspan class="cls-18" x="-112.84" y="140">v</tspan><tspan x="-106.2" y="140">en om rampljuset aldrig har int</tspan><tspan class="cls-9" x="85.03" y="140">r</tspan><tspan x="89.72" y="140">esse</tspan><tspan x="116.26" y="140">-</tspan><tspan x="-119.91" y="160">rat henne så har pengar och infl</tspan><tspan class="cls-19" x="77.67" y="160">y</tspan><tspan x="84.47" y="160">tande </tspan><tspan class="cls-20" x="-126.21" y="180">g</tspan><tspan x="-117.59" y="180">jo</tspan><tspan class="cls-21" x="-106.1" y="180">r</tspan><tspan x="-100.79" y="180">t det. Med hjälp av sin in</tspan><tspan class="cls-16" x="51.15" y="180">t</tspan><tspan x="55.62" y="180">elligens har </tspan><tspan x="-120.92" y="200">hon genom å</tspan><tspan class="cls-9" x="-37.61" y="200">r</tspan><tspan x="-32.91" y="200">en sty</tspan><tspan class="cls-21" x="3.59" y="200">r</tspan><tspan x="8.89" y="200">t andra männis</tspan><tspan class="cls-13" x="101.27" y="200">k</tspan><tspan x="107.77" y="200">or </tspan><tspan x="-115.45" y="220">till att göra det hon vill. </tspan><tspan class="cls-22" x="31.58" y="220">P</tspan><tspan x="39.07" y="220">å så sätt kan </tspan><tspan x="-120" y="240">hon </tspan><tspan class="cls-10" x="-91.9" y="240">v</tspan><tspan x="-85.44" y="240">ara med och </tspan><tspan class="cls-9" x="-3.68" y="240">p</tspan><tspan x="4.41" y="240">å</tspan><tspan class="cls-18" x="11.64" y="240">v</tspan><tspan x="18.27" y="240">erka sin om</tspan><tspan class="cls-10" x="89.91" y="240">v</tspan><tspan x="96.37" y="240">ärld </tspan><tspan x="-116.52" y="260">t</tspan><tspan class="cls-9" x="-111.94" y="260">r</tspan><tspan x="-107.24" y="260">ots att ingen egentligen </tspan><tspan class="cls-18" x="44.19" y="260">v</tspan><tspan x="50.82" y="260">et speciellt </tspan><tspan x="-56.97" y="280">m</tspan><tspan class="cls-12" x="-44.84" y="280">y</tspan><tspan x="-38.15" y="280">c</tspan><tspan class="cls-13" x="-31.62" y="280">k</tspan><tspan x="-25.13" y="280">et om henne. </tspan></text></g></g></svg>