<svg xmlns="http://www.w3.org/2000/svg" xmlns:xlink="http://www.w3.org/1999/xlink" viewBox="0 0 300.25 418.25"><defs><style>.cls-1,.cls-3{fill:none;}.cls-2,.cls-4{fill:#1d1d1b;}.cls-2,.cls-3{stroke:#877026;}.cls-2,.cls-3,.cls-4,.cls-5,.cls-6{stroke-miterlimit:10;stroke-width:0.25px;}.cls-4,.cls-5,.cls-6{stroke:#d9d9d9;}.cls-5{fill:url(#Nytt_mönster_4);}.cls-7{font-size:14px;fill:#fff;font-family:LeelawadeeUI-Semilight, Leelawadee UI;font-weight:300;}.cls-8{letter-spacing:-0.01em;}.cls-9{letter-spacing:-0.02em;}.cls-10{letter-spacing:-0.01em;}.cls-11{letter-spacing:-0.01em;}.cls-12{letter-spacing:-0.02em;}.cls-13{letter-spacing:-0.01em;}.cls-14{letter-spacing:-0.08em;}.cls-15{letter-spacing:0.01em;}.cls-16{letter-spacing:-0.02em;}.cls-17{letter-spacing:0.02em;}.cls-18{letter-spacing:0em;}.cls-19{letter-spacing:0.04em;}.cls-20{letter-spacing:0.03em;}</style><pattern id="Nytt_mönster_4" data-name="Nytt mönster 4" width="23.03" height="15.35" patternTransform="translate(-141.51 -18.35) scale(1.6 1.6)" patternUnits="userSpaceOnUse" viewBox="0 0 23.03 15.35"><rect class="cls-1" width="23.03" height="15.35"/><polygon class="cls-2" points="30.53 15.35 23.03 22.85 15.53 15.35 23.03 7.85 30.53 15.35"/><polygon class="cls-3" points="30.53 15.35 23.03 22.85 15.53 15.35 23.03 7.85 30.53 15.35"/><polygon class="cls-2" points="20.54 20.37 17.11 14.04 17.53 13.68 21.11 19.28 21.4 19.03 18.71 12.6 19.07 12.2 21.69 18.68 22.01 18.36 20.48 10.74 20.93 10.36 22.39 18.03 22.81 17.54 22.81 8.36 23.1 8.04 23.34 8.46 23.26 17.62 23.78 18.14 25.23 10.37 25.73 10.72 24.11 18.45 24.43 18.73 27.08 12.19 27.45 12.56 24.79 19.08 25 19.37 28.59 13.72 28.95 14.12 25.65 20.37 23.03 22.85 20.54 20.37"/><polygon class="cls-3" points="20.54 20.37 17.11 14.04 17.53 13.68 21.11 19.28 21.4 19.03 18.71 12.6 19.07 12.2 21.69 18.68 22.01 18.36 20.48 10.74 20.93 10.36 22.39 18.03 22.81 17.54 22.81 8.36 23.1 8.04 23.34 8.46 23.26 17.62 23.78 18.14 25.23 10.37 25.73 10.72 24.11 18.45 24.43 18.73 27.08 12.19 27.45 12.56 24.79 19.08 25 19.37 28.59 13.72 28.95 14.12 25.65 20.37 23.03 22.85 20.54 20.37"/><polygon class="cls-2" points="7.5 15.35 0 22.85 -7.5 15.35 0 7.85 7.5 15.35"/><polygon class="cls-3" points="7.5 15.35 0 22.85 -7.5 15.35 0 7.85 7.5 15.35"/><polygon class="cls-2" points="-2.49 20.37 -5.92 14.04 -5.5 13.68 -1.92 19.28 -1.63 19.03 -4.32 12.6 -3.96 12.2 -1.34 18.68 -1.02 18.36 -2.55 10.74 -2.1 10.36 -0.64 18.03 -0.22 17.54 -0.22 8.36 0.07 8.04 0.31 8.46 0.23 17.62 0.75 18.14 2.2 10.37 2.7 10.72 1.08 18.45 1.4 18.73 4.05 12.19 4.42 12.56 1.75 19.08 1.97 19.37 5.56 13.72 5.92 14.12 2.62 20.37 0 22.85 -2.49 20.37"/><polygon class="cls-3" points="-2.49 20.37 -5.92 14.04 -5.5 13.68 -1.92 19.28 -1.63 19.03 -4.32 12.6 -3.96 12.2 -1.34 18.68 -1.02 18.36 -2.55 10.74 -2.1 10.36 -0.64 18.03 -0.22 17.54 -0.22 8.36 0.07 8.04 0.31 8.46 0.23 17.62 0.75 18.14 2.2 10.37 2.7 10.72 1.08 18.45 1.4 18.73 4.05 12.19 4.42 12.56 1.75 19.08 1.97 19.37 5.56 13.72 5.92 14.12 2.62 20.37 0 22.85 -2.49 20.37"/><polygon class="cls-2" points="30.53 0 23.03 7.5 15.53 0 23.03 -7.5 30.53 0"/><polygon class="cls-3" points="30.53 0 23.03 7.5 15.53 0 23.03 -7.5 30.53 0"/><polygon class="cls-2" points="20.54 5.01 17.11 -1.32 17.53 -1.68 21.11 3.92 21.4 3.67 18.71 -2.75 19.07 -3.15 21.69 3.33 22.01 3.01 20.48 -4.62 20.93 -4.99 22.39 2.67 22.81 2.19 22.81 -7 23.1 -7.31 23.34 -6.89 23.26 2.26 23.78 2.79 25.23 -4.98 25.73 -4.63 24.11 3.1 24.43 3.38 27.08 -3.16 27.45 -2.79 24.79 3.72 25 4.01 28.59 -1.64 28.95 -1.23 25.65 5.01 23.03 7.5 20.54 5.01"/><polygon class="cls-3" points="20.54 5.01 17.11 -1.32 17.53 -1.68 21.11 3.92 21.4 3.67 18.71 -2.75 19.07 -3.15 21.69 3.33 22.01 3.01 20.48 -4.62 20.93 -4.99 22.39 2.67 22.81 2.19 22.81 -7 23.1 -7.31 23.34 -6.89 23.26 2.26 23.78 2.79 25.23 -4.98 25.73 -4.63 24.11 3.1 24.43 3.38 27.08 -3.16 27.45 -2.79 24.79 3.72 25 4.01 28.59 -1.64 28.95 -1.23 25.65 5.01 23.03 7.5 20.54 5.01"/><polygon class="cls-2" points="19.02 7.68 11.52 15.18 4.01 7.68 11.52 0.18 19.02 7.68"/><polygon class="cls-3" points="19.02 7.68 11.52 15.18 4.01 7.68 11.52 0.18 19.02 7.68"/><polygon class="cls-2" points="9.03 12.69 5.6 6.36 6.01 6 9.6 11.6 9.89 11.35 7.2 4.92 7.55 4.53 10.18 11.01 10.49 10.69 8.96 3.06 9.41 2.69 10.88 10.35 11.29 9.87 11.29 0.68 11.58 0.36 11.82 0.78 11.75 9.94 12.27 10.46 13.71 2.7 14.21 3.04 12.6 10.77 12.91 11.05 15.56 4.52 15.94 4.88 13.27 11.4 13.48 11.69 17.08 6.04 17.43 6.45 14.13 12.69 11.52 15.18 9.03 12.69"/><polygon class="cls-3" points="9.03 12.69 5.6 6.36 6.01 6 9.6 11.6 9.89 11.35 7.2 4.92 7.55 4.53 10.18 11.01 10.49 10.69 8.96 3.06 9.41 2.69 10.88 10.35 11.29 9.87 11.29 0.68 11.58 0.36 11.82 0.78 11.75 9.94 12.27 10.46 13.71 2.7 14.21 3.04 12.6 10.77 12.91 11.05 15.56 4.52 15.94 4.88 13.27 11.4 13.48 11.69 17.08 6.04 17.43 6.45 14.13 12.69 11.52 15.18 9.03 12.69"/><polygon class="cls-2" points="7.5 0 0 7.5 -7.5 0 0 -7.5 7.5 0"/><polygon class="cls-3" points="7.5 0 0 7.5 -7.5 0 0 -7.5 7.5 0"/><polygon class="cls-2" points="-2.49 5.01 -5.92 -1.32 -5.5 -1.68 -1.92 3.92 -1.63 3.67 -4.32 -2.75 -3.96 -3.15 -1.34 3.33 -1.02 3.01 -2.55 -4.62 -2.1 -4.99 -0.64 2.67 -0.22 2.19 -0.22 -7 0.07 -7.31 0.31 -6.89 0.23 2.26 0.75 2.79 2.2 -4.98 2.7 -4.63 1.08 3.1 1.4 3.38 4.05 -3.16 4.42 -2.79 1.75 3.72 1.97 4.01 5.56 -1.64 5.92 -1.23 2.62 5.01 0 7.5 -2.49 5.01"/><polygon class="cls-3" points="-2.49 5.01 -5.92 -1.32 -5.5 -1.68 -1.92 3.92 -1.63 3.67 -4.32 -2.75 -3.96 -3.15 -1.34 3.33 -1.02 3.01 -2.55 -4.62 -2.1 -4.99 -0.64 2.67 -0.22 2.19 -0.22 -7 0.07 -7.31 0.31 -6.89 0.23 2.26 0.75 2.79 2.2 -4.98 2.7 -4.63 1.08 3.1 1.4 3.38 4.05 -3.16 4.42 -2.79 1.75 3.72 1.97 4.01 5.56 -1.64 5.92 -1.23 2.62 5.01 0 7.5 -2.49 5.01"/></pattern></defs><title>simon_2</title><g id="Lager_2" data-name="Lager 2"><g id="Lager_1-2" data-name="Lager 1"><rect class="cls-4" x="0.13" y="0.13" width="300" height="418"/><rect class="cls-5" x="0.13" y="0.13" width="300" height="418"/><rect class="cls-6" x="10.68" y="17.56" width="280" height="380"/><text/><text class="cls-7" transform="translate(35.16 54.34)">Colonel M. ‘Ü S’<tspan class="cls-8" x="95.31" y="0">t</tspan><tspan x="99.65" y="0">erio har alltid </tspan><tspan class="cls-9" x="182.61" y="0">v</tspan><tspan x="188.88" y="0">arit en </tspan><tspan x="5.58" y="20">del av de militära li</tspan><tspan class="cls-10" x="118.7" y="20">v</tspan><tspan x="125.14" y="20">et då </tspan><tspan class="cls-11" x="159.51" y="20">b</tspan><tspan x="167.35" y="20">åda hans </tspan><tspan x="34.08" y="40">föräldrar </tspan><tspan class="cls-9" x="89.49" y="40">v</tspan><tspan x="95.76" y="40">ar yr</tspan><tspan class="cls-12" x="122.65" y="40">k</tspan><tspan x="128.95" y="40">esmilitä</tspan><tspan class="cls-13" x="174.47" y="40">r</tspan><tspan x="179.03" y="40">e</tspan><tspan class="cls-14" x="186.22" y="40">r</tspan><tspan x="189.8" y="40">. </tspan><tspan x="6.89" y="80">Detta kan ha </tspan><tspan class="cls-9" x="87.15" y="80">v</tspan><tspan x="93.42" y="80">arit o</tspan><tspan class="cls-15" x="124.61" y="80">r</tspan><tspan x="129.45" y="80">sa</tspan><tspan class="cls-12" x="142.16" y="80">k</tspan><tspan x="148.46" y="80">en till </tspan><tspan class="cls-16" x="184.87" y="80">v</tspan><tspan x="191.14" y="80">a</tspan><tspan class="cls-17" x="198.15" y="80">r</tspan><tspan x="203.16" y="80">för </tspan><tspan x="7.48" y="100">Colonel M. ‘Ü S’</tspan><tspan class="cls-8" x="102.79" y="100">t</tspan><tspan x="107.13" y="100">erio gick med i det </tspan><tspan x="16.09" y="120">militära i ung ålder och </tspan><tspan class="cls-10" x="158.43" y="120">v</tspan><tspan x="164.87" y="120">et inget </tspan><tspan x="33.27" y="140">annat än li</tspan><tspan class="cls-10" x="95.81" y="140">v</tspan><tspan x="102.25" y="140">et inom a</tspan><tspan class="cls-18" x="159.21" y="140">r</tspan><tspan x="163.93" y="140">mén. </tspan><tspan x="-0.53" y="180">Nu är Colonel M. ‘Ü S’</tspan><tspan class="cls-8" x="132.12" y="180">t</tspan><tspan x="136.46" y="180">erio en pensio</tspan><tspan x="221.89" y="180">-</tspan><tspan x="6.54" y="200">nerad </tspan><tspan class="cls-10" x="45.07" y="200">v</tspan><tspan x="51.51" y="200">e</tspan><tspan class="cls-8" x="58.7" y="200">t</tspan><tspan x="63.04" y="200">eran som vissa ser som en </tspan><tspan x="11.42" y="220">hjäl</tspan><tspan class="cls-8" x="32.4" y="220">t</tspan><tspan x="36.74" y="220">e, men </tspan><tspan class="cls-11" x="81.34" y="220">b</tspan><tspan x="89.19" y="220">a</tspan><tspan class="cls-12" x="96.2" y="220">k</tspan><tspan x="102.51" y="220">om all ära och gla</tspan><tspan x="209.94" y="220">-</tspan><tspan x="-1.45" y="240">mour döljer sig ett mör</tspan><tspan class="cls-12" x="137.91" y="240">k</tspan><tspan x="144.21" y="240">er med </tspan><tspan class="cls-19" x="190.82" y="240">r</tspan><tspan x="196.13" y="240">y</tspan><tspan class="cls-8" x="202.68" y="240">kt</tspan><tspan x="213.5" y="240">en </tspan><tspan x="15.73" y="260">om s</tspan><tspan class="cls-9" x="45.05" y="260">v</tspan><tspan x="51.32" y="260">a</tspan><tspan class="cls-20" x="58.33" y="260">r</tspan><tspan x="63.48" y="260">ta marknadenaffä</tspan><tspan class="cls-11" x="168.82" y="260">r</tspan><tspan x="173.38" y="260">er och </tspan><tspan x="86.06" y="280">förräderi.</tspan></text></g></g></svg>