<svg xmlns="http://www.w3.org/2000/svg" xmlns:xlink="http://www.w3.org/1999/xlink" viewBox="0 0 300.25 418.25"><defs><style>.cls-1,.cls-3{fill:none;}.cls-2,.cls-4{fill:#1d1d1b;}.cls-2,.cls-3{stroke:#877026;}.cls-2,.cls-3,.cls-4,.cls-5{stroke-miterlimit:10;stroke-width:0.25px;}.cls-4,.cls-5{stroke:#d9d9d9;}.cls-5{fill:url(#Nytt_mönster_4);}.cls-6{font-size:14.43px;fill:#fff;font-family:BellMT, Bell MT;}.cls-7{letter-spacing:-0.06em;}.cls-8{letter-spacing:-0.03em;}.cls-9{letter-spacing:-0.02em;}.cls-10{letter-spacing:0.01em;}.cls-11{letter-spacing:-0.07em;}.cls-12{letter-spacing:-0.01em;}.cls-13{letter-spacing:-0.01em;}.cls-14{letter-spacing:-0.02em;}.cls-15{letter-spacing:-0.07em;}.cls-16{letter-spacing:0em;}.cls-17{letter-spacing:0.23em;}.cls-18{letter-spacing:0.01em;}.cls-19{letter-spacing:0.01em;}.cls-20{letter-spacing:0.23em;}.cls-21{letter-spacing:-0.02em;}.cls-22{letter-spacing:-0.04em;}.cls-23{letter-spacing:-0.03em;}.cls-24{letter-spacing:-0.04em;}.cls-25{letter-spacing:-0.03em;}</style><pattern id="Nytt_mönster_4" data-name="Nytt mönster 4" width="23.03" height="15.35" patternTransform="translate(-64.43 1.28) scale(1.6 1.6)" patternUnits="userSpaceOnUse" viewBox="0 0 23.03 15.35"><rect class="cls-1" width="23.03" height="15.35"/><polygon class="cls-2" points="30.53 15.35 23.03 22.85 15.53 15.35 23.03 7.85 30.53 15.35"/><polygon class="cls-3" points="30.53 15.35 23.03 22.85 15.53 15.35 23.03 7.85 30.53 15.35"/><polygon class="cls-2" points="20.54 20.37 17.11 14.04 17.53 13.68 21.11 19.28 21.4 19.03 18.71 12.6 19.07 12.2 21.69 18.68 22.01 18.36 20.48 10.74 20.93 10.36 22.39 18.03 22.81 17.54 22.81 8.36 23.1 8.04 23.34 8.46 23.26 17.62 23.78 18.14 25.23 10.37 25.73 10.72 24.11 18.45 24.43 18.73 27.08 12.19 27.45 12.56 24.79 19.08 25 19.37 28.59 13.72 28.95 14.12 25.65 20.37 23.03 22.85 20.54 20.37"/><polygon class="cls-3" points="20.54 20.37 17.11 14.04 17.53 13.68 21.11 19.28 21.4 19.03 18.71 12.6 19.07 12.2 21.69 18.68 22.01 18.36 20.48 10.74 20.93 10.36 22.39 18.03 22.81 17.54 22.81 8.36 23.1 8.04 23.34 8.46 23.26 17.62 23.78 18.14 25.23 10.37 25.73 10.72 24.11 18.45 24.43 18.73 27.08 12.19 27.45 12.56 24.79 19.08 25 19.37 28.59 13.72 28.95 14.12 25.65 20.37 23.03 22.85 20.54 20.37"/><polygon class="cls-2" points="7.5 15.35 0 22.85 -7.5 15.35 0 7.85 7.5 15.35"/><polygon class="cls-3" points="7.5 15.35 0 22.85 -7.5 15.35 0 7.85 7.5 15.35"/><polygon class="cls-2" points="-2.49 20.37 -5.92 14.04 -5.5 13.68 -1.92 19.28 -1.63 19.03 -4.32 12.6 -3.96 12.2 -1.34 18.68 -1.02 18.36 -2.55 10.74 -2.1 10.36 -0.64 18.03 -0.22 17.54 -0.22 8.36 0.07 8.04 0.31 8.46 0.23 17.62 0.75 18.14 2.2 10.37 2.7 10.72 1.08 18.45 1.4 18.73 4.05 12.19 4.42 12.56 1.75 19.08 1.97 19.37 5.56 13.72 5.92 14.12 2.62 20.37 0 22.85 -2.49 20.37"/><polygon class="cls-3" points="-2.49 20.37 -5.92 14.04 -5.5 13.68 -1.92 19.28 -1.63 19.03 -4.32 12.6 -3.96 12.2 -1.34 18.68 -1.02 18.36 -2.55 10.74 -2.1 10.36 -0.64 18.03 -0.22 17.54 -0.22 8.36 0.07 8.04 0.31 8.46 0.23 17.62 0.75 18.14 2.2 10.37 2.7 10.72 1.08 18.45 1.4 18.73 4.05 12.19 4.42 12.56 1.75 19.08 1.97 19.37 5.56 13.72 5.92 14.12 2.62 20.37 0 22.85 -2.49 20.37"/><polygon class="cls-2" points="30.53 0 23.03 7.5 15.53 0 23.03 -7.5 30.53 0"/><polygon class="cls-3" points="30.53 0 23.03 7.5 15.53 0 23.03 -7.5 30.53 0"/><polygon class="cls-2" points="20.54 5.01 17.11 -1.32 17.53 -1.68 21.11 3.92 21.4 3.67 18.71 -2.75 19.07 -3.15 21.69 3.33 22.01 3.01 20.48 -4.62 20.93 -4.99 22.39 2.67 22.81 2.19 22.81 -7 23.1 -7.31 23.34 -6.89 23.26 2.26 23.78 2.79 25.23 -4.98 25.73 -4.63 24.11 3.1 24.43 3.38 27.08 -3.16 27.45 -2.79 24.79 3.72 25 4.01 28.59 -1.64 28.95 -1.23 25.65 5.01 23.03 7.5 20.54 5.01"/><polygon class="cls-3" points="20.54 5.01 17.11 -1.32 17.53 -1.68 21.11 3.92 21.4 3.67 18.71 -2.75 19.07 -3.15 21.69 3.33 22.01 3.01 20.48 -4.62 20.93 -4.99 22.39 2.67 22.81 2.19 22.81 -7 23.1 -7.31 23.34 -6.89 23.26 2.26 23.78 2.79 25.23 -4.98 25.73 -4.63 24.11 3.1 24.43 3.38 27.08 -3.16 27.45 -2.79 24.79 3.72 25 4.01 28.59 -1.64 28.95 -1.23 25.65 5.01 23.03 7.5 20.54 5.01"/><polygon class="cls-2" points="19.02 7.68 11.52 15.18 4.01 7.68 11.52 0.18 19.02 7.68"/><polygon class="cls-3" points="19.02 7.68 11.52 15.18 4.01 7.68 11.52 0.18 19.02 7.68"/><polygon class="cls-2" points="9.03 12.69 5.6 6.36 6.01 6 9.6 11.6 9.89 11.35 7.2 4.92 7.55 4.53 10.18 11.01 10.49 10.69 8.96 3.06 9.41 2.69 10.88 10.35 11.29 9.87 11.29 0.68 11.58 0.36 11.82 0.78 11.75 9.94 12.27 10.46 13.71 2.7 14.21 3.04 12.6 10.77 12.91 11.05 15.56 4.52 15.94 4.88 13.27 11.4 13.48 11.69 17.08 6.04 17.43 6.45 14.13 12.69 11.52 15.18 9.03 12.69"/><polygon class="cls-3" points="9.03 12.69 5.6 6.36 6.01 6 9.6 11.6 9.89 11.35 7.2 4.92 7.55 4.53 10.18 11.01 10.49 10.69 8.96 3.06 9.41 2.69 10.88 10.35 11.29 9.87 11.29 0.68 11.58 0.36 11.82 0.78 11.75 9.94 12.27 10.46 13.71 2.7 14.21 3.04 12.6 10.77 12.91 11.05 15.56 4.52 15.94 4.88 13.27 11.4 13.48 11.69 17.08 6.04 17.43 6.45 14.13 12.69 11.52 15.18 9.03 12.69"/><polygon class="cls-2" points="7.5 0 0 7.5 -7.5 0 0 -7.5 7.5 0"/><polygon class="cls-3" points="7.5 0 0 7.5 -7.5 0 0 -7.5 7.5 0"/><polygon class="cls-2" points="-2.49 5.01 -5.92 -1.32 -5.5 -1.68 -1.92 3.92 -1.63 3.67 -4.32 -2.75 -3.96 -3.15 -1.34 3.33 -1.02 3.01 -2.55 -4.62 -2.1 -4.99 -0.64 2.67 -0.22 2.19 -0.22 -7 0.07 -7.31 0.31 -6.89 0.23 2.26 0.75 2.79 2.2 -4.98 2.7 -4.63 1.08 3.1 1.4 3.38 4.05 -3.16 4.42 -2.79 1.75 3.72 1.97 4.01 5.56 -1.64 5.92 -1.23 2.62 5.01 0 7.5 -2.49 5.01"/><polygon class="cls-3" points="-2.49 5.01 -5.92 -1.32 -5.5 -1.68 -1.92 3.92 -1.63 3.67 -4.32 -2.75 -3.96 -3.15 -1.34 3.33 -1.02 3.01 -2.55 -4.62 -2.1 -4.99 -0.64 2.67 -0.22 2.19 -0.22 -7 0.07 -7.31 0.31 -6.89 0.23 2.26 0.75 2.79 2.2 -4.98 2.7 -4.63 1.08 3.1 1.4 3.38 4.05 -3.16 4.42 -2.79 1.75 3.72 1.97 4.01 5.56 -1.64 5.92 -1.23 2.62 5.01 0 7.5 -2.49 5.01"/></pattern></defs><title>simon_1</title><g id="Lager_2" data-name="Lager 2"><g id="Lager_1-2" data-name="Lager 1"><rect class="cls-4" x="0.13" y="0.13" width="300" height="418"/><rect class="cls-5" x="0.13" y="0.13" width="300" height="418"/><rect class="cls-4" x="29.63" y="24.58" width="240.53" height="372.43"/><text/><text/><text class="cls-6" transform="translate(51.74 61.92)"><tspan class="cls-7">T</tspan><tspan x="9.46" y="0">o the outside world, he is a her</tspan><tspan class="cls-8" x="189.35" y="0">o</tspan><tspan x="195.92" y="0">. </tspan><tspan x="-6.09" y="17.31">Colonel Mustard is a high</tspan><tspan class="cls-9" x="146.89" y="17.31">l</tspan><tspan x="150.59" y="17.31">y deco</tspan><tspan class="cls-10" x="188.01" y="17.31">r</tspan><tspan x="193.9" y="17.31">a</tspan><tspan x="200.21" y="17.31">-</tspan><tspan x="-0.21" y="34.62">ted, successful and popular office</tspan><tspan class="cls-11" x="191.37" y="34.62">r</tspan><tspan x="196.14" y="34.62">. </tspan><tspan x="8.87" y="51.93">H</tspan><tspan class="cls-12" x="19.84" y="51.93">ow</tspan><tspan class="cls-13" x="36.89" y="51.93">e</tspan><tspan class="cls-14" x="42.91" y="51.93">v</tspan><tspan x="49.79" y="51.93">e</tspan><tspan class="cls-15" x="55.96" y="51.93">r</tspan><tspan class="cls-16" x="60.72" y="51.93">, behind his medals o</tspan><tspan class="cls-17" x="182.89" y="51.93">f</tspan><tspan x="190.21" y="51.93"> </tspan><tspan x="-4.37" y="69.24">honour are </tspan><tspan class="cls-18" x="63.41" y="69.24">r</tspan><tspan x="69.31" y="69.24">umo</tspan><tspan class="cls-19" x="95.01" y="69.24">r</tspan><tspan x="100.91" y="69.24">s o</tspan><tspan class="cls-20" x="117.3" y="69.24">f</tspan><tspan x="124.61" y="69.24"> </tspan><tspan class="cls-21" x="128.22" y="69.24">b</tspan><tspan x="135.19" y="69.24">lack mar</tspan><tspan class="cls-22" x="185.68" y="69.24">k</tspan><tspan x="192.33" y="69.24">et </tspan><tspan x="-4.5" y="86.55">deals and treason; </tspan><tspan class="cls-18" x="104" y="86.55">r</tspan><tspan x="109.9" y="86.55">umo</tspan><tspan class="cls-19" x="135.6" y="86.55">r</tspan><tspan x="141.5" y="86.55">s he&apos;s been </tspan><tspan x="0.31" y="103.86">p</tspan><tspan class="cls-23" x="7.53" y="103.86">a</tspan><tspan x="13.42" y="103.86">ying someone to </tspan><tspan class="cls-24" x="113.81" y="103.86">k</tspan><tspan x="120.46" y="103.86">e</tspan><tspan class="cls-18" x="126.62" y="103.86">e</tspan><tspan x="132.98" y="103.86">p secret </tspan><tspan class="cls-12" x="182.12" y="103.86">f</tspan><tspan x="185.99" y="103.86">or </tspan><tspan x="73.5" y="121.17">too lon</tspan><tspan class="cls-25" x="114.98" y="121.17">g</tspan><tspan x="122.42" y="121.17">. </tspan></text></g></g></svg>