<svg xmlns="http://www.w3.org/2000/svg" viewBox="0 0 300 418.27"><defs><style>.cls-1{fill:none;stroke:#1d1e1b;stroke-miterlimit:10;stroke-width:1px;}.cls-2{fill:#feeb15;}</style></defs><title>tengilbaksida_3</title><g id="Lager_2" data-name="Lager 2"><g id="Lager_1-2" data-name="Lager 1"><rect width="300" height="418"/><path class="cls-1" d="M275.27,359v8.25c-2.21,0-4,3.83-4,8.56s1.8,8.57,4,8.57v8.56c2.21,0,4,3.83,4,8.56s-1.79,8.56-4,8.56v8.25m-9.34,0V410c-2.21,0-4-3.83-4-8.56s1.8-8.56,4-8.56v-8.56c2.21,0,4-3.84,4-8.57s-1.79-8.56-4-8.56V359M293.8,307.9v8.25c-2.21,0-4,3.83-4,8.56s1.79,8.56,4,8.56v8.57c2.21,0,4,3.83,4,8.56s-1.8,8.56-4,8.56v8.25m-9.34,0V359c-2.21,0-4-3.83-4-8.56s1.79-8.56,4-8.56v-8.57c2.21,0,4-3.83,4-8.56s-1.79-8.56-4-8.56V307.9m-9.19,0v8.25c-2.21,0-4,3.83-4,8.56s1.8,8.56,4,8.56v8.57c2.21,0,4,3.83,4,8.56s-1.79,8.56-4,8.56v8.25m-9.34,0V359c-2.21,0-4-3.83-4-8.56s1.8-8.56,4-8.56v-8.57c2.21,0,4-3.83,4-8.56s-1.79-8.56-4-8.56V307.9m-9.2-.16V316c-2.21,0-4,3.83-4,8.56s1.79,8.57,4,8.57v8.56c2.22,0,4,3.83,4,8.56s-1.79,8.57-4,8.57v8.24m-9.34,0v-8.24c-2.21,0-4-3.84-4-8.57s1.79-8.56,4-8.56v-8.56c2.21,0,4-3.84,4-8.57s-1.8-8.56-4-8.56v-8.25m-9.19,0V316c-2.21,0-4,3.83-4,8.56s1.79,8.57,4,8.57v8.56c2.21,0,4,3.83,4,8.56s-1.79,8.57-4,8.57v8.24m-9.34,0v-8.24c-2.21,0-4-3.84-4-8.57s1.8-8.56,4-8.56v-8.56c2.21,0,4-3.84,4-8.57s-1.79-8.56-4-8.56v-8.25m-46.41,51.07v8.24c-2.21,0-4,3.83-4,8.56s1.8,8.56,4,8.56v8.57c2.21,0,4,3.83,4,8.56s-1.79,8.57-4,8.57v8.24m-9.34,0v-8.24c-2.22,0-4-3.84-4-8.57s1.79-8.56,4-8.56v-8.57c2.21,0,4-3.83,4-8.56s-1.79-8.56-4-8.56v-8.24m-9.2,0v8.24c-2.21,0-4,3.83-4,8.56s1.79,8.56,4,8.56v8.57c2.21,0,4,3.83,4,8.56s-1.8,8.57-4,8.57v8.24m-9.34,0v-8.24c-2.21,0-4-3.84-4-8.57s1.79-8.56,4-8.56v-8.57c2.21,0,4-3.83,4-8.56s-1.79-8.56-4-8.56v-8.24m65-17.29v-8.25c-2.21,0-4-3.83-4-8.56s1.8-8.56,4-8.56v-8.56m0,51.37v8.25c-2.21,0-4,3.83-4,8.56s1.8,8.57,4,8.57v8.56c2.21,0,4,3.83,4,8.56s-1.79,8.56-4,8.56v8.25m-9.35,0V410c-2.21,0-4-3.83-4-8.56s1.79-8.56,4-8.56v-8.56c2.22,0,4-3.84,4-8.57s-1.79-8.56-4-8.56V359M201,359v8.25c-2.21,0-4,3.83-4,8.56s1.79,8.57,4,8.57v8.56c2.21,0,4,3.83,4,8.56s-1.79,8.56-4,8.56v8.25m-9.34,0V410c-2.21,0-4-3.83-4-8.56s1.79-8.56,4-8.56v-8.56c2.21,0,4-3.84,4-8.57s-1.79-8.56-4-8.56V359m27.88-51.06v8.25c-2.21,0-4,3.83-4,8.56s1.8,8.56,4,8.56v8.57c2.21,0,4,3.83,4,8.56s-1.79,8.56-4,8.56v8.25m-9.35,0V359c-2.21,0-4-3.83-4-8.56s1.79-8.56,4-8.56v-8.57c2.22,0,4-3.83,4-8.56s-1.79-8.56-4-8.56V307.9m-9.19,0v8.25c-2.21,0-4,3.83-4,8.56s1.79,8.56,4,8.56v8.57c2.21,0,4,3.83,4,8.56s-1.79,8.56-4,8.56v8.25m-9.34,0V359c-2.21,0-4-3.83-4-8.56s1.79-8.56,4-8.56v-8.57c2.21,0,4-3.83,4-8.56s-1.79-8.56-4-8.56V307.9m-9.19-.16V316c-2.21,0-4,3.83-4,8.56s1.8,8.57,4,8.57v8.56c2.21,0,4,3.83,4,8.56s-1.79,8.57-4,8.57v8.24m-9.34,0v-8.24c-2.22,0-4-3.84-4-8.57s1.79-8.56,4-8.56v-8.56c2.21,0,4-3.84,4-8.57s-1.79-8.56-4-8.56v-8.25m-9.2,0V316c-2.21,0-4,3.83-4,8.56s1.79,8.57,4,8.57v8.56c2.21,0,4,3.83,4,8.56s-1.8,8.57-4,8.57v8.24m-9.34,0v-8.24c-2.21,0-4-3.84-4-8.57s1.79-8.56,4-8.56v-8.56c2.21,0,4-3.84,4-8.57s-1.79-8.56-4-8.56v-8.25M32.84,256.05v8.24c-2.22,0-4,3.84-4,8.57s1.79,8.56,4,8.56V290c2.21,0,4,3.84,4,8.57s-1.79,8.56-4,8.56v8.24m-9.35,0v-8.24c-2.21,0-4-3.84-4-8.56s1.79-8.57,4-8.57v-8.56c2.22,0,4-3.83,4-8.56s-1.79-8.57-4-8.57v-8.24m-9.19,0v8.24c-2.21,0-4,3.84-4,8.57s1.79,8.56,4,8.56V290c2.21,0,4,3.84,4,8.57s-1.79,8.56-4,8.56v8.24m-9.34,0v-8.24c-2.21,0-4-3.84-4-8.56S2.75,290,5,290v-8.56c2.21,0,4-3.83,4-8.56s-1.79-8.57-4-8.57v-8.24M69.9,238.76v-8.24c-2.21,0-4-3.83-4-8.56s1.79-8.57,4-8.57v-8.56m0,51.38v8.24c-2.21,0-4,3.84-4,8.57s1.79,8.56,4,8.56v8.56c2.22,0,4,3.84,4,8.57s-1.79,8.56-4,8.56v8.24m-9.34,0v-8.24c-2.21,0-4-3.83-4-8.56s1.79-8.57,4-8.57v-8.56c2.21,0,4-3.84,4-8.56s-1.8-8.57-4-8.57v-8.24m-9.19,0v8.24c-2.21,0-4,3.84-4,8.57s1.79,8.56,4,8.56v8.56c2.21,0,4,3.84,4,8.57s-1.79,8.56-4,8.56v8.24m-9.34,0v-8.24c-2.21,0-4-3.83-4-8.56s1.8-8.57,4-8.57v-8.56c2.21,0,4-3.84,4-8.56s-1.79-8.57-4-8.57v-8.24M69.9,205.15v8.24c-2.21,0-4,3.84-4,8.57s1.79,8.56,4,8.56v8.56c2.22,0,4,3.83,4,8.56s-1.79,8.57-4,8.57v8.24m-9.34,0v-8.24c-2.21,0-4-3.84-4-8.57s1.79-8.56,4-8.56v-8.56c2.21,0,4-3.83,4-8.56s-1.8-8.57-4-8.57v-8.24m-9.19,0v8.24c-2.21,0-4,3.84-4,8.57s1.79,8.56,4,8.56v8.56c2.21,0,4,3.83,4,8.56s-1.79,8.57-4,8.57v8.24m-9.34,0v-8.24c-2.21,0-4-3.84-4-8.57s1.8-8.56,4-8.56v-8.56c2.21,0,4-3.83,4-8.56s-1.79-8.57-4-8.57v-8.24M32.84,205v8.24c-2.22,0-4,3.84-4,8.57s1.79,8.56,4,8.56v8.56c2.21,0,4,3.84,4,8.57s-1.79,8.56-4,8.56v8.24m-9.35,0v-8.24c-2.21,0-4-3.84-4-8.56s1.79-8.57,4-8.57v-8.56c2.22,0,4-3.83,4-8.56s-1.79-8.57-4-8.57V205m-9.19,0v8.24c-2.21,0-4,3.84-4,8.57s1.79,8.56,4,8.56v8.56c2.21,0,4,3.84,4,8.57s-1.79,8.56-4,8.56v8.24m-9.34,0v-8.24c-2.21,0-4-3.84-4-8.56s1.79-8.57,4-8.57v-8.56c2.21,0,4-3.83,4-8.56s-1.79-8.57-4-8.57V205m102.16,51.06v8.24c-2.21,0-4,3.84-4,8.57s1.79,8.56,4,8.56V290c2.21,0,4,3.84,4,8.57s-1.8,8.56-4,8.56v8.24m-9.34,0v-8.24c-2.21,0-4-3.84-4-8.56s1.79-8.57,4-8.57v-8.56c2.21,0,4-3.83,4-8.56s-1.79-8.57-4-8.57v-8.24m-9.19,0v8.24c-2.21,0-4,3.84-4,8.57s1.8,8.56,4,8.56V290c2.21,0,4,3.84,4,8.57s-1.79,8.56-4,8.56v8.24m-9.34,0v-8.24c-2.21,0-4-3.84-4-8.56s1.8-8.57,4-8.57v-8.56c2.21,0,4-3.83,4-8.56s-1.79-8.57-4-8.57v-8.24m64.94-17.29v-8.24c-2.21,0-4-3.83-4-8.56s1.79-8.57,4-8.57v-8.56m0,51.38v8.24c-2.21,0-4,3.84-4,8.57s1.79,8.56,4,8.56v8.56c2.21,0,4,3.84,4,8.57s-1.79,8.56-4,8.56v8.24m-9.34,0v-8.24c-2.21,0-4-3.83-4-8.56s1.79-8.57,4-8.57v-8.56c2.21,0,4-3.84,4-8.56s-1.79-8.57-4-8.57v-8.24m-9.19,0v8.24c-2.21,0-4,3.84-4,8.57s1.8,8.56,4,8.56v8.56c2.21,0,4,3.84,4,8.57s-1.79,8.56-4,8.56v8.24m-9.34,0v-8.24c-2.22,0-4-3.83-4-8.56s1.79-8.57,4-8.57v-8.56c2.21,0,4-3.84,4-8.56s-1.79-8.57-4-8.57v-8.24m27.87-51.06v8.24c-2.21,0-4,3.84-4,8.57s1.79,8.56,4,8.56v8.56c2.21,0,4,3.83,4,8.56s-1.79,8.57-4,8.57v8.24m-9.34,0v-8.24c-2.21,0-4-3.84-4-8.57s1.79-8.56,4-8.56v-8.56c2.21,0,4-3.83,4-8.56s-1.79-8.57-4-8.57v-8.24m-9.19,0v8.24c-2.21,0-4,3.84-4,8.57s1.8,8.56,4,8.56v8.56c2.21,0,4,3.83,4,8.56s-1.79,8.57-4,8.57v8.24m-9.34,0v-8.24c-2.22,0-4-3.84-4-8.57s1.79-8.56,4-8.56v-8.56c2.21,0,4-3.83,4-8.56s-1.79-8.57-4-8.57v-8.24m-9.2-.16v8.24c-2.21,0-4,3.84-4,8.57s1.79,8.56,4,8.56v8.56c2.21,0,4,3.84,4,8.57s-1.8,8.56-4,8.56v8.24m-9.34,0v-8.24c-2.21,0-4-3.84-4-8.56s1.79-8.57,4-8.57v-8.56c2.21,0,4-3.83,4-8.56s-1.79-8.57-4-8.57V205m-9.19,0v8.24c-2.21,0-4,3.84-4,8.57s1.8,8.56,4,8.56v8.56c2.21,0,4,3.84,4,8.57s-1.79,8.56-4,8.56v8.24m-9.34,0v-8.24c-2.21,0-4-3.84-4-8.56s1.8-8.57,4-8.57v-8.56c2.21,0,4-3.83,4-8.56s-1.79-8.57-4-8.57V205m27.87,153.18v8.25c-2.21,0-4,3.83-4,8.56s1.79,8.56,4,8.56v8.56c2.21,0,4,3.84,4,8.57s-1.8,8.56-4,8.56v8.25m-9.34,0v-8.25c-2.21,0-4-3.83-4-8.56s1.79-8.57,4-8.57v-8.56c2.21,0,4-3.83,4-8.56s-1.79-8.56-4-8.56v-8.25m-9.19,0v8.25c-2.21,0-4,3.83-4,8.56s1.8,8.56,4,8.56v8.56c2.21,0,4,3.84,4,8.57s-1.79,8.56-4,8.56v8.25m-9.34,0v-8.25c-2.21,0-4-3.83-4-8.56s1.8-8.57,4-8.57v-8.56c2.21,0,4-3.83,4-8.56s-1.79-8.56-4-8.56v-8.25m64.94-17.28v-8.25c-2.21,0-4-3.83-4-8.56s1.79-8.57,4-8.57V307m0,51.38v8.24c-2.21,0-4,3.84-4,8.57s1.79,8.56,4,8.56v8.56c2.21,0,4,3.84,4,8.57s-1.79,8.56-4,8.56v8.24m-9.34,0v-8.24c-2.21,0-4-3.84-4-8.56s1.79-8.57,4-8.57V383.7c2.21,0,4-3.83,4-8.56s-1.79-8.57-4-8.57v-8.24m-9.19,0v8.24c-2.21,0-4,3.84-4,8.57s1.8,8.56,4,8.56v8.56c2.21,0,4,3.84,4,8.57s-1.79,8.56-4,8.56v8.24m-9.34,0v-8.24c-2.22,0-4-3.84-4-8.56s1.79-8.57,4-8.57V383.7c2.21,0,4-3.83,4-8.56s-1.79-8.57-4-8.57v-8.24m27.87-51.06v8.24c-2.21,0-4,3.84-4,8.57s1.79,8.56,4,8.56v8.56c2.21,0,4,3.84,4,8.57s-1.79,8.56-4,8.56v8.24m-9.34,0v-8.24c-2.21,0-4-3.84-4-8.56s1.79-8.57,4-8.57v-8.56c2.21,0,4-3.83,4-8.56s-1.79-8.57-4-8.57v-8.24m-9.19,0v8.24c-2.21,0-4,3.84-4,8.57s1.8,8.56,4,8.56v8.56c2.21,0,4,3.84,4,8.57s-1.79,8.56-4,8.56v8.24m-9.34,0v-8.24c-2.22,0-4-3.84-4-8.56s1.79-8.57,4-8.57v-8.56c2.21,0,4-3.83,4-8.56s-1.79-8.57-4-8.57v-8.24m-9.2-.16v8.24c-2.21,0-4,3.84-4,8.57s1.79,8.56,4,8.56V341c2.21,0,4,3.84,4,8.57s-1.8,8.56-4,8.56v8.25m-9.34,0v-8.25c-2.21,0-4-3.83-4-8.56s1.79-8.57,4-8.57v-8.56c2.21,0,4-3.83,4-8.56s-1.79-8.57-4-8.57v-8.24m-9.19,0v8.24c-2.21,0-4,3.84-4,8.57s1.8,8.56,4,8.56V341c2.21,0,4,3.84,4,8.57s-1.79,8.56-4,8.56v8.25m-9.34,0v-8.25c-2.21,0-4-3.83-4-8.56s1.8-8.57,4-8.57v-8.56c2.21,0,4-3.83,4-8.56s-1.79-8.57-4-8.57v-8.24M32.84,358.17v8.25c-2.22,0-4,3.83-4,8.56s1.79,8.56,4,8.56v8.56c2.21,0,4,3.84,4,8.57s-1.79,8.56-4,8.56v8.25m-9.35,0v-8.25c-2.21,0-4-3.83-4-8.56s1.79-8.57,4-8.57v-8.56c2.22,0,4-3.83,4-8.56s-1.79-8.56-4-8.56v-8.25m-9.19,0v8.25c-2.21,0-4,3.83-4,8.56s1.79,8.56,4,8.56v8.56c2.21,0,4,3.84,4,8.57s-1.79,8.56-4,8.56v8.25m-9.34,0v-8.25c-2.21,0-4-3.83-4-8.56s1.79-8.57,4-8.57v-8.56c2.21,0,4-3.83,4-8.56s-1.79-8.56-4-8.56v-8.25M69.9,340.89v-8.25c-2.21,0-4-3.83-4-8.56s1.79-8.57,4-8.57V307m0,51.38v8.24c-2.21,0-4,3.84-4,8.57s1.79,8.56,4,8.56v8.56c2.22,0,4,3.84,4,8.57s-1.79,8.56-4,8.56v8.24m-9.34,0v-8.24c-2.21,0-4-3.84-4-8.56s1.79-8.57,4-8.57V383.7c2.21,0,4-3.83,4-8.56s-1.8-8.57-4-8.57v-8.24m-9.19,0v8.24c-2.21,0-4,3.84-4,8.57s1.79,8.56,4,8.56v8.56c2.21,0,4,3.84,4,8.57s-1.79,8.56-4,8.56v8.24m-9.34,0v-8.24c-2.21,0-4-3.84-4-8.56s1.8-8.57,4-8.57V383.7c2.21,0,4-3.83,4-8.56s-1.79-8.57-4-8.57v-8.24M69.9,307.27v8.24c-2.21,0-4,3.84-4,8.57s1.79,8.56,4,8.56v8.56c2.22,0,4,3.84,4,8.57s-1.79,8.56-4,8.56v8.24m-9.34,0v-8.24c-2.21,0-4-3.84-4-8.56s1.79-8.57,4-8.57v-8.56c2.21,0,4-3.83,4-8.56s-1.8-8.57-4-8.57v-8.24m-9.19,0v8.24c-2.21,0-4,3.84-4,8.57s1.79,8.56,4,8.56v8.56c2.21,0,4,3.84,4,8.57s-1.79,8.56-4,8.56v8.24m-9.34,0v-8.24c-2.21,0-4-3.84-4-8.56s1.8-8.57,4-8.57v-8.56c2.21,0,4-3.83,4-8.56s-1.79-8.57-4-8.57v-8.24m-9.19-.16v8.24c-2.22,0-4,3.84-4,8.57s1.79,8.56,4,8.56V341c2.21,0,4,3.84,4,8.57s-1.79,8.56-4,8.56v8.25m-9.35,0v-8.25c-2.21,0-4-3.83-4-8.56s1.79-8.57,4-8.57v-8.56c2.22,0,4-3.83,4-8.56s-1.79-8.57-4-8.57v-8.24m-9.19,0v8.24c-2.21,0-4,3.84-4,8.57s1.79,8.56,4,8.56V341c2.21,0,4,3.84,4,8.57s-1.79,8.56-4,8.56v8.25m-9.34,0v-8.25c-2.21,0-4-3.83-4-8.56S2.75,341,5,341v-8.56c2.21,0,4-3.83,4-8.56s-1.79-8.57-4-8.57v-8.24"/><path class="cls-1" d="M182.6,1.06V9.31c-2.22,0-4,3.83-4,8.56s1.79,8.56,4,8.56V35c2.21,0,4,3.83,4,8.56s-1.79,8.56-4,8.56v8.25m-9.35,0V52.12c-2.21,0-4-3.83-4-8.56S171,35,173.25,35V26.43c2.21,0,4-3.83,4-8.56s-1.8-8.56-4-8.56V1.06m-9.19,0V9.31c-2.21,0-4,3.83-4,8.56s1.79,8.56,4,8.56V35c2.21,0,4,3.83,4,8.56s-1.79,8.56-4,8.56v8.25m-9.34,0V52.12c-2.21,0-4-3.83-4-8.56s1.8-8.56,4-8.56V26.43c2.21,0,4-3.83,4-8.56s-1.79-8.56-4-8.56V1.06M256.88,52.12v8.25c-2.21,0-4,3.83-4,8.56s1.79,8.56,4,8.56v8.57c2.21,0,4,3.83,4,8.56s-1.8,8.56-4,8.56v8.25m-9.34,0v-8.25c-2.21,0-4-3.83-4-8.56s1.79-8.56,4-8.56V77.49c2.21,0,4-3.83,4-8.56s-1.79-8.56-4-8.56V52.12m-9.19,0v8.25c-2.21,0-4,3.83-4,8.56s1.8,8.56,4,8.56v8.57c2.21,0,4,3.83,4,8.56s-1.79,8.56-4,8.56v8.25m-9.34,0v-8.25c-2.22,0-4-3.83-4-8.56s1.79-8.56,4-8.56V77.49c2.21,0,4-3.83,4-8.56s-1.79-8.56-4-8.56V52.12M294,34.84V26.59c-2.21,0-4-3.83-4-8.56s1.79-8.56,4-8.56V.9m0,51.38v8.25c-2.21,0-4,3.83-4,8.56s1.79,8.56,4,8.56v8.57c2.21,0,4,3.83,4,8.56s-1.8,8.56-4,8.56v8.25m-9.34,0v-8.25c-2.21,0-4-3.83-4-8.56s1.79-8.56,4-8.56V77.65c2.21,0,4-3.83,4-8.56s-1.79-8.56-4-8.56V52.28m-9.19,0v8.25c-2.22,0-4,3.83-4,8.56s1.79,8.56,4,8.56v8.57c2.21,0,4,3.83,4,8.56s-1.79,8.56-4,8.56v8.25m-9.35,0v-8.25c-2.21,0-4-3.83-4-8.56s1.79-8.56,4-8.56V77.65c2.22,0,4-3.83,4-8.56s-1.79-8.56-4-8.56V52.28M294,1.22V9.47c-2.21,0-4,3.83-4,8.56s1.79,8.56,4,8.56v8.57c2.21,0,4,3.83,4,8.56s-1.8,8.56-4,8.56v8.25m-9.34,0V52.28c-2.21,0-4-3.83-4-8.56s1.79-8.56,4-8.56V26.59c2.21,0,4-3.83,4-8.56s-1.79-8.56-4-8.56V1.22m-9.19,0V9.47c-2.22,0-4,3.83-4,8.56s1.79,8.56,4,8.56v8.57c2.21,0,4,3.83,4,8.56s-1.79,8.56-4,8.56v8.25m-9.35,0V52.28c-2.21,0-4-3.83-4-8.56s1.79-8.56,4-8.56V26.59c2.22,0,4-3.83,4-8.56s-1.79-8.56-4-8.56V1.22m-9.19-.16V9.31c-2.21,0-4,3.83-4,8.56s1.79,8.56,4,8.56V35c2.21,0,4,3.83,4,8.56s-1.8,8.56-4,8.56v8.25m-9.34,0V52.12c-2.21,0-4-3.83-4-8.56s1.79-8.56,4-8.56V26.43c2.21,0,4-3.83,4-8.56s-1.79-8.56-4-8.56V1.06m-9.19,0V9.31c-2.21,0-4,3.83-4,8.56s1.8,8.56,4,8.56V35c2.21,0,4,3.83,4,8.56s-1.79,8.56-4,8.56v8.25m-9.34,0V52.12c-2.22,0-4-3.83-4-8.56S226.79,35,229,35V26.43c2.21,0,4-3.83,4-8.56s-1.79-8.56-4-8.56V1.06m27.87,153.18v8.25c-2.21,0-4,3.83-4,8.56s1.79,8.57,4,8.57v8.56c2.21,0,4,3.83,4,8.56s-1.8,8.57-4,8.57v8.24m-9.34,0v-8.24c-2.21,0-4-3.84-4-8.57s1.79-8.56,4-8.56v-8.56c2.21,0,4-3.84,4-8.57s-1.79-8.56-4-8.56v-8.25m-9.19,0v8.25c-2.21,0-4,3.83-4,8.56s1.8,8.57,4,8.57v8.56c2.21,0,4,3.83,4,8.56s-1.79,8.57-4,8.57v8.24m-9.34,0v-8.24c-2.22,0-4-3.84-4-8.57s1.79-8.56,4-8.56v-8.56c2.21,0,4-3.84,4-8.57s-1.79-8.56-4-8.56v-8.25M294,137v-8.25c-2.21,0-4-3.83-4-8.56s1.79-8.56,4-8.56V103m0,51.37v8.25c-2.21,0-4,3.83-4,8.56s1.79,8.56,4,8.56v8.57c2.21,0,4,3.83,4,8.56s-1.8,8.56-4,8.56v8.25m-9.34,0v-8.25c-2.21,0-4-3.83-4-8.56s1.79-8.56,4-8.56v-8.57c2.21,0,4-3.83,4-8.56s-1.79-8.56-4-8.56V154.4m-9.19,0v8.25c-2.22,0-4,3.83-4,8.56s1.79,8.56,4,8.56v8.57c2.21,0,4,3.83,4,8.56s-1.79,8.56-4,8.56v8.25m-9.35,0v-8.25c-2.21,0-4-3.83-4-8.56s1.79-8.56,4-8.56v-8.57c2.22,0,4-3.83,4-8.56s-1.79-8.56-4-8.56V154.4M294,103.34v8.25c-2.21,0-4,3.83-4,8.56s1.79,8.56,4,8.56v8.57c2.21,0,4,3.83,4,8.56s-1.8,8.56-4,8.56v8.25m-9.34,0V154.4c-2.21,0-4-3.83-4-8.56s1.79-8.56,4-8.56v-8.57c2.21,0,4-3.83,4-8.56s-1.79-8.56-4-8.56v-8.25m-9.19,0v8.25c-2.22,0-4,3.83-4,8.56s1.79,8.56,4,8.56v8.57c2.21,0,4,3.83,4,8.56s-1.79,8.56-4,8.56v8.25m-9.35,0V154.4c-2.21,0-4-3.83-4-8.56s1.79-8.56,4-8.56v-8.57c2.22,0,4-3.83,4-8.56s-1.79-8.56-4-8.56v-8.25m-9.19-.16v8.25c-2.21,0-4,3.83-4,8.56s1.79,8.57,4,8.57v8.56c2.21,0,4,3.83,4,8.56s-1.8,8.56-4,8.56v8.25m-9.34,0v-8.25c-2.21,0-4-3.83-4-8.56s1.79-8.56,4-8.56v-8.56c2.21,0,4-3.84,4-8.57s-1.79-8.56-4-8.56v-8.25m-9.19,0v8.25c-2.21,0-4,3.83-4,8.56s1.8,8.57,4,8.57v8.56c2.21,0,4,3.83,4,8.56s-1.79,8.56-4,8.56v8.25m-9.34,0v-8.25c-2.22,0-4-3.83-4-8.56s1.79-8.56,4-8.56v-8.56c2.21,0,4-3.84,4-8.57s-1.79-8.56-4-8.56v-8.25M182.6,154.24v8.25c-2.22,0-4,3.83-4,8.56s1.79,8.57,4,8.57v8.56c2.21,0,4,3.83,4,8.56s-1.79,8.57-4,8.57v8.24m-9.35,0v-8.24c-2.21,0-4-3.84-4-8.57s1.79-8.56,4-8.56v-8.56c2.21,0,4-3.84,4-8.57s-1.8-8.56-4-8.56v-8.25m-9.19,0v8.25c-2.21,0-4,3.83-4,8.56s1.79,8.57,4,8.57v8.56c2.21,0,4,3.83,4,8.56s-1.79,8.57-4,8.57v8.24m-9.34,0v-8.24c-2.21,0-4-3.84-4-8.57s1.8-8.56,4-8.56v-8.56c2.21,0,4-3.84,4-8.57s-1.79-8.56-4-8.56v-8.25M219.66,137v-8.25c-2.21,0-4-3.83-4-8.56s1.79-8.56,4-8.56V103m0,51.37v8.25c-2.21,0-4,3.83-4,8.56s1.79,8.56,4,8.56v8.57c2.21,0,4,3.83,4,8.56s-1.8,8.56-4,8.56v8.25m-9.34,0v-8.25c-2.21,0-4-3.83-4-8.56s1.79-8.56,4-8.56v-8.57c2.21,0,4-3.83,4-8.56s-1.8-8.56-4-8.56V154.4m-9.19,0v8.25c-2.21,0-4,3.83-4,8.56s1.79,8.56,4,8.56v8.57c2.21,0,4,3.83,4,8.56s-1.79,8.56-4,8.56v8.25m-9.34,0v-8.25c-2.21,0-4-3.83-4-8.56s1.8-8.56,4-8.56v-8.57c2.21,0,4-3.83,4-8.56s-1.79-8.56-4-8.56V154.4m27.87-51.06v8.25c-2.21,0-4,3.83-4,8.56s1.79,8.56,4,8.56v8.57c2.21,0,4,3.83,4,8.56s-1.8,8.56-4,8.56v8.25m-9.34,0V154.4c-2.21,0-4-3.83-4-8.56s1.79-8.56,4-8.56v-8.57c2.21,0,4-3.83,4-8.56s-1.8-8.56-4-8.56v-8.25m-9.19,0v8.25c-2.21,0-4,3.83-4,8.56s1.79,8.56,4,8.56v8.57c2.21,0,4,3.83,4,8.56s-1.79,8.56-4,8.56v8.25m-9.34,0V154.4c-2.21,0-4-3.83-4-8.56s1.8-8.56,4-8.56v-8.57c2.21,0,4-3.83,4-8.56s-1.79-8.56-4-8.56v-8.25m-9.19-.16v8.25c-2.22,0-4,3.83-4,8.56s1.79,8.57,4,8.57v8.56c2.21,0,4,3.83,4,8.56s-1.79,8.56-4,8.56v8.25m-9.35,0v-8.25c-2.21,0-4-3.83-4-8.56s1.79-8.56,4-8.56v-8.56c2.21,0,4-3.84,4-8.57s-1.8-8.56-4-8.56v-8.25m-9.19,0v8.25c-2.21,0-4,3.83-4,8.56s1.79,8.57,4,8.57v8.56c2.21,0,4,3.83,4,8.56s-1.79,8.56-4,8.56v8.25m-9.34,0v-8.25c-2.21,0-4-3.83-4-8.56s1.8-8.56,4-8.56v-8.56c2.21,0,4-3.84,4-8.57s-1.79-8.56-4-8.56v-8.25m27.73,153.5v8.25c-2.21,0-4,3.83-4,8.56s1.8,8.56,4,8.56v8.57c2.21,0,4,3.83,4,8.56s-1.79,8.56-4,8.56V316m-9.34,0v-8.25c-2.22,0-4-3.83-4-8.56s1.79-8.56,4-8.56v-8.57c2.21,0,4-3.83,4-8.56s-1.79-8.56-4-8.56v-8.25m-9.2,0v8.25c-2.21,0-4,3.83-4,8.56s1.79,8.56,4,8.56v8.57c2.21,0,4,3.83,4,8.56s-1.8,8.56-4,8.56V316m-9.34,0v-8.25c-2.21,0-4-3.83-4-8.56s1.79-8.56,4-8.56v-8.57c2.21,0,4-3.83,4-8.56s-1.79-8.56-4-8.56v-8.25m65-17.28v-8.25c-2.22,0-4-3.83-4-8.56s1.79-8.56,4-8.56v-8.57m0,51.38v8.25c-2.22,0-4,3.83-4,8.56s1.79,8.56,4,8.56v8.57c2.21,0,4,3.83,4,8.56s-1.79,8.56-4,8.56v8.25m-9.35,0V307.9c-2.21,0-4-3.83-4-8.56s1.79-8.56,4-8.56v-8.57c2.21,0,4-3.83,4-8.56s-1.8-8.56-4-8.56v-8.25m-9.19,0v8.25c-2.21,0-4,3.83-4,8.56s1.79,8.56,4,8.56v8.57c2.21,0,4,3.83,4,8.56s-1.8,8.56-4,8.56v8.25m-9.34,0V307.9c-2.21,0-4-3.83-4-8.56s1.79-8.56,4-8.56v-8.57c2.21,0,4-3.83,4-8.56s-1.79-8.56-4-8.56v-8.25m27.88-51.06V214c-2.22,0-4,3.83-4,8.56s1.79,8.56,4,8.56v8.57c2.21,0,4,3.83,4,8.56s-1.79,8.56-4,8.56v8.25m-9.35,0v-8.25c-2.21,0-4-3.83-4-8.56s1.79-8.56,4-8.56v-8.57c2.21,0,4-3.83,4-8.56s-1.8-8.56-4-8.56v-8.25m-9.19,0V214c-2.21,0-4,3.83-4,8.56s1.79,8.56,4,8.56v8.57c2.21,0,4,3.83,4,8.56s-1.8,8.56-4,8.56v8.25m-9.34,0v-8.25c-2.21,0-4-3.83-4-8.56s1.79-8.56,4-8.56v-8.57c2.21,0,4-3.83,4-8.56s-1.79-8.56-4-8.56v-8.25m-9.19-.16v8.25c-2.21,0-4,3.83-4,8.56s1.8,8.56,4,8.56v8.57c2.21,0,4,3.83,4,8.56s-1.79,8.56-4,8.56v8.25m-9.34,0v-8.25c-2.22,0-4-3.83-4-8.56s1.79-8.56,4-8.56V231c2.21,0,4-3.83,4-8.56s-1.79-8.56-4-8.56v-8.25m-9.2,0v8.25c-2.21,0-4,3.83-4,8.56s1.79,8.56,4,8.56v8.57c2.21,0,4,3.83,4,8.56s-1.8,8.56-4,8.56v8.25m-9.34,0v-8.25c-2.21,0-4-3.83-4-8.56s1.79-8.56,4-8.56V231c2.21,0,4-3.83,4-8.56s-1.79-8.56-4-8.56v-8.25m102.16,51.06v8.25c-2.21,0-4,3.83-4,8.56s1.79,8.56,4,8.56v8.57c2.21,0,4,3.83,4,8.56s-1.8,8.56-4,8.56V316m-9.34,0v-8.25c-2.21,0-4-3.83-4-8.56s1.79-8.56,4-8.56v-8.57c2.21,0,4-3.83,4-8.56s-1.8-8.56-4-8.56v-8.25m-9.19,0v8.25c-2.21,0-4,3.83-4,8.56s1.79,8.56,4,8.56v8.57c2.21,0,4,3.83,4,8.56s-1.79,8.56-4,8.56V316m-9.34,0v-8.25c-2.21,0-4-3.83-4-8.56s1.8-8.56,4-8.56v-8.57c2.21,0,4-3.83,4-8.56s-1.79-8.56-4-8.56v-8.25M293.8,239.4v-8.25c-2.21,0-4-3.83-4-8.56s1.79-8.56,4-8.56v-8.57m0,51.38v8.25c-2.21,0-4,3.83-4,8.56s1.79,8.56,4,8.56v8.57c2.21,0,4,3.83,4,8.56s-1.8,8.56-4,8.56v8.25m-9.34,0V307.9c-2.21,0-4-3.83-4-8.56s1.79-8.56,4-8.56v-8.57c2.21,0,4-3.83,4-8.56s-1.8-8.56-4-8.56v-8.25m-9.19,0v8.25c-2.21,0-4,3.83-4,8.56s1.8,8.56,4,8.56v8.57c2.21,0,4,3.83,4,8.56s-1.79,8.56-4,8.56v8.25m-9.34,0V307.9c-2.21,0-4-3.83-4-8.56s1.8-8.56,4-8.56v-8.57c2.21,0,4-3.83,4-8.56s-1.79-8.56-4-8.56v-8.25m27.87-51.06V214c-2.21,0-4,3.83-4,8.56s1.79,8.56,4,8.56v8.57c2.21,0,4,3.83,4,8.56s-1.8,8.56-4,8.56v8.25m-9.34,0v-8.25c-2.21,0-4-3.83-4-8.56s1.79-8.56,4-8.56v-8.57c2.21,0,4-3.83,4-8.56s-1.8-8.56-4-8.56v-8.25m-9.19,0V214c-2.21,0-4,3.83-4,8.56s1.8,8.56,4,8.56v8.57c2.21,0,4,3.83,4,8.56s-1.79,8.56-4,8.56v8.25m-9.34,0v-8.25c-2.21,0-4-3.83-4-8.56s1.8-8.56,4-8.56v-8.57c2.21,0,4-3.83,4-8.56s-1.79-8.56-4-8.56v-8.25m-9.2-.16v8.25c-2.21,0-4,3.83-4,8.56s1.79,8.56,4,8.56v8.57c2.21,0,4,3.83,4,8.56s-1.8,8.56-4,8.56v8.25m-9.34,0v-8.25c-2.21,0-4-3.83-4-8.56s1.79-8.56,4-8.56V231c2.21,0,4-3.83,4-8.56s-1.8-8.56-4-8.56v-8.25m-9.19,0v8.25c-2.21,0-4,3.83-4,8.56s1.79,8.56,4,8.56v8.57c2.21,0,4,3.83,4,8.56s-1.79,8.56-4,8.56v8.25m-9.34,0v-8.25c-2.21,0-4-3.83-4-8.56s1.8-8.56,4-8.56V231c2.21,0,4-3.83,4-8.56s-1.79-8.56-4-8.56v-8.25M256.73,358.8v8.25c-2.21,0-4,3.83-4,8.56s1.79,8.57,4,8.57v8.56c2.21,0,4,3.83,4,8.56s-1.8,8.57-4,8.57v8.24m-9.34,0v-8.24c-2.21,0-4-3.84-4-8.57s1.79-8.56,4-8.56v-8.56c2.21,0,4-3.84,4-8.57s-1.8-8.56-4-8.56V358.8m-9.19,0v8.25c-2.21,0-4,3.83-4,8.56s1.79,8.57,4,8.57v8.56c2.21,0,4,3.83,4,8.56s-1.79,8.57-4,8.57v8.24m-9.34,0v-8.24c-2.21,0-4-3.84-4-8.57s1.8-8.56,4-8.56v-8.56c2.21,0,4-3.84,4-8.57s-1.79-8.56-4-8.56V358.8m64.94-17.28v-8.25c-2.21,0-4-3.83-4-8.56s1.79-8.56,4-8.56v-8.56m0,51.37v8.25c-2.21,0-4,3.83-4,8.56s1.79,8.56,4,8.56v8.57c2.21,0,4,3.83,4,8.56s-1.8,8.56-4,8.56v8.25m-9.34,0V410c-2.21,0-4-3.83-4-8.56s1.79-8.56,4-8.56v-8.57c2.21,0,4-3.83,4-8.56s-1.8-8.56-4-8.56V359"/><path class="cls-1" d="M32.83,51.49v8.24c-2.21,0-4,3.84-4,8.57s1.79,8.56,4,8.56v8.56c2.22,0,4,3.84,4,8.57s-1.79,8.56-4,8.56v8.25m-9.34,0v-8.25c-2.21,0-4-3.83-4-8.56s1.79-8.57,4-8.57V76.86c2.21,0,4-3.83,4-8.56s-1.8-8.57-4-8.57V51.49m-9.19,0v8.24c-2.21,0-4,3.84-4,8.57s1.79,8.56,4,8.56v8.56c2.21,0,4,3.84,4,8.57s-1.79,8.56-4,8.56v8.25M5,110.8v-8.25c-2.21,0-4-3.83-4-8.56s1.79-8.57,4-8.57V76.86c2.21,0,4-3.83,4-8.56s-1.79-8.57-4-8.57V51.49M69.9,34.2V26c-2.21,0-4-3.84-4-8.56s1.79-8.57,4-8.57V.27m0,51.38v8.24c-2.21,0-4,3.84-4,8.57S67.69,77,69.9,77v8.56c2.22,0,4,3.84,4,8.57s-1.79,8.56-4,8.56V111m-9.34,0v-8.24c-2.21,0-4-3.84-4-8.56s1.79-8.57,4-8.57V77c2.21,0,4-3.83,4-8.56s-1.8-8.57-4-8.57V51.65m-9.19,0v8.24c-2.21,0-4,3.84-4,8.57s1.79,8.56,4,8.56v8.56c2.21,0,4,3.84,4,8.57s-1.79,8.56-4,8.56V111M42,111v-8.24c-2.21,0-4-3.84-4-8.56s1.8-8.57,4-8.57V77c2.21,0,4-3.83,4-8.56s-1.79-8.57-4-8.57V51.65M69.9.59V8.83c-2.21,0-4,3.84-4,8.57S67.69,26,69.9,26v8.56c2.22,0,4,3.83,4,8.57s-1.79,8.56-4,8.56v8.24m-9.34,0V51.65c-2.21,0-4-3.83-4-8.56s1.79-8.57,4-8.57V26c2.21,0,4-3.84,4-8.56s-1.8-8.57-4-8.57V.59m-9.19,0V8.83c-2.21,0-4,3.84-4,8.57s1.79,8.56,4,8.56v8.56c2.21,0,4,3.83,4,8.57s-1.79,8.56-4,8.56v8.24m-9.34,0V51.65c-2.21,0-4-3.83-4-8.56s1.8-8.57,4-8.57V26c2.21,0,4-3.84,4-8.56s-1.79-8.57-4-8.57V.59M32.83.43V8.67c-2.21,0-4,3.84-4,8.57s1.79,8.56,4,8.56v8.56c2.22,0,4,3.84,4,8.57s-1.79,8.56-4,8.56v8.24m-9.34,0V51.49c-2.21,0-4-3.84-4-8.56s1.79-8.57,4-8.57V25.8c2.21,0,4-3.83,4-8.56s-1.8-8.57-4-8.57V.43M14.3.43V8.67c-2.21,0-4,3.84-4,8.57s1.79,8.56,4,8.56v8.56c2.21,0,4,3.84,4,8.57s-1.79,8.56-4,8.56v8.24M5,59.73V51.49c-2.21,0-4-3.84-4-8.56s1.79-8.57,4-8.57V25.8c2.21,0,4-3.83,4-8.56S7.17,8.67,5,8.67V.43M107.12,51.49v8.24c-2.21,0-4,3.84-4,8.57s1.79,8.56,4,8.56v8.56c2.21,0,4,3.84,4,8.57s-1.79,8.56-4,8.56v8.25m-9.34,0v-8.25c-2.21,0-4-3.83-4-8.56s1.79-8.57,4-8.57V76.86c2.21,0,4-3.83,4-8.56s-1.79-8.57-4-8.57V51.49m-9.19,0v8.24c-2.21,0-4,3.84-4,8.57s1.8,8.56,4,8.56v8.56c2.21,0,4,3.84,4,8.57s-1.79,8.56-4,8.56v8.25m-9.34,0v-8.25c-2.22,0-4-3.83-4-8.56s1.79-8.57,4-8.57V76.86c2.21,0,4-3.83,4-8.56s-1.79-8.57-4-8.57V51.49M144.19,34.2V26c-2.21,0-4-3.84-4-8.56s1.79-8.57,4-8.57V.27m0,51.38v8.24c-2.21,0-4,3.84-4,8.57S142,77,144.19,77v8.56c2.21,0,4,3.84,4,8.57s-1.79,8.56-4,8.56V111m-9.34,0v-8.24c-2.21,0-4-3.84-4-8.56s1.79-8.57,4-8.57V77c2.21,0,4-3.83,4-8.56s-1.79-8.57-4-8.57V51.65m-9.19,0v8.24c-2.21,0-4,3.84-4,8.57s1.8,8.56,4,8.56v8.56c2.21,0,4,3.84,4,8.57s-1.79,8.56-4,8.56V111m-9.35,0v-8.24c-2.21,0-4-3.84-4-8.56s1.79-8.57,4-8.57V77c2.22,0,4-3.83,4-8.56s-1.79-8.57-4-8.57V51.65M144.19.59V8.83c-2.21,0-4,3.84-4,8.57S142,26,144.19,26v8.56c2.21,0,4,3.83,4,8.57s-1.79,8.56-4,8.56v8.24m-9.34,0V51.65c-2.21,0-4-3.83-4-8.56s1.79-8.57,4-8.57V26c2.21,0,4-3.84,4-8.56s-1.79-8.57-4-8.57V.59m-9.19,0V8.83c-2.21,0-4,3.84-4,8.57s1.8,8.56,4,8.56v8.56c2.21,0,4,3.83,4,8.57s-1.79,8.56-4,8.56v8.24m-9.35,0V51.65c-2.21,0-4-3.83-4-8.56s1.79-8.57,4-8.57V26c2.22,0,4-3.84,4-8.56s-1.79-8.57-4-8.57V.59M107.12.43V8.67c-2.21,0-4,3.84-4,8.57s1.79,8.56,4,8.56v8.56c2.21,0,4,3.84,4,8.57s-1.79,8.56-4,8.56v8.24m-9.34,0V51.49c-2.21,0-4-3.84-4-8.56s1.79-8.57,4-8.57V25.8c2.21,0,4-3.83,4-8.56s-1.79-8.57-4-8.57V.43m-9.19,0V8.67c-2.21,0-4,3.84-4,8.57s1.8,8.56,4,8.56v8.56c2.21,0,4,3.84,4,8.57s-1.79,8.56-4,8.56v8.24m-9.34,0V51.49c-2.22,0-4-3.84-4-8.56s1.79-8.57,4-8.57V25.8c2.21,0,4-3.83,4-8.56s-1.79-8.57-4-8.57V.43m27.87,153.18v8.25c-2.21,0-4,3.83-4,8.56s1.79,8.56,4,8.56v8.57c2.21,0,4,3.83,4,8.56s-1.79,8.56-4,8.56v8.25m-9.34,0v-8.25c-2.21,0-4-3.83-4-8.56s1.79-8.56,4-8.56V179c2.21,0,4-3.83,4-8.56s-1.79-8.56-4-8.56v-8.25m-9.19,0v8.25c-2.21,0-4,3.83-4,8.56s1.8,8.56,4,8.56v8.57c2.21,0,4,3.83,4,8.56s-1.79,8.56-4,8.56v8.25m-9.34,0v-8.25c-2.22,0-4-3.83-4-8.56s1.79-8.56,4-8.56V179c2.21,0,4-3.83,4-8.56s-1.79-8.56-4-8.56v-8.25m64.94-17.28v-8.25c-2.21,0-4-3.83-4-8.56s1.79-8.57,4-8.57v-8.56m0,51.38V162c-2.21,0-4,3.84-4,8.57s1.79,8.56,4,8.56v8.56c2.21,0,4,3.84,4,8.57s-1.79,8.56-4,8.56v8.25m-9.34,0v-8.25c-2.21,0-4-3.83-4-8.56s1.79-8.57,4-8.57v-8.56c2.21,0,4-3.83,4-8.56s-1.79-8.57-4-8.57v-8.24m-9.19,0V162c-2.21,0-4,3.84-4,8.57s1.8,8.56,4,8.56v8.56c2.21,0,4,3.84,4,8.57s-1.79,8.56-4,8.56v8.25m-9.35,0v-8.25c-2.21,0-4-3.83-4-8.56s1.79-8.57,4-8.57v-8.56c2.22,0,4-3.83,4-8.56s-1.79-8.57-4-8.57v-8.24m27.88-51.06V111c-2.21,0-4,3.84-4,8.57s1.79,8.56,4,8.56v8.56c2.21,0,4,3.84,4,8.57s-1.79,8.56-4,8.56V162m-9.34,0v-8.24c-2.21,0-4-3.84-4-8.56s1.79-8.57,4-8.57v-8.56c2.21,0,4-3.83,4-8.56s-1.79-8.57-4-8.57v-8.24m-9.19,0V111c-2.21,0-4,3.84-4,8.57s1.8,8.56,4,8.56v8.56c2.21,0,4,3.84,4,8.57s-1.79,8.56-4,8.56V162m-9.35,0v-8.24c-2.21,0-4-3.84-4-8.56s1.79-8.57,4-8.57v-8.56c2.22,0,4-3.83,4-8.56s-1.79-8.57-4-8.57v-8.24m-9.19-.16v8.25c-2.21,0-4,3.83-4,8.56s1.79,8.56,4,8.56v8.56c2.21,0,4,3.84,4,8.57s-1.79,8.56-4,8.56v8.25m-9.34,0v-8.25c-2.21,0-4-3.83-4-8.56s1.79-8.57,4-8.57v-8.56c2.21,0,4-3.83,4-8.56s-1.79-8.56-4-8.56v-8.25m-9.19,0v8.25c-2.21,0-4,3.83-4,8.56s1.8,8.56,4,8.56v8.56c2.21,0,4,3.84,4,8.57s-1.79,8.56-4,8.56v8.25m-9.34,0v-8.25c-2.22,0-4-3.83-4-8.56s1.79-8.57,4-8.57v-8.56c2.21,0,4-3.83,4-8.56s-1.79-8.56-4-8.56v-8.25M32.83,153.61v8.25c-2.21,0-4,3.83-4,8.56s1.79,8.56,4,8.56v8.57c2.22,0,4,3.83,4,8.56s-1.79,8.56-4,8.56v8.25m-9.34,0v-8.25c-2.21,0-4-3.83-4-8.56s1.79-8.56,4-8.56V179c2.21,0,4-3.83,4-8.56s-1.8-8.56-4-8.56v-8.25m-9.19,0v8.25c-2.21,0-4,3.83-4,8.56s1.79,8.56,4,8.56v8.57c2.21,0,4,3.83,4,8.56s-1.79,8.56-4,8.56v8.25m-9.34,0v-8.25c-2.21,0-4-3.83-4-8.56s1.79-8.56,4-8.56V179c2.21,0,4-3.83,4-8.56s-1.79-8.56-4-8.56v-8.25M69.9,136.33v-8.25c-2.21,0-4-3.83-4-8.56s1.79-8.57,4-8.57v-8.56m0,51.38V162c-2.21,0-4,3.84-4,8.57s1.79,8.56,4,8.56v8.56c2.22,0,4,3.84,4,8.57s-1.79,8.56-4,8.56v8.25m-9.34,0v-8.25c-2.21,0-4-3.83-4-8.56s1.79-8.57,4-8.57v-8.56c2.21,0,4-3.83,4-8.56s-1.8-8.57-4-8.57v-8.24m-9.19,0V162c-2.21,0-4,3.84-4,8.57s1.79,8.56,4,8.56v8.56c2.21,0,4,3.84,4,8.57s-1.79,8.56-4,8.56v8.25m-9.34,0v-8.25c-2.21,0-4-3.83-4-8.56s1.8-8.57,4-8.57v-8.56c2.21,0,4-3.83,4-8.56S44.24,162,42,162v-8.24M69.9,102.71V111c-2.21,0-4,3.84-4,8.57s1.79,8.56,4,8.56v8.56c2.22,0,4,3.84,4,8.57s-1.79,8.56-4,8.56V162m-9.34,0v-8.24c-2.21,0-4-3.84-4-8.56s1.79-8.57,4-8.57v-8.56c2.21,0,4-3.83,4-8.56s-1.8-8.57-4-8.57v-8.24m-9.19,0V111c-2.21,0-4,3.84-4,8.57s1.79,8.56,4,8.56v8.56c2.21,0,4,3.84,4,8.57s-1.79,8.56-4,8.56V162M42,162v-8.24c-2.21,0-4-3.84-4-8.56s1.8-8.57,4-8.57v-8.56c2.21,0,4-3.83,4-8.56S44.24,111,42,111v-8.24m-9.2-.16v8.25c-2.21,0-4,3.83-4,8.56s1.79,8.56,4,8.56v8.56c2.22,0,4,3.84,4,8.57s-1.79,8.56-4,8.56v8.25m-9.34,0v-8.25c-2.21,0-4-3.83-4-8.56s1.79-8.57,4-8.57v-8.56c2.21,0,4-3.83,4-8.56s-1.8-8.56-4-8.56v-8.25m-9.19,0v8.25c-2.21,0-4,3.83-4,8.56s1.79,8.56,4,8.56v8.56c2.21,0,4,3.84,4,8.57s-1.79,8.56-4,8.56v8.25m-9.34,0v-8.25c-2.21,0-4-3.83-4-8.56s1.79-8.57,4-8.57v-8.56c2.21,0,4-3.83,4-8.56s-1.79-8.56-4-8.56v-8.25M182.59,52.12v8.25c-2.21,0-4,3.83-4,8.56s1.79,8.57,4,8.57v8.56c2.22,0,4,3.83,4,8.56s-1.79,8.57-4,8.57v8.24m-9.34,0v-8.24c-2.21,0-4-3.84-4-8.57s1.79-8.56,4-8.56V77.5c2.21,0,4-3.84,4-8.57s-1.8-8.56-4-8.56V52.12m-9.19,0v8.25c-2.21,0-4,3.83-4,8.56s1.79,8.57,4,8.57v8.56c2.21,0,4,3.83,4,8.56s-1.79,8.57-4,8.57v8.24m-9.34,0v-8.24c-2.21,0-4-3.84-4-8.57s1.79-8.56,4-8.56V77.5c2.21,0,4-3.84,4-8.57s-1.79-8.56-4-8.56V52.12m64.94-17.28V26.59c-2.21,0-4-3.83-4-8.56s1.79-8.56,4-8.56V.91m0,51.37v8.25c-2.21,0-4,3.83-4,8.56s1.79,8.56,4,8.56v8.57c2.21,0,4,3.83,4,8.56s-1.8,8.56-4,8.56v8.25m-9.34,0v-8.25c-2.21,0-4-3.83-4-8.56s1.79-8.56,4-8.56V77.65c2.21,0,4-3.83,4-8.56s-1.8-8.56-4-8.56V52.28m-9.19,0v8.25c-2.21,0-4,3.83-4,8.56s1.79,8.56,4,8.56v8.57c2.21,0,4,3.83,4,8.56s-1.79,8.56-4,8.56v8.25m-9.34,0v-8.25c-2.21,0-4-3.83-4-8.56s1.8-8.56,4-8.56V77.65c2.21,0,4-3.83,4-8.56s-1.79-8.56-4-8.56V52.28M219.66,1.22V9.47c-2.21,0-4,3.83-4,8.56s1.79,8.56,4,8.56v8.57c2.21,0,4,3.83,4,8.56s-1.8,8.56-4,8.56v8.25m-9.34,0V52.28c-2.21,0-4-3.83-4-8.56s1.79-8.56,4-8.56V26.59c2.21,0,4-3.83,4-8.56s-1.8-8.56-4-8.56V1.22m-9.19,0V9.47c-2.21,0-4,3.83-4,8.56s1.79,8.56,4,8.56v8.57c2.21,0,4,3.83,4,8.56s-1.79,8.56-4,8.56v8.25m-9.34,0V52.28c-2.21,0-4-3.83-4-8.56s1.8-8.56,4-8.56V26.59c2.21,0,4-3.83,4-8.56s-1.79-8.56-4-8.56V1.22"/><path class="cls-2" d="M133.82,249.08l6.58.39a97.58,97.58,0,0,1,2.12-13.54c.64-2.76,1.37-5.35,2.13-7.74A50.75,50.75,0,0,1,154.92,216a55,55,0,0,1,9.87-6.78c5.49-3,11.78-8.12,19.35-13.93,6.1-4.68,9.83-10.39,12.78-14.71a41.82,41.82,0,0,0,8.13-46.07,51.75,51.75,0,0,0-15.87-22.84,52.34,52.34,0,0,0-32.13-11.61,83.41,83.41,0,0,0-45.68,6.58A51.32,51.32,0,0,0,84.66,138a64,64,0,0,0-.78,6.59,37.83,37.83,0,0,0,0,8.12c.24,1.71.9,9.34,7,13.16,4.71,3,7.36,3.48,9.87,3.67a51.75,51.75,0,0,0,8.6-.34c7.66-1.23,12-10.68,12.5-14.95,1.07-9.12-10.5-23.2-7.74-30.58s7.35-12.19,16.06-12.58c19,1.16,27.68,12.2,30.39,34.65A82.78,82.78,0,0,1,152,188.31L138.08,215a60.13,60.13,0,0,0-2.14,7.36,58.59,58.59,0,0,0-1.34,11.22Z"/><ellipse class="cls-2" cx="137.69" cy="299.79" rx="24.77" ry="25.16"/></g></g></svg>